<svg id="amazon-web-services" xmlns="http://www.w3.org/2000/svg" width="85.905" height="32.257" viewBox="0 0 85.905 32.257">
  <path id="Контур_10955" data-name="Контур 10955" d="M37.8,18.156c-1.681,0-3.558.648-3.952,2.78a.3.3,0,0,0,.253.368l1.723.207c.16-.008.268-.182.3-.345a1.349,1.349,0,0,1,1.425-1.08,1.15,1.15,0,0,1,.988.46,2.374,2.374,0,0,1,.229,1.309v.253a12,12,0,0,0-3.331.621,3.085,3.085,0,0,0-1.884,2.964,2.54,2.54,0,0,0,2.642,2.826,3.46,3.46,0,0,0,2.918-1.309A4.335,4.335,0,0,0,40.119,28.4a.354.354,0,0,0,.413-.046v.023c.353-.322.995-.907,1.356-1.217a.349.349,0,0,0,0-.482A2.5,2.5,0,0,1,41.222,25V22.177c0-1.2.1-2.3-.758-3.125a3.955,3.955,0,0,0-2.667-.9Zm23.159,0c-1.682,0-3.558.648-3.952,2.78a.3.3,0,0,0,.253.368l1.723.207c.16-.008.268-.182.3-.345a1.35,1.35,0,0,1,1.425-1.08,1.149,1.149,0,0,1,.988.46,2.369,2.369,0,0,1,.207,1.309v.253a11.845,11.845,0,0,0-3.308.621,3.084,3.084,0,0,0-1.884,2.964,2.541,2.541,0,0,0,2.642,2.826,3.463,3.463,0,0,0,2.918-1.309A4.322,4.322,0,0,0,63.278,28.4a.354.354,0,0,0,.413-.046v.023c.353-.322.995-.907,1.356-1.217a.352.352,0,0,0,0-.482A2.5,2.5,0,0,1,64.381,25V22.177c0-1.2.077-2.3-.781-3.125a3.9,3.9,0,0,0-2.644-.9Zm-13.027.092a2.332,2.332,0,0,0-2.32,1.723h-.023V18.754a.347.347,0,0,0-.322-.322H43.61a.35.35,0,0,0-.345.345v9.3a.357.357,0,0,0,.322.322h1.769a.348.348,0,0,0,.345-.345v-4.94c0-1.077-.052-2.55,1.217-2.55,1.254,0,1.08,1.514,1.08,2.55v4.94a.351.351,0,0,0,.322.345h1.769a.348.348,0,0,0,.345-.345v-4.94A5.662,5.662,0,0,1,50.6,21.35a1.192,1.192,0,0,1,1.057-.781.921.921,0,0,1,1.034.8,12.3,12.3,0,0,1,.046,1.746v4.94a.351.351,0,0,0,.322.345h1.769a.348.348,0,0,0,.345-.345V22.178a5.062,5.062,0,0,0-.459-2.918,2.578,2.578,0,0,0-4.48.712,2.348,2.348,0,0,0-2.3-1.724Zm30.075,0c-2.556,0-3.974,2.248-3.974,5.146,0,2.879,1.4,5.192,3.974,5.192,2.474,0,4.044-2.26,4.044-5.1C82.048,20.55,80.626,18.248,78,18.248Zm10.085,0a2.419,2.419,0,0,0-2.412,1.884h-.023V18.707a.341.341,0,0,0-.322-.253H83.7a.34.34,0,0,0-.345.3v9.3a.353.353,0,0,0,.322.345h1.746a.35.35,0,0,0,.345-.345V23.049a4.3,4.3,0,0,1,.3-1.769,1.133,1.133,0,0,1,1.011-.735c1.219,0,1.1,1.486,1.1,2.5V28.1a.348.348,0,0,0,.322.3h1.769a.349.349,0,0,0,.345-.3V22.244a6.047,6.047,0,0,0-.459-2.9,2.317,2.317,0,0,0-2.068-1.1Zm-21.229.161a.326.326,0,0,0-.322.345v1.332a.326.326,0,0,0,.322.345h3.033l-3.469,5.124a1.691,1.691,0,0,0-.229.919v1.356c0,.2.212.408.413.3a6.53,6.53,0,0,1,6.135-.023c.217.118.437-.1.437-.3V26.381a.6.6,0,0,0-.322-.506,6.307,6.307,0,0,0-3.308-.735l3.01-4.411A1.868,1.868,0,0,0,73,19.9V18.754a.324.324,0,0,0-.322-.345ZM78,20.155a1.125,1.125,0,0,1,1.172.9,8.813,8.813,0,0,1,.253,2.459c0,1.194-.056,3.17-1.425,3.17-1.384,0-1.379-2.447-1.379-3.584S76.7,20.155,78,20.155Zm-39.265,3.4v.39a3.653,3.653,0,0,1-.322,1.93A1.427,1.427,0,0,1,37.2,26.7c-.676,0-1.08-.548-1.08-1.332C36.12,23.825,37.463,23.555,38.739,23.555Zm23.159,0v.39a3.653,3.653,0,0,1-.322,1.93,1.425,1.425,0,0,1-1.217.827c-.677,0-1.08-.548-1.08-1.332C59.279,23.825,60.62,23.555,61.9,23.555Z" transform="translate(-10.044 -6.324)" fill="#fff"/>
  <path id="Контур_10956" data-name="Контур 10956" d="M73.462,32.5v1.332h.9V32.5Zm-25.985.229v9.489H48.3v-.85a2.046,2.046,0,0,0,.621.758,1.417,1.417,0,0,0,.827.253,1.93,1.93,0,0,0,1.585-.942,4.625,4.625,0,0,0,.69-2.711,5.471,5.471,0,0,0-.3-1.93,2.658,2.658,0,0,0-.8-1.195,1.813,1.813,0,0,0-1.126-.413,1.47,1.47,0,0,0-.8.229,2.118,2.118,0,0,0-.621.712v-3.4h-.9Zm8.5,2.229a1.86,1.86,0,0,0-2,1.976,2,2,0,0,0,.207.9,1.628,1.628,0,0,0,.551.643,6.251,6.251,0,0,0,1.4.6,3.15,3.15,0,0,1,.9.39.751.751,0,0,1,.276.621,1.038,1.038,0,0,1-.322.781,1.229,1.229,0,0,1-.9.3,1.27,1.27,0,0,1-.942-.345,1.757,1.757,0,0,1-.413-1.08l-.9.184c.2,1.474.937,2.206,2.206,2.206a2.078,2.078,0,0,0,1.585-.6,2.242,2.242,0,0,0,.6-1.609A2.141,2.141,0,0,0,58.045,39a1.45,1.45,0,0,0-.506-.6,7.245,7.245,0,0,0-1.448-.6,4.433,4.433,0,0,1-.965-.413.722.722,0,0,1-.276-.6.811.811,0,0,1,.276-.643A1.309,1.309,0,0,1,56,35.9q1.028,0,1.148,1.126l.873-.138a2.819,2.819,0,0,0-.322-1.1,1.719,1.719,0,0,0-.69-.621,2.243,2.243,0,0,0-1.032-.207Zm5.491,0a2.147,2.147,0,0,0-1.792.919,4.461,4.461,0,0,0-.69,2.711,4.315,4.315,0,0,0,.69,2.642,2.167,2.167,0,0,0,1.815.9,2.1,2.1,0,0,0,1.493-.551,3.032,3.032,0,0,0,.85-1.654l-.919-.161c-.264.939-.751,1.4-1.425,1.4a1.3,1.3,0,0,1-1.08-.574,3.1,3.1,0,0,1-.506-1.746h3.952V38.52a4.328,4.328,0,0,0-.69-2.642,2.041,2.041,0,0,0-1.7-.919Zm5.445,0a.82.82,0,0,0-.574.229,2.966,2.966,0,0,0-.574.965V35.1h-.8v6.87h.9V38.382a5.754,5.754,0,0,1,.161-1.425,1.178,1.178,0,0,1,.345-.6.772.772,0,0,1,.529-.207,1.068,1.068,0,0,1,.643.253l.3-1.08a1.473,1.473,0,0,0-.92-.368Zm10.982,0a2.1,2.1,0,0,0-1.746.9,4.432,4.432,0,0,0-.69,2.688,4.486,4.486,0,0,0,.69,2.688,2.017,2.017,0,0,0,1.7.9,1.952,1.952,0,0,0,1.47-.643,3.256,3.256,0,0,0,.758-1.884l-.873-.138a2.32,2.32,0,0,1-.46,1.287,1.115,1.115,0,0,1-.873.413,1.254,1.254,0,0,1-1.08-.621,3.759,3.759,0,0,1-.413-2.022,3.5,3.5,0,0,1,.437-1.976,1.324,1.324,0,0,1,1.1-.643.99.99,0,0,1,.758.345,2.123,2.123,0,0,1,.437,1.057l.873-.184a2.745,2.745,0,0,0-.712-1.631A1.887,1.887,0,0,0,77.9,34.959Zm5.124,0a2.147,2.147,0,0,0-1.792.919,4.461,4.461,0,0,0-.69,2.711,4.315,4.315,0,0,0,.69,2.642,2.168,2.168,0,0,0,1.815.9,2.108,2.108,0,0,0,1.493-.551,3.042,3.042,0,0,0,.85-1.654l-.919-.161c-.264.939-.729,1.4-1.4,1.4a1.34,1.34,0,0,1-1.1-.574,3.1,3.1,0,0,1-.506-1.746h3.952V38.52a4.328,4.328,0,0,0-.69-2.642A2.039,2.039,0,0,0,83.019,34.959Zm5.307,0a1.86,1.86,0,0,0-2,1.976,1.989,1.989,0,0,0,.184.9,1.616,1.616,0,0,0,.551.643,6.235,6.235,0,0,0,1.4.6,3.431,3.431,0,0,1,.919.39.751.751,0,0,1,.276.621,1.038,1.038,0,0,1-.322.781,1.228,1.228,0,0,1-.9.3,1.268,1.268,0,0,1-.942-.345,1.759,1.759,0,0,1-.437-1.08l-.9.184c.2,1.474.936,2.206,2.206,2.206a2.133,2.133,0,0,0,1.609-.6,2.239,2.239,0,0,0,.6-1.609A2.141,2.141,0,0,0,90.394,39a1.5,1.5,0,0,0-.529-.6,6.833,6.833,0,0,0-1.425-.6,4.9,4.9,0,0,1-.988-.413.722.722,0,0,1-.276-.6.83.83,0,0,1,.3-.643,1.312,1.312,0,0,1,.873-.253q1.028,0,1.148,1.126l.873-.138a2.819,2.819,0,0,0-.322-1.1,1.719,1.719,0,0,0-.69-.621,2.236,2.236,0,0,0-1.031-.207ZM67.833,35.1l2,6.87h.85l2-6.87h-.919L70.59,39.3c-.142.508-.267.947-.345,1.309-.1-.457-.191-.936-.322-1.4L68.775,35.1Zm5.629,0v6.87h.9V35.1Zm-29.454.092a2.094,2.094,0,0,0-1.746.942,4.486,4.486,0,0,0-.712,2.711,4.262,4.262,0,0,0,.69,2.619,2.193,2.193,0,0,0,1.815.919,2.072,2.072,0,0,0,1.47-.574,3.045,3.045,0,0,0,.827-1.654l-.9-.138c-.261.939-.735,1.4-1.4,1.4a1.3,1.3,0,0,1-1.08-.574,3.118,3.118,0,0,1-.506-1.746h3.905l.023-.322a4.434,4.434,0,0,0-.69-2.665,2.047,2.047,0,0,0-1.7-.918Zm-10.086.161,1.609,6.87h.942l1.057-5.285.184,1.172.85,4.113h.919l1.631-6.87h-.85l-.9,3.974-.3,1.332-.276-1.332-.781-3.974h-.919l-.827,4.021-.276,1.425-.322-1.47-.827-3.975h-.92Zm57.185.069v.322h.873v2.3h.345v-2.3H93.2v-.322H91.107Zm2.436,0v2.619h.322V35.808l.758,2.228h.322l.758-2.183v2.183h.345V35.418h-.482l-.621,1.838c-.062.184-.107.317-.138.413l-.138-.39-.621-1.861h-.505Zm-32.1.482a1.294,1.294,0,0,1,1.1.643,2.733,2.733,0,0,1,.368,1.332H59.953a2.4,2.4,0,0,1,.482-1.425A1.264,1.264,0,0,1,61.446,35.9ZM83,35.9a1.3,1.3,0,0,1,1.1.643,2.733,2.733,0,0,1,.368,1.332H81.5a2.4,2.4,0,0,1,.482-1.425A1.266,1.266,0,0,1,83,35.9Zm-38.988.253a1.259,1.259,0,0,1,1.08.643,2.757,2.757,0,0,1,.368,1.332H42.538A2.471,2.471,0,0,1,43,36.681,1.24,1.24,0,0,1,44.008,36.153Zm5.7,0a1.2,1.2,0,0,1,1.011.643,3.725,3.725,0,0,1,.39,1.976,3.7,3.7,0,0,1-.413,1.976,1.211,1.211,0,0,1-.988.666,1.115,1.115,0,0,1-.735-.276,1.745,1.745,0,0,1-.506-.8,5.321,5.321,0,0,1-.184-1.609,3.483,3.483,0,0,1,.437-1.907,1.216,1.216,0,0,1,.988-.666Z" transform="translate(-10.143 -10.122)" fill="#fff"/>
  <path id="Контур_10957" data-name="Контур 10957" d="M12.48,20.81,9.056,22.28l3.17,1.356L15.9,22.28ZM7.333,22.648l-.115,6.617,5.008,2.206V24.6L7.333,22.648Zm10.293,0L13.1,24.371V30.85l4.526-1.838V22.648Zm5.4-20.586-3.447,1.47,3.194,1.356,3.676-1.356-3.423-1.47ZM18.246,4.015v6.617l4.273,1.241.138-6.02Zm9.558.368L23.76,6.106v6.5L27.8,10.77ZM6.839,11.375l-3.423,1.47L6.586,14.2l3.676-1.356ZM1.693,13.213,1.578,19.83l5.008,2.206v-6.87Zm10.293,0L7.46,14.936v6.479l4.526-1.838Zm5.882-2.082L14.444,12.6l3.17,1.356L21.29,12.6l-3.423-1.47Zm-5.146,1.838-.115,6.617,5.008,2.206V14.922Zm10.293,0-4.526,1.723v6.479l4.526-1.838ZM33.8,2.062l-3.423,1.47,3.17,1.356L37.22,3.532,33.8,2.062ZM28.65,3.9l-.115,6.617,5.008,2.206V5.853L28.65,3.9Zm10.293,0L34.417,5.623V12.1l4.526-1.838V3.9Z" transform="translate(-1.578 -2.062)" fill="#fff"/>
</svg>
