<svg xmlns="http://www.w3.org/2000/svg" width="35.669" height="41.737" viewBox="0 0 35.669 41.737">
  <g id="android" transform="translate(0 2.049)">
    <path id="Контур_10940" data-name="Контур 10940" d="M90.139,207.092a2.494,2.494,0,0,1,2.494,2.494v10.7a2.494,2.494,0,0,1-4.987,0v-10.7a2.494,2.494,0,0,1,2.494-2.494Z" transform="translate(-77.93 -183.089)" fill="#fff"/>
    <path id="Контур_10941" data-name="Контур 10941" d="M69.3,133.645c-.008.095-.015.19-.015.287V150.14a3.114,3.114,0,0,0,3.092,3.147H88.861a3.114,3.114,0,0,0,3.093-3.147V133.932c0-.1,0-.193-.012-.287Z" transform="translate(-62.786 -122.503)" fill="#fff"/>
    <path id="Контур_10942" data-name="Контур 10942" d="M55.624,96.276a2.494,2.494,0,0,1,2.494,2.494v10.7a2.494,2.494,0,0,1-4.987,0V98.77a2.494,2.494,0,0,1,2.494-2.493ZM34.658,84.858a2.494,2.494,0,0,1,2.494,2.494v10.7a2.494,2.494,0,0,1-4.987,0v-10.7A2.494,2.494,0,0,1,34.658,84.858Zm30.681,0a2.494,2.494,0,0,1,2.494,2.494v10.7a2.494,2.494,0,0,1-4.987,0v-10.7A2.494,2.494,0,0,1,65.339,84.858ZM38.753,82.351c.069-4.978,4.415-9.06,9.992-9.6h2.506c5.578.538,9.923,4.62,9.992,9.6Z" transform="translate(-32.164 -72.273)" fill="#fff"/>
    <path id="Контур_10943" data-name="Контур 10943" d="M74.743,70.009l2.631,4.556M95.5,70.009l-2.631,4.556" transform="translate(-67.287 -70.009)" fill="none" stroke="#fff" stroke-linecap="round" stroke-linejoin="round" stroke-width="3"/>
    <path id="Контур_10944" data-name="Контур 10944" d="M102.723,96.135a1.291,1.291,0,0,1-2.58.007v-.007a1.291,1.291,0,0,1,2.58-.007Zm9.63,0a1.291,1.291,0,0,1-2.58.007v-.007a1.291,1.291,0,0,1,2.58-.007Z" transform="translate(-88.239 -90.517)" fill="#fff"/>
  </g>
</svg>
