<svg xmlns="http://www.w3.org/2000/svg" width="32.479" height="39.887" viewBox="0 0 32.479 39.887">
  <g id="apple-seeklogo.com" transform="translate(0)">
    <path id="Контур_10939" data-name="Контур 10939" d="M27.126,21.19a8.816,8.816,0,0,0,5.354,8.07,21.827,21.827,0,0,1-2.76,5.673c-1.663,2.43-3.388,4.851-6.106,4.9-2.671.049-3.53-1.584-6.583-1.584s-4.007,1.534-6.535,1.633c-2.624.1-4.622-2.628-6.3-5.048-3.425-4.952-6.043-13.993-2.528-20.1a9.765,9.765,0,0,1,8.254-5c2.576-.049,5.008,1.733,6.583,1.733s4.529-2.143,7.636-1.829a9.318,9.318,0,0,1,7.3,3.956,9.02,9.02,0,0,0-4.311,7.589M22.106,6.368A8.785,8.785,0,0,0,24.181,0,8.942,8.942,0,0,0,18.3,3.023a8.348,8.348,0,0,0-2.116,6.17,7.4,7.4,0,0,0,5.917-2.824" transform="translate(0)" fill="#fff"/>
  </g>
</svg>
