<svg xmlns="http://www.w3.org/2000/svg" width="91.886" height="91.871" viewBox="0 0 91.886 91.871">
  <g id="Сгруппировать_13390" data-name="Сгруппировать 13390" transform="translate(-1205.115 -495)">
    <g id="Group_13144" data-name="Group 13144" transform="translate(1205.115 495)">
      <g id="Сгруппировать_13387" data-name="Сгруппировать 13387">
        <circle id="Эллипс_836" data-name="Эллипс 836" cx="38.09" cy="38.09" r="38.09" transform="translate(7.707 8)" fill="none"/>
        <g id="Сгруппировать_13389" data-name="Сгруппировать 13389">
          <g id="Group_13145" data-name="Group 13145" transform="translate(7.706 8)">
            <path id="Path_10389" data-name="Path 10389" d="M-85.52,168.464a38.091,38.091,0,0,0,38.08-38.1,38.09,38.09,0,0,0-38.1-38.08,38.089,38.089,0,0,0-38.08,38.1A38.129,38.129,0,0,0-85.52,168.464Zm0-75.493A37.4,37.4,0,0,1-48.1,130.349a37.4,37.4,0,0,1-37.378,37.422A37.4,37.4,0,0,1-122.9,130.393v-.014A37.445,37.445,0,0,1-85.52,92.971Z" transform="translate(123.62 -92.284)" fill="#fff"/>
          </g>
          <g id="Group_13146" data-name="Group 13146" transform="translate(45.596)">
            <rect id="Rectangle_17610" data-name="Rectangle 17610" width="0.71" height="8.191" transform="translate(0)" fill="#fff"/>
          </g>
          <g id="Group_13147" data-name="Group 13147" transform="translate(45.59 83.681)">
            <rect id="Rectangle_17611" data-name="Rectangle 17611" width="0.705" height="8.19" transform="translate(0)" fill="#fff"/>
          </g>
          <g id="Group_13148" data-name="Group 13148" transform="translate(0 45.58)">
            <rect id="Rectangle_17612" data-name="Rectangle 17612" width="8.205" height="0.701" transform="translate(0)" fill="#fff"/>
          </g>
          <g id="Group_13150" data-name="Group 13150" transform="translate(83.681 45.58)">
            <rect id="Rectangle_17613" data-name="Rectangle 17613" width="8.205" height="0.701" transform="translate(0)" fill="#fff"/>
          </g>
        </g>
      </g>
    </g>
    <g id="Сгруппировать_13388" data-name="Сгруппировать 13388" transform="translate(1217.184 507.054)">
      <g id="Сгруппировать_13154" data-name="Сгруппировать 13154" transform="translate(35.142 0.049)" opacity="0.25">
        <g id="Group_13045" data-name="Group 13045">
          <path id="Path_10309" data-name="Path 10309" d="M-87.223,103.173l.41-6.581-.9-.05-.409,6.582Z" transform="translate(88.122 -96.542)" fill="#fff"/>
        </g>
        <g id="Group_13046" data-name="Group 13046" transform="translate(1.714 0.187)">
          <path id="Path_10310" data-name="Path 10310" d="M-89.357,103.351l.83-6.513-.879-.109-.829,6.524Z" transform="translate(90.235 -96.729)" fill="#fff"/>
        </g>
        <g id="Group_13047" data-name="Group 13047" transform="translate(3.416 0.484)">
          <path id="Path_10311" data-name="Path 10311" d="M-91.458,103.668l1.229-6.483-.864-.159-1.233,6.474Z" transform="translate(92.326 -97.026)" fill="#fff"/>
        </g>
        <g id="Group_13048" data-name="Group 13048" transform="translate(5.093 0.932)">
          <path id="Path_10312" data-name="Path 10312" d="M-93.535,104.081l1.629-6.4-.864-.207-1.628,6.374Z" transform="translate(94.398 -97.474)" fill="#fff"/>
        </g>
        <g id="Group_13049" data-name="Group 13049" transform="translate(6.742 1.481)">
          <path id="Path_10313" data-name="Path 10313" d="M-95.6,104.585l2.047-6.276-.849-.286-2.037,6.266Z" transform="translate(96.441 -98.023)" fill="#fff"/>
        </g>
        <g id="Group_13050" data-name="Group 13050" transform="translate(8.374 2.171)">
          <path id="Path_10314" data-name="Path 10314" d="M-97.615,105.177l2.428-6.118-.829-.346-2.418,6.119Z" transform="translate(98.434 -98.713)" fill="#fff"/>
        </g>
        <g id="Group_13051" data-name="Group 13051" transform="translate(9.957 3.009)">
          <path id="Path_10315" data-name="Path 10315" d="M-99.57,105.867l2.8-5.931-.8-.385-2.8,5.961Z" transform="translate(100.37 -99.551)" fill="#fff"/>
        </g>
        <g id="Group_13052" data-name="Group 13052" transform="translate(11.488 3.948)">
          <path id="Path_10316" data-name="Path 10316" d="M-101.474,106.677l3.173-5.753-.779-.434-3.178,5.773Z" transform="translate(102.258 -100.49)" fill="#fff"/>
        </g>
        <g id="Group_13053" data-name="Group 13053" transform="translate(12.979 4.983)">
          <path id="Path_10317" data-name="Path 10317" d="M-103.32,107.584l3.528-5.566-.74-.493-3.538,5.575Z" transform="translate(104.07 -101.525)" fill="#fff"/>
        </g>
        <g id="Group_13054" data-name="Group 13054" transform="translate(14.409 6.169)">
          <path id="Path_10318" data-name="Path 10318" d="M-105.1,108.572l3.873-5.328-.715-.533-3.882,5.329Z" transform="translate(105.819 -102.711)" fill="#fff"/>
        </g>
        <g id="Group_13055" data-name="Group 13055" transform="translate(15.783 7.45)">
          <rect id="Rectangle_17591" data-name="Rectangle 17591" width="0.885" height="6.594" transform="translate(0.682 5.647) rotate(-140.436)" fill="#fff"/>
        </g>
        <g id="Group_13056" data-name="Group 13056" transform="translate(17.088 8.828)">
          <path id="Path_10319" data-name="Path 10319" d="M-108.4,110.8l4.5-4.8-.647-.631-4.51,4.826Z" transform="translate(109.058 -105.37)" fill="#fff"/>
        </g>
        <g id="Group_13057" data-name="Group 13057" transform="translate(18.317 10.333)">
          <path id="Path_10320" data-name="Path 10320" d="M-109.941,112.036l4.811-4.52-.616-.641-4.811,4.509Z" transform="translate(110.557 -106.875)" fill="#fff"/>
        </g>
        <g id="Group_13058" data-name="Group 13058" transform="translate(19.472 11.892)">
          <path id="Path_10321" data-name="Path 10321" d="M-111.367,113.318l5.082-4.194-.567-.69-5.083,4.213Z" transform="translate(111.935 -108.434)" fill="#fff"/>
        </g>
        <g id="Group_13059" data-name="Group 13059" transform="translate(20.553 13.568)">
          <path id="Path_10322" data-name="Path 10322" d="M-112.695,114.7l5.329-3.859-.518-.73-5.328,3.868Z" transform="translate(113.212 -110.11)" fill="#fff"/>
        </g>
        <g id="Group_13060" data-name="Group 13060" transform="translate(21.539 15.315)">
          <path id="Path_10323" data-name="Path 10323" d="M-113.908,116.13l5.556-3.513-.474-.76-5.561,3.533Z" transform="translate(114.387 -111.857)" fill="#fff"/>
        </g>
        <g id="Group_13061" data-name="Group 13061" transform="translate(22.437 17.121)">
          <path id="Path_10324" data-name="Path 10324" d="M-115.028,117.611l5.778-3.158-.424-.79-5.773,3.178Z" transform="translate(115.447 -113.663)" fill="#fff"/>
        </g>
        <g id="Group_13062" data-name="Group 13062" transform="translate(23.231 19.016)">
          <path id="Path_10325" data-name="Path 10325" d="M-115.99,119.16l5.946-2.783-.371-.819-5.965,2.793Z" transform="translate(116.38 -115.558)" fill="#fff"/>
        </g>
        <g id="Group_13063" data-name="Group 13063" transform="translate(23.941 20.971)">
          <path id="Path_10326" data-name="Path 10326" d="M-116.873,120.759l6.119-2.437-.33-.809-6.124,2.417Z" transform="translate(117.208 -117.513)" fill="#fff"/>
        </g>
        <g id="Group_13064" data-name="Group 13064" transform="translate(24.558 22.935)">
          <rect id="Rectangle_17592" data-name="Rectangle 17592" width="0.891" height="6.588" transform="matrix(-0.31, -0.951, 0.951, -0.31, 0.276, 2.889)" fill="#fff"/>
        </g>
        <g id="Group_13065" data-name="Group 13065" transform="translate(25.05 24.976)">
          <rect id="Rectangle_17593" data-name="Rectangle 17593" width="0.906" height="6.586" transform="translate(0.224 2.505) rotate(-104.3)" fill="#fff"/>
        </g>
        <g id="Group_13066" data-name="Group 13066" transform="translate(25.461 27.062)">
          <path id="Path_10327" data-name="Path 10327" d="M-118.738,125.7l6.464-1.229-.154-.869-6.473,1.234Z" transform="translate(118.901 -123.604)" fill="#fff"/>
        </g>
        <g id="Group_13067" data-name="Group 13067" transform="translate(25.747 29.159)">
          <path id="Path_10328" data-name="Path 10328" d="M-119.1,127.4l6.537-.81-.118-.888-6.538.829Z" transform="translate(119.216 -125.701)" fill="#fff"/>
        </g>
        <g id="Group_13068" data-name="Group 13068" transform="translate(25.94 31.278)">
          <rect id="Rectangle_17594" data-name="Rectangle 17594" width="0.895" height="6.592" transform="matrix(-0.06, -0.998, 0.998, -0.06, 0.053, 1.287)" fill="#fff"/>
        </g>
        <g id="Group_13069" data-name="Group 13069" transform="translate(26.019 33.404)">
          <rect id="Rectangle_17595" data-name="Rectangle 17595" width="6.586" height="0.887" transform="translate(0)" fill="#fff"/>
        </g>
      </g>
      <g id="Сгруппировать_13155" data-name="Сгруппировать 13155" transform="translate(35.154 35.15)" opacity="0.75">
        <g id="Group_13070" data-name="Group 13070" transform="translate(25.929)">
          <path id="Path_10329" data-name="Path 10329" d="M-112.813,132.955l.059-.888-6.582-.424-.054.888Z" transform="translate(119.39 -131.643)" fill="#fff"/>
        </g>
        <g id="Group_13071" data-name="Group 13071" transform="translate(25.735 1.706)">
          <path id="Path_10330" data-name="Path 10330" d="M-112.678,135.076l.118-.888-6.537-.839-.119.888Z" transform="translate(119.216 -133.349)" fill="#fff"/>
        </g>
        <g id="Group_13072" data-name="Group 13072" transform="translate(25.447 3.424)">
          <path id="Path_10331" data-name="Path 10331" d="M-112.435,137.168l.163-.868-6.475-1.233-.163.849Z" transform="translate(118.91 -135.067)" fill="#fff"/>
        </g>
        <g id="Group_13073" data-name="Group 13073" transform="translate(25.045 5.097)">
          <path id="Path_10332" data-name="Path 10332" d="M-112.092,139.217l.222-.839-6.385-1.638-.221.849Z" transform="translate(118.476 -136.74)" fill="#fff"/>
        </g>
        <g id="Group_13074" data-name="Group 13074" transform="translate(24.545 6.738)">
          <rect id="Rectangle_17596" data-name="Rectangle 17596" width="6.583" height="0.902" transform="translate(6.257 2.905) rotate(-161.873)" fill="#fff"/>
        </g>
        <g id="Group_13075" data-name="Group 13075" transform="translate(23.931 8.37)">
          <rect id="Rectangle_17597" data-name="Rectangle 17597" width="6.581" height="0.902" transform="translate(6.123 3.251) rotate(-158.497)" fill="#fff"/>
        </g>
        <g id="Group_13076" data-name="Group 13076" transform="translate(23.239 9.947)">
          <path id="Path_10333" data-name="Path 10333" d="M-110.435,145.191l.371-.789-5.946-2.812-.37.829Z" transform="translate(116.38 -141.59)" fill="#fff"/>
        </g>
        <g id="Group_13077" data-name="Group 13077" transform="translate(22.425 11.516)">
          <path id="Path_10334" data-name="Path 10334" d="M-109.674,147.086l.424-.769-5.773-3.158-.424.769Z" transform="translate(115.447 -143.159)" fill="#fff"/>
        </g>
        <g id="Group_13078" data-name="Group 13078" transform="translate(21.536 12.975)">
          <path id="Path_10335" data-name="Path 10335" d="M-108.835,148.892l.474-.741-5.556-3.533-.469.77Z" transform="translate(114.386 -144.618)" fill="#fff"/>
        </g>
        <g id="Group_13079" data-name="Group 13079" transform="translate(20.55 14.426)">
          <path id="Path_10336" data-name="Path 10336" d="M-107.893,150.658l.518-.731-5.329-3.858-.518.7Z" transform="translate(113.222 -146.069)" fill="#fff"/>
        </g>
        <g id="Group_13080" data-name="Group 13080" transform="translate(19.468 15.789)">
          <path id="Path_10337" data-name="Path 10337" d="M-106.86,152.316l.567-.69-5.077-4.194-.568.671Z" transform="translate(111.938 -147.432)" fill="#fff"/>
        </g>
        <g id="Group_13081" data-name="Group 13081" transform="translate(18.31 17.101)">
          <path id="Path_10338" data-name="Path 10338" d="M-105.751,153.9l.616-.662-4.811-4.49-.611.642Z" transform="translate(110.557 -148.744)" fill="#fff"/>
        </g>
        <g id="Group_13082" data-name="Group 13082" transform="translate(17.082 18.327)">
          <rect id="Rectangle_17598" data-name="Rectangle 17598" width="6.583" height="0.89" transform="matrix(-0.685, -0.728, 0.728, -0.685, 4.511, 5.404)" fill="#fff"/>
        </g>
        <g id="Group_13083" data-name="Group 13083" transform="translate(15.768 19.47)">
          <path id="Path_10339" data-name="Path 10339" d="M-103.284,156.777l.691-.582-4.214-5.082-.691.592Z" transform="translate(107.498 -151.113)" fill="#fff"/>
        </g>
        <g id="Group_13084" data-name="Group 13084" transform="translate(14.406 20.555)">
          <path id="Path_10340" data-name="Path 10340" d="M-101.946,158.06l.715-.534L-105.1,152.2l-.715.532Z" transform="translate(105.819 -152.198)" fill="#fff"/>
        </g>
        <g id="Group_13085" data-name="Group 13085" transform="translate(12.975 21.541)">
          <path id="Path_10341" data-name="Path 10341" d="M-100.555,159.2l.755-.455-3.538-5.565-.746.483Z" transform="translate(104.084 -153.184)" fill="#fff"/>
        </g>
        <g id="Group_13086" data-name="Group 13086" transform="translate(11.476 22.43)">
          <path id="Path_10342" data-name="Path 10342" d="M-99.09,160.29l.789-.445-3.183-5.772-.784.444Z" transform="translate(102.268 -154.073)" fill="#fff"/>
        </g>
        <g id="Group_13087" data-name="Group 13087" transform="translate(9.94 23.234)">
          <path id="Path_10343" data-name="Path 10343" d="M-97.565,161.228l.8-.4-2.8-5.951-.814.375Z" transform="translate(100.379 -154.877)" fill="#fff"/>
        </g>
        <g id="Group_13088" data-name="Group 13088" transform="translate(8.362 23.96)">
          <path id="Path_10344" data-name="Path 10344" d="M-96.026,162.056l.839-.335-2.438-6.118-.819.316Z" transform="translate(98.444 -155.603)" fill="#fff"/>
        </g>
        <g id="Group_13089" data-name="Group 13089" transform="translate(6.732 24.551)">
          <path id="Path_10345" data-name="Path 10345" d="M-94.406,162.747l.849-.287-2.042-6.266-.844.286Z" transform="translate(96.443 -156.194)" fill="#fff"/>
        </g>
        <g id="Group_13090" data-name="Group 13090" transform="translate(5.082 25.065)">
          <path id="Path_10346" data-name="Path 10346" d="M-92.77,163.3l.863-.207-1.643-6.384-.863.227Z" transform="translate(94.413 -156.708)" fill="#fff"/>
        </g>
        <g id="Group_13091" data-name="Group 13091" transform="translate(3.404 25.46)">
          <path id="Path_10347" data-name="Path 10347" d="M-91.1,163.744l.869-.178-1.234-6.463-.868.177Z" transform="translate(92.331 -157.103)" fill="#fff"/>
        </g>
        <g id="Group_13092" data-name="Group 13092" transform="translate(1.701 25.755)">
          <path id="Path_10348" data-name="Path 10348" d="M-89.4,164.04l.878-.1-.829-6.542-.888.127Z" transform="translate(90.243 -157.398)" fill="#fff"/>
        </g>
        <g id="Group_13093" data-name="Group 13093" transform="translate(0 25.935)">
          <path id="Path_10349" data-name="Path 10349" d="M-87.713,164.227l.888-.049-.41-6.6-.887.07Z" transform="translate(88.122 -157.578)" fill="#fff"/>
        </g>
      </g>
      <g id="Сгруппировать_13156" data-name="Сгруппировать 13156" transform="translate(0.04 35.17)" opacity="0.5">
        <g id="Group_13094" data-name="Group 13094" transform="translate(33.396 26.012)">
          <rect id="Rectangle_17599" data-name="Rectangle 17599" width="0.893" height="6.582" transform="translate(0)" fill="#fff"/>
        </g>
        <g id="Group_13095" data-name="Group 13095" transform="translate(31.266 25.913)">
          <path id="Path_10350" data-name="Path 10350" d="M-83.391,164.227l.414-6.581-.888-.07-.419,6.6Z" transform="translate(84.284 -157.576)" fill="#fff"/>
        </g>
        <g id="Group_13096" data-name="Group 13096" transform="translate(29.148 25.738)">
          <path id="Path_10351" data-name="Path 10351" d="M-81.7,164.04l.839-6.512-.888-.127-.834,6.542Z" transform="translate(82.581 -157.401)" fill="#fff"/>
        </g>
        <g id="Group_13097" data-name="Group 13097" transform="translate(27.062 25.44)">
          <path id="Path_10352" data-name="Path 10352" d="M-80.007,163.744l1.234-6.464-.883-.177-1.224,6.463Z" transform="translate(80.88 -157.103)" fill="#fff"/>
        </g>
        <g id="Group_13098" data-name="Group 13098" transform="translate(24.982 25.045)">
          <path id="Path_10353" data-name="Path 10353" d="M-78.341,163.3l1.648-6.364-.864-.227-1.648,6.384Z" transform="translate(79.205 -156.708)" fill="#fff"/>
        </g>
        <g id="Group_13099" data-name="Group 13099" transform="translate(22.951 24.531)">
          <path id="Path_10354" data-name="Path 10354" d="M-76.705,162.747l2.043-6.267-.859-.286-2.028,6.266Z" transform="translate(77.549 -156.194)" fill="#fff"/>
        </g>
        <g id="Group_13100" data-name="Group 13100" transform="translate(20.952 23.939)">
          <path id="Path_10355" data-name="Path 10355" d="M-75.091,162.056l2.428-6.138-.835-.316-2.422,6.118Z" transform="translate(75.92 -155.602)" fill="#fff"/>
        </g>
        <g id="Group_13101" data-name="Group 13101" transform="translate(19.009 23.222)">
          <path id="Path_10356" data-name="Path 10356" d="M-73.532,161.228l2.812-5.968-.814-.375-2.807,5.951Z" transform="translate(74.341 -154.885)" fill="#fff"/>
        </g>
        <g id="Group_13102" data-name="Group 13102" transform="translate(17.129 22.41)">
          <path id="Path_10357" data-name="Path 10357" d="M-72.013,160.29l3.173-5.773-.77-.444-3.182,5.772Z" transform="translate(72.792 -154.073)" fill="#fff"/>
        </g>
        <g id="Group_13103" data-name="Group 13103" transform="translate(15.308 21.521)">
          <path id="Path_10358" data-name="Path 10358" d="M-70.547,159.223l3.528-5.556-.75-.483-3.538,5.565Z" transform="translate(71.307 -153.184)" fill="#fff"/>
        </g>
        <g id="Group_13104" data-name="Group 13104" transform="translate(13.557 20.535)">
          <path id="Path_10359" data-name="Path 10359" d="M-69.141,158.07l3.873-5.34-.726-.532-3.882,5.328Z" transform="translate(69.876 -152.198)" fill="#fff"/>
        </g>
        <g id="Group_13105" data-name="Group 13105" transform="translate(11.901 19.45)">
          <path id="Path_10360" data-name="Path 10360" d="M-67.812,156.777l4.2-5.072-.681-.592L-68.5,156.2Z" transform="translate(68.502 -151.113)" fill="#fff"/>
        </g>
        <g id="Group_13106" data-name="Group 13106" transform="translate(10.319 18.315)">
          <path id="Path_10361" data-name="Path 10361" d="M-66.53,155.4l4.5-4.825-.647-.592-4.51,4.786Z" transform="translate(67.187 -149.978)" fill="#fff"/>
        </g>
        <g id="Group_13107" data-name="Group 13107" transform="translate(8.837 17.081)">
          <path id="Path_10362" data-name="Path 10362" d="M-65.339,153.915l4.791-4.529-.6-.642-4.81,4.51Z" transform="translate(65.958 -148.744)" fill="#fff"/>
        </g>
        <g id="Group_13108" data-name="Group 13108" transform="translate(7.457 15.768)">
          <path id="Path_10363" data-name="Path 10363" d="M-64.24,152.336l5.072-4.234-.567-.671-5.073,4.215Z" transform="translate(64.808 -147.431)" fill="#fff"/>
        </g>
        <g id="Group_13109" data-name="Group 13109" transform="translate(6.175 14.404)">
          <path id="Path_10364" data-name="Path 10364" d="M-63.214,150.667l5.328-3.9-.518-.7-5.328,3.858Z" transform="translate(63.732 -146.067)" fill="#fff"/>
        </g>
        <g id="Group_13110" data-name="Group 13110" transform="translate(4.991 12.955)">
          <path id="Path_10365" data-name="Path 10365" d="M-62.262,148.931l5.56-3.543-.468-.77-5.576,3.533Z" transform="translate(62.746 -144.618)" fill="#fff"/>
        </g>
        <g id="Group_13111" data-name="Group 13111" transform="translate(3.93 11.496)">
          <path id="Path_10366" data-name="Path 10366" d="M-61.424,147.106l5.783-3.178-.44-.769-5.778,3.168Z" transform="translate(61.859 -143.159)" fill="#fff"/>
        </g>
        <g id="Group_13112" data-name="Group 13112" transform="translate(2.993 9.927)">
          <path id="Path_10367" data-name="Path 10367" d="M-60.669,145.212l5.965-2.793-.37-.829-5.971,2.812Z" transform="translate(61.045 -141.59)" fill="#fff"/>
        </g>
        <g id="Group_13113" data-name="Group 13113" transform="translate(2.176 8.359)">
          <rect id="Rectangle_17600" data-name="Rectangle 17600" width="0.892" height="6.587" transform="matrix(-0.367, -0.93, 0.93, -0.367, 0.327, 3.246)" fill="#fff"/>
        </g>
        <g id="Group_13114" data-name="Group 13114" transform="translate(1.488 6.72)">
          <path id="Path_10368" data-name="Path 10368" d="M-59.465,141.284l6.266-2.042-.272-.859-6.266,2.043Z" transform="translate(59.737 -138.383)" fill="#fff"/>
        </g>
        <g id="Group_13115" data-name="Group 13115" transform="translate(0.915 5.078)">
          <rect id="Rectangle_17601" data-name="Rectangle 17601" width="0.882" height="6.585" transform="translate(0.22 2.501) rotate(-104.481)" fill="#fff"/>
        </g>
        <g id="Group_13116" data-name="Group 13116" transform="translate(0.481 3.413)">
          <rect id="Rectangle_17602" data-name="Rectangle 17602" width="0.875" height="6.59" transform="translate(0.164 2.094) rotate(-100.8)" fill="#fff"/>
        </g>
        <g id="Group_13117" data-name="Group 13117" transform="translate(0.17 1.698)">
          <rect id="Rectangle_17603" data-name="Rectangle 17603" width="0.885" height="6.59" transform="matrix(-0.127, -0.992, 0.992, -0.127, 0.113, 1.716)" fill="#fff"/>
        </g>
        <g id="Group_13118" data-name="Group 13118">
          <rect id="Rectangle_17604" data-name="Rectangle 17604" width="0.89" height="6.582" transform="matrix(-0.061, -0.998, 0.998, -0.061, 0.055, 1.293)" fill="#fff"/>
        </g>
      </g>
      <g id="Сгруппировать_13157" data-name="Сгруппировать 13157" transform="translate(0)">
        <g id="Group_13044" data-name="Group 13044" transform="translate(33.427)">
          <rect id="Rectangle_17590" data-name="Rectangle 17590" width="0.887" height="6.612" transform="translate(0)" fill="#fff"/>
        </g>
        <g id="Group_13119" data-name="Group 13119" transform="translate(0 33.453)">
          <rect id="Rectangle_17605" data-name="Rectangle 17605" width="6.586" height="0.887" transform="translate(0)" fill="#fff"/>
        </g>
        <g id="Group_13120" data-name="Group 13120" transform="translate(0.039 31.326)">
          <path id="Path_10369" data-name="Path 10369" d="M-51.765,129.106l.055-.887-6.567-.4-.059.888Z" transform="translate(58.336 -127.819)" fill="#fff"/>
        </g>
        <g id="Group_13121" data-name="Group 13121" transform="translate(0.2 29.21)">
          <path id="Path_10370" data-name="Path 10370" d="M-51.98,127.42l.109-.888-6.538-.829-.118.888Z" transform="translate(58.527 -125.703)" fill="#fff"/>
        </g>
        <g id="Group_13122" data-name="Group 13122" transform="translate(0.516 27.107)">
          <path id="Path_10371" data-name="Path 10371" d="M-52.36,125.7l.173-.868-6.464-1.234-.173.869Z" transform="translate(58.824 -123.6)" fill="#fff"/>
        </g>
        <g id="Group_13123" data-name="Group 13123" transform="translate(0.953 25.017)">
          <rect id="Rectangle_17606" data-name="Rectangle 17606" width="6.586" height="0.897" transform="matrix(-0.967, -0.253, 0.253, -0.967, 6.372, 2.534)" fill="#fff"/>
        </g>
        <g id="Group_13124" data-name="Group 13124" transform="translate(1.518 22.993)">
          <path id="Path_10372" data-name="Path 10372" d="M-53.461,122.387l.272-.859-6.266-2.042-.282.839Z" transform="translate(59.737 -119.486)" fill="#fff"/>
        </g>
        <g id="Group_13125" data-name="Group 13125" transform="translate(2.21 21.038)">
          <rect id="Rectangle_17607" data-name="Rectangle 17607" width="6.582" height="0.88" transform="matrix(-0.932, -0.361, 0.361, -0.932, 6.138, 3.198)" fill="#fff"/>
        </g>
        <g id="Group_13126" data-name="Group 13126" transform="translate(3.033 19.064)">
          <path id="Path_10373" data-name="Path 10373" d="M-55.074,119.179l.37-.829-5.965-2.793-.376.819Z" transform="translate(61.045 -115.557)" fill="#fff"/>
        </g>
        <g id="Group_13127" data-name="Group 13127" transform="translate(3.983 17.15)">
          <rect id="Rectangle_17608" data-name="Rectangle 17608" width="6.594" height="0.893" transform="translate(5.743 4.018) rotate(-150.564)" fill="#fff"/>
        </g>
        <g id="Group_13128" data-name="Group 13128" transform="translate(5.031 15.363)">
          <path id="Path_10374" data-name="Path 10374" d="M-57.18,116.13l.478-.741-5.56-3.533-.484.76Z" transform="translate(62.746 -111.856)" fill="#fff"/>
        </g>
        <g id="Group_13129" data-name="Group 13129" transform="translate(6.219 13.618)">
          <path id="Path_10375" data-name="Path 10375" d="M-58.408,114.7l.518-.72-5.328-3.868-.518.73Z" transform="translate(63.736 -110.111)" fill="#fff"/>
        </g>
        <g id="Group_13130" data-name="Group 13130" transform="translate(7.478 11.941)">
          <path id="Path_10376" data-name="Path 10376" d="M-59.726,113.318l.577-.69-5.082-4.194-.577.69Z" transform="translate(64.808 -108.434)" fill="#fff"/>
        </g>
        <g id="Group_13131" data-name="Group 13131" transform="translate(8.875 10.382)">
          <path id="Path_10377" data-name="Path 10377" d="M-61.152,112.036l.606-.652-4.811-4.509-.6.641Z" transform="translate(65.957 -106.875)" fill="#fff"/>
        </g>
        <g id="Group_13132" data-name="Group 13132" transform="translate(10.36 8.881)">
          <path id="Path_10378" data-name="Path 10378" d="M-62.673,110.8l.642-.621-4.51-4.806-.647.631Z" transform="translate(67.188 -105.374)" fill="#fff"/>
        </g>
        <g id="Group_13133" data-name="Group 13133" transform="translate(11.94 7.5)">
          <path id="Path_10379" data-name="Path 10379" d="M-64.3,109.638l.691-.563-4.193-5.082-.691.563Z" transform="translate(68.495 -103.993)" fill="#fff"/>
        </g>
        <g id="Group_13134" data-name="Group 13134" transform="translate(13.599 6.212)">
          <rect id="Rectangle_17609" data-name="Rectangle 17609" width="6.59" height="0.908" transform="translate(3.867 5.869) rotate(-125.931)" fill="#fff"/>
        </g>
        <g id="Group_13135" data-name="Group 13135" transform="translate(15.339 5.032)">
          <path id="Path_10380" data-name="Path 10380" d="M-67.77,107.584l.76-.484-3.538-5.575-.755.493Z" transform="translate(71.303 -101.525)" fill="#fff"/>
        </g>
        <g id="Group_13136" data-name="Group 13136" transform="translate(17.168 3.997)">
          <path id="Path_10381" data-name="Path 10381" d="M-69.623,106.677l.784-.414-3.178-5.773-.769.414Z" transform="translate(72.786 -100.49)" fill="#fff"/>
        </g>
        <g id="Group_13137" data-name="Group 13137" transform="translate(19.042 3.049)">
          <path id="Path_10382" data-name="Path 10382" d="M-71.513,105.867l.8-.355-2.8-5.97-.814.375Z" transform="translate(74.327 -99.542)" fill="#fff"/>
        </g>
        <g id="Group_13138" data-name="Group 13138" transform="translate(20.993 2.22)">
          <path id="Path_10383" data-name="Path 10383" d="M-73.5,105.177l.835-.345L-75.1,98.713l-.819.335Z" transform="translate(75.921 -98.713)" fill="#fff"/>
        </g>
        <g id="Group_13139" data-name="Group 13139" transform="translate(22.982 1.529)">
          <path id="Path_10384" data-name="Path 10384" d="M-75.507,104.555l.854-.267-2.037-6.266-.849.266Z" transform="translate(77.539 -98.022)" fill="#fff"/>
        </g>
        <g id="Group_13140" data-name="Group 13140" transform="translate(25.014 0.955)">
          <path id="Path_10385" data-name="Path 10385" d="M-77.549,104.042l.864-.2-1.653-6.394-.864.227Z" transform="translate(79.202 -97.448)" fill="#fff"/>
        </g>
        <g id="Group_13141" data-name="Group 13141" transform="translate(27.086 0.533)">
          <path id="Path_10386" data-name="Path 10386" d="M-79.635,103.648l.878-.148-1.234-6.474-.878.159Z" transform="translate(80.869 -97.026)" fill="#fff"/>
        </g>
        <g id="Group_13142" data-name="Group 13142" transform="translate(29.183 0.215)">
          <path id="Path_10387" data-name="Path 10387" d="M-81.733,103.351l.879-.1-.83-6.543-.888.128Z" transform="translate(82.572 -96.708)" fill="#fff"/>
        </g>
        <g id="Group_13143" data-name="Group 13143" transform="translate(31.306 0.049)">
          <path id="Path_10388" data-name="Path 10388" d="M-83.865,103.173l.888-.069-.419-6.562-.888.05Z" transform="translate(84.284 -96.542)" fill="#fff"/>
        </g>
      </g>
    </g>
  </g>
</svg>
