<svg id="Layer_2" xmlns="http://www.w3.org/2000/svg" width="113.744" height="27.101" viewBox="0 0 113.744 27.101">
  <g id="Сгруппировать_13372" data-name="Сгруппировать 13372" transform="translate(0 0)">
    <path id="Контур_10870" data-name="Контур 10870" d="M98.918,235.145c6.384-.894,12.75-1.769,19.134-2.645-.018,5.618,0,11.236,0,16.854H98.9c.018-4.724-.018-9.466.018-14.209" transform="translate(-83.615 -232.5)" fill="#fff"/>
    <path id="Контур_10871" data-name="Контур 10871" d="M591.3,243.889a2.139,2.139,0,0,1,2.864-.474,9.162,9.162,0,0,0-2.116.492c-.547.766-.255,1.788-.347,2.681,1.277.018,2.535,0,3.812.018.018-.93.036-1.842.036-2.772l.675.018v2.718c.675.018,1.331.018,2.006.036v.511c-.675,0-1.35,0-2.006.018.018,1.97,0,3.922,0,5.891.055.529-.128,1.24.365,1.605.456.365,1.094.274,1.642.383v.492c-1.021.018-2.462-.2-2.627-1.441-.128-2.316-.018-4.633-.036-6.949h-3.83c0,2.809.018,5.618-.018,8.427-.164-.055-.456-.164-.62-.2-.128-2.718-.036-5.472-.036-8.19-.62-.109-1.514.219-1.86-.492.6-.036,1.222-.073,1.824-.091a7.352,7.352,0,0,1,.273-2.681" transform="translate(-484.485 -241.135)" fill="#fff"/>
    <path id="Контур_10872" data-name="Контур 10872" d="M257.318,243.5l1.076.219c1.879,3.666,3.429,7.515,5.2,11.236,1.97-3.63,3.429-7.533,5.2-11.272.383,0,.766-.018,1.149-.018V255.83l-.821-.073c.018-3.739.055-7.46-.018-11.2-1.787,3.7-3.356,7.515-5.071,11.236h-.748c-1.149-2.481-2.28-4.979-3.411-7.478a17.38,17.38,0,0,0-1.769-3.484c-.128,3.648-.036,7.3-.055,10.962-.182,0-.565.018-.748.036.018-4.122,0-8.226.018-12.33" transform="translate(-213.123 -241.494)" fill="#fff"/>
    <path id="Контур_10873" data-name="Контур 10873" d="M339.818,244.3c.164,0,.492.018.638.018v1.623H339.8c0-.547.018-1.094.018-1.642" transform="translate(-280.575 -242.148)" fill="#fff"/>
    <path id="Контур_10874" data-name="Контур 10874" d="M15.1,249.479c4.852-.693,9.722-1.277,14.574-2.079.036,4.724,0,9.43.018,14.154-4.852.036-9.7-.055-14.555.055-.036-4.049,0-8.1-.036-12.13" transform="translate(-15.1 -244.682)" fill="#fff"/>
    <path id="Контур_10875" data-name="Контур 10875" d="M354.55,262.239c2.025-2.116,6.329-1.477,7.1,1.55-.146.055-.456.164-.62.219-.547-2.918-4.925-3.283-6.384-.948a5.078,5.078,0,0,0,.128,5.472c1.423,1.824,4.961,1.678,5.873-.6.219-.456.4-1.058,1.058-.93a4.219,4.219,0,0,1-5.363,3.137c-3.32-.784-4.049-5.618-1.788-7.9" transform="translate(-291.568 -257.322)" fill="#fff"/>
    <path id="Контур_10876" data-name="Контур 10876" d="M339.846,262.3l.657.018v8.828l-.638.036c-.036-2.955-.036-5.91-.018-8.883" transform="translate(-280.603 -258.428)" fill="#fff"/>
    <path id="Контур_10877" data-name="Контур 10877" d="M408.818,262.4h.675c.018.547.018,1.076.036,1.623.985-.857,2.152-1.824,3.557-1.587.073.091.237.274.31.383-1.623.073-3.429.93-3.794,2.663-.237,1.97.018,3.976-.146,5.946-.164-.091-.456-.274-.6-.346-.109-2.9-.018-5.782-.036-8.682" transform="translate(-336.989 -258.524)" fill="#fff"/>
    <path id="Контур_10878" data-name="Контур 10878" d="M437.387,261.82c-3.228,1.04-3.429,6.311-.438,7.77a3.71,3.71,0,0,0,4.031-.638,4.748,4.748,0,0,0,.182-6.129,3.645,3.645,0,0,0-3.776-1m-.365-.438a4.45,4.45,0,0,1,4.56.985,5.119,5.119,0,0,1-.365,7.15,4.364,4.364,0,0,1-6.366-1.149c-1.459-2.335-.6-6.074,2.171-6.986" transform="translate(-357.715 -257.437)" fill="#fff"/>
    <path id="Контур_10879" data-name="Контур 10879" d="M491.6,261.653a5.138,5.138,0,0,1,4.852.036c.821.438.985,1.441,1.222,2.244-1.058.018-.821-1.368-1.605-1.806a4.216,4.216,0,0,0-4.031-.055,1.482,1.482,0,0,0,.036,2.572c1.55.8,3.466.584,4.961,1.514a2.219,2.219,0,0,1,.675,2.663,3.226,3.226,0,0,1-2.608,1.5,4.368,4.368,0,0,1-4.323-1.477c-.347-.547-.766-1.386.018-1.733a4.382,4.382,0,0,0,1.113,2.061,4.61,4.61,0,0,0,4.25.347,1.665,1.665,0,0,0,.4-2.882c-1.605-.894-3.666-.584-5.18-1.66a2.024,2.024,0,0,1,.219-3.32" transform="translate(-403.67 -257.377)" fill="#fff"/>
    <path id="Контур_10880" data-name="Контур 10880" d="M542.59,261.681c-2.9.219-3.976,3.922-2.791,6.22a3.629,3.629,0,0,0,5.308,1.35,4.7,4.7,0,0,0,.875-6.019,3.433,3.433,0,0,0-3.393-1.55m-1.35-.2a4.421,4.421,0,0,1,5.034,1.076,5.221,5.221,0,0,1-.182,6.6,4.377,4.377,0,0,1-5.91.2c-2.371-2.061-1.933-6.621,1.058-7.88" transform="translate(-443.164 -257.424)" fill="#fff"/>
    <path id="Контур_10881" data-name="Контур 10881" d="M15.246,328.8H29.8c.018,4.688,0,9.375.018,14.081-4.87-.438-9.7-1.35-14.555-1.933-.036-4.067-.036-8.1-.018-12.148" transform="translate(-15.21 -318.59)" fill="#fff"/>
    <path id="Контур_10882" data-name="Контур 10882" d="M98.9,342.945c.036-4.742-.036-9.5.036-14.245,6.366.036,12.75-.018,19.115.018v16.89c-6.4-.821-12.786-1.751-19.152-2.663" transform="translate(-83.615 -318.508)" fill="#fff"/>
    <path id="Контур_10883" data-name="Контур 10883" d="M254.439,342.968h4.578c-.73-1.915-1.423-3.849-2.244-5.709-.875,1.842-1.514,3.812-2.335,5.709m1.4-7.168c.657,0,1.3.018,1.952.036,1.678,4.067,3.374,8.135,5.162,12.166-.638,0-1.277-.018-1.915-.018-.474-1.222-.948-2.426-1.423-3.648-1.915.018-3.812,0-5.727.018-.492,1.222-.985,2.426-1.477,3.648H250.7c1.715-4.067,3.411-8.153,5.144-12.2" transform="translate(-207.727 -324.313)" fill="#fff"/>
    <path id="Контур_10884" data-name="Контур 10884" d="M430.08,354.52a4.521,4.521,0,0,1,3.557-2.025c0,.492,0,.985.018,1.477-1.313.055-2.845.565-3.228,1.988-.438,1.86-.128,3.776-.219,5.673h-1.569c-.018-2.955-.018-5.928,0-8.883H430.1v1.769Z" transform="translate(-353.199 -337.962)" fill="#fff"/>
    <path id="Контур_10885" data-name="Контур 10885" d="M459.728,356.746c1.952.036,3.885.036,5.837,0-.31-1.459-1.532-2.864-3.174-2.59-1.477-.073-2.371,1.313-2.663,2.59m-.42-2.262a4.42,4.42,0,0,1,6.493-.274,5.792,5.792,0,0,1,1.24,3.794c-2.444.018-4.87-.018-7.314.018a3.753,3.753,0,0,0,.839,2.1c1.423,1.423,4.232,1.094,4.961-.894.365.018,1.094.018,1.441.036-.857,3.083-5.144,3.794-7.351,1.787a5.043,5.043,0,0,1-.31-6.566" transform="translate(-377.411 -338.31)" fill="#fff"/>
    <path id="Контур_10886" data-name="Контур 10886" d="M319.655,353.918c2.554-.018,5.089-.036,7.643.018-.055.985-.821,1.642-1.423,2.353-1.514,1.733-3.046,3.466-4.542,5.217,2.025.383,4.086-.219,6.11.219,0,.255.018.784.018,1.058H319.4V361.67c1.879-2.152,3.849-4.213,5.636-6.439-1.733-.146-3.484-.018-5.217-.128-.055-.274-.128-.875-.164-1.186" transform="translate(-263.896 -339.111)" fill="#fff"/>
    <path id="Контур_10887" data-name="Контур 10887" d="M371.288,353.9c.511,0,1.04,0,1.569.018.036,2.189-.109,4.4.055,6.585.821,2.353,4.815,1.259,4.815-1.094.055-1.824,0-3.666.018-5.49h1.514V362.8h-1.386c-.036-.292-.091-.894-.128-1.2a4.326,4.326,0,0,1-5.016,1,2.893,2.893,0,0,1-1.4-2.772c-.073-1.988-.018-3.958-.036-5.928" transform="translate(-306.317 -339.111)" fill="#fff"/>
  </g>
</svg>
