<svg xmlns="http://www.w3.org/2000/svg" width="63.989" height="6.998" viewBox="0 0 63.989 6.998">
  <g id="Сгруппировать_13042" data-name="Сгруппировать 13042" transform="translate(0)">
    <path id="Контур_10292" data-name="Контур 10292" d="M227.388,505.755h1.452l4.227-7H231.53Z" transform="translate(-200.76 -498.757)" fill="#33e08e"/>
    <path id="Контур_10401" data-name="Контур 10401" d="M227.388,505.755h1.452l4.227-7H231.53Z" transform="translate(-178.76 -498.757)" fill="#33e08e"/>
    <path id="Контур_10293" data-name="Контур 10293" d="M228.657,505.755h1.452l4.227-7H232.8Z" transform="translate(-204.451 -498.757)" fill="#33e08e"/>
    <path id="Контур_10402" data-name="Контур 10402" d="M228.657,505.755h1.452l4.227-7H232.8Z" transform="translate(-182.451 -498.757)" fill="#33e08e"/>
    <path id="Контур_10294" data-name="Контур 10294" d="M229.927,505.755h1.452l4.227-7h-1.537Z" transform="translate(-208.139 -498.757)" fill="#33e08e"/>
    <path id="Контур_10403" data-name="Контур 10403" d="M229.927,505.755h1.452l4.227-7h-1.537Z" transform="translate(-186.14 -498.757)" fill="#33e08e"/>
    <path id="Контур_10295" data-name="Контур 10295" d="M231.2,505.755h1.452l4.227-7h-1.537Z" transform="translate(-211.83 -498.757)" fill="#33e08e"/>
    <path id="Контур_10404" data-name="Контур 10404" d="M231.2,505.755h1.452l4.227-7h-1.537Z" transform="translate(-189.83 -498.757)" fill="#33e08e"/>
    <path id="Контур_10296" data-name="Контур 10296" d="M232.465,505.755h1.452l4.227-7h-1.537Z" transform="translate(-215.518 -498.757)" fill="#33e08e"/>
    <path id="Контур_10297" data-name="Контур 10297" d="M233.734,505.755h1.452l4.227-7h-1.537Z" transform="translate(-219.209 -498.757)" fill="#33e08e"/>
    <path id="Контур_10298" data-name="Контур 10298" d="M235,505.755h1.452l4.227-7h-1.537Z" transform="translate(-222.9 -498.757)" fill="#33e08e"/>
    <path id="Контур_10299" data-name="Контур 10299" d="M236.272,505.755h1.452l4.227-7h-1.537Z" transform="translate(-226.588 -498.757)" fill="#33e08e"/>
    <path id="Контур_10300" data-name="Контур 10300" d="M237.541,505.755h1.452l4.227-7h-1.537Z" transform="translate(-230.278 -498.757)" fill="#33e08e"/>
    <path id="Контур_10301" data-name="Контур 10301" d="M238.81,505.755h1.452l4.227-7h-1.537Z" transform="translate(-233.969 -498.757)" fill="#33e08e"/>
    <path id="Контур_10302" data-name="Контур 10302" d="M240.08,505.755h1.452l4.227-7h-1.537Z" transform="translate(-237.658 -498.757)" fill="#33e08e"/>
    <path id="Контур_10303" data-name="Контур 10303" d="M241.349,505.755H242.8l4.227-7H245.49Z" transform="translate(-241.349 -498.757)" fill="#33e08e"/>
    <path id="Контур_10304" data-name="Контур 10304" d="M221.043,505.755h1.452l4.227-7h-1.537Z" transform="translate(-182.311 -498.757)" fill="#33e08e"/>
    <path id="Контур_10305" data-name="Контур 10305" d="M222.312,505.755h1.452l4.227-7h-1.537Z" transform="translate(-186.001 -498.757)" fill="#33e08e"/>
    <path id="Контур_10397" data-name="Контур 10397" d="M222.312,505.755h1.452l4.227-7h-1.537Z" transform="translate(-164.001 -498.757)" fill="#33e08e"/>
    <path id="Контур_10306" data-name="Контур 10306" d="M223.581,505.755h1.452l4.227-7h-1.537Z" transform="translate(-189.69 -498.757)" fill="#33e08e"/>
    <path id="Контур_10398" data-name="Контур 10398" d="M223.581,505.755h1.452l4.227-7h-1.537Z" transform="translate(-167.69 -498.757)" fill="#33e08e"/>
    <path id="Контур_10307" data-name="Контур 10307" d="M224.85,505.755H226.3l4.227-7h-1.537Z" transform="translate(-193.381 -498.757)" fill="#33e08e"/>
    <path id="Контур_10399" data-name="Контур 10399" d="M224.85,505.755H226.3l4.227-7h-1.537Z" transform="translate(-171.381 -498.757)" fill="#33e08e"/>
    <path id="Контур_10308" data-name="Контур 10308" d="M226.119,505.755h1.452l4.227-7h-1.537Z" transform="translate(-197.069 -498.757)" fill="#33e08e"/>
    <path id="Контур_10400" data-name="Контур 10400" d="M226.119,505.755h1.452l4.227-7h-1.537Z" transform="translate(-175.07 -498.757)" fill="#33e08e"/>
  </g>
</svg>
