<?xml version="1.0" encoding="utf-8"?>
<!-- Generator: Adobe Illustrator 24.1.3, SVG Export Plug-In . SVG Version: 6.00 Build 0)  -->
<svg version="1.1" id="Layer_1" xmlns="http://www.w3.org/2000/svg" xmlns:xlink="http://www.w3.org/1999/xlink" x="0px" y="0px"
	 viewBox="0 0 26.4 20.8" style="enable-background:new 0 0 26.4 20.8;" xml:space="preserve">
<style type="text/css">
	.st0{fill:none;}
	.st1{enable-background:new    ;}
	.st2{fill:#44E096;}
</style>
<g>
	<rect id="canvas_background" x="-1.3" y="-2" class="st0" width="30" height="25"/>
</g>
<g>
	<g class="st1">
		<path class="st2" d="M2.1,6.8C3.5,4,5.2,1.8,7.2,0l5.5,3.2c-1.1,1.8-2,3.6-2.6,5.4c-0.6,1.8-0.9,3.8-0.9,6.1v6.1H0v-6.1
			C0,12.2,0.7,9.5,2.1,6.8z M15.8,6.8c1.4-2.8,3.1-5,5.1-6.8l5.5,3.2c-1.1,1.8-2,3.6-2.6,5.4c-0.6,1.8-0.9,3.8-0.9,6.1v6.1h-9.3
			v-6.1C13.6,12.2,14.4,9.5,15.8,6.8z"/>
	</g>
</g>
</svg>
