<svg id="Сгруппировать_13433" data-name="Сгруппировать 13433" xmlns="http://www.w3.org/2000/svg" xmlns:xlink="http://www.w3.org/1999/xlink" width="1228.891" height="601.956" viewBox="0 0 1228.891 601.956">
  <defs>
    <clipPath id="clip-path">
      <rect id="Прямоугольник_18154" data-name="Прямоугольник 18154" width="1228.891" height="601.956" fill="none"/>
    </clipPath>
  </defs>
  <line id="Линия_180" data-name="Линия 180" x2="57.722" transform="translate(619.591 573.095)" fill="none" stroke="#73ccd7" stroke-miterlimit="10" stroke-width="0.5"/>
  <g id="Сгруппировать_13428" data-name="Сгруппировать 13428">
    <g id="Сгруппировать_13427" data-name="Сгруппировать 13427" clip-path="url(#clip-path)">
      <line id="Линия_181" data-name="Линия 181" y2="57.722" transform="translate(648.452 544.234)" fill="none" stroke="#73ccd7" stroke-miterlimit="10" stroke-width="0.5"/>
    </g>
  </g>
  <rect id="Прямоугольник_18155" data-name="Прямоугольник 18155" width="5.775" height="5.771" transform="translate(440.649 480.741)" fill="#44e096"/>
  <rect id="Прямоугольник_18156" data-name="Прямоугольник 18156" width="5.771" height="5.771" transform="translate(330.979 480.741)" fill="#44e096"/>
  <rect id="Прямоугольник_18157" data-name="Прямоугольник 18157" width="5.774" height="5.771" transform="translate(250.167 480.74)" fill="#44e096"/>
  <rect id="Прямоугольник_18158" data-name="Прямоугольник 18158" width="5.77" height="5.771" transform="translate(359.841 480.74)" fill="#44e096"/>
  <rect id="Прямоугольник_18159" data-name="Прямоугольник 18159" width="5.775" height="5.771" transform="translate(440.649 394.157)" fill="#44e096"/>
  <rect id="Прямоугольник_18160" data-name="Прямоугольник 18160" width="5.771" height="5.771" transform="translate(330.979 394.157)" fill="#44e096"/>
  <rect id="Прямоугольник_18161" data-name="Прямоугольник 18161" width="5.774" height="5.771" transform="translate(250.167 394.157)" fill="#44e096"/>
  <rect id="Прямоугольник_18162" data-name="Прямоугольник 18162" width="5.77" height="5.771" transform="translate(359.841 394.157)" fill="#44e096"/>
  <rect id="Прямоугольник_18163" data-name="Прямоугольник 18163" width="5.775" height="5.771" transform="translate(440.649 307.574)" fill="#44e096"/>
  <rect id="Прямоугольник_18164" data-name="Прямоугольник 18164" width="5.771" height="5.771" transform="translate(330.979 307.574)" fill="#44e096"/>
  <rect id="Прямоугольник_18165" data-name="Прямоугольник 18165" width="5.774" height="5.771" transform="translate(250.167 307.574)" fill="#44e096"/>
  <rect id="Прямоугольник_18166" data-name="Прямоугольник 18166" width="5.77" height="5.771" transform="translate(359.841 307.574)" fill="#44e096"/>
  <rect id="Прямоугольник_18167" data-name="Прямоугольник 18167" width="5.775" height="5.771" transform="translate(440.649 220.991)" fill="#44e096"/>
  <rect id="Прямоугольник_18168" data-name="Прямоугольник 18168" width="5.771" height="5.771" transform="translate(330.979 220.991)" fill="#44e096"/>
  <rect id="Прямоугольник_18169" data-name="Прямоугольник 18169" width="5.774" height="5.771" transform="translate(250.167 220.991)" fill="#44e096"/>
  <rect id="Прямоугольник_18170" data-name="Прямоугольник 18170" width="5.77" height="5.771" transform="translate(359.841 220.991)" fill="#44e096"/>
  <rect id="Прямоугольник_18171" data-name="Прямоугольник 18171" width="5.775" height="5.771" transform="translate(440.649 134.408)" fill="#44e096"/>
  <rect id="Прямоугольник_18172" data-name="Прямоугольник 18172" width="5.771" height="5.771" transform="translate(330.979 134.408)" fill="#44e096"/>
  <rect id="Прямоугольник_18173" data-name="Прямоугольник 18173" width="5.774" height="5.771" transform="translate(250.167 134.407)" fill="#44e096"/>
  <rect id="Прямоугольник_18174" data-name="Прямоугольник 18174" width="5.77" height="5.771" transform="translate(359.841 134.407)" fill="#44e096"/>
  <rect id="Прямоугольник_18175" data-name="Прямоугольник 18175" width="5.775" height="5.771" transform="translate(440.649 47.824)" fill="#44e096"/>
  <rect id="Прямоугольник_18176" data-name="Прямоугольник 18176" width="5.771" height="5.771" transform="translate(330.979 47.824)" fill="#44e096"/>
  <rect id="Прямоугольник_18177" data-name="Прямоугольник 18177" width="5.774" height="5.771" transform="translate(250.167 47.824)" fill="#44e096"/>
  <rect id="Прямоугольник_18178" data-name="Прямоугольник 18178" width="5.77" height="5.771" transform="translate(359.841 47.824)" fill="#44e096"/>
  <g id="Сгруппировать_13430" data-name="Сгруппировать 13430">
    <g id="Сгруппировать_13429" data-name="Сгруппировать 13429" clip-path="url(#clip-path)">
      <path id="Контур_10965" data-name="Контур 10965" d="M6.926,9.178V10.3H.088V8.572A2.956,2.956,0,0,1,.317,7.366a2.51,2.51,0,0,1,.658-.88A3.694,3.694,0,0,1,2,5.873a9.1,9.1,0,0,1,1.374-.419,3.988,3.988,0,0,0,1.853-.82A1.73,1.73,0,0,0,5.8,3.319V3.232a2.374,2.374,0,0,0-.131-.764A1.945,1.945,0,0,0,4.569,1.3a2.614,2.614,0,0,0-1.018-.18A2.205,2.205,0,0,0,1.825,1.8a2.591,2.591,0,0,0-.613,1.8v.634H0V3.521A3.833,3.833,0,0,1,.233,2.193,3.348,3.348,0,0,1,.909,1.067,3.224,3.224,0,0,1,2.022.289,3.8,3.8,0,0,1,3.551,0,4.023,4.023,0,0,1,5.08.266,3.207,3.207,0,0,1,6.161.974a2.786,2.786,0,0,1,.641,1A3.157,3.157,0,0,1,7.015,3.1v.26a2.86,2.86,0,0,1-.723,1.969A4.192,4.192,0,0,1,3.985,6.492a5.28,5.28,0,0,0-2.036.8A1.714,1.714,0,0,0,1.3,8.744v.433Z" fill="#44e096"/>
      <path id="Контур_10966" data-name="Контур 10966" d="M13.993,5.342V3.669l3.29-2.107V1.39H11.569V.264h6.754V2.11l-3.29,2.106v.174h.578a3.337,3.337,0,0,1,1.11.187,2.859,2.859,0,0,1,.944.548,2.752,2.752,0,0,1,.666.888,2.827,2.827,0,0,1,.25,1.219v.26A2.858,2.858,0,0,1,18.323,8.7a3,3,0,0,1-.722.974,3.548,3.548,0,0,1-1.088.651,3.838,3.838,0,0,1-1.367.237,4.232,4.232,0,0,1-1.529-.26,3.407,3.407,0,0,1-1.152-.714,3,3,0,0,1-.729-1.068,3.383,3.383,0,0,1-.254-1.307V6.44h1.212v.692a2.487,2.487,0,0,0,.18.975,2.014,2.014,0,0,0,.508.722,2.209,2.209,0,0,0,.771.454,2.858,2.858,0,0,0,.965.159A2.446,2.446,0,0,0,16,9.283a2.188,2.188,0,0,0,.715-.44,2.068,2.068,0,0,0,.475-.664,1.932,1.932,0,0,0,.173-.816V7.276a1.8,1.8,0,0,0-.578-1.422,2.085,2.085,0,0,0-1.441-.512Z" transform="translate(-2.663 -0.061)" fill="#44e096"/>
      <path id="Контур_10967" data-name="Контур 10967" d="M29.926,9.178V10.3H23.088V8.572a2.943,2.943,0,0,1,.23-1.205,2.5,2.5,0,0,1,.658-.88A3.683,3.683,0,0,1,25,5.873a9.05,9.05,0,0,1,1.374-.419,3.992,3.992,0,0,0,1.853-.82A1.73,1.73,0,0,0,28.8,3.319V3.232a2.374,2.374,0,0,0-.131-.764,1.945,1.945,0,0,0-1.1-1.163,2.616,2.616,0,0,0-1.018-.18,2.205,2.205,0,0,0-1.726.678,2.591,2.591,0,0,0-.613,1.8v.634H23V3.521a3.833,3.833,0,0,1,.233-1.328,3.346,3.346,0,0,1,.676-1.126A3.234,3.234,0,0,1,25.022.289,3.8,3.8,0,0,1,26.551,0,4.023,4.023,0,0,1,28.08.266a3.215,3.215,0,0,1,1.081.708,2.807,2.807,0,0,1,.641,1A3.172,3.172,0,0,1,30.014,3.1v.26a2.859,2.859,0,0,1-.722,1.969,4.192,4.192,0,0,1-2.308,1.161,5.281,5.281,0,0,0-2.035.8,1.712,1.712,0,0,0-.649,1.45v.433Z" transform="translate(-5.335)" fill="#44e096"/>
      <path id="Контур_10968" data-name="Контур 10968" d="M37.749.264H40.1V7.335h1.557V8.461H40.1v1.9H38.889v-1.9H34.214V6.786Zm-2.495,6.9v.174h3.635V.784h-.172Z" transform="translate(-7.936 -0.061)" fill="#44e096"/>
      <path id="Контур_10969" data-name="Контур 10969" d="M49.228,12.057a1.01,1.01,0,1,1,.3.715.973.973,0,0,1-.3-.715" transform="translate(-11.418 -2.563)" fill="#44e096"/>
      <path id="Контур_10970" data-name="Контур 10970" d="M60.432,9.239V.8h-.173L58.6,4.592H57.4V4.505L59.29.263h2.353V9.239H64.5v1.125H57.575V9.239Z" transform="translate(-13.314 -0.061)" fill="#44e096"/>
      <path id="Контур_10971" data-name="Контур 10971" d="M71.927,9.239V.8h-.173L70.095,4.592H68.9V4.505L70.785.263h2.353V9.239H76v1.125H69.07V9.239Z" transform="translate(-15.98 -0.061)" fill="#44e096"/>
      <path id="Контур_10972" data-name="Контур 10972" d="M83.426,9.239V.8h-.173L81.594,4.592H80.4V4.505L82.285.263h2.353V9.239H87.5v1.125H80.569V9.239Z" transform="translate(-18.647 -0.061)" fill="#44e096"/>
      <path id="Контур_10973" data-name="Контур 10973" d="M265.976,253.488v-8.441H265.8l-1.659,3.794h-1.2v-.087l1.889-4.242h2.353v8.975h2.857v1.126h-6.926v-1.126Z" transform="translate(-60.988 -56.713)" fill="#44e096"/>
      <path id="Контур_10974" data-name="Контур 10974" d="M277.475,253.488v-8.441H277.3l-1.659,3.794h-1.2v-.087l1.889-4.242h2.353v8.975h2.857v1.126h-6.926v-1.126Z" transform="translate(-63.656 -56.713)" fill="#44e096"/>
      <path id="Контур_10975" data-name="Контур 10975" d="M292.963,253.426v1.126h-6.838v-1.732a2.949,2.949,0,0,1,.229-1.2,2.5,2.5,0,0,1,.659-.881,3.678,3.678,0,0,1,1.028-.614,9.1,9.1,0,0,1,1.374-.419,4,4,0,0,0,1.853-.82,1.731,1.731,0,0,0,.571-1.314v-.087a2.354,2.354,0,0,0-.131-.764,1.941,1.941,0,0,0-1.1-1.163,2.619,2.619,0,0,0-1.018-.179,2.205,2.205,0,0,0-1.727.677,2.591,2.591,0,0,0-.613,1.8v.634h-1.212v-.72a3.834,3.834,0,0,1,.233-1.329,3.345,3.345,0,0,1,.677-1.125,3.233,3.233,0,0,1,1.113-.779,3.8,3.8,0,0,1,1.529-.289,4.029,4.029,0,0,1,1.529.266,3.215,3.215,0,0,1,1.081.708,2.807,2.807,0,0,1,.641,1,3.172,3.172,0,0,1,.211,1.133v.26a2.861,2.861,0,0,1-.722,1.969,4.2,4.2,0,0,1-2.308,1.161,5.274,5.274,0,0,0-2.036.8,1.714,1.714,0,0,0-.648,1.45v.433Z" transform="translate(-66.344 -56.652)" fill="#44e096"/>
      <path id="Контур_10976" data-name="Контур 10976" d="M300.786,244.513h2.353v7.071H304.7v1.125h-1.557v1.9h-1.213v-1.9h-4.675v-1.675Zm-2.495,6.9v.174h3.635v-6.552h-.172Z" transform="translate(-68.945 -56.713)" fill="#44e096"/>
      <path id="Контур_10977" data-name="Контур 10977" d="M312.266,256.306a1.01,1.01,0,1,1,.3.715.971.971,0,0,1-.3-.715" transform="translate(-72.428 -59.214)" fill="#44e096"/>
      <path id="Контур_10978" data-name="Контур 10978" d="M323.469,253.488v-8.441H323.3l-1.659,3.794h-1.2v-.087l1.889-4.242h2.353v8.975h2.857v1.126h-6.926v-1.126Z" transform="translate(-74.324 -56.713)" fill="#44e096"/>
      <path id="Контур_10979" data-name="Контур 10979" d="M334.964,253.488v-8.441h-.173l-1.659,3.794h-1.2v-.087l1.889-4.242h2.353v8.975h2.857v1.126h-6.926v-1.126Z" transform="translate(-76.99 -56.713)" fill="#44e096"/>
      <path id="Контур_10980" data-name="Контур 10980" d="M346.464,253.488v-8.441h-.173l-1.659,3.794h-1.2v-.087l1.889-4.242h2.353v8.975h2.857v1.126h-6.926v-1.126Z" transform="translate(-79.657 -56.713)" fill="#44e096"/>
      <path id="Контур_10981" data-name="Контур 10981" d="M357.519,249.591v-1.674l3.29-2.107v-.172H355.1v-1.126h6.754v1.846l-3.29,2.107v.174h.578a3.318,3.318,0,0,1,1.11.187,2.843,2.843,0,0,1,.944.548,2.752,2.752,0,0,1,.666.888,2.828,2.828,0,0,1,.25,1.219v.26a2.855,2.855,0,0,1-.257,1.212,3,3,0,0,1-.722.974,3.548,3.548,0,0,1-1.088.651,3.838,3.838,0,0,1-1.367.238,4.233,4.233,0,0,1-1.529-.261,3.408,3.408,0,0,1-1.152-.714,3,3,0,0,1-.729-1.067,3.389,3.389,0,0,1-.254-1.307v-.779h1.212v.692a2.487,2.487,0,0,0,.18.975,2.014,2.014,0,0,0,.508.722,2.21,2.21,0,0,0,.771.455,2.876,2.876,0,0,0,.965.158,2.462,2.462,0,0,0,.888-.158,2.2,2.2,0,0,0,.715-.441,2.068,2.068,0,0,0,.475-.664,1.931,1.931,0,0,0,.173-.815v-.086a1.8,1.8,0,0,0-.578-1.422,2.089,2.089,0,0,0-1.441-.512Z" transform="translate(-82.342 -56.713)" fill="#44e096"/>
      <path id="Контур_10982" data-name="Контур 10982" d="M369.018,249.591v-1.674l3.29-2.107v-.172h-5.714v-1.126h6.754v1.846l-3.29,2.107v.174h.578a3.318,3.318,0,0,1,1.11.187,2.855,2.855,0,0,1,.945.548,2.762,2.762,0,0,1,.665.888,2.828,2.828,0,0,1,.25,1.219v.26a2.855,2.855,0,0,1-.257,1.212,3,3,0,0,1-.722.974,3.548,3.548,0,0,1-1.088.651,3.838,3.838,0,0,1-1.367.238,4.232,4.232,0,0,1-1.529-.261,3.407,3.407,0,0,1-1.152-.714,3,3,0,0,1-.729-1.067,3.389,3.389,0,0,1-.254-1.307v-.779h1.213v.692a2.473,2.473,0,0,0,.18.975,2,2,0,0,0,.507.722,2.207,2.207,0,0,0,.772.455,2.869,2.869,0,0,0,.965.158,2.462,2.462,0,0,0,.888-.158,2.2,2.2,0,0,0,.715-.441,2.068,2.068,0,0,0,.475-.664,1.932,1.932,0,0,0,.174-.815v-.086a1.8,1.8,0,0,0-.578-1.422,2.089,2.089,0,0,0-1.441-.512Z" transform="translate(-85.009 -56.713)" fill="#44e096"/>
      <path id="Контур_10983" data-name="Контур 10983" d="M545.073,5.6V.263H551.4V1.389h-5.141V5h.177a2.58,2.58,0,0,1,.373-.557,2.5,2.5,0,0,1,.542-.469,2.819,2.819,0,0,1,1.565-.448,3.483,3.483,0,0,1,1.279.231,2.9,2.9,0,0,1,1,.65,2.992,2.992,0,0,1,.658,1.009,3.492,3.492,0,0,1,.237,1.314v.26a4.041,4.041,0,0,1-.23,1.363,3.41,3.41,0,0,1-.68,1.14,3.171,3.171,0,0,1-1.11.787,3.823,3.823,0,0,1-1.529.289,4.321,4.321,0,0,1-1.561-.26,3.229,3.229,0,0,1-1.138-.72,3.021,3.021,0,0,1-.7-1.091,3.818,3.818,0,0,1-.24-1.363v-.4h1.212v.317a2.29,2.29,0,0,0,.673,1.8,2.544,2.544,0,0,0,1.755.6,2.332,2.332,0,0,0,1.014-.21,2.12,2.12,0,0,0,.737-.564,2.3,2.3,0,0,0,.441-.823,3.3,3.3,0,0,0,.144-.972V6.785a2.249,2.249,0,0,0-.152-.836,2.119,2.119,0,0,0-.419-.679,1.9,1.9,0,0,0-.648-.454,2.053,2.053,0,0,0-.832-.166,1.664,1.664,0,0,0-.553.087,1.579,1.579,0,0,0-.44.224,1.305,1.305,0,0,0-.31.31,1.1,1.1,0,0,0-.166.333Z" transform="translate(-126.386 -0.061)" fill="#44e096"/>
      <path id="Контур_10984" data-name="Контур 10984" d="M556.573,5.6V.263H562.9V1.389h-5.139V5h.176a2.589,2.589,0,0,1,.915-1.025,2.819,2.819,0,0,1,1.565-.448,3.482,3.482,0,0,1,1.278.231,2.9,2.9,0,0,1,1,.65,3.02,3.02,0,0,1,.66,1.009,3.523,3.523,0,0,1,.236,1.314v.26a4.061,4.061,0,0,1-.23,1.363,3.4,3.4,0,0,1-.681,1.14,3.164,3.164,0,0,1-1.11.787,3.82,3.82,0,0,1-1.528.289,4.307,4.307,0,0,1-1.56-.26,3.211,3.211,0,0,1-1.138-.72,3.033,3.033,0,0,1-.7-1.091,3.818,3.818,0,0,1-.24-1.363v-.4h1.213v.317a2.29,2.29,0,0,0,.672,1.8,2.545,2.545,0,0,0,1.755.6,2.338,2.338,0,0,0,1.015-.21,2.123,2.123,0,0,0,.736-.564,2.3,2.3,0,0,0,.441-.823,3.3,3.3,0,0,0,.145-.972V6.785a2.266,2.266,0,0,0-.152-.836,2.134,2.134,0,0,0-.419-.679,1.9,1.9,0,0,0-.648-.454,2.05,2.05,0,0,0-.832-.166,1.667,1.667,0,0,0-.553.087,1.578,1.578,0,0,0-.44.224,1.3,1.3,0,0,0-.31.31,1.069,1.069,0,0,0-.166.333Z" transform="translate(-129.053 -0.061)" fill="#44e096"/>
      <path id="Контур_10985" data-name="Контур 10985" d="M571.117.264h2.353V7.335h1.557V8.461H573.47v1.9h-1.212v-1.9h-4.675V6.786Zm-2.495,6.9v.174h3.636V.784h-.173Z" transform="translate(-131.647 -0.061)" fill="#44e096"/>
      <path id="Контур_10986" data-name="Контур 10986" d="M582.592,12.057a1.01,1.01,0,1,1,.3.715.973.973,0,0,1-.3-.715" transform="translate(-135.128 -2.563)" fill="#44e096"/>
      <path id="Контур_10987" data-name="Контур 10987" d="M593.8,9.239V.8h-.173l-1.659,3.795h-1.2V4.505L592.654.263h2.353V9.239h2.857v1.125h-6.926V9.239Z" transform="translate(-137.024 -0.061)" fill="#44e096"/>
      <path id="Контур_10988" data-name="Контур 10988" d="M605.3,9.239V.8h-.173l-1.659,3.795h-1.2V4.505L604.154.263h2.353V9.239h2.857v1.125h-6.926V9.239Z" transform="translate(-139.691 -0.061)" fill="#44e096"/>
      <path id="Контур_10989" data-name="Контур 10989" d="M616.79,9.239V.8h-.173l-1.659,3.795h-1.2V4.505L615.649.263H618V9.239h2.857v1.125h-6.926V9.239Z" transform="translate(-142.358 -0.061)" fill="#44e096"/>
      <rect id="Прямоугольник_18179" data-name="Прямоугольник 18179" width="5.775" height="5.771" transform="translate(1191.039 480.741)" fill="#44e096"/>
      <rect id="Прямоугольник_18180" data-name="Прямоугольник 18180" width="5.771" height="5.771" transform="translate(1081.368 480.741)" fill="#44e096"/>
      <rect id="Прямоугольник_18181" data-name="Прямоугольник 18181" width="5.775" height="5.771" transform="translate(1000.555 480.74)" fill="#44e096"/>
      <rect id="Прямоугольник_18182" data-name="Прямоугольник 18182" width="5.771" height="5.771" transform="translate(1110.23 480.74)" fill="#44e096"/>
      <rect id="Прямоугольник_18183" data-name="Прямоугольник 18183" width="5.775" height="5.771" transform="translate(1191.039 394.157)" fill="#44e096"/>
      <rect id="Прямоугольник_18184" data-name="Прямоугольник 18184" width="5.771" height="5.771" transform="translate(1081.368 394.157)" fill="#44e096"/>
      <rect id="Прямоугольник_18185" data-name="Прямоугольник 18185" width="5.775" height="5.771" transform="translate(1000.555 394.157)" fill="#44e096"/>
      <rect id="Прямоугольник_18186" data-name="Прямоугольник 18186" width="5.771" height="5.771" transform="translate(1110.23 394.157)" fill="#44e096"/>
      <rect id="Прямоугольник_18187" data-name="Прямоугольник 18187" width="5.775" height="5.771" transform="translate(1191.039 307.574)" fill="#44e096"/>
      <rect id="Прямоугольник_18188" data-name="Прямоугольник 18188" width="5.771" height="5.771" transform="translate(1081.368 307.574)" fill="#44e096"/>
      <rect id="Прямоугольник_18189" data-name="Прямоугольник 18189" width="5.775" height="5.771" transform="translate(1000.555 307.574)" fill="#44e096"/>
      <rect id="Прямоугольник_18190" data-name="Прямоугольник 18190" width="5.771" height="5.771" transform="translate(1110.23 307.574)" fill="#44e096"/>
      <rect id="Прямоугольник_18191" data-name="Прямоугольник 18191" width="5.775" height="5.771" transform="translate(1191.039 220.991)" fill="#44e096"/>
      <rect id="Прямоугольник_18192" data-name="Прямоугольник 18192" width="5.771" height="5.771" transform="translate(1081.368 220.991)" fill="#44e096"/>
      <rect id="Прямоугольник_18193" data-name="Прямоугольник 18193" width="5.775" height="5.771" transform="translate(1000.555 220.991)" fill="#44e096"/>
      <rect id="Прямоугольник_18194" data-name="Прямоугольник 18194" width="5.771" height="5.771" transform="translate(1110.23 220.991)" fill="#44e096"/>
      <rect id="Прямоугольник_18195" data-name="Прямоугольник 18195" width="5.775" height="5.771" transform="translate(1191.039 134.408)" fill="#44e096"/>
      <rect id="Прямоугольник_18196" data-name="Прямоугольник 18196" width="5.771" height="5.771" transform="translate(1081.368 134.408)" fill="#44e096"/>
      <rect id="Прямоугольник_18197" data-name="Прямоугольник 18197" width="5.775" height="5.771" transform="translate(1000.555 134.407)" fill="#44e096"/>
      <rect id="Прямоугольник_18198" data-name="Прямоугольник 18198" width="5.771" height="5.771" transform="translate(1110.23 134.407)" fill="#44e096"/>
      <rect id="Прямоугольник_18199" data-name="Прямоугольник 18199" width="5.775" height="5.771" transform="translate(1191.039 47.824)" fill="#44e096"/>
      <rect id="Прямоугольник_18200" data-name="Прямоугольник 18200" width="5.771" height="5.771" transform="translate(1081.368 47.824)" fill="#44e096"/>
      <rect id="Прямоугольник_18201" data-name="Прямоугольник 18201" width="5.775" height="5.771" transform="translate(1000.555 47.824)" fill="#44e096"/>
      <rect id="Прямоугольник_18202" data-name="Прямоугольник 18202" width="5.771" height="5.771" transform="translate(1110.23 47.824)" fill="#44e096"/>
      <path id="Контур_10990" data-name="Контур 10990" d="M983.923,9.178V10.3h-6.838V8.572a2.943,2.943,0,0,1,.229-1.205,2.5,2.5,0,0,1,.659-.88A3.666,3.666,0,0,1,979,5.873a9.076,9.076,0,0,1,1.374-.419,3.992,3.992,0,0,0,1.853-.82,1.732,1.732,0,0,0,.571-1.314V3.232a2.355,2.355,0,0,0-.131-.764,1.941,1.941,0,0,0-1.1-1.163,2.623,2.623,0,0,0-1.019-.18,2.206,2.206,0,0,0-1.726.678,2.59,2.59,0,0,0-.613,1.8v.634H977V3.521a3.833,3.833,0,0,1,.233-1.328,3.358,3.358,0,0,1,.676-1.126,3.243,3.243,0,0,1,1.114-.778A3.8,3.8,0,0,1,980.548,0a4.03,4.03,0,0,1,1.53.266,3.215,3.215,0,0,1,1.081.708,2.807,2.807,0,0,1,.641,1,3.171,3.171,0,0,1,.211,1.133v.26a2.863,2.863,0,0,1-.722,1.969,4.2,4.2,0,0,1-2.308,1.161,5.286,5.286,0,0,0-2.036.8,1.712,1.712,0,0,0-.648,1.45v.433Z" transform="translate(-226.608)" fill="#44e096"/>
      <path id="Контур_10991" data-name="Контур 10991" d="M990.99,5.342V3.669l3.29-2.107V1.39h-5.714V.264h6.754V2.11l-3.29,2.106v.174h.577a3.342,3.342,0,0,1,1.111.187,2.866,2.866,0,0,1,.944.548,2.753,2.753,0,0,1,.666.888,2.839,2.839,0,0,1,.25,1.219v.26A2.87,2.87,0,0,1,995.32,8.7a3,3,0,0,1-.723.974,3.539,3.539,0,0,1-1.088.651,3.835,3.835,0,0,1-1.367.237,4.231,4.231,0,0,1-1.528-.26,3.407,3.407,0,0,1-1.152-.714,2.99,2.99,0,0,1-.729-1.068,3.383,3.383,0,0,1-.254-1.307V6.44h1.212v.692a2.487,2.487,0,0,0,.18.975,2.022,2.022,0,0,0,.507.722,2.219,2.219,0,0,0,.772.454,2.854,2.854,0,0,0,.965.159A2.446,2.446,0,0,0,993,9.283a2.2,2.2,0,0,0,.715-.44,2.068,2.068,0,0,0,.475-.664,1.945,1.945,0,0,0,.173-.816V7.276a1.8,1.8,0,0,0-.578-1.422,2.085,2.085,0,0,0-1.441-.512Z" transform="translate(-229.271 -0.061)" fill="#44e096"/>
      <path id="Контур_10992" data-name="Контур 10992" d="M1006.922,9.178V10.3h-6.838V8.572a2.943,2.943,0,0,1,.23-1.205,2.5,2.5,0,0,1,.658-.88A3.671,3.671,0,0,1,1002,5.873a9.063,9.063,0,0,1,1.373-.419,3.991,3.991,0,0,0,1.853-.82,1.732,1.732,0,0,0,.571-1.314V3.232a2.353,2.353,0,0,0-.131-.764,1.941,1.941,0,0,0-1.1-1.163,2.616,2.616,0,0,0-1.018-.18,2.207,2.207,0,0,0-1.727.678,2.59,2.59,0,0,0-.612,1.8v.634H1000V3.521a3.831,3.831,0,0,1,.233-1.328,3.347,3.347,0,0,1,.677-1.126,3.232,3.232,0,0,1,1.113-.778A3.8,3.8,0,0,1,1003.547,0a4.029,4.029,0,0,1,1.529.266,3.214,3.214,0,0,1,1.081.708,2.806,2.806,0,0,1,.641,1,3.172,3.172,0,0,1,.211,1.133v.26a2.863,2.863,0,0,1-.722,1.969,4.2,4.2,0,0,1-2.308,1.161,5.285,5.285,0,0,0-2.036.8,1.714,1.714,0,0,0-.648,1.45v.433Z" transform="translate(-231.942)" fill="#44e096"/>
      <path id="Контур_10993" data-name="Контур 10993" d="M1014.744.264h2.354V7.335h1.558V8.461H1017.1v1.9h-1.213v-1.9h-4.674V6.786Zm-2.493,6.9v.174h3.634V.784h-.172Z" transform="translate(-234.544 -0.061)" fill="#44e096"/>
      <path id="Контур_10994" data-name="Контур 10994" d="M1026.225,12.057a1.008,1.008,0,1,1,.295.715.975.975,0,0,1-.295-.715" transform="translate(-238.026 -2.563)" fill="#44e096"/>
      <path id="Контур_10995" data-name="Контур 10995" d="M1037.429,9.239V.8h-.174L1035.6,4.592h-1.2V4.505l1.889-4.242h2.353V9.239h2.858v1.125h-6.927V9.239Z" transform="translate(-239.922 -0.061)" fill="#44e096"/>
      <path id="Контур_10996" data-name="Контур 10996" d="M1048.924,9.239V.8h-.174l-1.659,3.795h-1.2V4.505l1.889-4.242h2.353V9.239h2.858v1.125h-6.927V9.239Z" transform="translate(-242.588 -0.061)" fill="#44e096"/>
      <path id="Контур_10997" data-name="Контур 10997" d="M1060.423,9.239V.8h-.173l-1.659,3.795h-1.2V4.505l1.888-4.242h2.353V9.239h2.857v1.125h-6.926V9.239Z" transform="translate(-245.255 -0.061)" fill="#44e096"/>
      <path id="Контур_10998" data-name="Контур 10998" d="M1242.973,253.488v-8.441h-.173l-1.66,3.794h-1.2v-.087l1.889-4.242h2.353v8.975h2.858v1.126h-6.927v-1.126Z" transform="translate(-287.596 -56.713)" fill="#44e096"/>
      <path id="Контур_10999" data-name="Контур 10999" d="M1254.472,253.488v-8.441h-.173l-1.659,3.794h-1.2v-.087l1.888-4.242h2.353v8.975h2.857v1.126h-6.926v-1.126Z" transform="translate(-290.264 -56.713)" fill="#44e096"/>
      <path id="Контур_11000" data-name="Контур 11000" d="M1269.96,253.426v1.126h-6.838v-1.732a2.937,2.937,0,0,1,.229-1.2,2.507,2.507,0,0,1,.658-.881,3.684,3.684,0,0,1,1.029-.614,9.07,9.07,0,0,1,1.374-.419,4,4,0,0,0,1.853-.82,1.73,1.73,0,0,0,.57-1.314v-.087a2.37,2.37,0,0,0-.13-.764,1.974,1.974,0,0,0-.4-.678,1.994,1.994,0,0,0-.7-.485,2.624,2.624,0,0,0-1.019-.179,2.207,2.207,0,0,0-1.727.677,2.594,2.594,0,0,0-.612,1.8v.634h-1.213v-.72a3.851,3.851,0,0,1,.233-1.329,3.357,3.357,0,0,1,.677-1.125,3.236,3.236,0,0,1,1.114-.779,3.8,3.8,0,0,1,1.528-.289,4.03,4.03,0,0,1,1.53.266,3.231,3.231,0,0,1,1.081.708,2.806,2.806,0,0,1,.641,1,3.173,3.173,0,0,1,.211,1.133v.26a2.858,2.858,0,0,1-.722,1.969,4.2,4.2,0,0,1-2.307,1.161,5.27,5.27,0,0,0-2.036.8,1.712,1.712,0,0,0-.648,1.45v.433Z" transform="translate(-292.952 -56.652)" fill="#44e096"/>
      <path id="Контур_11001" data-name="Контур 11001" d="M1277.782,244.513h2.353v7.071h1.559v1.125h-1.559v1.9h-1.212v-1.9h-4.674v-1.675Zm-2.494,6.9v.174h3.635v-6.552h-.172Z" transform="translate(-295.554 -56.713)" fill="#44e096"/>
      <path id="Контур_11002" data-name="Контур 11002" d="M1289.262,256.306a1.011,1.011,0,1,1,.3.715.972.972,0,0,1-.3-.715" transform="translate(-299.036 -59.214)" fill="#44e096"/>
      <path id="Контур_11003" data-name="Контур 11003" d="M1300.466,253.488v-8.441h-.173l-1.659,3.794h-1.2v-.087l1.888-4.242h2.353v8.975h2.857v1.126h-6.926v-1.126Z" transform="translate(-300.932 -56.713)" fill="#44e096"/>
      <path id="Контур_11004" data-name="Контур 11004" d="M1311.961,253.488v-8.441h-.173l-1.659,3.794h-1.2v-.087l1.888-4.242h2.353v8.975h2.857v1.126H1309.1v-1.126Z" transform="translate(-303.598 -56.713)" fill="#44e096"/>
      <path id="Контур_11005" data-name="Контур 11005" d="M1323.461,253.488v-8.441h-.173l-1.66,3.794h-1.2v-.087l1.889-4.242h2.353v8.975h2.858v1.126H1320.6v-1.126Z" transform="translate(-306.265 -56.713)" fill="#44e096"/>
      <path id="Контур_11006" data-name="Контур 11006" d="M1334.515,249.591v-1.674l3.29-2.107v-.172h-5.714v-1.126h6.754v1.846l-3.29,2.107v.174h.577a3.324,3.324,0,0,1,1.11.187,2.847,2.847,0,0,1,.943.548,2.73,2.73,0,0,1,.666.888,2.829,2.829,0,0,1,.251,1.219v.26a2.868,2.868,0,0,1-.257,1.212,3.007,3.007,0,0,1-.723.974,3.543,3.543,0,0,1-1.089.651,3.831,3.831,0,0,1-1.366.238,4.237,4.237,0,0,1-1.529-.261,3.409,3.409,0,0,1-1.152-.714,3,3,0,0,1-.729-1.067,3.4,3.4,0,0,1-.254-1.307v-.779h1.213v.692a2.5,2.5,0,0,0,.179.975,2.013,2.013,0,0,0,.508.722,2.211,2.211,0,0,0,.771.455,2.877,2.877,0,0,0,.966.158,2.459,2.459,0,0,0,.888-.158,2.213,2.213,0,0,0,.716-.441,2.078,2.078,0,0,0,.475-.664,1.943,1.943,0,0,0,.173-.815v-.086a1.8,1.8,0,0,0-.578-1.422,2.086,2.086,0,0,0-1.441-.512Z" transform="translate(-308.949 -56.713)" fill="#44e096"/>
      <path id="Контур_11007" data-name="Контур 11007" d="M1346.015,249.591v-1.674l3.29-2.107v-.172h-5.714v-1.126h6.754v1.846l-3.29,2.107v.174h.578a3.317,3.317,0,0,1,1.11.187,2.843,2.843,0,0,1,.944.548,2.753,2.753,0,0,1,.666.888,2.829,2.829,0,0,1,.25,1.219v.26a2.857,2.857,0,0,1-.257,1.212,3,3,0,0,1-.723.974,3.54,3.54,0,0,1-1.088.651,3.834,3.834,0,0,1-1.366.238,4.233,4.233,0,0,1-1.529-.261,3.408,3.408,0,0,1-1.152-.714,3,3,0,0,1-.729-1.067,3.39,3.39,0,0,1-.254-1.307v-.779h1.212v.692a2.488,2.488,0,0,0,.18.975,2.02,2.02,0,0,0,.507.722,2.221,2.221,0,0,0,.772.455,2.877,2.877,0,0,0,.966.158,2.461,2.461,0,0,0,.888-.158,2.21,2.21,0,0,0,.715-.441,2.067,2.067,0,0,0,.475-.664,1.943,1.943,0,0,0,.173-.815v-.086a1.8,1.8,0,0,0-.578-1.422,2.089,2.089,0,0,0-1.441-.512Z" transform="translate(-311.617 -56.713)" fill="#44e096"/>
      <path id="Контур_11008" data-name="Контур 11008" d="M1522.069,5.6V.263h6.323V1.389h-5.14V5h.177a2.583,2.583,0,0,1,.373-.557,2.5,2.5,0,0,1,.542-.469,2.814,2.814,0,0,1,1.564-.448,3.486,3.486,0,0,1,1.28.231,2.91,2.91,0,0,1,1,.65,3.005,3.005,0,0,1,.658,1.009,3.508,3.508,0,0,1,.237,1.314v.26a4.062,4.062,0,0,1-.23,1.363,3.41,3.41,0,0,1-.68,1.14,3.185,3.185,0,0,1-1.11.787,3.823,3.823,0,0,1-1.528.289,4.315,4.315,0,0,1-1.561-.26,3.223,3.223,0,0,1-1.138-.72,3.023,3.023,0,0,1-.7-1.091,3.818,3.818,0,0,1-.24-1.363v-.4h1.213v.317a2.287,2.287,0,0,0,.673,1.8,2.544,2.544,0,0,0,1.755.6,2.335,2.335,0,0,0,1.014-.21,2.127,2.127,0,0,0,.737-.564,2.3,2.3,0,0,0,.44-.823,3.3,3.3,0,0,0,.145-.972V6.785a2.263,2.263,0,0,0-.152-.836,2.132,2.132,0,0,0-.419-.679,1.9,1.9,0,0,0-.648-.454,2.055,2.055,0,0,0-.832-.166,1.66,1.66,0,0,0-.553.087,1.583,1.583,0,0,0-.441.224,1.313,1.313,0,0,0-.309.31,1.085,1.085,0,0,0-.166.333Z" transform="translate(-352.994 -0.061)" fill="#44e096"/>
      <path id="Контур_11009" data-name="Контур 11009" d="M1533.569,5.6V.263h6.324V1.389h-5.141V5h.177a2.61,2.61,0,0,1,.373-.557,2.5,2.5,0,0,1,.543-.469,2.813,2.813,0,0,1,1.564-.448,3.483,3.483,0,0,1,1.279.231,2.894,2.894,0,0,1,1,.65,2.991,2.991,0,0,1,.658,1.009,3.494,3.494,0,0,1,.237,1.314v.26a4.062,4.062,0,0,1-.229,1.363,3.41,3.41,0,0,1-.681,1.14,3.174,3.174,0,0,1-1.109.787,3.823,3.823,0,0,1-1.529.289,4.321,4.321,0,0,1-1.561-.26,3.23,3.23,0,0,1-1.138-.72,3.031,3.031,0,0,1-.7-1.091,3.8,3.8,0,0,1-.24-1.363v-.4h1.213v.317a2.29,2.29,0,0,0,.672,1.8,2.545,2.545,0,0,0,1.755.6,2.339,2.339,0,0,0,1.015-.21,2.126,2.126,0,0,0,.737-.564,2.3,2.3,0,0,0,.44-.823,3.3,3.3,0,0,0,.144-.972V6.785a2.248,2.248,0,0,0-.152-.836,2.121,2.121,0,0,0-.419-.679,1.9,1.9,0,0,0-.648-.454,2.049,2.049,0,0,0-.831-.166,1.669,1.669,0,0,0-.554.087,1.579,1.579,0,0,0-.44.224,1.334,1.334,0,0,0-.31.31,1.1,1.1,0,0,0-.165.333Z" transform="translate(-355.661 -0.061)" fill="#44e096"/>
      <path id="Контур_11010" data-name="Контур 11010" d="M1548.114.264h2.353V7.335h1.558V8.461h-1.558v1.9h-1.212v-1.9h-4.675V6.786Zm-2.495,6.9v.174h3.636V.784h-.172Z" transform="translate(-358.255 -0.061)" fill="#44e096"/>
      <path id="Контур_11011" data-name="Контур 11011" d="M1559.589,12.057a1.01,1.01,0,1,1,.3.715.973.973,0,0,1-.3-.715" transform="translate(-361.736 -2.563)" fill="#44e096"/>
      <path id="Контур_11012" data-name="Контур 11012" d="M1570.792,9.239V.8h-.173l-1.659,3.795h-1.2V4.505l1.888-4.242H1572V9.239h2.857v1.125h-6.926V9.239Z" transform="translate(-363.632 -0.061)" fill="#44e096"/>
      <path id="Контур_11013" data-name="Контур 11013" d="M1582.292,9.239V.8h-.173l-1.66,3.795h-1.2V4.505l1.889-4.242h2.353V9.239h2.857v1.125h-6.926V9.239Z" transform="translate(-366.299 -0.061)" fill="#44e096"/>
      <path id="Контур_11014" data-name="Контур 11014" d="M1593.787,9.239V.8h-.173l-1.66,3.795h-1.2V4.505l1.889-4.242H1595V9.239h2.857v1.125h-6.926V9.239Z" transform="translate(-368.966 -0.061)" fill="#44e096"/>
      <line id="Линия_182" data-name="Линия 182" x2="57.722" transform="translate(735.035 443.22)" fill="none" stroke="#44e096" stroke-miterlimit="10" stroke-width="2"/>
      <line id="Линия_183" data-name="Линия 183" y2="57.722" transform="translate(763.896 414.359)" fill="none" stroke="#44e096" stroke-miterlimit="10" stroke-width="2"/>
      <line id="Линия_184" data-name="Линия 184" x2="57.722" transform="translate(735.035 270.053)" fill="none" stroke="#44e096" stroke-miterlimit="10" stroke-width="2"/>
      <line id="Линия_185" data-name="Линия 185" y2="57.723" transform="translate(763.896 241.192)" fill="none" stroke="#44e096" stroke-miterlimit="10" stroke-width="2"/>
      <circle id="Эллипс_841" data-name="Эллипс 841" cx="173.167" cy="173.167" r="173.167" transform="translate(590.729 96.886)" fill="none" stroke="#44e096" stroke-miterlimit="10" stroke-width="2"/>
      <path id="Контур_11015" data-name="Контур 11015" d="M789.567,227.157a173.206,173.206,0,1,1,27.587,186.7" transform="translate(-183.177 -29.428)" fill="none" stroke="#44e096" stroke-miterlimit="10" stroke-width="2"/>
      <path id="Контур_11016" data-name="Контур 11016" d="M1004.656,347.248a14.431,14.431,0,1,1-14.431-14.431A14.431,14.431,0,0,1,1004.656,347.248Z" transform="translate(-226.329 -77.195)" fill="none" stroke="#44e096" stroke-miterlimit="10" stroke-width="2"/>
      <path id="Контур_11060" data-name="Контур 11060" d="M789.567,170.127a75.417,75.417,0,1,1,12.012,81.29" transform="translate(-90.177 68.572)" fill="none" stroke="#44e096" stroke-miterlimit="10" stroke-width="2"/>
    </g>
  </g>
</svg>
