<svg xmlns="http://www.w3.org/2000/svg" width="403.357" height="353.657" viewBox="0 0 403.357 353.657">
  <g id="Сгруппировать_13438" data-name="Сгруппировать 13438" transform="matrix(-0.995, 0.105, -0.105, -0.995, 430.043, 329.793)" opacity="0.769">
    <text id="FOLDER_02" data-name="FOLDER 02" transform="matrix(1, 0, 0, -1, 222.307, 1)" fill="#fff" font-size="1" font-family="OpenSans, Open Sans" opacity="0.5"><tspan x="0" y="0">FOLDER 02</tspan></text>
    <path id="Контур_10725" data-name="Контур 10725" d="M114.893,57.451A57.446,57.446,0,1,0,57.448,114.9,57.446,57.446,0,0,0,114.893,57.451Z" transform="translate(175.535 121.69)" fill="none" stroke="#fff" stroke-miterlimit="10" stroke-width="0.5" opacity="0.1"/>
    <path id="Контур_10726" data-name="Контур 10726" d="M6.231,3.114A3.116,3.116,0,1,0,3.116,6.23,3.112,3.112,0,0,0,6.231,3.114Z" transform="translate(227.919 176.63)" fill="#fff"/>
    <path id="Контур_10727" data-name="Контур 10727" d="M204.383,102.192a102.191,102.191,0,1,0-102.189,102.2A102.189,102.189,0,0,0,204.383,102.192Z" transform="translate(128.094 75.604)" fill="none" stroke="#fff" stroke-miterlimit="10" stroke-width="0.5" opacity="0.1"/>
    <path id="Контур_10728" data-name="Контур 10728" d="M2.1,49.469l.038-15.514H3.779V33.6H2.141l.013-5.878H2.9v-.354H2.154l.011-3.583H2.9V23.44H2.165l.015-5.7h1.6v-.354H2.18l.011-5.054H2.9v-.353h-.7L2.2,8.392h.7V8.041H2.2L2.21,3.787H3.875V3.645H2.21l.005-.318H3.9L2.932,1.665,1.97,0,1.009,1.665.048,3.327H1.863v.318H0v.142H1.865l.013,4.254H.928v.351h.95l.014,3.584H.928v.353h.964L1.9,17.384H.162v.354H1.907l.018,5.7h-1v.349h1l.014,3.583H.928v.354H1.94L1.958,33.6H.162v.351h1.8l.049,15.514Z" transform="translate(229.034 191.382)" fill="#fff" opacity="0.38"/>
    <path id="Контур_10729" data-name="Контур 10729" d="M41.808,1.792,26.294,1.754V.119H25.94V1.753l-5.877-.011V1h-.35v.743L16.13,1.734V1h-.354v.733l1.967-.015V.119H17.39v1.6L12.337,1.7V1h-.354v.7L8.4,1.7V1H8.046v.7L3.794,1.686V.018H3.65V1.686l-.316,0V0L1.669.964,0,1.926l1.669.96,1.665.959V2.035H3.65V3.9h.144V2.035l4.252-.018v.95H8.4v-.95L11.983,2v.963h.354V2l5.053-.015V3.735h.353V1.987l-1.967-.018v1h.354v-1l3.583-.012V2.968h.35V1.957l5.877-.018v1.8h.354v-1.8l15.514-.05Z" transform="translate(237.628 177.846)" fill="#fff" opacity="0.38"/>
    <path id="Контур_10730" data-name="Контур 10730" d="M0,2.107l15.513.035V3.781h.354V2.146l5.877.011V2.9H22.1V2.157l3.586.009V2.9h.354V2.168l-1.965.013v1.6h.349v-1.6l5.055.012V2.9h.354V2.2l3.583.006v.7h.355V2.2l4.249.009V3.879h.146V2.212l.312,0V3.894l1.665-.957,1.667-.966-1.667-.959L38.474.048V1.866h-.312V0h-.146V1.866l-4.249.014V.931h-.355V1.88L29.827,1.9V.931h-.354V1.9l-5.055.012V.167h-.349V1.911l1.965.018v-1h-.354v1L22.1,1.941V.931h-.351v1.01l-5.877.021V.167h-.354v1.8L0,2.011Z" transform="translate(184.174 177.796)" fill="#fff" opacity="0.38"/>
    <path id="Контур_10731" data-name="Контур 10731" d="M2.1,0l.038,15.513H3.78v.354H2.142l.012,5.877H2.9v.35H2.155l.01,3.588H2.9v.354H2.165l.014,5.695h1.6v.356h-1.6l.013,5.052H2.9v.354h-.7L2.2,41.076h.7v.354H2.2l.009,4.252H3.876v.144H2.212l0,.316H3.9L2.932,47.8,1.97,49.473,1.01,47.8.047,46.142H1.864v-.316H0v-.144H1.867l.012-4.252H.929v-.354h.95l.013-3.583H.929v-.354h.963l.014-5.052H.162v-.356H1.91l.015-5.695h-1v-.354h1l.013-3.588H.929v-.35H1.94l.018-5.877H.162v-.354h1.8L2.011,0Z" transform="translate(229.086 118.345)" fill="#fff" opacity="0.38"/>
    <path id="Контур_10732" data-name="Контур 10732" d="M0,3.076,5.406,0l.437.773L.438,3.845Z" transform="translate(362.94 99.718)" fill="#fff"/>
    <rect id="Прямоугольник_17698" data-name="Прямоугольник 17698" width="0.888" height="6.215" transform="translate(371.005 104.534) rotate(62.351)" fill="#fff"/>
    <path id="Контур_10733" data-name="Контур 10733" d="M0,2.691,5.605,0l.382.8L.383,3.492Z" transform="translate(367.897 109.436)" fill="#fff"/>
    <rect id="Прямоугольник_17699" data-name="Прямоугольник 17699" width="0.887" height="6.215" transform="translate(375.822 114.427) rotate(66.394)" fill="#fff"/>
    <rect id="Прямоугольник_17700" data-name="Прямоугольник 17700" width="0.889" height="6.217" transform="matrix(0.368, 0.93, -0.93, 0.368, 377.967, 119.491)" fill="#fff"/>
    <rect id="Прямоугольник_17701" data-name="Прямоугольник 17701" width="0.887" height="6.214" transform="translate(379.934 124.631) rotate(70.4)" fill="#fff"/>
    <rect id="Прямоугольник_17702" data-name="Прямоугольник 17702" width="0.887" height="6.217" transform="matrix(0.303, 0.953, -0.953, 0.303, 381.722, 129.833)" fill="#fff"/>
    <rect id="Прямоугольник_17703" data-name="Прямоугольник 17703" width="0.887" height="6.216" transform="translate(383.33 135.102) rotate(74.515)" fill="#fff"/>
    <rect id="Прямоугольник_17704" data-name="Прямоугольник 17704" width="0.89" height="6.214" transform="translate(384.747 140.414) rotate(76.461)" fill="#fff"/>
    <path id="Контур_10734" data-name="Контур 10734" d="M6.089,0l.177.873L.177,2.123,0,1.254Z" transform="translate(379.892 145.772)" fill="#fff"/>
    <path id="Контур_10735" data-name="Контур 10735" d="M6.128,0l.147.88L.146,1.919,0,1.042Z" transform="translate(380.897 151.171)" fill="#fff"/>
    <rect id="Прямоугольник_17705" data-name="Прямоугольник 17705" width="0.887" height="6.216" transform="translate(387.883 156.612) rotate(82.466)" fill="#fff"/>
    <rect id="Прямоугольник_17706" data-name="Прямоугольник 17706" width="0.888" height="6.214" transform="translate(388.549 162.077) rotate(84.52)" fill="#fff"/>
    <rect id="Прямоугольник_17707" data-name="Прямоугольник 17707" width="0.888" height="6.216" transform="translate(389.022 167.547) rotate(86.336)" fill="#fff"/>
    <rect id="Прямоугольник_17708" data-name="Прямоугольник 17708" width="0.888" height="6.216" transform="translate(389.307 173.048) rotate(88.448)" fill="#fff"/>
    <path id="Контур_10736" data-name="Контур 10736" d="M6.223.039,6.216.93,0,.886.009,0Z" transform="translate(383.176 178.505)" fill="#fff"/>
    <rect id="Прямоугольник_17709" data-name="Прямоугольник 17709" width="6.218" height="0.888" transform="matrix(0.999, 0.04, -0.04, 0.999, 383.085, 183.792)" fill="#fff"/>
    <rect id="Прямоугольник_17710" data-name="Прямоугольник 17710" width="6.215" height="0.887" transform="translate(382.807 189.068) rotate(4.319)" fill="#fff"/>
    <path id="Контур_10737" data-name="Контур 10737" d="M6.274.685l-.1.885L0,.88.1,0Z" transform="translate(382.245 194.332)" fill="#fff"/>
    <path id="Контур_10738" data-name="Контур 10738" d="M6.279.9l-.131.878L0,.879.131,0Z" transform="translate(381.568 199.575)" fill="#fff"/>
    <path id="Контур_10739" data-name="Контур 10739" d="M6.275,1.123l-.162.871L0,.875.162,0Z" transform="translate(380.707 204.792)" fill="#fff"/>
    <rect id="Прямоугольник_17711" data-name="Прямоугольник 17711" width="6.215" height="0.888" transform="translate(379.857 209.981) rotate(12.363)" fill="#fff"/>
    <path id="Контур_10740" data-name="Контур 10740" d="M.222,0,6.243,1.541l-.222.86L0,.855Z" transform="translate(378.444 215.132)" fill="#fff"/>
    <path id="Контур_10741" data-name="Контур 10741" d="M.248,0,6.213,1.752,5.962,2.6,0,.852Z" transform="translate(377.046 220.231)" fill="#fff"/>
    <rect id="Прямоугольник_17712" data-name="Прямоугольник 17712" width="6.217" height="0.888" transform="translate(375.747 225.284) rotate(18.379)" fill="#fff"/>
    <rect id="Прямоугольник_17713" data-name="Прямоугольник 17713" width="6.215" height="0.888" transform="translate(374.023 230.283) rotate(20.344)" fill="#fff"/>
    <path id="Контур_10742" data-name="Контур 10742" d="M.339,0,6.087,2.364l-.34.822L0,.82Z" transform="translate(371.788 235.215)" fill="#fff"/>
    <rect id="Прямоугольник_17714" data-name="Прямоугольник 17714" width="6.216" height="0.888" transform="translate(370.058 240.078) rotate(24.361)" fill="#fff"/>
    <path id="Контур_10743" data-name="Контур 10743" d="M.391,0,5.96,2.758l-.4.8L0,.794Z" transform="translate(367.432 244.867)" fill="#fff"/>
    <rect id="Прямоугольник_17715" data-name="Прямоугольник 17715" width="6.217" height="0.888" transform="translate(365.422 249.573) rotate(28.378)" fill="#fff"/>
    <rect id="Прямоугольник_17716" data-name="Прямоугольник 17716" width="6.217" height="0.89" transform="matrix(0.863, 0.506, -0.506, 0.863, 362.857, 254.192)" fill="#fff"/>
    <rect id="Прямоугольник_17717" data-name="Прямоугольник 17717" width="6.215" height="0.888" transform="matrix(0.845, 0.535, -0.535, 0.845, 360.132, 258.723)" fill="#fff"/>
    <rect id="Прямоугольник_17718" data-name="Прямоугольник 17718" width="6.216" height="0.889" transform="translate(357.252 263.152) rotate(34.335)" fill="#fff"/>
    <path id="Контур_10744" data-name="Контур 10744" d="M.525,0,5.532,3.685,5,4.4,0,.715Z" transform="translate(353.693 267.48)" fill="#fff"/>
    <rect id="Прямоугольник_17719" data-name="Прямоугольник 17719" width="6.217" height="0.89" transform="matrix(0.784, 0.621, -0.621, 0.784, 351.037, 271.697)" fill="#fff"/>
    <rect id="Прямоугольник_17720" data-name="Прямоугольник 17720" width="6.214" height="0.888" transform="translate(347.709 275.805) rotate(40.373)" fill="#fff"/>
    <rect id="Прямоугольник_17721" data-name="Прямоугольник 17721" width="6.215" height="0.888" transform="translate(344.238 279.79) rotate(42.364)" fill="#fff"/>
    <rect id="Прямоугольник_17722" data-name="Прямоугольник 17722" width="6.217" height="0.887" transform="matrix(0.715, 0.699, -0.699, 0.715, 340.632, 283.652)" fill="#fff"/>
    <rect id="Прямоугольник_17723" data-name="Прямоугольник 17723" width="6.214" height="0.889" transform="translate(336.894 287.388) rotate(46.369)" fill="#fff"/>
    <path id="Контур_10745" data-name="Контур 10745" d="M.661,0,4.794,4.646l-.669.591L0,.589Z" transform="translate(332.364 290.991)" fill="#fff"/>
    <rect id="Прямоугольник_17724" data-name="Прямоугольник 17724" width="6.213" height="0.889" transform="matrix(0.638, 0.77, -0.77, 0.638, 329.036, 294.456)" fill="#fff"/>
    <path id="Контур_10746" data-name="Контур 10746" d="M.7,0,4.5,4.921l-.7.541L0,.541Z" transform="translate(324.224 297.78)" fill="#fff"/>
    <path id="Контур_10747" data-name="Контур 10747" d="M.722,0,4.343,5.053l-.724.516L0,.521Z" transform="translate(319.984 300.954)" fill="#fff"/>
    <rect id="Прямоугольник_17725" data-name="Прямоугольник 17725" width="6.214" height="0.89" transform="translate(316.376 303.985) rotate(56.362)" fill="#fff"/>
    <rect id="Прямоугольник_17726" data-name="Прямоугольник 17726" width="6.213" height="0.889" transform="translate(311.943 306.861) rotate(58.389)" fill="#fff"/>
    <path id="Контур_10748" data-name="Контур 10748" d="M.768,0,3.845,5.4l-.776.437L0,.438Z" transform="translate(306.641 309.581)" fill="#fff"/>
    <rect id="Прямоугольник_17727" data-name="Прямоугольник 17727" width="6.216" height="0.888" transform="translate(302.788 312.14) rotate(62.382)" fill="#fff"/>
    <path id="Контур_10749" data-name="Контур 10749" d="M.8,0,3.49,5.6l-.8.386L0,.389Z" transform="translate(297.275 314.534)" fill="#fff"/>
    <rect id="Прямоугольник_17728" data-name="Прямоугольник 17728" width="6.217" height="0.887" transform="matrix(0.401, 0.916, -0.916, 0.401, 293.284, 316.767)" fill="#fff"/>
    <rect id="Прямоугольник_17729" data-name="Прямоугольник 17729" width="6.215" height="0.887" transform="translate(288.421 318.83) rotate(68.365)" fill="#fff"/>
    <path id="Контур_10750" data-name="Контур 10750" d="M.835,0,2.923,5.853l-.834.3L0,.3Z" transform="translate(282.65 320.722)" fill="#fff"/>
    <rect id="Прямоугольник_17730" data-name="Прямоугольник 17730" width="6.215" height="0.889" transform="matrix(0.303, 0.953, -0.953, 0.303, 278.488, 322.439)" fill="#fff"/>
    <rect id="Прямоугольник_17731" data-name="Прямоугольник 17731" width="6.215" height="0.888" transform="translate(273.434 323.981) rotate(74.367)" fill="#fff"/>
    <rect id="Прямоугольник_17732" data-name="Прямоугольник 17732" width="6.216" height="0.887" transform="translate(268.326 325.345) rotate(76.359)" fill="#fff"/>
    <rect id="Прямоугольник_17733" data-name="Прямоугольник 17733" width="6.214" height="0.889" transform="translate(263.179 326.531) rotate(78.362)" fill="#fff"/>
    <rect id="Прямоугольник_17734" data-name="Прямоугольник 17734" width="6.213" height="0.888" transform="translate(257.989 327.539) rotate(80.338)" fill="#fff"/>
    <rect id="Прямоугольник_17735" data-name="Прямоугольник 17735" width="6.216" height="0.888" transform="translate(252.769 328.36) rotate(82.357)" fill="#fff"/>
    <rect id="Прямоугольник_17736" data-name="Прямоугольник 17736" width="6.217" height="0.889" transform="matrix(0.098, 0.995, -0.995, 0.098, 247.527, 329.003)" fill="#fff"/>
    <rect id="Прямоугольник_17737" data-name="Прямоугольник 17737" width="6.214" height="0.888" transform="translate(242.261 329.461) rotate(86.384)" fill="#fff"/>
    <rect id="Прямоугольник_17738" data-name="Прямоугольник 17738" width="6.216" height="0.888" transform="translate(236.982 329.732) rotate(88.357)" fill="#fff"/>
    <rect id="Прямоугольник_17739" data-name="Прямоугольник 17739" width="0.891" height="6.214" transform="translate(230.808 329.817) rotate(0.361)" fill="#fff"/>
    <rect id="Прямоугольник_17740" data-name="Прямоугольник 17740" width="0.89" height="6.213" transform="translate(225.527 329.692) rotate(2.378)" fill="#fff"/>
    <rect id="Прямоугольник_17741" data-name="Прямоугольник 17741" width="0.889" height="6.216" transform="translate(220.251 329.379) rotate(4.35)" fill="#fff"/>
    <rect id="Прямоугольник_17742" data-name="Прямоугольник 17742" width="0.89" height="6.215" transform="translate(214.99 328.886) rotate(6.375)" fill="#fff"/>
    <rect id="Прямоугольник_17743" data-name="Прямоугольник 17743" width="0.889" height="6.214" transform="translate(209.749 328.209) rotate(8.36)" fill="#fff"/>
    <path id="Контур_10751" data-name="Контур 10751" d="M1.993.156.872,6.272,0,6.111,1.12,0Z" transform="translate(203.418 327.351)" fill="#fff"/>
    <path id="Контур_10752" data-name="Контур 10752" d="M2.2.19.87,6.26,0,6.068,1.333,0Z" transform="translate(198.021 326.308)" fill="#fff"/>
    <path id="Контур_10753" data-name="Контур 10753" d="M2.405.218.863,6.24,0,6.019,1.547,0Z" transform="translate(192.668 325.087)" fill="#fff"/>
    <path id="Контур_10754" data-name="Контур 10754" d="M.857,6.211,0,5.963,1.754,0,2.6.246Z" transform="translate(187.364 323.687)" fill="#fff"/>
    <path id="Контур_10755" data-name="Контур 10755" d="M2.212.263a1.4,1.4,0,1,0,.315,1.948A1.4,1.4,0,0,0,2.212.263Z" transform="translate(173.559 336.778)" fill="#fff"/>
    <g id="Сгруппировать_13248" data-name="Сгруппировать 13248" transform="translate(171.491 334.708)">
      <path id="Контур_10756" data-name="Контур 10756" d="M3.47,0A3.466,3.466,0,0,0,1.44,6.28a3.436,3.436,0,0,0,2.024.654,3.47,3.47,0,0,0,2.812-1.44A3.471,3.471,0,0,0,5.491.653,3.441,3.441,0,0,0,3.47,0ZM3.463,6.556A3.091,3.091,0,1,1,6.516,2.97a3.056,3.056,0,0,1-.544,2.3A3.093,3.093,0,0,1,3.463,6.556Z" transform="translate(0 0)" fill="#fff"/>
    </g>
    <path id="Контур_10757" data-name="Контур 10757" d="M2.21.262a1.4,1.4,0,1,0,.317,1.949A1.4,1.4,0,0,0,2.21.262Z" transform="translate(340.135 306.236)" fill="#fff"/>
    <g id="Сгруппировать_13249" data-name="Сгруппировать 13249" transform="translate(338.065 304.165)">
      <path id="Контур_10758" data-name="Контур 10758" d="M3.47,0A3.466,3.466,0,0,0,1.44,6.28,3.465,3.465,0,0,0,6.886,2.915,3.468,3.468,0,0,0,3.47,0ZM3.463,6.56A3.1,3.1,0,1,1,5.97,5.275,3.077,3.077,0,0,1,3.463,6.56Z" fill="#fff"/>
    </g>
    <path id="Контур_10759" data-name="Контур 10759" d="M2.211.263a1.4,1.4,0,1,0,.316,1.948A1.4,1.4,0,0,0,2.211.263Z" transform="translate(396.747 146.409)" fill="#fff"/>
    <path id="Контур_10760" data-name="Контур 10760" d="M2.211.262a1.4,1.4,0,1,0,.315,1.948A1.394,1.394,0,0,0,2.211.262Z" transform="translate(122.399 89.694)" fill="#fff"/>
    <path id="Контур_10761" data-name="Контур 10761" d="M2.21.263a1.4,1.4,0,1,0,.315,1.948A1.4,1.4,0,0,0,2.21.263Z" transform="translate(108.245 110.961)" fill="#fff"/>
    <path id="Контур_10762" data-name="Контур 10762" d="M2.209.263a1.4,1.4,0,1,0,.318,1.947A1.393,1.393,0,0,0,2.209.263Z" transform="translate(99.648 129.801)" fill="#fff"/>
    <path id="Контур_10763" data-name="Контур 10763" d="M2.209.263a1.4,1.4,0,1,0,.316,1.946A1.4,1.4,0,0,0,2.209.263Z" transform="translate(93.812 152.42)" fill="#fff"/>
    <g id="Сгруппировать_13250" data-name="Сгруппировать 13250" transform="translate(394.678 144.337)">
      <path id="Контур_10764" data-name="Контур 10764" d="M3.468,0a3.467,3.467,0,0,0-2.03,6.28,3.419,3.419,0,0,0,2.021.655A3.468,3.468,0,0,0,3.468,0ZM3.459,6.56a3.064,3.064,0,0,1-1.8-.582A3.09,3.09,0,1,1,5.271.962a3.092,3.092,0,0,1,.7,4.312A3.109,3.109,0,0,1,3.459,6.56Z" fill="#fff"/>
    </g>
    <path id="Контур_10765" data-name="Контур 10765" d="M2.211.263A1.395,1.395,0,1,0,2.527,2.21,1.4,1.4,0,0,0,2.211.263Z" transform="translate(397.294 205.502)" fill="#fff"/>
    <path id="Контур_10766" data-name="Контур 10766" d="M2.21.262a1.4,1.4,0,1,0,.318,1.95A1.4,1.4,0,0,0,2.21.262Z" transform="translate(378.034 260.872)" fill="#fff"/>
    <path id="Контур_10767" data-name="Контур 10767" d="M2.21.262a1.4,1.4,0,1,0,.316,1.948A1.4,1.4,0,0,0,2.21.262Z" transform="translate(289.451 335.775)" fill="#fff"/>
    <path id="Контур_10768" data-name="Контур 10768" d="M2.207.264A1.4,1.4,0,1,0,2.525,2.21,1.39,1.39,0,0,0,2.207.264Z" transform="translate(231.559 346.845)" fill="#fff"/>
    <g id="Сгруппировать_13251" data-name="Сгруппировать 13251" transform="translate(232.437 329.732)">
      <rect id="Прямоугольник_17744" data-name="Прямоугольник 17744" width="0.699" height="14.468" transform="translate(0 0)" fill="#fff"/>
    </g>
    <g id="Сгруппировать_13252" data-name="Сгруппировать 13252" transform="translate(175.784 320.643)">
      <rect id="Прямоугольник_17745" data-name="Прямоугольник 17745" width="0.697" height="14.866" transform="translate(5.073 0) rotate(19.954)" fill="#fff"/>
    </g>
    <g id="Сгруппировать_13253" data-name="Сгруппировать 13253" transform="translate(361.953 94.43)">
      <path id="Контур_10769" data-name="Контур 10769" d="M0,6.61,11.688,0l.35.6L.346,7.21Z" fill="#fff"/>
    </g>
    <g id="Сгруппировать_13254" data-name="Сгруппировать 13254" transform="translate(380.453 148.205)">
      <path id="Контур_10770" data-name="Контур 10770" d="M0,2.281,13.441,0l.123.686L.12,2.966Z" fill="#fff"/>
    </g>
    <g id="Сгруппировать_13255" data-name="Сгруппировать 13255" transform="translate(380.987 203.321)">
      <path id="Контур_10771" data-name="Контур 10771" d="M.123,0,13.551,2.341l-.121.688L0,.685Z" fill="#fff"/>
    </g>
    <g id="Сгруппировать_13256" data-name="Сгруппировать 13256" transform="translate(363.239 253.01)">
      <rect id="Прямоугольник_17746" data-name="Прямоугольник 17746" width="13.739" height="0.699" transform="matrix(0.866, 0.499, -0.499, 0.866, 0.349, 0)" fill="#fff"/>
    </g>
    <g id="Сгруппировать_13257" data-name="Сгруппировать 13257" transform="translate(329.407 293.606)">
      <path id="Контур_10772" data-name="Контур 10772" d="M0,.45.535,0,9.643,10.7l-.537.45Z" fill="#fff"/>
    </g>
    <g id="Сгруппировать_13258" data-name="Сгруппировать 13258" transform="translate(284.109 320.287)">
      <path id="Контур_10773" data-name="Контур 10773" d="M0,.238.656,0,5.5,13.3l-.656.238Z" fill="#fff"/>
    </g>
    <g id="Сгруппировать_13259" data-name="Сгруппировать 13259" transform="translate(92.502 41.133)" opacity="0.5">
      <path id="Контур_10774" data-name="Контур 10774" d="M137.795,275.592C61.815,275.592,0,213.776,0,137.8q0-3.19.144-6.345.157-3.418.483-6.794c.229.036.461.055.693.076q-.315,3.33-.476,6.7Q.7,134.6.7,137.8c0,75.6,61.5,137.1,137.1,137.1s137.1-61.5,137.1-137.1S213.4.7,137.795.7A136.345,136.345,0,0,0,56.466,27.524c-.154-.174-.316-.345-.481-.51A137.034,137.034,0,0,1,137.795,0c75.985,0,137.8,61.816,137.8,137.8S213.78,275.592,137.795,275.592Z" transform="translate(0 0)" fill="#fff"/>
    </g>
    <text id="_06_.00_-2" data-name="06 {.00} -2" transform="matrix(0.934, 0.357, 0.357, -0.934, 170.616, 343.069)" fill="#fff" font-size="4" font-family="OpenSans, Open Sans" opacity="0.5"><tspan x="-9.448" y="0">06 {.00} -2</tspan></text>
    <text id="_06_.00_-2-2" data-name="06 {.00} -2" transform="matrix(-0.158, -0.987, -0.987, 0.158, 405.052, 148.026)" fill="#fff" font-size="4" font-family="OpenSans, Open Sans" opacity="0.6"><tspan x="-9.448" y="0">06 {.00} -2</tspan></text>
    <text id="_06_.00_-2-3" data-name="06 {.00} -2" transform="matrix(0.189, -0.982, -0.982, -0.189, 405.508, 209.67)" fill="#fff" font-size="4" font-family="OpenSans, Open Sans" opacity="0.1"><tspan x="-9.448" y="0">06 {.00} -2</tspan></text>
    <text id="_06_.00_-2-4" data-name="06 {.00} -2" transform="matrix(0.776, -0.631, -0.631, -0.776, 344.66, 312.939)" fill="#fff" font-size="4" font-family="OpenSans, Open Sans" opacity="0.5"><tspan x="-9.448" y="0">06 {.00} -2</tspan></text>
    <path id="Контур_10775" data-name="Контур 10775" d="M51.59,281.5l-2.72-7.567a137.447,137.447,0,0,0,88.66-128.5A137.383,137.383,0,0,0,.141,8.054c-.488,0,.481-.013,0,0V.006c.472-.014-.48,0,0,0A145.432,145.432,0,0,1,145.573,145.435,145.481,145.481,0,0,1,51.59,281.5Z" transform="translate(230.955 33.883)" fill="#fff" opacity="0.05"/>
    <g id="Сгруппировать_13260" data-name="Сгруппировать 13260" transform="translate(181.862 129.695)" opacity="0.5">
      <path id="Контур_10779" data-name="Контур 10779" d="M76.286,91.431a49.487,49.487,0,0,1-33.407,7.339c-.1-.011-.209-.024-.309-.042a1.637,1.637,0,0,1-.21-.03A49.506,49.506,0,0,1,12.179,82.155c-.07-.073-.141-.156-.21-.24A49.32,49.32,0,0,1,.018,51.414c0-.149-.014-.293-.018-.442a1.37,1.37,0,0,0,.31-.036c.007.155.007.3.018.446A49.026,49.026,0,0,0,12.215,81.716c.063.081.134.163.206.24A49.211,49.211,0,0,0,42.413,98.388a48.3,48.3,0,0,0,7.187.529,49.3,49.3,0,1,0,0-98.6,48.906,48.906,0,0,0-7.886.635A1.756,1.756,0,0,0,41.4,1,49.267,49.267,0,0,0,12.455,17.224c-.072.08-.135.162-.2.237A49,49,0,0,0,.393,46.579c-.017.147-.021.294-.03.439a1.454,1.454,0,0,0-.311-.034c.005-.144.018-.293.032-.44A49.325,49.325,0,0,1,12.021,17.256c.065-.074.131-.153.206-.228A49.545,49.545,0,0,1,41.355.688c.1-.018.2-.036.306-.046a49.47,49.47,0,0,1,32.3,5.768c.1.049.191.1.278.157a49.59,49.59,0,0,1,2.046,84.864Z" fill="#fff"/>
    </g>
    <g id="Сгруппировать_13261" data-name="Сгруппировать 13261" transform="translate(203.392 151.991)" opacity="0.5">
      <path id="Контур_10780" data-name="Контур 10780" d="M27.321,0A27.32,27.32,0,1,0,54.643,27.318,27.351,27.351,0,0,0,27.321,0Zm0,54.469a27.149,27.149,0,1,1,27.147-27.15A27.182,27.182,0,0,1,27.321,54.469Z" fill="#fff"/>
    </g>
    <path id="Контур_10781" data-name="Контур 10781" d="M45.173,90.348A45.174,45.174,0,1,1,90.348,45.175,45.174,45.174,0,0,1,45.173,90.348Zm0-77.737A32.562,32.562,0,1,0,77.736,45.175,32.563,32.563,0,0,0,45.173,12.611Z" transform="translate(186.35 134.706)" fill="#fff" opacity="0.1"/>
    <g id="Сгруппировать_13262" data-name="Сгруппировать 13262" transform="translate(203.191 157.071)">
      <path id="Контур_10782" data-name="Контур 10782" d="M.585,22.517A27.114,27.114,0,0,0,6.051,38.869l-.478.351A27.824,27.824,0,0,1,11.477,0L11.8.488A27.245,27.245,0,0,0,.585,22.517Z" transform="translate(0 0)" fill="#fff"/>
    </g>
    <path id="Контур_10783" data-name="Контур 10783" d="M.042,0,7.583,1.142l-.044.288L0,.293Z" transform="translate(196.329 173.867)" fill="#fff"/>
    <g id="Сгруппировать_13263" data-name="Сгруппировать 13263" transform="translate(220.934 168.839)" opacity="0.4">
      <path id="Контур_10784" data-name="Контур 10784" d="M.181.334A.17.17,0,0,1,0,.179.168.168,0,0,1,.157,0,.165.165,0,0,1,.336.154.169.169,0,0,1,.181.334Z" transform="translate(11.233 21.001)" fill="#fff"/>
      <path id="Контур_10785" data-name="Контур 10785" d="M.151.334A.165.165,0,0,1,0,.149.166.166,0,0,1,.185,0,.164.164,0,0,1,.334.185.167.167,0,0,1,.151.334Z" transform="translate(9.4 20.968)" fill="#fff"/>
      <path id="Контур_10786" data-name="Контур 10786" d="M.121.33A.17.17,0,0,1,.007.121.165.165,0,0,1,.213.007a.17.17,0,0,1,.117.21A.171.171,0,0,1,.121.33Z" transform="translate(7.599 20.617)" fill="#fff"/>
      <path id="Контур_10787" data-name="Контур 10787" d="M.094.319a.168.168,0,1,1,.147-.3A.166.166,0,0,1,.319.242.169.169,0,0,1,.094.319Z" transform="translate(5.886 19.96)" fill="#fff"/>
      <path id="Контур_10788" data-name="Контур 10788" d="M.069.306A.165.165,0,0,1,.034.072.166.166,0,0,1,.268.032.169.169,0,0,1,.3.268.168.168,0,0,1,.069.306Z" transform="translate(4.313 19.015)" fill="#fff"/>
      <path id="Контур_10789" data-name="Контур 10789" d="M.045.286A.174.174,0,0,1,.052.046a.17.17,0,0,1,.238,0,.169.169,0,0,1,0,.239A.172.172,0,0,1,.045.286Z" transform="translate(2.929 17.813)" fill="#fff"/>
      <path id="Контур_10790" data-name="Контур 10790" d="M.262.31A.169.169,0,0,1,.073.029.167.167,0,0,1,.307.073.169.169,0,0,1,.262.31Z" transform="translate(1.773 16.387)" fill="#fff"/>
      <path id="Контур_10791" data-name="Контур 10791" d="M.237.324A.172.172,0,0,1,.015.236.169.169,0,0,1,.1.013.173.173,0,0,1,.323.1.173.173,0,0,1,.237.324Z" transform="translate(0.884 14.782)" fill="#fff"/>
      <path id="Контур_10792" data-name="Контур 10792" d="M.21.334A.17.17,0,0,1,.005.211.168.168,0,0,1,.127,0,.171.171,0,0,1,.333.127.174.174,0,0,1,.21.334Z" transform="translate(0.286 13.047)" fill="#fff"/>
      <path id="Контур_10793" data-name="Контур 10793" d="M.334.155a.166.166,0,0,1-.155.18A.164.164,0,0,1,0,.179.166.166,0,0,1,.155,0,.166.166,0,0,1,.334.155Z" transform="translate(0 11.236)" fill="#fff"/>
      <path id="Контур_10794" data-name="Контур 10794" d="M.15.332A.163.163,0,0,1,0,.149.164.164,0,0,1,.183,0a.164.164,0,0,1,.15.182A.166.166,0,0,1,.15.332Z" transform="translate(0.032 9.403)" fill="#fff"/>
      <path id="Контур_10795" data-name="Контур 10795" d="M.119.33A.168.168,0,0,1,.007.12.17.17,0,0,1,.217.006.171.171,0,0,1,.33.217.169.169,0,0,1,.119.33Z" transform="translate(0.381 7.6)" fill="#fff"/>
      <path id="Контур_10796" data-name="Контур 10796" d="M.094.315A.163.163,0,0,1,.017.094.166.166,0,0,1,.242.018.165.165,0,0,1,.319.243.164.164,0,0,1,.094.315Z" transform="translate(1.038 5.888)" fill="#fff"/>
      <path id="Контур_10797" data-name="Контур 10797" d="M.07.305A.168.168,0,0,1,.032.07.165.165,0,0,1,.266.034.169.169,0,0,1,.306.27.173.173,0,0,1,.07.305Z" transform="translate(1.982 4.313)" fill="#fff"/>
      <path id="Контур_10798" data-name="Контур 10798" d="M.048.286A.167.167,0,0,1,.053.047.169.169,0,0,1,.29.05a.171.171,0,0,1,0,.24A.17.17,0,0,1,.048.286Z" transform="translate(3.186 2.929)" fill="#fff"/>
      <path id="Контур_10799" data-name="Контур 10799" d="M.263.309A.17.17,0,0,1,.028.263.169.169,0,0,1,.076.029.165.165,0,0,1,.307.074.17.17,0,0,1,.263.309Z" transform="translate(4.611 1.775)" fill="#fff"/>
      <path id="Контур_10800" data-name="Контур 10800" d="M.236.323A.171.171,0,0,1,.014.238.171.171,0,0,1,.1.014.167.167,0,0,1,.321.1.167.167,0,0,1,.236.323Z" transform="translate(6.216 0.885)" fill="#fff"/>
      <path id="Контур_10801" data-name="Контур 10801" d="M.21.333A.17.17,0,0,1,.126,0,.172.172,0,0,1,.332.128.172.172,0,0,1,.21.333Z" transform="translate(7.951 0.287)" fill="#fff"/>
      <path id="Контур_10802" data-name="Контур 10802" d="M.18.335A.163.163,0,0,1,0,.18.166.166,0,0,1,.156,0,.17.17,0,0,1,.335.157.165.165,0,0,1,.18.335Z" transform="translate(9.764 0)" fill="#fff"/>
      <path id="Контур_10803" data-name="Контур 10803" d="M.151.334A.167.167,0,0,1,0,.15.171.171,0,0,1,.185,0a.169.169,0,0,1,.15.185A.166.166,0,0,1,.151.334Z" transform="translate(11.597 0.033)" fill="#fff"/>
      <path id="Контур_10804" data-name="Контур 10804" d="M.12.33a.166.166,0,0,1-.114-.2A.169.169,0,0,1,.213.006.171.171,0,0,1,.33.216.167.167,0,0,1,.12.33Z" transform="translate(13.398 0.381)" fill="#fff"/>
      <path id="Контур_10805" data-name="Контур 10805" d="M.095.318A.164.164,0,0,1,.017.1.168.168,0,0,1,.243.017.166.166,0,0,1,.32.24.165.165,0,0,1,.095.318Z" transform="translate(15.11 1.04)" fill="#fff"/>
      <path id="Контур_10806" data-name="Контур 10806" d="M.069.3a.169.169,0,0,1,.2-.273A.165.165,0,0,1,.3.266.164.164,0,0,1,.069.3Z" transform="translate(16.683 1.984)" fill="#fff"/>
      <path id="Контур_10807" data-name="Контур 10807" d="M.047.286A.169.169,0,0,1,.052.047a.167.167,0,0,1,.238,0,.171.171,0,0,1,0,.239A.17.17,0,0,1,.047.286Z" transform="translate(18.068 3.187)" fill="#fff"/>
      <path id="Контур_10808" data-name="Контур 10808" d="M.262.306A.167.167,0,0,1,.028.264.17.17,0,0,1,.076.028.166.166,0,0,1,.307.075.165.165,0,0,1,.262.306Z" transform="translate(19.223 4.613)" fill="#fff"/>
      <path id="Контур_10809" data-name="Контур 10809" d="M.235.321A.171.171,0,0,1,.014.235.165.165,0,0,1,.1.015.169.169,0,0,1,.323.1.167.167,0,0,1,.235.321Z" transform="translate(20.112 6.22)" fill="#fff"/>
      <path id="Контур_10810" data-name="Контур 10810" d="M.211.332A.17.17,0,0,1,0,.211.17.17,0,0,1,.127,0,.171.171,0,0,1,.333.127.171.171,0,0,1,.211.332Z" transform="translate(20.71 7.952)" fill="#fff"/>
      <path id="Контур_10811" data-name="Контур 10811" d="M.18.336A.168.168,0,1,1,.156,0,.166.166,0,0,1,.334.156.166.166,0,0,1,.18.336Z" transform="translate(20.998 9.765)" fill="#fff"/>
      <path id="Контур_10812" data-name="Контур 10812" d="M.187,0A.168.168,0,0,1,.336.186.163.163,0,0,1,.153.333.168.168,0,0,1,0,.15.171.171,0,0,1,.187,0Z" transform="translate(20.965 11.599)" fill="#fff"/>
      <path id="Контур_10813" data-name="Контур 10813" d="M.12.329A.167.167,0,0,1,.007.122.168.168,0,1,1,.329.216.167.167,0,0,1,.12.329Z" transform="translate(20.617 13.399)" fill="#fff"/>
      <path id="Контур_10814" data-name="Контур 10814" d="M.1.32A.167.167,0,0,1,.019.093.164.164,0,0,1,.243.019.165.165,0,0,1,.321.241.169.169,0,0,1,.1.32Z" transform="translate(19.957 15.113)" fill="#fff"/>
      <path id="Контур_10815" data-name="Контур 10815" d="M.069.3A.172.172,0,0,1,.032.067.168.168,0,0,1,.266.033.167.167,0,0,1,.3.269.169.169,0,0,1,.069.3Z" transform="translate(19.014 16.685)" fill="#fff"/>
      <path id="Контур_10816" data-name="Контур 10816" d="M.047.284a.168.168,0,0,1,0-.238A.169.169,0,0,1,.286.29.169.169,0,0,1,.047.284Z" transform="translate(17.81 18.071)" fill="#fff"/>
      <path id="Контур_10817" data-name="Контур 10817" d="M.261.309A.167.167,0,0,1,.028.265.174.174,0,0,1,.073.028.171.171,0,0,1,.307.073.171.171,0,0,1,.261.309Z" transform="translate(16.385 19.224)" fill="#fff"/>
      <path id="Контур_10818" data-name="Контур 10818" d="M.237.323A.173.173,0,0,1,.014.239.169.169,0,0,1,.1.014.168.168,0,0,1,.322.1.172.172,0,0,1,.237.323Z" transform="translate(14.779 20.115)" fill="#fff"/>
      <path id="Контур_10819" data-name="Контур 10819" d="M.211.333A.171.171,0,0,1,0,.211.172.172,0,0,1,.128,0a.17.17,0,0,1,.2.126A.169.169,0,0,1,.211.333Z" transform="translate(13.046 20.711)" fill="#fff"/>
    </g>
    <path id="Контур_10820" data-name="Контур 10820" d="M220.509,0,44.427,79,0,78.658Z" transform="translate(10.067 180.48)" fill="none" stroke="#fff" stroke-miterlimit="10" stroke-width="0.1"/>
    <path id="Контур_10825" data-name="Контур 10825" d="M7.74,8.367,0,4.181,7.74,0,6.055,4.181Z" transform="translate(0 255.298)" fill="#ff7a07"/>
  </g>
</svg>
