<svg xmlns="http://www.w3.org/2000/svg">
    <symbol id="arrow" viewBox="0 0 20.151 18">
        <path d="M80.5,90.648l-.928.919,7.356,7.428H69V100.3H86.932l-7.356,7.428.928.919,8.458-8.54a.653.653,0,0,0,0-.919Z" transform="translate(-69 -90.648)" fill="inherit"/>
    </symbol>
    <symbol id="logo">
        <style type="text/css">
        .st0{enable-background:new;}
        .st1{fill:inherit;}
        </style>
        <g transform="translate(-137 -50)">
            <g class="st0">
                <path class="st1" d="M140.3,78.6H137V50h3.5v10.2c1.5-1.9,3.4-2.8,5.7-2.8c1.3,0,2.5,0.3,3.6,0.8c1.1,0.5,2.1,1.2,2.8,2.2
                    c0.7,0.9,1.3,2.1,1.7,3.4c0.4,1.3,0.6,2.7,0.6,4.2c0,3.6-0.9,6.3-2.6,8.2s-3.9,2.9-6.3,2.9c-2.4,0-4.4-1-5.8-3.1V78.6z
                    M140.2,68.1c0,2.5,0.3,4.3,1,5.4c1.1,1.8,2.6,2.7,4.5,2.7c1.5,0,2.9-0.7,4-2c1.1-1.3,1.7-3.3,1.7-6c0-2.7-0.5-4.7-1.6-6
                    s-2.4-1.9-3.9-1.9c-1.5,0-2.9,0.7-4,2C140.8,63.6,140.2,65.6,140.2,68.1z"/>
                <path class="st1" d="M158,68.3c0-3.8,1.1-6.7,3.2-8.5c1.8-1.5,4-2.3,6.5-2.3c2.9,0,5.2,0.9,7,2.8c1.8,1.9,2.7,4.5,2.7,7.7
                    c0,2.7-0.4,4.8-1.2,6.3s-2,2.7-3.5,3.6c-1.5,0.8-3.2,1.3-5,1.3c-2.9,0-5.3-0.9-7-2.8C158.9,74.4,158,71.8,158,68.3z M161.6,68.3
                    c0,2.7,0.6,4.6,1.7,6c1.2,1.3,2.6,2,4.4,2c1.7,0,3.2-0.7,4.4-2c1.2-1.3,1.7-3.4,1.7-6.1c0-2.6-0.6-4.5-1.7-5.8
                    c-1.2-1.3-2.6-2-4.3-2c-1.8,0-3.2,0.7-4.4,2C162.1,63.6,161.6,65.6,161.6,68.3z"/>
                <path class="st1" d="M180.1,72.4l3.5-0.5c0.2,1.4,0.7,2.5,1.6,3.2c0.9,0.7,2.1,1.1,3.7,1.1c1.6,0,2.8-0.3,3.6-1s1.2-1.4,1.2-2.3
                    c0-0.8-0.3-1.4-1-1.9c-0.5-0.3-1.7-0.7-3.6-1.2c-2.6-0.7-4.4-1.2-5.4-1.7s-1.8-1.1-2.3-2c-0.5-0.8-0.8-1.8-0.8-2.8
                    c0-0.9,0.2-1.8,0.6-2.6c0.4-0.8,1-1.4,1.7-2c0.5-0.4,1.3-0.7,2.2-1c0.9-0.3,2-0.4,3-0.4c1.6,0,3.1,0.2,4.3,0.7s2.1,1.1,2.7,1.9
                    s1,1.9,1.2,3.2l-3.4,0.5c-0.2-1.1-0.6-1.9-1.4-2.5c-0.7-0.6-1.8-0.9-3.2-0.9c-1.6,0-2.8,0.3-3.5,0.8c-0.7,0.5-1,1.2-1,1.9
                    c0,0.5,0.1,0.9,0.4,1.2c0.3,0.4,0.7,0.7,1.3,0.9c0.4,0.1,1.4,0.4,3.1,0.9c2.5,0.7,4.2,1.2,5.2,1.6c1,0.4,1.8,1,2.3,1.8
                    c0.6,0.8,0.8,1.8,0.8,3c0,1.2-0.3,2.3-1,3.3s-1.7,1.8-3,2.4s-2.7,0.8-4.4,0.8c-2.7,0-4.7-0.6-6.2-1.7
                    C181.4,76.3,180.5,74.6,180.1,72.4z"/>
                <path class="st1" d="M200.2,68.3c0-3.8,1.1-6.7,3.2-8.5c1.8-1.5,4-2.3,6.5-2.3c2.9,0,5.2,0.9,7,2.8c1.8,1.9,2.7,4.5,2.7,7.7
                    c0,2.7-0.4,4.8-1.2,6.3s-2,2.7-3.5,3.6c-1.5,0.8-3.2,1.3-5,1.3c-2.9,0-5.3-0.9-7-2.8C201.1,74.4,200.2,71.8,200.2,68.3z
                    M203.8,68.3c0,2.7,0.6,4.6,1.7,6c1.2,1.3,2.6,2,4.4,2c1.7,0,3.2-0.7,4.4-2c1.2-1.3,1.7-3.4,1.7-6.1c0-2.6-0.6-4.5-1.7-5.8
                    c-1.2-1.3-2.6-2-4.3-2c-1.8,0-3.2,0.7-4.4,2C204.4,63.6,203.8,65.6,203.8,68.3z"/>
                <path class="st1" d="M223.8,78.6V57.9h3.2v2.9c1.5-2.3,3.7-3.4,6.6-3.4c1.3,0,2.4,0.2,3.4,0.7c1,0.4,1.8,1,2.4,1.8
                    c0.5,0.7,0.9,1.6,1.1,2.6c0.1,0.7,0.2,1.8,0.2,3.4v12.8h-3.5V66c0-1.4-0.1-2.5-0.4-3.2s-0.8-1.3-1.5-1.7c-0.7-0.4-1.5-0.6-2.5-0.6
                    c-1.5,0-2.8,0.5-3.9,1.4c-1.1,1-1.6,2.8-1.6,5.4v11.3H223.8z"/>
                <path class="st1" d="M260.2,72l3.6,0.4c-0.6,2.1-1.6,3.8-3.2,4.9c-1.5,1.2-3.5,1.8-5.9,1.8c-3,0-5.4-0.9-7.2-2.8s-2.7-4.5-2.7-7.9
                    c0-3.5,0.9-6.2,2.7-8.1s4.1-2.9,7-2.9c2.8,0,5,0.9,6.8,2.8s2.6,4.5,2.6,8c0,0.2,0,0.5,0,0.9h-15.5c0.1,2.3,0.8,4,1.9,5.2
                    c1.2,1.2,2.6,1.8,4.3,1.8c1.3,0,2.4-0.3,3.3-1C258.9,74.5,259.7,73.4,260.2,72z M248.7,66.3h11.6c-0.2-1.7-0.6-3.1-1.3-3.9
                    c-1.1-1.4-2.6-2-4.4-2c-1.6,0-3,0.5-4.1,1.6C249.4,63,248.8,64.5,248.7,66.3z"/>
                <path class="st1" d="M275.9,75.5l0.5,3.1c-1,0.2-1.9,0.3-2.7,0.3c-1.3,0-2.3-0.2-3-0.6s-1.2-0.9-1.5-1.6c-0.3-0.7-0.4-2-0.4-4.2
                    V60.6h-2.6v-2.7h2.6v-5.1l3.5-2.1v7.2h3.5v2.7h-3.5v12.1c0,1,0.1,1.6,0.2,1.9c0.1,0.3,0.3,0.5,0.6,0.7c0.3,0.2,0.7,0.3,1.2,0.3
                    C274.8,75.6,275.3,75.6,275.9,75.5z"/>
            </g>
            <g class="st0">
                <path class="st1" d="M137.4,95.6l3.3-8.6h1.2l3.5,8.6h-1.3l-1-2.6h-3.6l-0.9,2.6H137.4z M139.8,92.1h2.9l-0.9-2.4
                    c-0.3-0.7-0.5-1.3-0.6-1.8c-0.1,0.6-0.3,1.1-0.5,1.6L139.8,92.1z"/>
                <path class="st1" d="M150.2,95.6v-0.8c-0.4,0.6-1,0.9-1.7,0.9c-0.5,0-1-0.1-1.4-0.4s-0.7-0.7-1-1.1s-0.3-1.1-0.3-1.7
                    c0-0.6,0.1-1.2,0.3-1.7s0.5-0.9,0.9-1.2s0.9-0.4,1.4-0.4c0.4,0,0.7,0.1,1,0.2s0.5,0.4,0.7,0.6V87h1v8.6H150.2z M146.9,92.5
                    c0,0.8,0.2,1.4,0.5,1.8s0.7,0.6,1.2,0.6c0.5,0,0.9-0.2,1.2-0.6s0.5-1,0.5-1.7c0-0.9-0.2-1.5-0.5-1.9s-0.7-0.6-1.2-0.6
                    c-0.5,0-0.9,0.2-1.2,0.6S146.9,91.7,146.9,92.5z"/>
                <path class="st1" d="M154.6,95.6l-2.4-6.2h1.1l1.3,3.7c0.1,0.4,0.3,0.8,0.4,1.3c0.1-0.3,0.2-0.7,0.4-1.2l1.4-3.8h1.1l-2.4,6.2
                    H154.6z"/>
                <path class="st1" d="M162.9,94.9c-0.4,0.3-0.8,0.6-1.1,0.7s-0.7,0.2-1.2,0.2c-0.7,0-1.2-0.2-1.6-0.5s-0.6-0.8-0.6-1.3
                    c0-0.3,0.1-0.6,0.2-0.8s0.3-0.5,0.5-0.6s0.5-0.3,0.8-0.3c0.2-0.1,0.5-0.1,0.9-0.2c0.9-0.1,1.5-0.2,1.9-0.4c0-0.1,0-0.2,0-0.3
                    c0-0.4-0.1-0.7-0.3-0.9c-0.3-0.2-0.7-0.4-1.2-0.4c-0.5,0-0.9,0.1-1.1,0.3s-0.4,0.5-0.5,0.9l-1-0.1c0.1-0.4,0.2-0.8,0.5-1.1
                    s0.5-0.5,0.9-0.6s0.9-0.2,1.4-0.2c0.5,0,1,0.1,1.3,0.2s0.6,0.3,0.7,0.5s0.3,0.4,0.3,0.7c0,0.2,0.1,0.5,0.1,1V93c0,1,0,1.6,0.1,1.9
                    s0.1,0.5,0.3,0.7h-1.1C163,95.4,162.9,95.2,162.9,94.9z M162.8,92.5c-0.4,0.2-1,0.3-1.7,0.4c-0.4,0.1-0.7,0.1-0.9,0.2
                    s-0.3,0.2-0.4,0.3s-0.1,0.3-0.1,0.5c0,0.3,0.1,0.5,0.3,0.7s0.5,0.3,0.9,0.3c0.4,0,0.8-0.1,1.1-0.3s0.5-0.4,0.7-0.7
                    c0.1-0.2,0.2-0.6,0.2-1.1V92.5z"/>
                <path class="st1" d="M165.5,95.6v-6.2h0.9v0.9c0.5-0.7,1.1-1,2-1c0.4,0,0.7,0.1,1,0.2s0.5,0.3,0.7,0.5s0.3,0.5,0.3,0.8
                    c0,0.2,0.1,0.5,0.1,1v3.8h-1.1v-3.8c0-0.4,0-0.8-0.1-1s-0.2-0.4-0.4-0.5s-0.5-0.2-0.7-0.2c-0.4,0-0.8,0.1-1.2,0.4
                    s-0.5,0.8-0.5,1.6v3.4H165.5z"/>
                <path class="st1" d="M176.3,93.4l1,0.1c-0.1,0.7-0.4,1.3-0.9,1.7s-1,0.6-1.7,0.6c-0.9,0-1.5-0.3-2.1-0.8s-0.8-1.4-0.8-2.4
                    c0-0.7,0.1-1.3,0.3-1.8s0.6-0.9,1-1.1s1-0.4,1.5-0.4c0.7,0,1.2,0.2,1.7,0.5s0.7,0.8,0.8,1.5l-1,0.2c-0.1-0.4-0.3-0.7-0.5-0.9
                    s-0.5-0.3-0.9-0.3c-0.5,0-1,0.2-1.3,0.6s-0.5,1-0.5,1.8c0,0.8,0.2,1.4,0.5,1.8s0.7,0.6,1.3,0.6c0.4,0,0.8-0.1,1-0.4
                    S176.2,93.9,176.3,93.4z"/>
                <path class="st1" d="M182.5,93.6l1.1,0.1c-0.2,0.6-0.5,1.1-1,1.5s-1.1,0.5-1.8,0.5c-0.9,0-1.6-0.3-2.2-0.8s-0.8-1.3-0.8-2.4
                    c0-1,0.3-1.9,0.8-2.4s1.2-0.9,2.1-0.9c0.8,0,1.5,0.3,2,0.8s0.8,1.4,0.8,2.4c0,0.1,0,0.2,0,0.3h-4.6c0,0.7,0.2,1.2,0.6,1.6
                    s0.8,0.5,1.3,0.5c0.4,0,0.7-0.1,1-0.3S182.3,94.1,182.5,93.6z M179,91.9h3.5c0-0.5-0.2-0.9-0.4-1.2c-0.3-0.4-0.8-0.6-1.3-0.6
                    c-0.5,0-0.9,0.2-1.2,0.5S179,91.4,179,91.9z"/>
                <path class="st1" d="M188.9,95.6v-0.8c-0.4,0.6-1,0.9-1.7,0.9c-0.5,0-1-0.1-1.4-0.4s-0.7-0.7-1-1.1s-0.3-1.1-0.3-1.7
                    c0-0.6,0.1-1.2,0.3-1.7s0.5-0.9,0.9-1.2s0.9-0.4,1.4-0.4c0.4,0,0.7,0.1,1,0.2s0.5,0.4,0.7,0.6V87h1v8.6H188.9z M185.6,92.5
                    c0,0.8,0.2,1.4,0.5,1.8s0.7,0.6,1.2,0.6c0.5,0,0.9-0.2,1.2-0.6s0.5-1,0.5-1.7c0-0.9-0.2-1.5-0.5-1.9s-0.7-0.6-1.2-0.6
                    c-0.5,0-0.9,0.2-1.2,0.6S185.6,91.7,185.6,92.5z"/>
                <path class="st1" d="M194.6,92.9l1.1-0.1c0.1,0.4,0.2,0.8,0.4,1.1s0.5,0.5,0.9,0.7s0.8,0.3,1.3,0.3c0.4,0,0.8-0.1,1.1-0.2
                    s0.6-0.3,0.7-0.5s0.2-0.5,0.2-0.7c0-0.3-0.1-0.5-0.2-0.7s-0.4-0.4-0.8-0.5c-0.2-0.1-0.7-0.2-1.5-0.4s-1.3-0.4-1.7-0.5
                    c-0.4-0.2-0.7-0.5-0.9-0.8s-0.3-0.7-0.3-1.1c0-0.4,0.1-0.8,0.4-1.2s0.6-0.7,1.1-0.9s1-0.3,1.6-0.3c0.6,0,1.2,0.1,1.7,0.3
                    s0.9,0.5,1.1,0.9s0.4,0.8,0.4,1.4l-1.1,0.1c-0.1-0.5-0.3-1-0.6-1.2s-0.8-0.4-1.5-0.4c-0.7,0-1.2,0.1-1.5,0.4s-0.5,0.6-0.5,0.9
                    c0,0.3,0.1,0.6,0.3,0.8c0.2,0.2,0.8,0.4,1.7,0.6s1.6,0.4,1.9,0.5c0.5,0.2,0.9,0.5,1.1,0.9s0.4,0.8,0.4,1.2c0,0.5-0.1,0.9-0.4,1.3
                    s-0.6,0.7-1.1,0.9s-1,0.3-1.7,0.3c-0.8,0-1.4-0.1-2-0.3s-0.9-0.6-1.2-1S194.6,93.4,194.6,92.9z"/>
                <path class="st1" d="M202.5,92.5c0-1.2,0.3-2,1-2.6c0.5-0.5,1.2-0.7,2-0.7c0.9,0,1.6,0.3,2.1,0.8s0.8,1.3,0.8,2.3
                    c0,0.8-0.1,1.4-0.4,1.9s-0.6,0.8-1,1.1s-1,0.4-1.5,0.4c-0.9,0-1.6-0.3-2.1-0.8S202.5,93.6,202.5,92.5z M203.6,92.5
                    c0,0.8,0.2,1.4,0.5,1.8s0.8,0.6,1.3,0.6c0.5,0,1-0.2,1.3-0.6s0.5-1,0.5-1.8c0-0.8-0.2-1.4-0.5-1.7s-0.8-0.6-1.3-0.6
                    c-0.5,0-1,0.2-1.3,0.6S203.6,91.7,203.6,92.5z"/>
                <path class="st1" d="M209.8,95.6v-5.4h-0.9v-0.8h0.9v-0.7c0-0.4,0-0.7,0.1-0.9c0.1-0.3,0.3-0.5,0.5-0.7s0.6-0.3,1.1-0.3
                    c0.3,0,0.6,0,1,0.1l-0.2,0.9c-0.2,0-0.4-0.1-0.6-0.1c-0.3,0-0.5,0.1-0.7,0.2s-0.2,0.4-0.2,0.8v0.6h1.2v0.8h-1.2v5.4H209.8z"/>
                <path class="st1" d="M215.2,94.7l0.2,0.9c-0.3,0.1-0.6,0.1-0.8,0.1c-0.4,0-0.7-0.1-0.9-0.2s-0.4-0.3-0.4-0.5s-0.1-0.6-0.1-1.2
                    v-3.6h-0.8v-0.8h0.8v-1.5l1-0.6v2.2h1.1v0.8h-1.1v3.6c0,0.3,0,0.5,0.1,0.6s0.1,0.2,0.2,0.2s0.2,0.1,0.4,0.1
                    C214.8,94.7,215,94.7,215.2,94.7z"/>
                <path class="st1" d="M217.4,95.6l-1.9-6.2h1.1l1,3.6l0.4,1.3c0-0.1,0.1-0.5,0.3-1.3l1-3.6h1.1l0.9,3.6l0.3,1.2l0.4-1.2l1.1-3.6h1
                    l-1.9,6.2H221l-1-3.7l-0.2-1.1l-1.3,4.8H217.4z"/>
                <path class="st1" d="M229,94.9c-0.4,0.3-0.8,0.6-1.1,0.7s-0.7,0.2-1.2,0.2c-0.7,0-1.2-0.2-1.6-0.5s-0.6-0.8-0.6-1.3
                    c0-0.3,0.1-0.6,0.2-0.8s0.3-0.5,0.5-0.6s0.5-0.3,0.8-0.3c0.2-0.1,0.5-0.1,0.9-0.2c0.9-0.1,1.5-0.2,1.9-0.4c0-0.1,0-0.2,0-0.3
                    c0-0.4-0.1-0.7-0.3-0.9c-0.3-0.2-0.7-0.4-1.2-0.4c-0.5,0-0.9,0.1-1.1,0.3s-0.4,0.5-0.5,0.9l-1-0.1c0.1-0.4,0.2-0.8,0.5-1.1
                    s0.5-0.5,0.9-0.6s0.9-0.2,1.4-0.2c0.5,0,1,0.1,1.3,0.2s0.6,0.3,0.7,0.5s0.3,0.4,0.3,0.7c0,0.2,0.1,0.5,0.1,1V93c0,1,0,1.6,0.1,1.9
                    s0.1,0.5,0.3,0.7h-1.1C229.1,95.4,229,95.2,229,94.9z M228.9,92.5c-0.4,0.2-1,0.3-1.7,0.4c-0.4,0.1-0.7,0.1-0.9,0.2
                    s-0.3,0.2-0.4,0.3s-0.1,0.3-0.1,0.5c0,0.3,0.1,0.5,0.3,0.7s0.5,0.3,0.9,0.3c0.4,0,0.8-0.1,1.1-0.3s0.5-0.4,0.7-0.7
                    c0.1-0.2,0.2-0.6,0.2-1.1V92.5z"/>
                <path class="st1" d="M231.6,95.6v-6.2h0.9v0.9c0.2-0.4,0.5-0.7,0.7-0.9s0.4-0.2,0.7-0.2c0.4,0,0.7,0.1,1.1,0.3l-0.4,1
                    c-0.3-0.2-0.5-0.2-0.8-0.2c-0.2,0-0.4,0.1-0.6,0.2s-0.3,0.3-0.4,0.6c-0.1,0.4-0.2,0.8-0.2,1.2v3.3H231.6z"/>
                <path class="st1" d="M239.8,93.6l1.1,0.1c-0.2,0.6-0.5,1.1-1,1.5s-1.1,0.5-1.8,0.5c-0.9,0-1.6-0.3-2.2-0.8s-0.8-1.3-0.8-2.4
                    c0-1,0.3-1.9,0.8-2.4s1.2-0.9,2.1-0.9c0.8,0,1.5,0.3,2,0.8s0.8,1.4,0.8,2.4c0,0.1,0,0.2,0,0.3h-4.6c0,0.7,0.2,1.2,0.6,1.6
                    s0.8,0.5,1.3,0.5c0.4,0,0.7-0.1,1-0.3S239.7,94.1,239.8,93.6z M236.4,91.9h3.5c0-0.5-0.2-0.9-0.4-1.2c-0.3-0.4-0.8-0.6-1.3-0.6
                    c-0.5,0-0.9,0.2-1.2,0.5S236.4,91.4,236.4,91.9z"/>
                <path class="st1" d="M245.3,92.9l1.1-0.1c0.1,0.4,0.2,0.8,0.4,1.1s0.5,0.5,0.9,0.7s0.8,0.3,1.3,0.3c0.4,0,0.8-0.1,1.1-0.2
                    s0.6-0.3,0.7-0.5s0.2-0.5,0.2-0.7c0-0.3-0.1-0.5-0.2-0.7s-0.4-0.4-0.8-0.5c-0.2-0.1-0.7-0.2-1.5-0.4s-1.3-0.4-1.7-0.5
                    c-0.4-0.2-0.7-0.5-0.9-0.8s-0.3-0.7-0.3-1.1c0-0.4,0.1-0.8,0.4-1.2s0.6-0.7,1.1-0.9s1-0.3,1.6-0.3c0.6,0,1.2,0.1,1.7,0.3
                    s0.9,0.5,1.1,0.9s0.4,0.8,0.4,1.4l-1.1,0.1c-0.1-0.5-0.3-1-0.6-1.2s-0.8-0.4-1.5-0.4c-0.7,0-1.2,0.1-1.5,0.4s-0.5,0.6-0.5,0.9
                    c0,0.3,0.1,0.6,0.3,0.8c0.2,0.2,0.8,0.4,1.7,0.6s1.6,0.4,1.9,0.5c0.5,0.2,0.9,0.5,1.1,0.9s0.4,0.8,0.4,1.2c0,0.5-0.1,0.9-0.4,1.3
                    s-0.6,0.7-1.1,0.9s-1,0.3-1.7,0.3c-0.8,0-1.4-0.1-2-0.3s-0.9-0.6-1.2-1S245.3,93.4,245.3,92.9z"/>
                <path class="st1" d="M253.2,92.5c0-1.2,0.3-2,1-2.6c0.5-0.5,1.2-0.7,2-0.7c0.9,0,1.6,0.3,2.1,0.8s0.8,1.3,0.8,2.3
                    c0,0.8-0.1,1.4-0.4,1.9s-0.6,0.8-1,1.1s-1,0.4-1.5,0.4c-0.9,0-1.6-0.3-2.1-0.8S253.2,93.6,253.2,92.5z M254.3,92.5
                    c0,0.8,0.2,1.4,0.5,1.8s0.8,0.6,1.3,0.6c0.5,0,1-0.2,1.3-0.6s0.5-1,0.5-1.8c0-0.8-0.2-1.4-0.5-1.7s-0.8-0.6-1.3-0.6
                    c-0.5,0-1,0.2-1.3,0.6S254.3,91.7,254.3,92.5z"/>
                <path class="st1" d="M260.2,95.6V87h1.1v8.6H260.2z"/>
                <path class="st1" d="M267,95.6v-0.9c-0.5,0.7-1.1,1.1-2,1.1c-0.4,0-0.7-0.1-1-0.2s-0.6-0.3-0.7-0.5s-0.3-0.5-0.3-0.8
                    c0-0.2-0.1-0.5-0.1-1v-3.9h1.1v3.5c0,0.6,0,0.9,0.1,1.1c0.1,0.3,0.2,0.5,0.4,0.7s0.5,0.2,0.8,0.2s0.6-0.1,0.9-0.2s0.5-0.4,0.6-0.7
                    s0.2-0.7,0.2-1.2v-3.3h1.1v6.2H267z"/>
                <path class="st1" d="M271.9,94.7l0.2,0.9c-0.3,0.1-0.6,0.1-0.8,0.1c-0.4,0-0.7-0.1-0.9-0.2s-0.4-0.3-0.4-0.5s-0.1-0.6-0.1-1.2
                    v-3.6H269v-0.8h0.8v-1.5l1-0.6v2.2h1.1v0.8h-1.1v3.6c0,0.3,0,0.5,0.1,0.6s0.1,0.2,0.2,0.2s0.2,0.1,0.4,0.1
                    C271.5,94.7,271.7,94.7,271.9,94.7z"/>
                <path class="st1" d="M272.9,88.3V87h1.1v1.2H272.9z M272.9,95.6v-6.2h1.1v6.2H272.9z"/>
                <path class="st1" d="M275.2,92.5c0-1.2,0.3-2,1-2.6c0.5-0.5,1.2-0.7,2-0.7c0.9,0,1.6,0.3,2.1,0.8s0.8,1.3,0.8,2.3
                    c0,0.8-0.1,1.4-0.4,1.9s-0.6,0.8-1,1.1s-1,0.4-1.5,0.4c-0.9,0-1.6-0.3-2.1-0.8S275.2,93.6,275.2,92.5z M276.3,92.5
                    c0,0.8,0.2,1.4,0.5,1.8s0.8,0.6,1.3,0.6c0.5,0,1-0.2,1.3-0.6s0.5-1,0.5-1.8c0-0.8-0.2-1.4-0.5-1.7s-0.8-0.6-1.3-0.6
                    c-0.5,0-1,0.2-1.3,0.6S276.3,91.7,276.3,92.5z"/>
                <path class="st1" d="M282.3,95.6v-6.2h0.9v0.9c0.5-0.7,1.1-1,2-1c0.4,0,0.7,0.1,1,0.2s0.5,0.3,0.7,0.5s0.3,0.5,0.3,0.8
                    c0,0.2,0.1,0.5,0.1,1v3.8h-1.1v-3.8c0-0.4,0-0.8-0.1-1s-0.2-0.4-0.4-0.5s-0.5-0.2-0.7-0.2c-0.4,0-0.8,0.1-1.2,0.4
                    s-0.5,0.8-0.5,1.6v3.4H282.3z"/>
                <path class="st1" d="M288.5,93.8l1-0.2c0.1,0.4,0.2,0.7,0.5,1s0.6,0.3,1.1,0.3c0.5,0,0.8-0.1,1.1-0.3s0.4-0.4,0.4-0.7
                    c0-0.2-0.1-0.4-0.3-0.6c-0.1-0.1-0.5-0.2-1.1-0.4c-0.8-0.2-1.3-0.4-1.6-0.5s-0.5-0.3-0.7-0.6s-0.2-0.5-0.2-0.8
                    c0-0.3,0.1-0.5,0.2-0.8s0.3-0.4,0.5-0.6c0.2-0.1,0.4-0.2,0.7-0.3s0.6-0.1,0.9-0.1c0.5,0,0.9,0.1,1.3,0.2s0.6,0.3,0.8,0.6
                    s0.3,0.6,0.4,1l-1,0.1c0-0.3-0.2-0.6-0.4-0.8s-0.5-0.3-1-0.3c-0.5,0-0.8,0.1-1,0.2s-0.3,0.3-0.3,0.6c0,0.1,0,0.3,0.1,0.4
                    c0.1,0.1,0.2,0.2,0.4,0.3c0.1,0,0.4,0.1,0.9,0.3c0.7,0.2,1.3,0.4,1.6,0.5s0.5,0.3,0.7,0.6s0.3,0.5,0.3,0.9c0,0.4-0.1,0.7-0.3,1
                    s-0.5,0.6-0.9,0.7s-0.8,0.3-1.3,0.3c-0.8,0-1.4-0.2-1.8-0.5S288.6,94.4,288.5,93.8z"/>
            </g>
        </g>    
    </symbol>
</svg>