<svg id="jquery-ar21" xmlns="http://www.w3.org/2000/svg" width="107.045" height="24.165" viewBox="0 0 107.045 24.165">
  <g id="Сгруппировать_13371" data-name="Сгруппировать 13371" transform="translate(21.281)">
    <path id="Контур_10860" data-name="Контур 10860" d="M52.447,26.112l-.685,2.427.685-2.428Zm3.525,5.272-.755,0Zm-.186,3.627-4.524.017Zm.947-3.621-.756,0Zm-.55,3.315.789-3.006ZM72.841,20.869l-1.467,6.9Zm-3.773-.009-1.114,5.156Z" transform="translate(-27.955 -16.671)" fill="#fff"/>
    <path id="Контур_10861" data-name="Контур 10861" d="M73.132,20.527H69.994a.412.412,0,0,0-.384.31L67.381,31.15a.412.412,0,0,1-.383.309H64.776c-2.2,0-1.944-1.52-1.486-3.6l.014-.063.266-1.421.115-.585L64.7,20.837a.249.249,0,0,0-.253-.311H61.224a.409.409,0,0,0-.383.31l-1.47,6.884c-.8,3.643-.587,7.118,3.751,7.227h6.933a.411.411,0,0,0,.383-.31l2.936-13.8a.246.246,0,0,0-.251-.31ZM85.649,31.5a.253.253,0,0,1,.253.31l-.3,1.49m-.3,1.49.3-1.491Zm-.371.314-5.785.028Z" transform="translate(-28.509 -16.647)" fill="#fff"/>
    <path id="Контур_10862" data-name="Контур 10862" d="M78.659,30.238c0-.163.183-.444.357-.444l-.392-.007c-.186,1.777.034.45.034.45Zm2.159,5.55h-.06Zm6.228-3.621a.253.253,0,0,1,.253.31L86.953,34.2M82.3,35.785H82.29Zm-.771,0h-.045Zm-.234,0h0Zm-.24,0h-.065Zm.429,0h0Z" transform="translate(-29.906 -17.31)" fill="#fff"/>
    <path id="Контур_10863" data-name="Контур 10863" d="M78.565,35.12l-.758,0Zm4.027-.025-4.016.024Zm.371-.311.255-1.248-.255,1.249Zm-5.475.339h0Zm-.469,0h0Zm.236,0h0ZM31.333,29.61l.487-2.162-.557,2.47-.065.31.136-.62Zm5.838-9.123H33.724a.418.418,0,0,0-.387.309l-.654,2.878a.241.241,0,0,0,.247.309H36.4a.412.412,0,0,0,.384-.309l.631-2.885a.245.245,0,0,0-.251-.309Zm-.743,4.8-1.021,4.678Zm-10.015,15.5,2.843.022c-.839,0-2.226-.016-2.844-.023Z" transform="translate(-26.179 -16.644)" fill="#fff"/>
    <path id="Контур_10864" data-name="Контур 10864" d="M32.3,25.434,31.812,27.6Zm3.863-.31H32.7a.418.418,0,0,0-.387.309l-.975,4.323-.136.62-.929,4.413q-.069.309-.167.61s-.65,1.931-1.74,1.91l-1.082-.02a.418.418,0,0,0-.39.3l-.721,3.029a.241.241,0,0,0,.242.312l2.844.023c2.726,0,4.163-1.511,5.085-5.856l2.089-9.657a.245.245,0,0,0-.251-.309Zm49.36,9.969a.25.25,0,0,1-.251-.31L87.888,22.54m1.268,12.243,1.059-5.226Z" transform="translate(-26.161 -16.792)" fill="#fff"/>
    <path id="Контур_10865" data-name="Контур 10865" d="M89.861,35a1.335,1.335,0,0,1,.028-.464l1.24-5.812-1.307,6.122a.246.246,0,0,0,.251.31h.318C90.216,35.158,89.882,35.088,89.861,35Zm3.64.085a1.691,1.691,0,0,1-.49.07h.318a.409.409,0,0,0,.381-.311l.063-.31a1.143,1.143,0,0,1-.279.552Zm.735-2.854.467-2.306Zm10.314-8.81.144.594a.241.241,0,0,1-.244.309" transform="translate(-30.711 -16.855)" fill="#fff"/>
    <path id="Контур_10866" data-name="Контур 10866" d="M93.872,34.458l.464-2.3Zm10.636-11.722.142.609Zm-9.7,7.115.128-.617.5-2.335-.565,2.644-.062.306Zm-2.224-7.527-.109.511-1.24,5.812,1.307-6.122.042-.2Z" transform="translate(-30.812 -16.776)" fill="#fff"/>
    <path id="Контур_10867" data-name="Контур 10867" d="M101.044,23.512l-.144-.594-.214-.929c-.282-1.1-1.11-1.73-2.91-1.73l-8.282-.006a.409.409,0,0,0-.383.31l-.128.606-.186.916L86.25,34.021a1.33,1.33,0,0,0-.028.464c.021.093.356.155.529.155H89.37a1.664,1.664,0,0,0,.49-.07c.1-.038.236-.371.279-.552l.994-4.916L92.2,24.123a.412.412,0,0,1,.383-.309l8.239,0a.241.241,0,0,0,.244-.309Zm10.605-5.38-.634,0h-2.637a.678.678,0,0,0-.5.262l-5.831,8.542c-.1.144-.211.123-.251-.046l-.429-1.882a.418.418,0,0,0-.387-.309H97.236a.226.226,0,0,0-.23.3l1.671,5.885a1.407,1.407,0,0,1,.009.613l-.743,2.848a.232.232,0,0,0,.239.307H101.9a.432.432,0,0,0,.4-.306l.743-2.848a1.894,1.894,0,0,1,.269-.561l9.467-12.565c.1-.139.048-.253-.126-.251l-.994.007ZM81.867,25.5a.383.383,0,0,1-.371.325H76.741a.2.2,0,0,1-.223-.251l0-.025.021-.081a2.986,2.986,0,0,1,3.116-2c1.956,0,2.338.956,2.205,2.031Zm-1.393-5.486c-6.1,0-7.546,3.7-8.357,7.44-.812,3.81-.741,7.372,5.571,7.372h1l.771,0,4.017-.024a.409.409,0,0,0,.378-.311l.61-2.982a.248.248,0,0,0-.253-.31H78.537c-2.256,0-2.928-.6-2.681-2.363h9.072a.364.364,0,0,0,.336-.234.384.384,0,0,0,.022-.079c1.346-5.079.96-8.5-4.81-8.5ZM51.638,25.484l-.085.3-.685,2.429-.685,2.427a.446.446,0,0,1-.4.3H46.153c-2.75,0-3.42-2.151-2.75-5.324.669-3.245,1.982-5.263,4.689-5.467,3.7-.279,4.438,2.323,3.547,5.326Zm2.487,5.279a40.8,40.8,0,0,0,2.1-6.549c.529-3.21-1.077-7.865-7.284-7.865-6.172,0-8.852,4.444-9.874,9.285-1.021,4.865.318,9.133,6.453,9.1l9.365-.034a.436.436,0,0,0,.4-.308l.789-3.007a.232.232,0,0,0-.237-.308H54.321a.194.194,0,0,1-.215-.223.294.294,0,0,1,.019-.071Z" transform="translate(-27.061 -16.349)" fill="#fff"/>
    <path id="Контур_10868" data-name="Контур 10868" d="M88.178,28.864a.208.208,0,1,1-.208-.208A.208.208,0,0,1,88.178,28.864Z" transform="translate(-30.564 -17.229)" fill="#fff"/>
  </g>
  <path id="Контур_10869" data-name="Контур 10869" d="M4.463,22.731a8.087,8.087,0,0,0-.19,8.238l.1.186.061.117.037.068.068.121.124.214.071.117.144.226.061.095.209.3.041.056.19.253.071.091.186.216.067.081.245.28.015.016.249.263.08.081.2.186.082.077.272.248.052.044.248.209.093.082.206.162.111.093.232.167.108.076.225.149.1.065.353.215.1.056.265.149.147.074.189.1.044.021.077.037.3.139.063.028.35.145.085.033.33.123.042.015.368.121.089.026.371.108c8.241,1.5,10.634-4.953,10.634-4.953-2.01,2.618-5.571,3.31-8.96,2.541-.128-.028-.253-.069-.377-.106l-.093-.028q-.182-.056-.362-.118l-.05-.019c-.108-.037-.214-.078-.32-.119l-.09-.035q-.174-.069-.346-.144l-.069-.031-.292-.136-.093-.041c-.076-.037-.15-.076-.226-.115l-.15-.079q-.136-.073-.27-.151l-.091-.051q-.178-.105-.353-.215c-.033-.02-.063-.043-.095-.063l-.251-.167-.081-.056-.237-.172-.1-.079-.214-.167-.1-.076-.266-.225c-.009-.009-.019-.016-.028-.024-.095-.093-.188-.169-.28-.254l-.079-.076-.2-.2-.079-.079q-.126-.128-.247-.261t-.263-.3l-.065-.078-.18-.223-.065-.093-.208-.277A8.67,8.67,0,0,1,5.8,21.044m3.958-.376a5.924,5.924,0,0,0-.2,6.022,7.846,7.846,0,0,0,.545.91,4.405,4.405,0,0,0,.634.792l.277.279.072.071.282.263.014.012.33.273.074.058.345.251.241.161.255.158.037.021.227.126.081.042.158.082.024.011.33.154.072.03.279.11.116.043.248.086.111.037a1.78,1.78,0,0,0,.359.1C21.032,31.818,22.5,26.92,22.5,26.92a6.046,6.046,0,0,1-6.625,2.108l-.36-.1-.109-.035-.251-.087-.114-.043-.271-.11-.074-.031-.331-.154-.167-.093-.1-.049-.26-.149-.255-.156-.241-.161L13,27.606l-.077-.061a7.574,7.574,0,0,1-2.6-3.7,5.78,5.78,0,0,1,.448-4.61m3.426-.1a3.706,3.706,0,0,0-.293,3.578A5.014,5.014,0,0,0,16.8,25.4l.158.056.07.022.227.065a3.933,3.933,0,0,0,4.72-2.168c-.836,1.2-2.228,1.49-3.959,1.072q-.211-.056-.418-.128a5.016,5.016,0,0,1-1.362-.734c-1.541-1.17-2.507-3.4-1.492-5.214" transform="translate(-3.241 -16.493)" fill="#fff"/>
</svg>
