<svg id="net-seeklogo.com" xmlns="http://www.w3.org/2000/svg" width="47.195" height="45.071" viewBox="0 0 47.195 45.071">
  <g id="Сгруппировать_13373" data-name="Сгруппировать 13373" transform="translate(4.907 21.761)">
    <path id="Контур_10888" data-name="Контур 10888" d="M181.592,7.943a.211.211,0,0,0-.067-.174.416.416,0,0,0-.256-.061H181.1v.473h.208c.192,0,.287-.08.287-.238Zm.268.987h-.237l-.151-.333c-.077-.167-.159-.25-.248-.25H181.1V8.93H180.9V7.542h.391a.579.579,0,0,1,.394.116.333.333,0,0,1,.114.262.341.341,0,0,1-.093.243.468.468,0,0,1-.259.137v.006c.077.018.155.1.23.256l.183.369Zm.432-.68a.926.926,0,0,0-.279-.686.97.97,0,1,0-.683,1.654.954.954,0,0,0,.962-.968Zm.131-.006a1.035,1.035,0,0,1-.317.771,1.141,1.141,0,0,1-1.559.009,1.109,1.109,0,0,1,.005-1.541,1.135,1.135,0,0,1,1.552-.014,1.029,1.029,0,0,1,.319.776Z" transform="translate(-146.911 -5.966)" fill="#fff"/>
    <path id="Контур_10889" data-name="Контур 10889" d="M6.381,8.656H5.708V4.806c0-.3.02-.674.056-1.111H5.749a3.645,3.645,0,0,1-.171.555L3.622,8.656H3.294L1.335,4.282A3.2,3.2,0,0,1,1.164,3.7H1.149c.021.23.032.6.032,1.119V8.656H.533V2.923H1.42l1.759,4a5.17,5.17,0,0,1,.26.686h.028c.114-.313.206-.548.275-.7l1.8-3.981H6.38V8.656Z" transform="translate(-0.533 -2.508)" fill="#fff"/>
    <path id="Контур_10890" data-name="Контур 10890" d="M39.952,7.552H39.3V3.458h.654V7.552Zm.113-5.562a.409.409,0,0,1-.127.3.416.416,0,0,1-.3.124.423.423,0,0,1-.3-.12.409.409,0,0,1-.124-.309.407.407,0,0,1,.124-.3.44.44,0,0,1,.607,0,.4.4,0,0,1,.127.3Z" transform="translate(-32.035 -1.404)" fill="#fff"/>
    <path id="Контур_10891" data-name="Контур 10891" d="M51.772,15.225a2.1,2.1,0,0,1-1.122.288,1.846,1.846,0,0,1-1.421-.584,2.067,2.067,0,0,1-.527-1.463,2.282,2.282,0,0,1,.579-1.626,2.018,2.018,0,0,1,1.553-.62,2.09,2.09,0,0,1,.947.208V12.1a1.661,1.661,0,0,0-.975-.321,1.312,1.312,0,0,0-1.019.436,1.69,1.69,0,0,0-.413,1.191,1.623,1.623,0,0,0,.378,1.132,1.3,1.3,0,0,0,1.013.416,1.653,1.653,0,0,0,1.007-.352v.623Z" transform="translate(-39.769 -9.267)" fill="#fff"/>
    <path id="Контур_10892" data-name="Контур 10892" d="M72.738,12.11a.876.876,0,0,0-1.172.228,1.8,1.8,0,0,0-.308,1.115V15.54H70.6V11.445h.655v.844h.016a1.438,1.438,0,0,1,.444-.692.981.981,0,0,1,.627-.224,1.063,1.063,0,0,1,.393.056v.68Z" transform="translate(-57.608 -9.392)" fill="#fff"/>
    <path id="Контур_10893" data-name="Контур 10893" d="M87.062,13.372a1.789,1.789,0,0,0-.355-1.2,1.21,1.21,0,0,0-.964-.4,1.263,1.263,0,0,0-.978.4,1.738,1.738,0,0,0-.388,1.211,1.655,1.655,0,0,0,.371,1.149,1.268,1.268,0,0,0,1,.414,1.2,1.2,0,0,0,.987-.419,1.8,1.8,0,0,0,.332-1.16m.672-.023a2.208,2.208,0,0,1-.551,1.569,1.939,1.939,0,0,1-1.488.592,1.881,1.881,0,0,1-1.462-.592,2.132,2.132,0,0,1-.528-1.506,2.2,2.2,0,0,1,.6-1.651,2.035,2.035,0,0,1,1.486-.544,1.84,1.84,0,0,1,1.431.567,2.258,2.258,0,0,1,.513,1.565" transform="translate(-68.279 -9.264)" fill="#fff"/>
    <path id="Контур_10894" data-name="Контур 10894" d="M111.91,14.318a1.065,1.065,0,0,1-.376.834,1.65,1.65,0,0,1-1.123.36,2.009,2.009,0,0,1-1.016-.246v-.7a1.647,1.647,0,0,0,1.064.392q.778,0,.779-.572a.506.506,0,0,0-.172-.4,2.725,2.725,0,0,0-.672-.376,2.156,2.156,0,0,1-.731-.464,1.13,1.13,0,0,1,.144-1.587,1.561,1.561,0,0,1,1.04-.339,1.942,1.942,0,0,1,.875.192v.66a1.544,1.544,0,0,0-.929-.292.8.8,0,0,0-.521.159.51.51,0,0,0-.2.413.547.547,0,0,0,.165.423,2.278,2.278,0,0,0,.614.34,2.366,2.366,0,0,1,.756.454,1.01,1.01,0,0,1,.3.751" transform="translate(-89.205 -9.265)" fill="#fff"/>
    <path id="Контур_10895" data-name="Контур 10895" d="M129.8,13.372a1.785,1.785,0,0,0-.356-1.2,1.208,1.208,0,0,0-.963-.4,1.268,1.268,0,0,0-.98.4,1.741,1.741,0,0,0-.386,1.211,1.665,1.665,0,0,0,.369,1.149,1.279,1.279,0,0,0,1,.414,1.2,1.2,0,0,0,.987-.419,1.8,1.8,0,0,0,.332-1.16m.673-.023a2.206,2.206,0,0,1-.554,1.569,1.933,1.933,0,0,1-1.487.592,1.882,1.882,0,0,1-1.463-.592,2.132,2.132,0,0,1-.528-1.506,2.2,2.2,0,0,1,.6-1.651,2.037,2.037,0,0,1,1.487-.544,1.835,1.835,0,0,1,1.43.567,2.255,2.255,0,0,1,.515,1.565" transform="translate(-103.094 -9.264)" fill="#fff"/>
    <path id="Контур_10896" data-name="Контур 10896" d="M152.886,1.347a.88.88,0,0,0-.435-.108c-.459,0-.686.289-.686.868v.631h.959v.555h-.959V6.832h-.656V3.293h-.7V2.738h.7V2.074a1.357,1.357,0,0,1,.419-1.059,1.256,1.256,0,0,1,.884-.331,1.281,1.281,0,0,1,.475.071v.592Z" transform="translate(-122.616 -0.684)" fill="#fff"/>
    <path id="Контур_10897" data-name="Контур 10897" d="M167.2,10.491a1.236,1.236,0,0,1-.616.133q-1.072,0-1.072-1.208V6.994h-.7V6.438h.7v-1c.209-.066.427-.138.657-.212V6.438H167.2v.556h-1.031V9.3a.936.936,0,0,0,.139.585.565.565,0,0,0,.468.175.694.694,0,0,0,.424-.132v.559Z" transform="translate(-134.345 -4.384)" fill="#fff"/>
  </g>
  <g id="Сгруппировать_13374" data-name="Сгруппировать 13374" transform="translate(0 29.797)">
    <path id="Контур_10898" data-name="Контур 10898" d="M3.148,71.044a1.144,1.144,0,0,1-.346.833,1.136,1.136,0,0,1-.839.351,1.091,1.091,0,0,1-.818-.351,1.21,1.21,0,0,1,0-1.672,1.094,1.094,0,0,1,.818-.346,1.132,1.132,0,0,1,.839.35,1.147,1.147,0,0,1,.346.834" transform="translate(-0.81 -56.955)" fill="#fff"/>
    <path id="Контур_10899" data-name="Контур 10899" d="M39.352,15.311H37.215L29.457,3.33a5.5,5.5,0,0,1-.47-.944h-.064a15.61,15.61,0,0,1,.083,2.065v10.86H27.244V.279h2.287l7.526,11.792c.3.468.5.8.608,1h.042a15.835,15.835,0,0,1-.106-2.21V.279h1.751V15.311Z" transform="translate(-22.342 -0.279)" fill="#fff"/>
    <path id="Контур_10900" data-name="Контур 10900" d="M118.445,15.311h-7.967V.279H118.1V1.872h-5.861v5h5.431V8.466h-5.431v5.252h6.206v1.593Z" transform="translate(-90.14 -0.279)" fill="#fff"/>
    <path id="Контур_10901" data-name="Контур 10901" d="M172.788,1.87h-4.33V15.309H166.7V1.87h-4.338V.276h10.429V1.87Z" transform="translate(-132.398 -0.276)" fill="#fff"/>
  </g>
  <g id="Сгруппировать_13375" data-name="Сгруппировать 13375" transform="translate(0.033 0)">
    <path id="Контур_10902" data-name="Контур 10902" d="M88.5,17.99c1.7,5.2,2.344,14.47,7.314,14.47h0a6.122,6.122,0,0,0,1.145-.11h0C92.44,31.3,91.9,22.125,89.147,17.376h0c-.216.2-.431.4-.648.614" transform="translate(-72.119 -14.153)" fill="#fff"/>
    <path id="Контур_10903" data-name="Контур 10903" d="M91.992,15.2c2.757,4.749,3.292,13.921,7.811,14.974h0a7.189,7.189,0,0,0,1.067-.288h0C96.814,27.9,95.693,19,92.562,14.709h0q-.284.237-.57.495" transform="translate(-74.964 -11.981)" fill="#fff"/>
    <path id="Контур_10904" data-name="Контур 10904" d="M94.953,2.145a6.14,6.14,0,0,0-1.145.11,8.769,8.769,0,0,0-3.057,1.278,7.588,7.588,0,0,1,.8.942,10.981,10.981,0,0,1,3.125-1.9,6.968,6.968,0,0,1,1.166-.324,3.591,3.591,0,0,0-.889-.108" transform="translate(-73.953 -1.748)" fill="#fff"/>
    <path id="Контур_10905" data-name="Контур 10905" d="M125.385,17.858q.622-.495,1.247-1.093c-1.727-5.173-2.345-14.578-7.35-14.578a5.924,5.924,0,0,0-1.079.1c4.559,1.134,5.143,11.053,7.183,15.571" transform="translate(-96.314 -1.781)" fill="#fff"/>
    <path id="Контур_10906" data-name="Контур 10906" d="M114.3,2.252a3.6,3.6,0,0,0-.889-.108l1.968.007a5.856,5.856,0,0,0-1.079.1" transform="translate(-92.41 -1.746)" fill="#fff"/>
    <path id="Контур_10907" data-name="Контур 10907" d="M142.939,89.935a7.408,7.408,0,0,1-.564-.61,10.356,10.356,0,0,1-2.514,1.342,3.873,3.873,0,0,0,.937.319,3.973,3.973,0,0,0,.8.079,5.237,5.237,0,0,0,2.3-.413,4.375,4.375,0,0,1-.962-.718" transform="translate(-113.955 -72.759)" fill="#fff"/>
    <path id="Контур_10908" data-name="Контур 10908" d="M111.917,3.052c4.084,2.136,4.438,11.808,7.7,15.735h0c.218-.154.435-.317.651-.489h0c-2.039-4.518-2.623-14.438-7.181-15.571h0a7.059,7.059,0,0,0-1.167.325" transform="translate(-91.194 -2.221)" fill="#fff"/>
    <path id="Контур_10909" data-name="Контур 10909" d="M95.067,6.378c3.131,4.288,4.252,13.193,8.307,15.181h0a10.355,10.355,0,0,0,2.514-1.342h0c-3.258-3.927-3.613-13.6-7.7-15.735h0a10.959,10.959,0,0,0-3.125,1.9" transform="translate(-77.469 -3.65)" fill="#fff"/>
    <path id="Контур_10910" data-name="Контур 10910" d="M70.679,14.467a46.681,46.681,0,0,0-1.6,4.472,33.263,33.263,0,0,1,3.6-4.347,13.055,13.055,0,0,0-.532-1.388,17.945,17.945,0,0,0-1.471,1.263" transform="translate(-56.302 -10.755)" fill="#fff"/>
    <path id="Контур_10911" data-name="Контур 10911" d="M86.07,11.479c-.144.1-.289.209-.435.32a13.077,13.077,0,0,1,.531,1.388c.217-.212.432-.418.648-.614a8.6,8.6,0,0,0-.744-1.094" transform="translate(-69.786 -9.35)" fill="#fff"/>
    <path id="Контур_10912" data-name="Контур 10912" d="M88.492,9.629c-.171.108-.342.223-.514.343a8.642,8.642,0,0,1,.745,1.094c.19-.172.381-.338.57-.5a7.588,7.588,0,0,0-.8-.942" transform="translate(-71.694 -7.844)" fill="#fff"/>
    <path id="Контур_10913" data-name="Контур 10913" d="M187.5,0c-2.31,8.907-7.133,16.06-11.177,17.864h-.008c-.074.033-.146.064-.218.093a.192.192,0,0,1-.027.01l-.062.024a.161.161,0,0,1-.028.012c-.034.012-.068.022-.1.036l-.042.015a.507.507,0,0,1-.05.016l-.049.017c-.014.006-.03.009-.043.015-.03.009-.057.016-.086.026a.166.166,0,0,0-.036.01c-.018.006-.039.01-.058.016a.181.181,0,0,1-.039.011l-.064.016-.077.017a1.647,1.647,0,0,0,.579.1c3.835,0,7.7-6.872,14.1-18.3H187.5Z" transform="translate(-142.85 0)" fill="#fff"/>
    <path id="Контур_10914" data-name="Контур 10914" d="M12.123,2.49s.005-.006.007-.006a.008.008,0,0,0,.009-.006h0l.062-.024a.011.011,0,0,0,.012-.006c.005,0,.011-.006.016-.007l.067-.024h0c.051-.015.1-.034.147-.052.007,0,.014-.006.022-.006s.042-.014.063-.019a.124.124,0,0,1,.029-.009c.022-.007.043-.014.064-.019s.017-.006.024-.007c.071-.019.14-.038.211-.055.01,0,.018-.006.029-.007a.4.4,0,0,1,.061-.012.107.107,0,0,1,.03-.009c.02-.006.04-.007.062-.012h.014l.128-.024h.026a.54.54,0,0,1,.059-.01c.011,0,.023-.006.033-.006a.437.437,0,0,0,.057-.009.061.061,0,0,0,.031-.006c.045-.006.091-.008.138-.012-.133-.013-.269-.021-.408-.021-4.319,0-10.269,8.013-12.949,18.39H.693c.858-1.53,1.628-2.977,2.333-4.335,1.877-7.35,5.7-12.363,9.1-13.691" transform="translate(-0.177 -1.731)" fill="#fff"/>
    <path id="Контур_10915" data-name="Контур 10915" d="M77.7,11.492A17.938,17.938,0,0,1,79.17,10.23a6.948,6.948,0,0,0-.35-.677,8.3,8.3,0,0,0-1.121,1.94" transform="translate(-63.321 -7.781)" fill="#fff"/>
    <path id="Контур_10916" data-name="Контур 10916" d="M79.372,4.3a3.684,3.684,0,0,1,.766.952c.073-.09.146-.172.223-.25a4.33,4.33,0,0,0-1.044-.73.474.474,0,0,0,.046.022s.006.006.009.006" transform="translate(-64.64 -3.479)" fill="#fff"/>
    <path id="Контур_10917" data-name="Контур 10917" d="M15.54,17.783c3.938-7.588,5.8-12.391,9.1-13.691h0c-3.4,1.329-7.22,6.341-9.1,13.691" transform="translate(-12.691 -3.333)" fill="#fff"/>
    <path id="Контур_10918" data-name="Контур 10918" d="M83.964,8.208c-.077.078-.149.16-.223.25a7.047,7.047,0,0,1,.351.677c.146-.111.29-.217.435-.32a5.914,5.914,0,0,0-.563-.607" transform="translate(-68.243 -6.686)" fill="#fff"/>
    <path id="Контур_10919" data-name="Контур 10919" d="M23.794,54.681h0a.528.528,0,0,1-.071.009h-.014c-.021,0-.042.006-.061.006h-.01c-.049.006-.1.006-.145.01h-.015c3.986-.112,5.807-2.107,6.712-5,.687-2.194,1.251-4.043,1.746-5.594A79.252,79.252,0,0,0,26.9,52.4a4.128,4.128,0,0,1-3.11,2.279" transform="translate(-19.157 -35.929)" fill="#fff"/>
    <path id="Контур_10920" data-name="Контур 10920" d="M25.18,35.045h0a4.126,4.126,0,0,0,3.11-2.279h0a79.6,79.6,0,0,1,5.032-8.288h0a46.571,46.571,0,0,1,1.6-4.472h0c-3.324,3.164-6.662,8.426-9.74,15.038" transform="translate(-20.543 -16.295)" fill="#fff"/>
    <path id="Контур_10921" data-name="Контур 10921" d="M5.293,77.916c-.7,1.358-1.475,2.806-2.333,4.335h1.5a36.722,36.722,0,0,1,.83-4.335" transform="translate(-2.443 -63.466)" fill="#fff"/>
    <path id="Контур_10922" data-name="Контур 10922" d="M22.279,2.306c-.012,0-.021.006-.032.006h0a.261.261,0,0,1-.056.008h0a.066.066,0,0,0-.033.006h0a.577.577,0,0,1-.059.01h0a.039.039,0,0,0-.026.006h0l-.128.022H21.93a.5.5,0,0,1-.062.012h0a.106.106,0,0,1-.031.008h0a.577.577,0,0,1-.061.012h0a.058.058,0,0,1-.029.007h0c-.071.017-.14.035-.211.055h0c-.008,0-.015.006-.024.007h0l-.064.019h0a.088.088,0,0,1-.029.008h0l-.063.019h0c-.008,0-.015.006-.023.006h0c-.049.018-.1.036-.146.052h0l-.067.023h0a.14.14,0,0,1-.028.012h0c-.021.007-.042.015-.062.023h0a.105.105,0,0,1-.02.01h0c-3.293,1.3-5.159,6.1-9.1,13.691h0a36.562,36.562,0,0,0-.831,4.335h.211c.594,0,.761-.006,1.445-.006H13.4c.047-.006.1-.006.145-.01h.009c.021,0,.041-.006.061-.006h.014c.022,0,.047-.006.071-.009h0c3.079-6.612,6.416-11.874,9.74-15.038h0a8.326,8.326,0,0,1,1.12-1.939h0A3.672,3.672,0,0,0,23.8,2.7h0s-.008,0-.008-.006h0c-.016-.007-.031-.015-.047-.022h0l-.046-.024h0l-.046-.022h0a.422.422,0,0,1-.053-.022h0l-.042-.018h0c-.03-.012-.059-.024-.087-.036h0c-.013-.006-.025-.009-.037-.014h0l-.065-.026h0A.223.223,0,0,0,23.33,2.5h0l-.09-.031h-.008c-.035-.012-.069-.02-.1-.03h0a.044.044,0,0,0-.023-.007h0l-.088-.025h0C23.008,2.406,23,2.4,23,2.4h0c-.071-.019-.145-.034-.219-.048h0c-.008,0-.015-.006-.023-.006h0c-.032-.006-.063-.012-.095-.015h0a.025.025,0,0,0-.019-.006h0c-.038-.006-.075-.01-.112-.015h-.02c-.03-.006-.058-.007-.086-.01h0c-.048.006-.093.009-.138.013" transform="translate(-9.06 -1.874)" fill="#fff"/>
    <path id="Контур_10923" data-name="Контур 10923" d="M183.927,6.674c-.758,2.427-1.371,4.429-1.905,6.077h0A65.984,65.984,0,0,0,188.1,2.138h0a6.246,6.246,0,0,0-4.172,4.536" transform="translate(-148.297 -1.741)" fill="#fff"/>
    <path id="Контур_10924" data-name="Контур 10924" d="M180.985,17.723c-.106.054-.212.105-.317.152,4.044-1.8,8.868-8.957,11.177-17.864h-.468c-5.306,9.478-7.013,15.824-10.392,17.712" transform="translate(-147.194 -0.009)" fill="#fff"/>
    <path id="Контур_10925" data-name="Контур 10925" d="M164.481,65.273c.88-1.074,1.6-2.9,2.575-5.908a29.576,29.576,0,0,1-3.4,3.97c0,.006,0,.006-.006.01a10.361,10.361,0,0,0,.831,1.929" transform="translate(-133.331 -48.355)" fill="#fff"/>
    <path id="Контур_10926" data-name="Контур 10926" d="M162.848,91.223a3.6,3.6,0,0,1-.969.85c-.077.045-.155.087-.235.126a3.408,3.408,0,0,0,1.234.389h0c.067.007.133.013.2.018h.012a.54.54,0,0,1,.1.006h.329a.08.08,0,0,0,.037-.006.3.3,0,0,0,.073-.006h.036c.025,0,.052-.006.079-.009h.006c.008,0,.016-.006.024-.006.028-.006.057-.009.084-.013h.025l.095-.016h.015c.064-.012.126-.024.189-.04a2.747,2.747,0,0,1-1.335-1.283" transform="translate(-131.698 -74.305)" fill="#fff"/>
    <path id="Контур_10927" data-name="Контур 10927" d="M127.936,96.962a6.061,6.061,0,0,0,1.145-.111,7.09,7.09,0,0,0,1.067-.287,3.879,3.879,0,0,0,.937.319,3.981,3.981,0,0,0,.8.079Z" transform="translate(-104.242 -78.655)" fill="#fff"/>
    <path id="Контур_10928" data-name="Контур 10928" d="M149.212,96.9a5.234,5.234,0,0,0,2.3-.413,3.409,3.409,0,0,0,1.234.389h0c.067.007.133.013.2.018h.012a.54.54,0,0,1,.1.006h-3.848Z" transform="translate(-121.57 -78.592)" fill="#fff"/>
    <path id="Контур_10929" data-name="Контур 10929" d="M170.6,98.27h.216a.079.079,0,0,0,.037-.006.309.309,0,0,0,.074-.006h.036c.025,0,.052-.006.078-.008h.007c.008,0,.016-.006.024-.006.028-.006.057-.008.084-.013a.043.043,0,0,0,.026-.006c.031-.006.063-.009.095-.015h.015c.064-.012.126-.024.189-.04h0a1.647,1.647,0,0,0,.579.1l-1.458.006Z" transform="translate(-138.992 -79.963)" fill="#fff"/>
    <path id="Контур_10930" data-name="Контур 10930" d="M155.323,80.8V80.79q-.625.6-1.247,1.093c-.217.172-.433.335-.651.489a7.4,7.4,0,0,0,.564.61,4.374,4.374,0,0,0,.962.718c.079-.039.158-.081.234-.126a3.6,3.6,0,0,0,.97-.85,10.36,10.36,0,0,1-.831-1.929" transform="translate(-125.004 -65.807)" fill="#fff"/>
    <path id="Контур_10931" data-name="Контур 10931" d="M179.677.011h-2.355c-.127.006-.251.01-.373.018h0c-.058.124-.117.247-.174.372h0A65.98,65.98,0,0,1,170.7,11.014h0c-.978,3.009-1.7,4.834-2.575,5.908h0a2.754,2.754,0,0,0,1.334,1.284h0a.239.239,0,0,1,.041-.009h.008c.009,0,.019-.006.029-.006h0c.021-.006.044-.01.065-.016h0a.337.337,0,0,1,.039-.011h0l.058-.015h0a.139.139,0,0,1,.036-.01h0l.086-.026h0a.252.252,0,0,1,.043-.015h0c.017-.006.033-.01.049-.018h0c.017-.006.035-.009.05-.016h0l.041-.015h0c.034-.012.068-.022.1-.036h0c.009,0,.018-.008.028-.01h0c.02-.009.042-.015.062-.024h0a.077.077,0,0,1,.027-.01h0c.071-.03.145-.06.218-.093h.008c.1-.046.211-.1.316-.152h0c3.38-1.889,5.087-8.234,10.393-17.712h-1.48Z" transform="translate(-136.976 -0.009)" fill="#fff"/>
    <path id="Контур_10932" data-name="Контур 10932" d="M72.2,2.236a.037.037,0,0,1,.024.006.2.2,0,0,1,.061.007h.021c.037.006.074.009.112.015a.023.023,0,0,1,.019.006l.095.016c.007,0,.016.006.024.006.073.015.147.03.218.049.007,0,.014.006.02.006.03.007.058.016.088.025.009,0,.016.006.024.007.036.009.069.018.1.03,0,0,0,0,.008.006.03.009.06.021.091.031a.173.173,0,0,0,.035.012l.065.027a.133.133,0,0,1,.037.013l.086.036.042.018a.374.374,0,0,0,.052.022l.046.022.046.024a4.352,4.352,0,0,1,1.044.73,3.388,3.388,0,0,1,.37-.336,4.075,4.075,0,0,0-2.413-.781c-.106,0-.212.006-.32.014" transform="translate(-58.842 -1.818)" fill="#fff"/>
    <path id="Контур_10933" data-name="Контур 10933" d="M84.943,6.732a5.914,5.914,0,0,1,.563.607c.172-.12.343-.235.514-.343a5.426,5.426,0,0,0-.708-.6,3.311,3.311,0,0,0-.369.336" transform="translate(-69.223 -5.21)" fill="#fff"/>
    <path id="Контур_10934" data-name="Контур 10934" d="M70.406-6.375c.108-.009.214-.013.32-.013a4.079,4.079,0,0,1,2.413.78A4.368,4.368,0,0,1,76.018-6.4H70c.139,0,.275.008.408.02" transform="translate(-57.049 6.793)" fill="#fff"/>
    <path id="Контур_10935" data-name="Контур 10935" d="M89.815-9.63a4.368,4.368,0,0,0-2.878.788,5.468,5.468,0,0,1,.707.6A8.775,8.775,0,0,1,90.7-9.521a6.205,6.205,0,0,1,1.145-.109Z" transform="translate(-70.847 10.028)" fill="#fff"/>
    <path id="Контур_10936" data-name="Контур 10936" d="M167.084,11.12c.535-1.649,1.147-3.65,1.906-6.078A6.243,6.243,0,0,1,173.16.505c.06-.122.117-.248.175-.372-3.708.222-5.441,2.108-6.313,4.9-1.525,4.877-2.449,8.038-3.339,10.053a29.66,29.66,0,0,0,3.4-3.968" transform="translate(-133.36 -0.109)" fill="#fff"/>
    <path id="Контур_10937" data-name="Контур 10937" d="M206.9,91.023h-.42V92.33h-.171V91.023h-.422v-.155H206.9v.155Z" transform="translate(-167.74 -74.016)" fill="#fff"/>
    <path id="Контур_10938" data-name="Контур 10938" d="M214.092,92.328h-.171v-.981c0-.077.006-.172.014-.284h0a.994.994,0,0,1-.046.143l-.5,1.122h-.083l-.5-1.114a.808.808,0,0,1-.045-.151h-.006c.006.059.008.154.008.286v.979H212.6V90.867h.226l.448,1.02a1.327,1.327,0,0,1,.066.175h.007c.03-.08.054-.14.071-.18l.457-1.016h.215v1.461Z" transform="translate(-173.207 -74.015)" fill="#fff"/>
  </g>
</svg>
