<svg id="Сгруппировать_13379" data-name="Сгруппировать 13379" xmlns="http://www.w3.org/2000/svg" xmlns:xlink="http://www.w3.org/1999/xlink" width="94.45" height="36.375" viewBox="0 0 94.45 36.375">
  <defs>
    <clipPath id="clip-path">
      <path id="Контур_10950" data-name="Контур 10950" d="M203.893,226.07l-9,5.192a1.086,1.086,0,0,0-.544.941v10.391a1.085,1.085,0,0,0,.544.941l9,5.2a1.089,1.089,0,0,0,1.087,0l8.994-5.2a1.088,1.088,0,0,0,.542-.941V232.2a1.086,1.086,0,0,0-.544-.941l-8.993-5.192a1.093,1.093,0,0,0-1.089,0" transform="translate(-194.354 -225.925)" fill="#fff"/>
    </clipPath>
    <clipPath id="clip-path-2">
      <path id="Контур_10952" data-name="Контур 10952" d="M195.4,243.367a1.088,1.088,0,0,0,.32.281l7.716,4.457,1.285.739a1.09,1.09,0,0,0,.626.142,1.115,1.115,0,0,0,.214-.039l9.487-17.371a1.076,1.076,0,0,0-.253-.2l-5.89-3.4-3.113-1.791a1.136,1.136,0,0,0-.282-.113Zm0,0" transform="translate(-195.398 -226.069)" fill="#fff"/>
    </clipPath>
    <clipPath id="clip-path-3">
      <path id="Контур_10954" data-name="Контур 10954" d="M206.425,225.938a1.1,1.1,0,0,0-.434.139l-8.969,5.177,9.672,17.617a1.079,1.079,0,0,0,.386-.133l9-5.2a1.09,1.09,0,0,0,.525-.742l-9.86-16.844a1.131,1.131,0,0,0-.22-.022q-.045,0-.09,0" transform="translate(-197.021 -225.934)" fill="#fff"/>
    </clipPath>
  </defs>
  <path id="Контур_10947" data-name="Контур 10947" d="M20.27,19.332a1.092,1.092,0,0,0-.546-.949l-9.043-5.2a1.056,1.056,0,0,0-.5-.143H10.09a1.074,1.074,0,0,0-.5.143l-9.043,5.2a1.1,1.1,0,0,0-.547.95L.02,33.347a.538.538,0,0,0,.271.472.517.517,0,0,0,.542,0L6.209,30.74a1.1,1.1,0,0,0,.547-.948V23.246A1.089,1.089,0,0,1,7.3,22.3L9.59,20.982a1.086,1.086,0,0,1,.547-.147,1.067,1.067,0,0,1,.543.147L12.968,22.3a1.089,1.089,0,0,1,.547.946v6.546a1.106,1.106,0,0,0,.548.948l5.373,3.076a.534.534,0,0,0,.547,0,.548.548,0,0,0,.271-.472Zm42.673,7.3a.271.271,0,0,1-.137.236L59.7,28.655a.274.274,0,0,1-.273,0l-3.107-1.79a.271.271,0,0,1-.137-.236V23.043a.275.275,0,0,1,.135-.237l3.1-1.793a.276.276,0,0,1,.275,0l3.107,1.793a.272.272,0,0,1,.137.237ZM63.782.069a.546.546,0,0,0-.813.478V14.424a.382.382,0,0,1-.573.331l-2.265-1.3a1.091,1.091,0,0,0-1.091,0l-9.046,5.221a1.09,1.09,0,0,0-.547.944V30.059a1.093,1.093,0,0,0,.547.946l9.046,5.224a1.1,1.1,0,0,0,1.093,0L69.179,31a1.1,1.1,0,0,0,.547-.946V4.027a1.1,1.1,0,0,0-.562-.954ZM93.907,22.948A1.092,1.092,0,0,0,94.45,22V19.473a1.093,1.093,0,0,0-.544-.945l-8.989-5.218a1.092,1.092,0,0,0-1.1,0l-9.044,5.22a1.09,1.09,0,0,0-.547.946v10.44a1.1,1.1,0,0,0,.551.95l8.987,5.122a1.09,1.09,0,0,0,1.072.006l5.436-3.021a.545.545,0,0,0,0-.95l-9.1-5.222a.542.542,0,0,1-.275-.472V23.055a.542.542,0,0,1,.273-.473l2.831-1.633a.54.54,0,0,1,.544,0l2.833,1.633a.544.544,0,0,1,.273.472v2.575a.545.545,0,0,0,.82.472Zm0,0" transform="translate(0 0)" fill="#fff" fill-rule="evenodd"/>
  <path id="Контур_10948" data-name="Контур 10948" d="M387.755,105.1a.207.207,0,0,1,.209,0l1.736,1a.21.21,0,0,1,.1.181v2a.21.21,0,0,1-.1.181l-1.736,1a.207.207,0,0,1-.209,0l-1.735-1a.209.209,0,0,1-.107-.181v-2a.207.207,0,0,1,.1-.181Zm0,0" transform="translate(-303.518 -82.636)" fill="#fff" fill-rule="evenodd"/>
  <g id="Сгруппировать_13376" data-name="Сгруппировать 13376" transform="translate(24.777 13.216)" clip-path="url(#clip-path)">
    <path id="Контур_10949" data-name="Контур 10949" d="M190.121,201.027,164.774,188.6l-13,26.512,25.346,12.425Zm0,0" transform="translate(-160.868 -196.572)" fill="#fff"/>
  </g>
  <g id="Сгруппировать_13377" data-name="Сгруппировать 13377" transform="translate(25 13.247)" clip-path="url(#clip-path-2)">
    <path id="Контур_10951" data-name="Контур 10951" d="M144.07,199.588l17.9,24.223,23.67-17.488-17.9-24.222Zm0,0" transform="translate(-155.029 -191.489)" fill="#fff"/>
  </g>
  <g id="Сгруппировать_13378" data-name="Сгруппировать 13378" transform="translate(25.347 13.218)" clip-path="url(#clip-path-3)">
    <path id="Контур_10953" data-name="Контур 10953" d="M197.02,225.934v22.937H216.6V225.934Zm0,0" transform="translate(-197.02 -225.934)" fill="#fff"/>
  </g>
</svg>
