<svg xmlns="http://www.w3.org/2000/svg" width="74.042" height="74.056" viewBox="0 0 74.042 74.056">
  <g id="Сгруппировать_13365" data-name="Сгруппировать 13365" transform="translate(-1220 -1210)">
    <g id="Сгруппировать_13180" data-name="Сгруппировать 13180">
      <g id="Сгруппировать_13012" data-name="Сгруппировать 13012" transform="translate(1220 1210)">
        <path id="Контур_10237" data-name="Контур 10237" d="M464.841,857.7c-.148,0-.31.027-.46.027V894.3h37.472A37.029,37.029,0,0,0,464.841,857.7Z" transform="translate(-427.825 -857.697)" fill="#ccd2d1" opacity="0.6"/>
        <path id="Контур_10238" data-name="Контур 10238" d="M501.867,871.49c0-.154-.014-.293-.014-.436H464.381v.479l26.433,26.316A36.858,36.858,0,0,0,501.867,871.49Z" transform="translate(-427.825 -834.451)" fill="#ccd2d1" opacity="0.6"/>
        <path id="Контур_10239" data-name="Контур 10239" d="M464.381,871.229V908.18c.151,0,.312.022.46.022a36.876,36.876,0,0,0,25.973-10.657Z" transform="translate(-427.825 -834.147)" fill="#ccd2d1" opacity="0.2"/>
        <path id="Контур_10240" data-name="Контур 10240" d="M480.9,894.283V857.707a36.926,36.926,0,0,0-26,11.162l25.524,25.414Z" transform="translate(-444.339 -857.68)" fill="#ccd2d1" opacity="0.2"/>
        <path id="Контур_10241" data-name="Контур 10241" d="M487.109,887.194,461.585,861.78a36.9,36.9,0,0,0-10.539,25.414Z" transform="translate(-451.032 -850.591)" fill="#ccd2d1" opacity="0.2"/>
        <path id="Контур_10242" data-name="Контур 10242" d="M464.686,871.054h-.48l.48.481Z" transform="translate(-428.13 -834.452)" fill="#ccd2d1" opacity="0.2"/>
        <path id="Контур_10243" data-name="Контур 10243" d="M487.118,871.054H451.055c0,.142-.014.282-.014.436A37.008,37.008,0,0,0,487.6,908.485V871.534Z" transform="translate(-451.041 -834.451)" fill="#ccd2d1" opacity="0.2"/>
        <g id="Сгруппировать_12998" data-name="Сгруппировать 12998" transform="translate(21.569 21.578)" opacity="0.5">
          <path id="Контур_10245" data-name="Контур 10245" d="M474.359,896.48a15.454,15.454,0,1,1,15.461-15.447A15.466,15.466,0,0,1,474.359,896.48Zm0-27.464a12.008,12.008,0,1,0,12.011,12.016A12.025,12.025,0,0,0,474.359,869.016Z" transform="translate(-458.912 -865.571)" fill="#ccd2d1"/>
        </g>
        <g id="Сгруппировать_12999" data-name="Сгруппировать 12999" transform="translate(1.254 1.264)">
          <rect id="Прямоугольник_17589" data-name="Прямоугольник 17589" width="0.863" height="100.309" transform="matrix(0.707, -0.707, 0.707, 0.707, 0, 0.61)" fill="#ccd2d1"/>
        </g>
        <path id="Контур_10244" data-name="Контур 10244" d="M457.4,883.676a19.61,19.61,0,1,1,19.6,19.607A19.607,19.607,0,0,1,457.4,883.676Z" transform="translate(-439.977 -846.637)" fill="#fff"/>
      </g>
    </g>
    <g id="Сгруппировать_12950" data-name="Сгруппировать 12950" transform="translate(836.699 1087.244)">
      <g id="Сгруппировать_12949" data-name="Сгруппировать 12949" transform="translate(406.3 151.757)">
        <path id="Контур_10205" data-name="Контур 10205" d="M447.013,157.457a4.1,4.1,0,0,0-7.5-3.331" transform="translate(-421.148 -151.757)" fill="none" stroke="#33e08e" stroke-linecap="round" stroke-linejoin="round" stroke-width="1.5"/>
        <path id="Контур_10206" data-name="Контур 10206" d="M439.924,163.074a4.1,4.1,0,0,0,6.395.745" transform="translate(-421.332 -156.816)" fill="none" stroke="#33e08e" stroke-linecap="round" stroke-linejoin="round" stroke-width="1.5"/>
        <path id="Контур_10207" data-name="Контур 10207" d="M412.284,157.457a4.1,4.1,0,0,1,7.5-3.331" transform="translate(-408.831 -151.757)" fill="none" stroke="#33e08e" stroke-linecap="round" stroke-linejoin="round" stroke-width="1.5"/>
        <path id="Контур_10208" data-name="Контур 10208" d="M420.528,163.074a4.1,4.1,0,0,1-6.395.745" transform="translate(-409.802 -156.816)" fill="none" stroke="#33e08e" stroke-linecap="round" stroke-linejoin="round" stroke-width="1.5"/>
        <path id="Контур_10209" data-name="Контур 10209" d="M444.97,175.194h7.188a7.229,7.229,0,0,0-2.31-6.245l-2.117.694a6.6,6.6,0,0,1-4.28.473" transform="translate(-422.909 -159.443)" fill="none" stroke="#33e08e" stroke-linecap="round" stroke-linejoin="round" stroke-width="1.5"/>
        <path id="Контур_10210" data-name="Контур 10210" d="M415.166,169.975a6.759,6.759,0,0,1-4.466-.3l-2.035-.724a7.2,7.2,0,0,0-2.365,5.344,7.471,7.471,0,0,0,.056.9h7.431" transform="translate(-406.3 -159.443)" fill="none" stroke="#33e08e" stroke-linecap="round" stroke-linejoin="round" stroke-width="1.5"/>
        <path id="Контур_10211" data-name="Контур 10211" d="M424.141,169.674l-2.036-.724a7.2,7.2,0,0,0-2.364,5.344,7.471,7.471,0,0,0,.055.9h14.33a7.036,7.036,0,0,0,.056-.9,7.2,7.2,0,0,0-2.365-5.345l-2.117.694A6.517,6.517,0,0,1,424.141,169.674Z" transform="translate(-412.309 -159.443)" fill="none" stroke="#33e08e" stroke-linecap="round" stroke-linejoin="round" stroke-width="1.5"/>
      </g>
      <ellipse id="Эллипс_810" data-name="Эллипс 810" cx="4.103" cy="4.19" rx="4.103" ry="4.19" transform="translate(416.85 151.756)" fill="#33e08e" stroke="#33e08e" stroke-linecap="round" stroke-linejoin="round" stroke-width="1.5"/>
    </g>
  </g>
</svg>
