<svg xmlns="http://www.w3.org/2000/svg" width="74.042" height="74.056" viewBox="0 0 74.042 74.056">
  <g id="Сгруппировать_13365" data-name="Сгруппировать 13365" transform="translate(-1335 -1210)">
    <g id="Сгруппировать_13181" data-name="Сгруппировать 13181">
      <g id="Сгруппировать_13009" data-name="Сгруппировать 13009" transform="translate(1335 1210)">
        <path id="Контур_10266" data-name="Контур 10266" d="M588.443,857.7c-.153,0-.307.027-.458.027V894.3h37.464A37.028,37.028,0,0,0,588.443,857.7Z" transform="translate(-551.418 -857.697)" fill="#ccd2d1" opacity="0.2"/>
        <path id="Контур_10267" data-name="Контур 10267" d="M625.46,871.49c0-.154-.011-.293-.011-.436H587.985v.479l26.428,26.316A36.863,36.863,0,0,0,625.46,871.49Z" transform="translate(-551.418 -834.451)" fill="#ccd2d1" opacity="0.2"/>
        <path id="Контур_10268" data-name="Контур 10268" d="M587.985,871.229V908.18c.151,0,.3.022.458.022a36.874,36.874,0,0,0,25.971-10.657Z" transform="translate(-551.418 -834.147)" fill="#ccd2d1" opacity="0.2"/>
        <path id="Контур_10269" data-name="Контур 10269" d="M604.5,894.283V857.707a36.951,36.951,0,0,0-26.011,11.162l25.518,25.414Z" transform="translate(-567.937 -857.68)" fill="#ccd2d1" opacity="0.6"/>
        <path id="Контур_10270" data-name="Контур 10270" d="M610.7,887.194,585.187,861.78a36.89,36.89,0,0,0-10.54,25.414Z" transform="translate(-574.63 -850.591)" fill="#ccd2d1" opacity="0.2"/>
        <path id="Контур_10271" data-name="Контур 10271" d="M588.3,871.054h-.5l.5.481Z" transform="translate(-551.732 -834.452)" fill="#ccd2d1" opacity="0.2"/>
        <path id="Контур_10272" data-name="Контур 10272" d="M610.715,871.054H574.657c0,.142-.016.282-.016.436a37.014,37.014,0,0,0,36.567,36.995V871.534Z" transform="translate(-574.641 -834.451)" fill="#ccd2d1" opacity="0.2"/>
        <g id="Сгруппировать_13007" data-name="Сгруппировать 13007" transform="translate(21.575 21.578)" opacity="0.5">
          <path id="Контур_10274" data-name="Контур 10274" d="M597.964,896.48a15.454,15.454,0,1,1,15.45-15.447A15.463,15.463,0,0,1,597.964,896.48Zm0-27.464a12.008,12.008,0,1,0,12.006,12.016A12.021,12.021,0,0,0,597.964,869.016Z" transform="translate(-582.514 -865.571)" fill="#ccd2d1"/>
        </g>
        <g id="Сгруппировать_13008" data-name="Сгруппировать 13008" transform="translate(1.257 1.264)">
          <path id="Контур_10275" data-name="Контур 10275" d="M646.02,929.7,575.1,858.769l.615-.61,70.921,70.929Z" transform="translate(-575.1 -858.158)" fill="#ccd2d1"/>
        </g>
        <path id="Контур_10273" data-name="Контур 10273" d="M580.994,883.676a19.614,19.614,0,1,1,19.615,19.607A19.622,19.622,0,0,1,580.994,883.676Z" transform="translate(-563.584 -846.637)" fill="#fff"/>
      </g>
    </g>
    <g id="Сгруппировать_12945" data-name="Сгруппировать 12945" transform="translate(1167.537 1089.913)">
      <g id="Сгруппировать_12944" data-name="Сгруппировать 12944" transform="translate(197.644 144.087)">
        <rect id="Прямоугольник_17575" data-name="Прямоугольник 17575" width="14.701" height="2.186" transform="translate(1.511 22.78)" fill="none" stroke="#33e08e" stroke-miterlimit="10" stroke-width="1"/>
        <path id="Контур_10184" data-name="Контур 10184" d="M197.644,144.087v21.951h17.723V152.392C210.36,146.161,199.948,144.405,197.644,144.087Z" transform="translate(-197.644 -144.087)" fill="none" stroke="#33e08e" stroke-miterlimit="10" stroke-width="1"/>
      </g>
      <path id="Контур_10185" data-name="Контур 10185" d="M215.052,165.753H200.007V147.961l.5.1c11.046,2.295,14.34,6.986,14.475,7.185l.071.105Z" transform="translate(-1.017 -1.667)" fill="#33e08e"/>
    </g>
  </g>
</svg>
