<svg xmlns="http://www.w3.org/2000/svg" width="74.061" height="74.056" viewBox="0 0 74.061 74.056">
  <g id="Сгруппировать_13365" data-name="Сгруппировать 13365" transform="translate(-1450 -1210)">
    <g id="Сгруппировать_13182" data-name="Сгруппировать 13182">
      <g id="Сгруппировать_13011" data-name="Сгруппировать 13011" transform="translate(1450 1210)">
        <path id="Контур_10228" data-name="Контур 10228" d="M423.646,857.7c-.156,0-.31.027-.463.027V894.3h37.461A37.009,37.009,0,0,0,423.646,857.7Z" transform="translate(-386.613 -857.697)" fill="#ccd2d1" opacity="0.6"/>
        <path id="Контур_10229" data-name="Контур 10229" d="M460.674,871.49c0-.154-.03-.293-.03-.436H423.183v.479l26.434,26.316A36.885,36.885,0,0,0,460.674,871.49Z" transform="translate(-386.613 -834.451)" fill="#ccd2d1" opacity="0.2"/>
        <path id="Контур_10230" data-name="Контур 10230" d="M423.183,871.229V908.18c.153,0,.307.022.463.022a36.889,36.889,0,0,0,25.97-10.657Z" transform="translate(-386.613 -834.147)" fill="#ccd2d1" opacity="0.2"/>
        <path id="Контур_10231" data-name="Контур 10231" d="M439.7,894.283V857.707a36.953,36.953,0,0,0-26.006,11.162l25.518,25.414Z" transform="translate(-403.129 -857.68)" fill="#ccd2d1" opacity="0.2"/>
        <path id="Контур_10232" data-name="Контур 10232" d="M445.9,887.194,420.385,861.78a36.912,36.912,0,0,0-10.537,25.414Z" transform="translate(-409.821 -850.591)" fill="#ccd2d1" opacity="0.2"/>
        <path id="Контур_10233" data-name="Контур 10233" d="M423.491,871.054h-.486l.486.481Z" transform="translate(-386.922 -834.452)" fill="#ccd2d1" opacity="0.2"/>
        <path id="Контур_10234" data-name="Контур 10234" d="M445.92,871.054H409.865c0,.142-.027.282-.027.436a37.016,37.016,0,0,0,36.57,36.995V871.534Z" transform="translate(-409.838 -834.451)" fill="#ccd2d1" opacity="0.2"/>
        <g id="Сгруппировать_12995" data-name="Сгруппировать 12995" transform="translate(21.583 21.578)" opacity="0.5">
          <path id="Контур_10236" data-name="Контур 10236" d="M433.164,896.48a15.454,15.454,0,1,1,15.453-15.447A15.465,15.465,0,0,1,433.164,896.48Zm0-27.464a12.008,12.008,0,1,0,12.008,12.016A12.023,12.023,0,0,0,433.164,869.016Z" transform="translate(-417.714 -865.571)" fill="#ccd2d1"/>
        </g>
        <g id="Сгруппировать_12996" data-name="Сгруппировать 12996" transform="translate(1.259 1.264)">
          <rect id="Прямоугольник_17588" data-name="Прямоугольник 17588" width="0.865" height="100.311" transform="matrix(0.707, -0.707, 0.707, 0.707, 0, 0.612)" fill="#ccd2d1"/>
        </g>
        <path id="Контур_10235" data-name="Контур 10235" d="M416.193,883.676a19.616,19.616,0,1,1,19.618,19.607A19.624,19.624,0,0,1,416.193,883.676Z" transform="translate(-398.778 -846.637)" fill="#fff" opacity="0.998"/>
      </g>
    </g>
    <g id="Сгруппировать_12948" data-name="Сгруппировать 12948" transform="translate(1135.852 1088.703)">
      <g id="Сгруппировать_12947" data-name="Сгруппировать 12947" transform="translate(338.021 147.297)">
        <path id="Контур_10188" data-name="Контур 10188" d="M359.245,161a5.252,5.252,0,0,1,.761.63,5.178,5.178,0,0,1,.627.763.412.412,0,0,0,.341.181.4.4,0,0,0,.228-.07.411.411,0,0,0,.112-.57,5.973,5.973,0,0,0-2.621-2.166,5.907,5.907,0,0,0-1.12-.35,6,6,0,0,0-1.2-.123,5.886,5.886,0,0,0-1.2.12,5.962,5.962,0,0,0-3.018,1.624,6.071,6.071,0,0,0-.73.882.411.411,0,1,0,.68.46,5.133,5.133,0,0,1,3.231-2.161,5.106,5.106,0,0,1,1.037-.1,5.133,5.133,0,0,1,2,.407A5.215,5.215,0,0,1,359.245,161Z" transform="translate(-343.172 -151.942)" fill="#33e08e"/>
        <path id="Контур_10189" data-name="Контур 10189" d="M358.429,170.3h0a.411.411,0,0,0,.411-.41v-.478a1.451,1.451,0,0,0,1.359-1.448,1.455,1.455,0,0,0-1.45-1.457h-.631a.634.634,0,0,1,0-1.268h1.261a.41.41,0,1,0,0-.821h-.535v-.474a.411.411,0,0,0-.41-.411h0a.411.411,0,0,0-.411.41v.479a1.454,1.454,0,0,0,.092,2.9h.631a.634.634,0,0,1,.444,1.083.625.625,0,0,1-.445.184h-1.262a.41.41,0,1,0,0,.821h.535v.474A.41.41,0,0,0,358.429,170.3Z" transform="translate(-345.242 -153.576)" fill="#33e08e"/>
        <path id="Контур_10190" data-name="Контур 10190" d="M339.256,164.4a.411.411,0,0,0,.31-.76l-.9-.367a.411.411,0,0,0-.311.76Z" transform="translate(-338.053 -153.474)" fill="#33e08e"/>
        <path id="Контур_10191" data-name="Контур 10191" d="M341.614,162.332a.41.41,0,0,0,.324-.662l-.595-.766a.41.41,0,1,0-.648.5l.6.766A.409.409,0,0,0,341.614,162.332Z" transform="translate(-339.029 -152.507)" fill="#33e08e"/>
        <path id="Контур_10192" data-name="Контур 10192" d="M338.557,167.515a.435.435,0,0,0,.056,0l.961-.13a.41.41,0,0,0-.111-.813l-.961.131a.41.41,0,0,0,.055.816Z" transform="translate(-338.07 -154.763)" fill="#33e08e"/>
        <path id="Контур_10193" data-name="Контур 10193" d="M379.969,163.528a.411.411,0,0,0-.534-.226l-.9.364a.41.41,0,0,0,.154.791.4.4,0,0,0,.154-.03l.9-.364A.411.411,0,0,0,379.969,163.528Z" transform="translate(-353.618 -153.486)" fill="#33e08e"/>
        <path id="Контур_10194" data-name="Контур 10194" d="M378.478,167.408l.96.133a.361.361,0,0,0,.057,0,.41.41,0,0,0,.056-.817l-.96-.133a.41.41,0,1,0-.113.813Z" transform="translate(-353.557 -154.773)" fill="#33e08e"/>
        <path id="Контур_10195" data-name="Контур 10195" d="M377.536,160.855a.41.41,0,0,0-.576.07l-.6.765a.41.41,0,1,0,.647.5l.6-.764A.41.41,0,0,0,377.536,160.855Z" transform="translate(-352.837 -152.516)" fill="#33e08e"/>
        <path id="Контур_10196" data-name="Контур 10196" d="M352.205,175.1a5.94,5.94,0,0,0,4.215,1.755h.008a6,6,0,0,0,1.194-.12,5.918,5.918,0,0,0,2.135-.9,5.978,5.978,0,0,0,1.5-1.454.41.41,0,1,0-.665-.481,5.185,5.185,0,0,1-.535.627,5.257,5.257,0,0,1-.762.628,5.12,5.12,0,0,1-1.84.772,5.184,5.184,0,0,1-1.03.1h-.007a5.173,5.173,0,0,1-1.037-.106,5.085,5.085,0,0,1-.964-.3,5.144,5.144,0,0,1-.873-.476,5.182,5.182,0,0,1-1.286-1.247.41.41,0,0,0-.665.481A6.053,6.053,0,0,0,352.205,175.1Z" transform="translate(-343.237 -157.536)" fill="#33e08e"/>
        <path id="Контур_10197" data-name="Контур 10197" d="M338.431,177.058a.41.41,0,0,0,.41-.41v-.311a.41.41,0,0,0-.821,0v.311A.41.41,0,0,0,338.431,177.058Z" transform="translate(-338.021 -158.389)" fill="#33e08e"/>
        <path id="Контур_10198" data-name="Контур 10198" d="M380.655,154.631a.411.411,0,0,0-.821,0v.311a.411.411,0,0,0,.821,0Z" transform="translate(-354.223 -149.98)" fill="#33e08e"/>
        <circle id="Эллипс_807" data-name="Эллипс 807" cx="0.429" cy="0.429" r="0.429" transform="translate(2.267 2.02)" fill="#33e08e"/>
        <circle id="Эллипс_808" data-name="Эллипс 808" cx="0.429" cy="0.429" r="0.429" transform="translate(3.743 2.02)" fill="#33e08e"/>
        <circle id="Эллипс_809" data-name="Эллипс 809" cx="0.429" cy="0.429" r="0.429" transform="translate(5.201 2.02)" fill="#33e08e"/>
        <path id="Контур_10199" data-name="Контур 10199" d="M338.431,172.955a.41.41,0,0,0,.41-.41v-2.773a.41.41,0,0,0-.821,0v2.773A.41.41,0,0,0,338.431,172.955Z" transform="translate(-338.021 -155.841)" fill="#33e08e"/>
        <path id="Контур_10200" data-name="Контур 10200" d="M338.433,156.249a.411.411,0,0,0,.411-.41v-3.558h23.545a.411.411,0,1,0,0-.821H338.844v-.76a2.584,2.584,0,0,1,2.581-2.581h19.623a2.584,2.584,0,0,1,2.581,2.581.412.412,0,0,0,.823,0,3.407,3.407,0,0,0-3.4-3.4H341.426a3.407,3.407,0,0,0-3.4,3.4v5.139A.411.411,0,0,0,338.433,156.249Z" transform="translate(-338.021 -147.297)" fill="#33e08e"/>
        <path id="Контур_10201" data-name="Контур 10201" d="M380.655,157.163a.411.411,0,0,0-.821,0v2.377a.411.411,0,0,0,.821,0Z" transform="translate(-354.223 -150.959)" fill="#33e08e"/>
        <path id="Контур_10202" data-name="Контур 10202" d="M341.426,178.741h19.623a3.407,3.407,0,0,0,3.4-3.4V169.8a.412.412,0,0,0-.823,0v5.535a2.584,2.584,0,0,1-2.581,2.581H341.426a2.584,2.584,0,0,1-2.581-2.581.412.412,0,0,0-.823,0A3.407,3.407,0,0,0,341.426,178.741Z" transform="translate(-338.021 -155.832)" fill="#33e08e"/>
      </g>
      <path id="Контур_10203" data-name="Контур 10203" d="M372.531,166.709l-.9-2.229.15-.062a.847.847,0,0,0,.523-.786.866.866,0,0,0-.061-.316.84.84,0,0,0-1.1-.464l-.144.06-.9-2.221a.411.411,0,0,0-.747-.029,6.249,6.249,0,0,1-3.234,2.984l-.921.373a1.719,1.719,0,0,0-.946,2.235l.24.6a1.716,1.716,0,0,0,2.234.948l.212-.086.808,2a1.08,1.08,0,0,0,.584.595,1.1,1.1,0,0,0,.419.084,1.073,1.073,0,0,0,.415-.082,1.1,1.1,0,0,0,.595-1.422l-.749-1.851a6.316,6.316,0,0,1,3.014.219.41.41,0,0,0,.507-.543Zm-3.681,2.837a.26.26,0,0,1-.343-.145l-.808-2c.167-.068.335-.127.5-.181l.794,1.968A.272.272,0,0,1,368.85,169.547Z" transform="translate(-10.085 -5.074)" fill="#33e08e"/>
      <path id="Контур_10204" data-name="Контур 10204" d="M348.544,164l-.92-.376a6.235,6.235,0,0,1-3.225-2.994.411.411,0,0,0-.747.029l-.9,2.218-.144-.062a.829.829,0,0,0-.646,0,.839.839,0,0,0-.458.46.85.85,0,0,0,.46,1.1l.15.064-.907,2.224a.405.405,0,0,0,.078.433.41.41,0,0,0,.427.113,6.349,6.349,0,0,1,3.014-.211l-.753,1.849a1.1,1.1,0,0,0,.591,1.422,1.067,1.067,0,0,0,.416.084,1.08,1.08,0,0,0,1-.675l.815-2,.211.089a1.746,1.746,0,0,0,.648.127,1.721,1.721,0,0,0,1.588-1.069l.24-.593A1.717,1.717,0,0,0,348.544,164Zm-3.322,5.372a.262.262,0,0,1-.143.143.266.266,0,0,1-.2,0,.275.275,0,0,1-.148-.355l.8-1.965c.168.053.336.113.5.181Z" transform="translate(-1.227 -5.06)" fill="#33e08e"/>
    </g>
  </g>
</svg>
