<svg xmlns="http://www.w3.org/2000/svg" width="74.061" height="74.056" viewBox="0 0 74.061 74.056">
  <g id="Сгруппировать_13248" data-name="Сгруппировать 13248" transform="translate(-1263.958 -697)">
    <g id="Сгруппировать_13247" data-name="Сгруппировать 13247" transform="translate(1263.958 697)">
      <path id="Контур_10228" data-name="Контур 10228" d="M423.646,857.7c-.156,0-.31.027-.463.027V894.3h37.461A37.009,37.009,0,0,0,423.646,857.7Z" transform="translate(-386.613 -857.697)" fill="#ccd2d1" opacity="0.6"/>
      <path id="Контур_10229" data-name="Контур 10229" d="M460.674,871.49c0-.154-.03-.293-.03-.436H423.183v.479l26.434,26.316A36.885,36.885,0,0,0,460.674,871.49Z" transform="translate(-386.613 -834.451)" fill="#ccd2d1" opacity="0.2"/>
      <path id="Контур_10230" data-name="Контур 10230" d="M423.183,871.229V908.18c.153,0,.307.022.463.022a36.889,36.889,0,0,0,25.97-10.657Z" transform="translate(-386.613 -834.147)" fill="#ccd2d1" opacity="0.2"/>
      <path id="Контур_10231" data-name="Контур 10231" d="M439.7,894.283V857.707a36.953,36.953,0,0,0-26.006,11.162l25.518,25.414Z" transform="translate(-403.129 -857.68)" fill="#ccd2d1" opacity="0.999"/>
      <path id="Контур_10232" data-name="Контур 10232" d="M445.9,887.194,420.385,861.78a36.912,36.912,0,0,0-10.537,25.414Z" transform="translate(-409.821 -850.591)" fill="#ccd2d1" opacity="0.999"/>
      <path id="Контур_10233" data-name="Контур 10233" d="M423.491,871.054h-.486l.486.481Z" transform="translate(-386.922 -834.452)" fill="#ccd2d1" opacity="0.2"/>
      <path id="Контур_10234" data-name="Контур 10234" d="M445.92,871.054H409.865c0,.142-.027.282-.027.436a37.016,37.016,0,0,0,36.57,36.995V871.534Z" transform="translate(-409.838 -834.451)" fill="#ccd2d1" opacity="0.2"/>
      <g id="Сгруппировать_12995" data-name="Сгруппировать 12995" transform="translate(21.583 21.578)" opacity="0.5">
        <path id="Контур_10236" data-name="Контур 10236" d="M433.164,896.48a15.454,15.454,0,1,1,15.453-15.447A15.465,15.465,0,0,1,433.164,896.48Zm0-27.464a12.008,12.008,0,1,0,12.008,12.016A12.023,12.023,0,0,0,433.164,869.016Z" transform="translate(-417.714 -865.571)" fill="#ccd2d1"/>
      </g>
      <g id="Сгруппировать_12996" data-name="Сгруппировать 12996" transform="translate(1.259 1.264)">
        <rect id="Прямоугольник_17588" data-name="Прямоугольник 17588" width="0.865" height="100.311" transform="matrix(0.707, -0.707, 0.707, 0.707, 0, 0.612)" fill="#ccd2d1"/>
      </g>
      <path id="Контур_10235" data-name="Контур 10235" d="M416.193,883.676a19.616,19.616,0,1,1,19.618,19.607A19.624,19.624,0,0,1,416.193,883.676Z" transform="translate(-398.778 -846.637)" fill="#0f4c81" opacity="0.998"/>
    </g>
    <path id="noun_customer_1017711" d="M23.371,22.853a1.04,1.04,0,0,0,.629.914l.09.033.067.021.046.013.095.026q.752.218,1.476.475A16.515,16.515,0,0,1,28.567,25.7a6.978,6.978,0,0,0,1.314.593c.48.116.11-.377-.588-.973a14.17,14.17,0,0,0-4.315-2.446c-.105-.039-.211-.074-.318-.11l-.1-.033h0l.015-.334.051-1.355.021-.685V19.97h0v-.018l.1-.11.11-.149c.074-.1.139-.205.211-.308.133-.211.257-.426.372-.647a9.619,9.619,0,0,0,.911-2.9,4.48,4.48,0,0,0,1.622-2.734c.026-.144.041-.29.054-.436v-.477a2.19,2.19,0,0,0-.349-1.006,2.123,2.123,0,0,0-1.15-.875L26.544,8.5a4.331,4.331,0,0,0-.868-2.618,7.214,7.214,0,0,0-1.895-1.8,5.979,5.979,0,0,0-1.846-.8V2.054h0a.747.747,0,0,0-.747-.744H19.574a5.465,5.465,0,0,0-1.8.359,6.916,6.916,0,0,0-2.839,2.09,7.611,7.611,0,0,0-1.027,1.52,6.844,6.844,0,0,0-.37.863,6.055,6.055,0,0,0-.234.919,7.034,7.034,0,0,0-.1,1.027l-.013.929L13.174,10.2a2.338,2.338,0,0,0-.336.131,2.369,2.369,0,0,0-.873.752,2.336,2.336,0,0,0-.4,1.088,1.662,1.662,0,0,0,0,.277v.234a2.86,2.86,0,0,0,.051.465A4.646,4.646,0,0,0,13.259,16a9.691,9.691,0,0,0,.77,2.6,8.045,8.045,0,0,0,.783,1.343l.018.026v.891l.018,1.4v.159l-.182.054a17.761,17.761,0,0,0-2.711,1.065,10.417,10.417,0,0,0-2.221,1.43c-.513.444-.726.786-.562.883.311.19,1.54-.483,3.365-1.284a17.341,17.341,0,0,1,2.529-.875l.326-.082.082-.021h.082l.064-.021a.852.852,0,0,0,.513-.578.893.893,0,0,0,.026-.133v-.619l.021-1.386v-.95a1.181,1.181,0,0,0-.015-.185,1.214,1.214,0,0,0-.11-.341,1.25,1.25,0,0,0-.036-.18l-.054-.08a6.836,6.836,0,0,1-.621-1.1,8.759,8.759,0,0,1-.683-2.467v-.067h0a.647.647,0,0,0-.272-.447,3.253,3.253,0,0,1-1.35-2.12c-.021-.105-.028-.213-.039-.321v-.285a.921.921,0,0,1,.94-.832h.028a.611.611,0,0,0,.614-.611V8a5.355,5.355,0,0,1,.182-1.284,5.781,5.781,0,0,1,.513-1.2,6.328,6.328,0,0,1,1.712-1.979,4.813,4.813,0,0,1,2.385-.958l-.139-.023.139.023h.421l.465.018h.334l-.041,1.307a.616.616,0,0,0,.531.629h.039a5.207,5.207,0,0,1,3.389,2.19,2.9,2.9,0,0,1,.58,1.758l-.015,2.359h0a.77.77,0,0,0,.77.77h0a.786.786,0,0,1,.634.344.77.77,0,0,1,.123.344c0,.036,0,.054,0,.105v.151a1.708,1.708,0,0,1-.033.3,3.109,3.109,0,0,1-1.232,2.01h0a.77.77,0,0,0-.313.542,8.189,8.189,0,0,1-.837,2.842,6.674,6.674,0,0,1-.37.626l-.105.146c-.041.062-.049.059-.154.223a1.358,1.358,0,0,0-.167.465,1.327,1.327,0,0,0-.026.244v2.9Z" transform="translate(1280.882 719.69)" fill="#33e08e"/>
  </g>
</svg>
