<svg xmlns="http://www.w3.org/2000/svg" width="74.053" height="74.056" viewBox="0 0 74.053 74.056">
  <g id="Сгруппировать_13365" data-name="Сгруппировать 13365" transform="translate(-1565 -1210)">
    <g id="Сгруппировать_13006" data-name="Сгруппировать 13006" transform="translate(1565 1210)">
      <path id="Контур_10256" data-name="Контур 10256" d="M547.245,857.7c-.154,0-.307.027-.461.027V894.3h37.464A37.021,37.021,0,0,0,547.245,857.7Z" transform="translate(-510.222 -857.697)" fill="#ccd2d1"/>
      <path id="Контур_10257" data-name="Контур 10257" d="M584.275,871.49c0-.154-.028-.293-.028-.436H546.784v.479l26.436,26.316A36.882,36.882,0,0,0,584.275,871.49Z" transform="translate(-510.222 -834.451)" fill="#ccd2d1" opacity="0.389"/>
      <path id="Контур_10258" data-name="Контур 10258" d="M546.784,871.229V908.18c.154,0,.307.022.461.022a36.9,36.9,0,0,0,25.976-10.657Z" transform="translate(-510.222 -834.147)" fill="#ccd2d1" opacity="0.359"/>
      <path id="Контур_10259" data-name="Контур 10259" d="M563.3,894.283V857.707a36.916,36.916,0,0,0-26,11.162l25.513,25.414Z" transform="translate(-526.737 -857.68)" fill="#ccd2d1" opacity="0.211"/>
      <path id="Контур_10260" data-name="Контур 10260" d="M569.5,887.194,543.988,861.78a36.853,36.853,0,0,0-10.539,25.414Z" transform="translate(-533.43 -850.591)" fill="#ccd2d1" opacity="0.2"/>
      <path id="Контур_10261" data-name="Контур 10261" d="M547.1,871.054h-.49l.49.481Z" transform="translate(-510.533 -834.452)" fill="#ccd2d1" opacity="0.2"/>
      <path id="Контур_10262" data-name="Контур 10262" d="M569.514,871.054H533.461c0,.142-.019.282-.019.436A37.011,37.011,0,0,0,570,908.485V871.534Z" transform="translate(-533.442 -834.451)" fill="#ccd2d1" opacity="0.2"/>
      <g id="Сгруппировать_13004" data-name="Сгруппировать 13004" transform="translate(21.567 21.578)" opacity="0.5">
        <path id="Контур_10264" data-name="Контур 10264" d="M556.768,896.48a15.454,15.454,0,1,1,15.453-15.447A15.471,15.471,0,0,1,556.768,896.48Zm0-27.464a12.008,12.008,0,1,0,12.014,12.016A12.017,12.017,0,0,0,556.768,869.016Z" transform="translate(-541.312 -865.571)" fill="#ccd2d1"/>
      </g>
      <g id="Сгруппировать_13005" data-name="Сгруппировать 13005" transform="translate(1.251 1.264)">
        <path id="Контур_10265" data-name="Контур 10265" d="M604.819,929.7,533.9,858.769l.615-.61,70.923,70.929Z" transform="translate(-533.898 -858.158)" fill="#ccd2d1"/>
      </g>
      <g id="Сгруппировать_13183" data-name="Сгруппировать 13183" transform="translate(-1114 -1210)">
        <path id="Контур_10408" data-name="Контур 10408" d="M539.794,883.676a19.61,19.61,0,1,1,19.616,19.607A19.625,19.625,0,0,1,539.794,883.676Z" transform="translate(591.613 363.363)" fill="#fff"/>
      </g>
    </g>
    <g id="Сгруппировать_12943" data-name="Сгруппировать 12943" transform="translate(1475.547 1092.316)">
      <g id="Сгруппировать_12942" data-name="Сгруппировать 12942" transform="translate(111.088 139.684)">
        <g id="Сгруппировать_12941" data-name="Сгруппировать 12941">
          <path id="Контур_10142" data-name="Контур 10142" d="M117.548,164.444a.274.274,0,0,0-.215.323l.011.054a.274.274,0,0,0,.269.221.3.3,0,0,0,.054-.005.276.276,0,0,0,.216-.323l-.011-.054A.276.276,0,0,0,117.548,164.444Z" transform="translate(-113.827 -150.551)" fill="#33e08e"/>
          <path id="Контур_10143" data-name="Контур 10143" d="M117.736,166.785l.011.054a.274.274,0,0,0,.269.221.3.3,0,0,0,.054-.005.275.275,0,0,0,.216-.323l-.011-.054a.275.275,0,0,0-.539.108Z" transform="translate(-114.004 -151.437)" fill="#33e08e"/>
          <path id="Контур_10144" data-name="Контур 10144" d="M117.143,162.425a.275.275,0,0,0-.215.324l.011.054a.274.274,0,0,0,.269.221.3.3,0,0,0,.054-.005.276.276,0,0,0,.216-.324l-.011-.054A.275.275,0,0,0,117.143,162.425Z" transform="translate(-113.649 -149.665)" fill="#33e08e"/>
          <path id="Контур_10145" data-name="Контур 10145" d="M146.428,154.93l-.018.052a.253.253,0,0,0,.177.325.232.232,0,0,0,.078.013.313.313,0,0,0,.282-.206.275.275,0,0,0-.518-.183Z" transform="translate(-126.588 -146.297)" fill="#33e08e"/>
          <path id="Контур_10146" data-name="Контур 10146" d="M147.965,151.428a.219.219,0,0,0,.078.013.315.315,0,0,0,.282-.207.275.275,0,0,0-.519-.183l-.019.052A.253.253,0,0,0,147.965,151.428Z" transform="translate(-127.193 -144.594)" fill="#33e08e"/>
          <path id="Контур_10147" data-name="Контур 10147" d="M145.739,156.87l-.019.052a.253.253,0,0,0,.177.325.232.232,0,0,0,.078.013.313.313,0,0,0,.282-.207.275.275,0,1,0-.518-.182Z" transform="translate(-126.285 -147.148)" fill="#33e08e"/>
          <path id="Контур_10148" data-name="Контур 10148" d="M147.117,152.991l-.019.052a.253.253,0,0,0,.177.325.232.232,0,0,0,.078.013.313.313,0,0,0,.282-.207.275.275,0,1,0-.518-.182Z" transform="translate(-126.89 -145.445)" fill="#33e08e"/>
          <path id="Контур_10149" data-name="Контур 10149" d="M160.45,169.083a.3.3,0,0,0,.28-.278.275.275,0,0,0-.548-.048l0,.054a.253.253,0,0,0,.252.27Z" transform="translate(-132.638 -152.337)" fill="#33e08e"/>
          <path id="Контур_10150" data-name="Контур 10150" d="M159.983,170.8l-.005.055a.275.275,0,0,0,.247.3l.027,0a.275.275,0,0,0,.273-.249l.006-.054a.276.276,0,0,0-.247-.3A.282.282,0,0,0,159.983,170.8Z" transform="translate(-132.55 -153.237)" fill="#33e08e"/>
          <path id="Контур_10151" data-name="Контур 10151" d="M153.7,149.654a.275.275,0,1,0,.445-.323l-.032-.044a.275.275,0,0,0-.445.322Z" transform="translate(-129.758 -143.85)" fill="#33e08e"/>
          <path id="Контур_10152" data-name="Контур 10152" d="M156.11,152.992a.275.275,0,0,0,.446-.323l-.033-.044a.275.275,0,1,0-.445.322Z" transform="translate(-130.816 -145.315)" fill="#33e08e"/>
          <path id="Контур_10153" data-name="Контур 10153" d="M154.936,150.894a.275.275,0,0,0-.062.384l.032.044a.275.275,0,0,0,.445-.322l-.032-.044A.274.274,0,0,0,154.936,150.894Z" transform="translate(-130.287 -144.582)" fill="#33e08e"/>
          <path id="Контур_10154" data-name="Контур 10154" d="M136.308,180.695l-.022.05a.274.274,0,1,0,.5.219l.022-.05a.275.275,0,1,0-.5-.219Z" transform="translate(-122.14 -157.615)" fill="#33e08e"/>
          <path id="Контур_10155" data-name="Контур 10155" d="M137.262,179.195a.233.233,0,0,0,.095.02.317.317,0,0,0,.278-.186.275.275,0,0,0-.5-.221l-.022.05A.253.253,0,0,0,137.262,179.195Z" transform="translate(-122.502 -156.787)" fill="#33e08e"/>
          <path id="Контур_10156" data-name="Контур 10156" d="M128.319,182.557a.275.275,0,0,0,.178-.485l-.042-.036a.253.253,0,0,0-.366.05.3.3,0,0,0,.053.405A.275.275,0,0,0,128.319,182.557Z" transform="translate(-118.526 -158.251)" fill="#33e08e"/>
          <path id="Контур_10157" data-name="Контур 10157" d="M126.744,181.231a.275.275,0,0,0,.178-.485l-.042-.035a.253.253,0,0,0-.367.05.3.3,0,0,0,.053.405A.274.274,0,0,0,126.744,181.231Z" transform="translate(-117.835 -157.669)" fill="#33e08e"/>
          <path id="Контур_10158" data-name="Контур 10158" d="M125.583,152.276a.314.314,0,0,0,.139-.032.275.275,0,0,0-.246-.492l-.049.025a.253.253,0,0,0-.1.357A.279.279,0,0,0,125.583,152.276Z" transform="translate(-117.324 -144.969)" fill="#33e08e"/>
          <path id="Контур_10159" data-name="Контур 10159" d="M123.693,153.216a.283.283,0,0,0,.123-.029l.049-.025a.275.275,0,1,0-.246-.492l-.049.025a.275.275,0,0,0,.123.521Z" transform="translate(-116.501 -145.372)" fill="#33e08e"/>
          <path id="Контур_10160" data-name="Контур 10160" d="M121.852,154.135a.279.279,0,0,0,.122-.029l.049-.025a.275.275,0,1,0-.244-.493l-.049.024a.275.275,0,0,0,.122.522Z" transform="translate(-115.692 -145.776)" fill="#33e08e"/>
          <path id="Контур_10161" data-name="Контур 10161" d="M126.521,161.594a.239.239,0,0,0,.108.025.318.318,0,0,0,.274-.171.275.275,0,0,0-.491-.248l-.025.049A.253.253,0,0,0,126.521,161.594Z" transform="translate(-117.793 -149.063)" fill="#33e08e"/>
          <path id="Контур_10162" data-name="Контур 10162" d="M127.613,159.729a.275.275,0,0,0,.245-.15l.025-.049a.275.275,0,1,0-.489-.251l-.025.049a.275.275,0,0,0,.244.4Z" transform="translate(-118.222 -148.221)" fill="#33e08e"/>
          <path id="Контур_10163" data-name="Контур 10163" d="M125.8,163a.274.274,0,0,0-.37.121l-.025.049a.253.253,0,0,0,.134.345.239.239,0,0,0,.108.025.318.318,0,0,0,.274-.171A.275.275,0,0,0,125.8,163Z" transform="translate(-117.361 -149.906)" fill="#33e08e"/>
          <path id="Контур_10164" data-name="Контур 10164" d="M123.556,167.375a.274.274,0,0,0,.37-.118l.025-.049a.275.275,0,1,0-.489-.252l-.025.049A.275.275,0,0,0,123.556,167.375Z" transform="translate(-116.496 -151.591)" fill="#33e08e"/>
          <path id="Контур_10165" data-name="Контур 10165" d="M129.73,155.322a.276.276,0,0,0-.37.118l-.025.049a.275.275,0,0,0,.489.252l.025-.049A.276.276,0,0,0,129.73,155.322Z" transform="translate(-119.085 -146.536)" fill="#33e08e"/>
          <path id="Контур_10166" data-name="Контур 10166" d="M128.747,157.242a.276.276,0,0,0-.37.118l-.025.049a.275.275,0,0,0,.489.252l.025-.049A.275.275,0,0,0,128.747,157.242Z" transform="translate(-118.653 -147.379)" fill="#33e08e"/>
          <path id="Контур_10167" data-name="Контур 10167" d="M124.54,165.456a.275.275,0,0,0,.37-.119l.025-.049a.275.275,0,1,0-.489-.251l-.025.049A.275.275,0,0,0,124.54,165.456Z" transform="translate(-116.928 -150.748)" fill="#33e08e"/>
          <path id="Контур_10168" data-name="Контур 10168" d="M130.071,171.895a.274.274,0,0,0,.263.2.281.281,0,0,0,.079-.011l.053-.016a.252.252,0,0,0,.157-.334.3.3,0,0,0-.369-.176A.274.274,0,0,0,130.071,171.895Z" transform="translate(-119.416 -153.669)" fill="#33e08e"/>
          <path id="Контур_10169" data-name="Контур 10169" d="M128.282,172.142a.275.275,0,0,0,.08.539.282.282,0,0,0,.08-.012l.052-.016a.253.253,0,0,0,.158-.335A.3.3,0,0,0,128.282,172.142Z" transform="translate(-118.55 -153.928)" fill="#33e08e"/>
          <path id="Контур_10170" data-name="Контур 10170" d="M152.927,163.941a.277.277,0,0,0,.109-.022l.051-.022a.253.253,0,0,0,.118-.351.3.3,0,0,0-.387-.132.275.275,0,0,0,.109.527Z" transform="translate(-129.335 -150.09)" fill="#33e08e"/>
          <path id="Контур_10171" data-name="Контур 10171" d="M149.155,155.09a.275.275,0,0,0,.109-.527l-.05-.022a.253.253,0,0,0-.336.154.3.3,0,0,0,.168.372A.276.276,0,0,0,149.155,155.09Z" transform="translate(-127.669 -146.197)" fill="#33e08e"/>
          <path id="Контур_10172" data-name="Контур 10172" d="M152.83,156.689a.275.275,0,1,0,.218-.5l-.05-.022a.252.252,0,0,0-.336.154A.3.3,0,0,0,152.83,156.689Z" transform="translate(-129.33 -146.909)" fill="#33e08e"/>
          <path id="Контур_10173" data-name="Контур 10173" d="M150.916,155.877a.275.275,0,0,0,.216-.505l-.051-.022a.275.275,0,0,0-.216.506Z" transform="translate(-128.477 -146.552)" fill="#33e08e"/>
          <path id="Контур_10174" data-name="Контур 10174" d="M141.721,151.928a.277.277,0,0,0,.109.022.275.275,0,0,0,.109-.527l-.05-.022a.252.252,0,0,0-.336.155A.3.3,0,0,0,141.721,151.928Z" transform="translate(-124.454 -144.819)" fill="#33e08e"/>
          <path id="Контур_10175" data-name="Контур 10175" d="M143.613,152.738a.281.281,0,0,0,.109.022.275.275,0,0,0,.109-.527l-.05-.022a.252.252,0,0,0-.336.154A.3.3,0,0,0,143.613,152.738Z" transform="translate(-125.284 -145.174)" fill="#33e08e"/>
          <path id="Контур_10176" data-name="Контур 10176" d="M130.419,149.21a4.151,4.151,0,1,0-4.151-4.151A4.147,4.147,0,0,0,130.419,149.21Zm0-7.752a3.6,3.6,0,1,1-3.6,3.6A3.605,3.605,0,0,1,130.419,141.458Z" transform="translate(-117.752 -140.221)" fill="#33e08e"/>
          <path id="Контур_10177" data-name="Контур 10177" d="M154.115,156.678a4.151,4.151,0,1,0,4.15-4.151A4.156,4.156,0,0,0,154.115,156.678Zm4.15-3.6a3.6,3.6,0,1,1-3.6,3.6A3.605,3.605,0,0,1,158.265,153.077Z" transform="translate(-129.977 -145.322)" fill="#33e08e"/>
          <path id="Контур_10178" data-name="Контур 10178" d="M112.482,171.98a4.151,4.151,0,1,0,4.151-4.151A4.155,4.155,0,0,0,112.482,171.98Zm4.151-3.6a3.6,3.6,0,1,1-3.6,3.6A3.605,3.605,0,0,1,116.633,168.379Z" transform="translate(-111.7 -152.04)" fill="#33e08e"/>
          <path id="Контур_10179" data-name="Контур 10179" d="M131.819,187.8a2.884,2.884,0,1,0-2.884-2.884A2.887,2.887,0,0,0,131.819,187.8Zm0-5.218a2.334,2.334,0,1,1-2.334,2.334A2.337,2.337,0,0,1,131.819,182.584Z" transform="translate(-118.923 -158.276)" fill="#33e08e"/>
          <path id="Контур_10180" data-name="Контур 10180" d="M148.359,145.452a2.884,2.884,0,1,0-2.884-2.884A2.888,2.888,0,0,0,148.359,145.452Zm0-5.218a2.334,2.334,0,1,1-2.334,2.334A2.338,2.338,0,0,1,148.359,140.234Z" transform="translate(-126.184 -139.684)" fill="#33e08e"/>
          <path id="Контур_10181" data-name="Контур 10181" d="M154.6,175.825a2.884,2.884,0,1,0,2.884-2.884A2.888,2.888,0,0,0,154.6,175.825Zm5.219,0a2.334,2.334,0,1,1-2.334-2.334A2.337,2.337,0,0,1,159.819,175.825Z" transform="translate(-130.19 -154.284)" fill="#33e08e"/>
          <path id="Контур_10182" data-name="Контур 10182" d="M113.972,157.633a2.884,2.884,0,1,0-2.884-2.884A2.887,2.887,0,0,0,113.972,157.633Zm0-5.218a2.334,2.334,0,1,1-2.334,2.334A2.337,2.337,0,0,1,113.972,152.414Z" transform="translate(-111.088 -145.031)" fill="#33e08e"/>
        </g>
      </g>
      <path id="Контур_10183" data-name="Контур 10183" d="M143.425,164.092a5.7,5.7,0,1,0-5.7,5.7A5.708,5.708,0,0,0,143.425,164.092Z" transform="translate(-9.19 -8.212)" fill="#33e08e" stroke="#33e08e" stroke-miterlimit="10" stroke-width="1"/>
    </g>
  </g>
</svg>
