<svg xmlns="http://www.w3.org/2000/svg" width="74.061" height="74.056" viewBox="0 0 74.061 74.056">
  <g id="Сгруппировать_13246" data-name="Сгруппировать 13246" transform="translate(-1459.958 -697)">
    <g id="Сгруппировать_13245" data-name="Сгруппировать 13245" transform="translate(1459.958 697)">
      <path id="Контур_10228" data-name="Контур 10228" d="M423.646,857.7c-.156,0-.31.027-.463.027V894.3h37.461A37.009,37.009,0,0,0,423.646,857.7Z" transform="translate(-386.613 -857.697)" fill="#ccd2d1" opacity="0.6"/>
      <path id="Контур_10229" data-name="Контур 10229" d="M460.674,871.49c0-.154-.03-.293-.03-.436H423.183v.479l26.434,26.316A36.885,36.885,0,0,0,460.674,871.49Z" transform="translate(-386.613 -834.451)" fill="#ccd2d1" opacity="0.267"/>
      <path id="Контур_10230" data-name="Контур 10230" d="M423.183,871.229V908.18c.153,0,.307.022.463.022a36.889,36.889,0,0,0,25.97-10.657Z" transform="translate(-386.613 -834.147)" fill="#ccd2d1" opacity="0.267"/>
      <path id="Контур_10231" data-name="Контур 10231" d="M439.7,894.283V857.707a36.953,36.953,0,0,0-26.006,11.162l25.518,25.414Z" transform="translate(-403.129 -857.68)" fill="#ccd2d1" opacity="0.2"/>
      <path id="Контур_10232" data-name="Контур 10232" d="M445.9,887.194,420.385,861.78a36.912,36.912,0,0,0-10.537,25.414Z" transform="translate(-409.821 -850.591)" fill="#ccd2d1" opacity="0.2"/>
      <path id="Контур_10233" data-name="Контур 10233" d="M423.491,871.054h-.486l.486.481Z" transform="translate(-386.922 -834.452)" fill="#ccd2d1" opacity="0.2"/>
      <path id="Контур_10234" data-name="Контур 10234" d="M445.92,871.054H409.865c0,.142-.027.282-.027.436a37.016,37.016,0,0,0,36.57,36.995V871.534Z" transform="translate(-409.838 -834.451)" fill="#ccd2d1" opacity="0"/>
      <g id="Сгруппировать_12995" data-name="Сгруппировать 12995" transform="translate(21.583 21.578)" opacity="0.5">
        <path id="Контур_10236" data-name="Контур 10236" d="M433.164,896.48a15.454,15.454,0,1,1,15.453-15.447A15.465,15.465,0,0,1,433.164,896.48Zm0-27.464a12.008,12.008,0,1,0,12.008,12.016A12.023,12.023,0,0,0,433.164,869.016Z" transform="translate(-417.714 -865.571)" fill="#ccd2d1"/>
      </g>
      <g id="Сгруппировать_12996" data-name="Сгруппировать 12996" transform="translate(1.259 1.264)">
        <rect id="Прямоугольник_17588" data-name="Прямоугольник 17588" width="0.865" height="100.311" transform="matrix(0.707, -0.707, 0.707, 0.707, 0, 0.612)" fill="#ccd2d1"/>
      </g>
      <path id="Контур_10235" data-name="Контур 10235" d="M416.193,883.676a19.616,19.616,0,1,1,19.618,19.607A19.624,19.624,0,0,1,416.193,883.676Z" transform="translate(-398.778 -846.637)" fill="#0f4c81" opacity="0.998"/>
    </g>
    <g id="noun_Singapore_605092" transform="translate(1482 -284.685)">
      <path id="Контур_11051" data-name="Контур 11051" d="M18.681,1026.5a8.582,8.582,0,0,1-.024-17.162,9.213,9.213,0,1,0,.024,17.162Z" transform="translate(0 0)" fill="#33e08e"/>
      <path id="Контур_11052" data-name="Контур 11052" d="M19.227,1013.722l-1.156-.779-1.159.776.383-1.34-1.1-.862,1.393-.049.482-1.309.478,1.309,1.394.054-1.1.859Z" transform="translate(1.456 0.209)" fill="#33e08e"/>
      <path id="Контур_11053" data-name="Контур 11053" d="M23.978,1017.189l-1.156-.779-1.159.776.383-1.34-1.1-.862,1.393-.049.482-1.309.478,1.309,1.394.054-1.1.859Z" transform="translate(2.141 0.709)" fill="#33e08e"/>
      <path id="Контур_11054" data-name="Контур 11054" d="M14.476,1017.189l-1.156-.779-1.159.776.383-1.34-1.1-.862,1.393-.049.482-1.309.478,1.309,1.394.054-1.1.859Z" transform="translate(0.771 0.709)" fill="#33e08e"/>
      <path id="Контур_11055" data-name="Контур 11055" d="M16.3,1022.448l-1.156-.779-1.159.776.383-1.34-1.1-.863,1.393-.049.482-1.309.478,1.309,1.394.054-1.1.859Z" transform="translate(1.034 1.468)" fill="#33e08e"/>
      <path id="Контур_11056" data-name="Контур 11056" d="M22.155,1022.448,21,1021.669l-1.159.776.383-1.34-1.1-.863,1.393-.049.482-1.309.478,1.309,1.394.054-1.1.859Z" transform="translate(1.878 1.468)" fill="#33e08e"/>
    </g>
  </g>
</svg>
