<svg xmlns="http://www.w3.org/2000/svg" width="74.042" height="74.056" viewBox="0 0 74.042 74.056">
  <g id="Сгруппировать_13365" data-name="Сгруппировать 13365" transform="translate(-1105 -1210)">
    <g id="Сгруппировать_13179" data-name="Сгруппировать 13179">
      <g id="Сгруппировать_13013" data-name="Сгруппировать 13013" transform="translate(1105 1210)">
        <path id="Контур_10237" data-name="Контур 10237" d="M464.841,857.7c-.148,0-.31.027-.46.027V894.3h37.472A37.029,37.029,0,0,0,464.841,857.7Z" transform="translate(-427.825 -857.697)" fill="#ccd2d1" opacity="0.6"/>
        <path id="Контур_10238" data-name="Контур 10238" d="M501.867,871.49c0-.154-.014-.293-.014-.436H464.381v.479l26.433,26.316A36.858,36.858,0,0,0,501.867,871.49Z" transform="translate(-427.825 -834.451)" fill="#ccd2d1" opacity="0.6"/>
        <path id="Контур_10239" data-name="Контур 10239" d="M464.381,871.229V908.18c.151,0,.312.022.46.022a36.876,36.876,0,0,0,25.973-10.657Z" transform="translate(-427.825 -834.147)" fill="#ccd2d1" opacity="0.2"/>
        <path id="Контур_10240" data-name="Контур 10240" d="M480.9,894.283V857.707a36.926,36.926,0,0,0-26,11.162l25.524,25.414Z" transform="translate(-444.339 -857.68)" fill="#ccd2d1" opacity="0.2"/>
        <path id="Контур_10241" data-name="Контур 10241" d="M487.109,887.194,461.585,861.78a36.9,36.9,0,0,0-10.539,25.414Z" transform="translate(-451.032 -850.591)" fill="#ccd2d1" opacity="0.2"/>
        <path id="Контур_10242" data-name="Контур 10242" d="M464.686,871.054h-.48l.48.481Z" transform="translate(-428.13 -834.452)" fill="#ccd2d1" opacity="0.2"/>
        <path id="Контур_10243" data-name="Контур 10243" d="M487.118,871.054H451.055c0,.142-.014.282-.014.436A37.008,37.008,0,0,0,487.6,908.485V871.534Z" transform="translate(-451.041 -834.451)" fill="#ccd2d1" opacity="0.2"/>
        <g id="Сгруппировать_12998" data-name="Сгруппировать 12998" transform="translate(21.569 21.578)" opacity="0.5">
          <path id="Контур_10245" data-name="Контур 10245" d="M474.359,896.48a15.454,15.454,0,1,1,15.461-15.447A15.466,15.466,0,0,1,474.359,896.48Zm0-27.464a12.008,12.008,0,1,0,12.011,12.016A12.025,12.025,0,0,0,474.359,869.016Z" transform="translate(-458.912 -865.571)" fill="#ccd2d1"/>
        </g>
        <g id="Сгруппировать_12999" data-name="Сгруппировать 12999" transform="translate(1.254 1.264)">
          <rect id="Прямоугольник_17589" data-name="Прямоугольник 17589" width="0.863" height="100.309" transform="matrix(0.707, -0.707, 0.707, 0.707, 0, 0.61)" fill="#ccd2d1"/>
        </g>
        <path id="Контур_10244" data-name="Контур 10244" d="M457.4,883.676a19.61,19.61,0,1,1,19.6,19.607A19.607,19.607,0,0,1,457.4,883.676Z" transform="translate(-439.977 -846.637)" fill="#fff" opacity="0.998"/>
      </g>
    </g>
    <g id="Сгруппировать_12946" data-name="Сгруппировать 12946" transform="translate(865.766 1090.832)">
      <path id="Контур_10186" data-name="Контур 10186" d="M288.056,160.769v3.178H264.746v-3.178ZM287,165.317v-.31h.311Zm-21.19,0-.311-.31h.311Zm19.227,1.207.475,1.187-.784.57-.985-.82a.53.53,0,0,0-.579-.065l-1.515.772a.53.53,0,0,0-.288.508l.085,1.268-.921.3-.675-1.075a.53.53,0,0,0-.531-.241l-1.68.265a.529.529,0,0,0-.431.393l-.317,1.248h-.969l-.317-1.248a.529.529,0,0,0-.431-.393l-1.68-.265a.53.53,0,0,0-.531.242l-.675,1.075-.922-.3c.094-1.871.4-1.46-1.23-2.3-.332-.15-.713-.486-1.068-.185l-.986.82-.783-.57c.645-1.728.86-1.258-.428-2.546v-.159h3.954a10.635,10.635,0,0,0,11.163,0h3.954v.159l-.787.787a.529.529,0,0,0-.117.572Zm4.537-7.08,1.075.675-.211.649h-1.318v-.53a.53.53,0,0,0-.53-.53h-2.257a10.6,10.6,0,1,0-19.856,0h-2.257a.53.53,0,0,0-.53.53v.53h-1.318l-.211-.649,1.075-.675a.53.53,0,0,0,.242-.531l-.265-1.681a.531.531,0,0,0-.393-.431l-1.248-.316v-.969l1.248-.317a.529.529,0,0,0,.393-.431l.265-1.68a.53.53,0,0,0-.242-.531l-1.075-.675c.118-.366.194-.6.3-.921,1.888.1,1.463.383,2.308-1.247.15-.325.473-.7.176-1.052l-.82-.986.57-.783,1.187.475a.529.529,0,0,0,.572-.117l1.2-1.2a.528.528,0,0,0,.117-.572l-.475-1.187.784-.57.985.82a.53.53,0,0,0,.579.064l1.515-.772a.53.53,0,0,0,.288-.508l-.085-1.268.921-.3.675,1.075a.53.53,0,0,0,.531.242l1.681-.265a.53.53,0,0,0,.431-.393l.316-1.248h.969l.317,1.248a.529.529,0,0,0,.431.393l1.68.265a.53.53,0,0,0,.531-.242l.675-1.075.922.3c-.094,1.871-.4,1.46,1.23,2.3.332.15.713.486,1.068.185l.986-.82.783.57-.475,1.187a.529.529,0,0,0,.117.572c.576.575.628.627,1.2,1.2a.529.529,0,0,0,.572.117l1.187-.475.57.784-.82.985a.529.529,0,0,0-.065.579l.772,1.515a.53.53,0,0,0,.508.288l1.268-.085.3.921-1.075.675a.53.53,0,0,0-.242.531l.265,1.681a.531.531,0,0,0,.393.431l1.248.316v.969l-1.248.317a.529.529,0,0,0-.393.431l-.265,1.68A.53.53,0,0,0,289.57,159.445Z" transform="translate(0 0)" fill="none" stroke="#33e08e" stroke-miterlimit="10" stroke-width="1"/>
      <path id="Контур_10187" data-name="Контур 10187" d="M272.383,161.173h3.178a.53.53,0,0,0,0-1.06h-2.628a7.444,7.444,0,0,1,5.278-6.58v2.342a.53.53,0,0,0,1.059,0V152.7h2.119v3.178a.53.53,0,0,0,1.059,0v-2.342a7.442,7.442,0,0,1,5.277,6.58H285.1a.53.53,0,1,0,0,1.06h3.708a.53.53,0,0,1,0,1.06H271.853a.528.528,0,0,1-.374-.154.534.534,0,0,1,.374-.906Z" transform="translate(-3.929 -4.642)" fill="#33e08e"/>
    </g>
  </g>
</svg>
