<svg xmlns="http://www.w3.org/2000/svg" width="74.042" height="74.056" viewBox="0 0 74.042 74.056">
  <g id="Сгруппировать_13442" data-name="Сгруппировать 13442" transform="translate(-1278.958 -670)">
    <g id="Сгруппировать_13246" data-name="Сгруппировать 13246" transform="translate(1274.958 670)">
      <g id="Сгруппировать_13012" data-name="Сгруппировать 13012" transform="translate(4)">
        <path id="Контур_10237" data-name="Контур 10237" d="M464.841,857.7c-.148,0-.31.027-.46.027V894.3h37.472A37.029,37.029,0,0,0,464.841,857.7Z" transform="translate(-427.825 -857.697)" fill="#ccd2d1" opacity="0.6"/>
        <path id="Контур_10238" data-name="Контур 10238" d="M501.867,871.49c0-.154-.014-.293-.014-.436H464.381v.479l26.433,26.316A36.858,36.858,0,0,0,501.867,871.49Z" transform="translate(-427.825 -834.451)" fill="#ccd2d1" opacity="0.002"/>
        <path id="Контур_10239" data-name="Контур 10239" d="M464.381,871.229V908.18c.151,0,.312.022.46.022a36.876,36.876,0,0,0,25.973-10.657Z" transform="translate(-427.825 -834.147)" fill="#ccd2d1" opacity="0.2"/>
        <path id="Контур_10240" data-name="Контур 10240" d="M480.9,894.283V857.707a36.926,36.926,0,0,0-26,11.162l25.524,25.414Z" transform="translate(-444.339 -857.68)" fill="#ccd2d1" opacity="0.2"/>
        <path id="Контур_10241" data-name="Контур 10241" d="M487.109,887.194,461.585,861.78a36.9,36.9,0,0,0-10.539,25.414Z" transform="translate(-451.032 -850.591)" fill="#ccd2d1" opacity="0.2"/>
        <path id="Контур_10242" data-name="Контур 10242" d="M464.686,871.054h-.48l.48.481Z" transform="translate(-428.13 -834.452)" fill="#ccd2d1" opacity="0.2"/>
        <path id="Контур_10243" data-name="Контур 10243" d="M487.118,871.054H451.055c0,.142-.014.282-.014.436A37.008,37.008,0,0,0,487.6,908.485V871.534Z" transform="translate(-451.041 -834.451)" fill="#ccd2d1" opacity="0.2"/>
        <g id="Сгруппировать_12998" data-name="Сгруппировать 12998" transform="translate(21.569 21.578)" opacity="0.5">
          <path id="Контур_10245" data-name="Контур 10245" d="M474.359,896.48a15.454,15.454,0,1,1,15.461-15.447A15.466,15.466,0,0,1,474.359,896.48Zm0-27.464a12.008,12.008,0,1,0,12.011,12.016A12.025,12.025,0,0,0,474.359,869.016Z" transform="translate(-458.912 -865.571)" fill="#ccd2d1"/>
        </g>
        <g id="Сгруппировать_12999" data-name="Сгруппировать 12999" transform="translate(1.254 1.264)">
          <rect id="Прямоугольник_17589" data-name="Прямоугольник 17589" width="0.863" height="100.309" transform="matrix(0.707, -0.707, 0.707, 0.707, 0, 0.61)" fill="#ccd2d1"/>
        </g>
        <path id="Контур_10244" data-name="Контур 10244" d="M457.4,883.676a19.61,19.61,0,1,1,19.6,19.607A19.607,19.607,0,0,1,457.4,883.676Z" transform="translate(-439.977 -846.637)" fill="#0f4c81"/>
      </g>
    </g>
    <g id="noun_url_1146611" transform="translate(1296.7 688.371)">
      <g id="Сгруппировать_13439" data-name="Сгруппировать 13439" transform="translate(16.325 16.496)">
        <path id="Контур_11046" data-name="Контур 11046" d="M39,47.607a1.113,1.113,0,0,0,.331.781L40.8,49.712a6,6,0,0,0,4.3,1.821,6.088,6.088,0,0,0,4.3-10.407l-1.4-1.4a1.1,1.1,0,1,0-1.561,1.561l1.4,1.4a3.9,3.9,0,0,1-2.767,6.67,3.9,3.9,0,0,1-2.767-1.135l-1.4-1.4a1.085,1.085,0,0,0-1.561,0A1.011,1.011,0,0,0,39,47.607Z" transform="translate(-39 -39.4)" fill="#33e08e"/>
      </g>
      <g id="Сгруппировать_13440" data-name="Сгруппировать 13440" transform="translate(9.3 9.4)">
        <path id="Контур_11047" data-name="Контур 11047" d="M19.541,14.13a1.085,1.085,0,0,0,1.561,0,1.085,1.085,0,0,0,0-1.537l-1.4-1.4a5.974,5.974,0,0,0-4.3-1.8,6.071,6.071,0,0,0-4.3,10.383l1.4,1.4a1.072,1.072,0,0,0,1.561,0,1.085,1.085,0,0,0,0-1.561l-1.4-1.4a3.9,3.9,0,0,1,2.767-6.67,3.9,3.9,0,0,1,2.767,1.135Z" transform="translate(-9.3 -9.4)" fill="#33e08e"/>
      </g>
      <g id="Сгруппировать_13441" data-name="Сгруппировать 13441" transform="translate(15.426 15.55)">
        <path id="Контур_11048" data-name="Контур 11048" d="M35.2,36.488a1.113,1.113,0,0,0,.331.781l4.707,4.683a1.072,1.072,0,0,0,1.561,0,1.085,1.085,0,0,0,0-1.537l-4.707-4.683a1.085,1.085,0,0,0-1.561,0,1.3,1.3,0,0,0-.331.757Z" transform="translate(-35.2 -35.4)" fill="#33e08e"/>
      </g>
    </g>
  </g>
</svg>
