<svg xmlns="http://www.w3.org/2000/svg" width="74.053" height="74.056" viewBox="0 0 74.053 74.056">
  <g id="Сгруппировать_13365" data-name="Сгруппировать 13365" transform="translate(-990 -1210)">
    <g id="Сгруппировать_13178" data-name="Сгруппировать 13178">
      <g id="Сгруппировать_13003" data-name="Сгруппировать 13003" transform="translate(990 1210)">
        <path id="Контур_10246" data-name="Контур 10246" d="M506.048,857.7c-.153,0-.307.027-.466.027V894.3h37.475A37.029,37.029,0,0,0,506.048,857.7Z" transform="translate(-469.023 -857.697)" fill="#ccd2d1" opacity="0.6"/>
        <path id="Контур_10247" data-name="Контур 10247" d="M543.076,871.49c0-.154-.019-.293-.019-.436H505.582v.479l26.434,26.316A36.877,36.877,0,0,0,543.076,871.49Z" transform="translate(-469.023 -834.451)" fill="#ccd2d1" opacity="0.6"/>
        <path id="Контур_10248" data-name="Контур 10248" d="M505.582,871.229V908.18c.159,0,.312.022.466.022a36.883,36.883,0,0,0,25.968-10.657Z" transform="translate(-469.023 -834.147)" fill="#ccd2d1" opacity="0.6"/>
        <path id="Контур_10249" data-name="Контур 10249" d="M522.1,894.283V857.707a36.946,36.946,0,0,0-26,11.162l25.513,25.414Z" transform="translate(-485.537 -857.68)" fill="#ccd2d1" opacity="0.2"/>
        <path id="Контур_10250" data-name="Контур 10250" d="M528.3,887.194,502.785,861.78a36.863,36.863,0,0,0-10.537,25.414Z" transform="translate(-492.229 -850.591)" fill="#ccd2d1" opacity="0.2"/>
        <path id="Контур_10251" data-name="Контур 10251" d="M505.893,871.054h-.49l.49.481Z" transform="translate(-469.334 -834.452)" fill="#ccd2d1" opacity="0.2"/>
        <path id="Контур_10252" data-name="Контур 10252" d="M528.31,871.054H492.26c0,.142-.019.282-.019.436A37.008,37.008,0,0,0,528.8,908.485V871.534Z" transform="translate(-492.241 -834.451)" fill="#ccd2d1" opacity="0.2"/>
        <g id="Сгруппировать_13001" data-name="Сгруппировать 13001" transform="translate(21.575 21.578)" opacity="0.5">
          <path id="Контур_10254" data-name="Контур 10254" d="M515.564,896.48a15.454,15.454,0,1,1,15.453-15.447A15.466,15.466,0,0,1,515.564,896.48Zm0-27.464a12.008,12.008,0,1,0,12.008,12.016A12.023,12.023,0,0,0,515.564,869.016Z" transform="translate(-500.114 -865.571)" fill="#ccd2d1"/>
        </g>
        <g id="Сгруппировать_13002" data-name="Сгруппировать 13002" transform="translate(1.258 1.264)">
          <path id="Контур_10255" data-name="Контур 10255" d="M563.631,929.7,492.7,858.769l.614-.61,70.922,70.929Z" transform="translate(-492.7 -858.158)" fill="#ccd2d1"/>
        </g>
        <path id="Контур_10253" data-name="Контур 10253" d="M498.6,883.676a19.61,19.61,0,1,1,19.61,19.607A19.62,19.62,0,0,1,498.6,883.676Z" transform="translate(-481.181 -846.637)" fill="#fff"/>
      </g>
    </g>
    <g id="Сгруппировать_13185" data-name="Сгруппировать 13185" transform="translate(530.387 1087.514)">
      <g id="Сгруппировать_12952" data-name="Сгруппировать 12952" transform="translate(480.502 154.829)">
        <g id="Сгруппировать_12951" data-name="Сгруппировать 12951">
          <path id="Контур_10212" data-name="Контур 10212" d="M522.1,163.684c-.07-.175-1.575-4.447-1.575-4.447a.731.731,0,0,0-.7-.455H509.631a.732.732,0,0,0-.7.455s-1.471,4.237-1.54,4.447a2.151,2.151,0,0,0-.105.63v1.576a1.793,1.793,0,0,0,1.786,1.785h11.345a1.793,1.793,0,0,0,1.786-1.785v-1.576A1.977,1.977,0,0,0,522.1,163.684Zm-.875,2.206a.792.792,0,0,1-.806.805H509.071a.814.814,0,0,1-.805-.805v-1.576a.792.792,0,0,1,.805-.805h11.345a.793.793,0,0,1,.806.805Z" transform="translate(-490.785 -158.782)" fill="#33e08e"/>
          <circle id="Эллипс_811" data-name="Эллипс 811" cx="0.805" cy="0.805" r="0.805" transform="translate(18.636 5.532)" fill="#33e08e"/>
          <path id="Контур_10213" data-name="Контур 10213" d="M518.018,168.217h-2.626a.49.49,0,1,0,0,.98h2.626a.49.49,0,1,0,0-.98Z" transform="translate(-493.71 -162.405)" fill="#33e08e"/>
          <path id="Контур_10214" data-name="Контур 10214" d="M495.418,165.89v-1.576a1.978,1.978,0,0,0-.105-.63c-.07-.175-1.575-4.447-1.575-4.447a.731.731,0,0,0-.7-.455H482.848a.732.732,0,0,0-.7.455s-1.47,4.237-1.54,4.447a2.151,2.151,0,0,0-.105.63v1.576a1.793,1.793,0,0,0,1.786,1.785h11.344A1.793,1.793,0,0,0,495.418,165.89Zm-13.936,0v-1.576a.793.793,0,0,1,.806-.805h11.344a.792.792,0,0,1,.805.805v1.576a.792.792,0,0,1-.805.805H482.288A.793.793,0,0,1,481.482,165.89Z" transform="translate(-480.502 -158.782)" fill="#33e08e"/>
          <circle id="Эллипс_812" data-name="Эллипс 812" cx="0.805" cy="0.805" r="0.805" transform="translate(2.136 5.532)" fill="#33e08e"/>
          <path id="Контур_10215" data-name="Контур 10215" d="M491.292,168.217h-2.626a.49.49,0,1,0,0,.98h2.626a.479.479,0,0,0,.49-.49A.5.5,0,0,0,491.292,168.217Z" transform="translate(-483.448 -162.405)" fill="#33e08e"/>
        </g>
      </g>
      <g id="Сгруппировать_12953" data-name="Сгруппировать 12953" transform="translate(487.078 148.486)">
        <path id="Контур_10216" data-name="Контур 10216" d="M491.713,153.012H508.9a.537.537,0,0,0,.346-.947l-4.083-3.438a.537.537,0,1,0-.724.793l.033.027,2.957,2.491H491.713a.537.537,0,0,0,0,1.074Z" transform="translate(-491.176 -148.486)" fill="#33e08e"/>
        <path id="Контур_10217" data-name="Контур 10217" d="M508.9,176.189h-17.19a.537.537,0,0,0-.346.947l4.083,3.438a.536.536,0,0,0,.754-.062l0,0a.534.534,0,0,0-.062-.754l0,0-2.957-2.49H508.9a.537.537,0,0,0,0-1.074Z" transform="translate(-491.176 -159.122)" fill="#33e08e"/>
      </g>
    </g>
  </g>
</svg>
