<svg xmlns="http://www.w3.org/2000/svg" width="12" height="12" viewBox="0 0 12 12">
  <g id="noun_rgb_2370162" transform="translate(-0.529 -289.063)">
    <path id="Контур_10218" data-name="Контур 10218" d="M6.529,289.063a3.854,3.854,0,0,0-3.773,4.653,3.854,3.854,0,1,0,3.773,6.694,3.854,3.854,0,1,0,3.773-6.694,3.854,3.854,0,0,0-3.773-4.653Zm0,.857a2.994,2.994,0,0,1,3,3,3.029,3.029,0,0,1-.047.516A3.834,3.834,0,0,0,6.529,294a3.834,3.834,0,0,0-2.953-.566,3.029,3.029,0,0,1-.047-.516,2.994,2.994,0,0,1,3-3Zm-2.143,4.286a2.993,2.993,0,0,1,1.464.38,3.87,3.87,0,0,0-.678,1.009,2.994,2.994,0,0,1-1.328-1.338,3.031,3.031,0,0,1,.542-.051Zm4.286,0a3.034,3.034,0,0,1,.542.051,2.994,2.994,0,0,1-1.328,1.338,3.87,3.87,0,0,0-.678-1.009A2.993,2.993,0,0,1,8.672,294.205Zm-5.643.325A3.88,3.88,0,0,0,4.9,296.409a3.831,3.831,0,0,0,.952,3.416,3,3,0,1,1-2.821-5.3Zm7,0a3,3,0,1,1-2.821,5.3,3.831,3.831,0,0,0,.952-3.416,3.88,3.88,0,0,0,1.869-1.879Zm-3.5.573a2.993,2.993,0,0,1,.542.766,2.91,2.91,0,0,1-1.085,0A2.993,2.993,0,0,1,6.529,295.1Zm-.81,1.587a3.819,3.819,0,0,0,1.621,0,3.028,3.028,0,0,1,.047.516,2.99,2.99,0,0,1-.857,2.1,2.99,2.99,0,0,1-.857-2.1,3.029,3.029,0,0,1,.047-.516Z" transform="translate(0)" fill="#33e08e"/>
  </g>
</svg>
