<svg xmlns="http://www.w3.org/2000/svg" width="65.649" height="90.557" viewBox="0 0 65.649 90.557">
  <g id="Сгруппировать_13354" data-name="Сгруппировать 13354" transform="translate(0)">
    <g id="Сгруппировать_3498" data-name="Сгруппировать 3498" transform="translate(0 67.918)">
      <path id="Контур_1758" data-name="Контур 1758" d="M2660.831,433.765v-6.239a5.115,5.115,0,0,0-.08-.918,2.546,2.546,0,0,0-.264-.768,1.374,1.374,0,0,0-.516-.528,1.635,1.635,0,0,0-.837-.195,1.907,1.907,0,0,0-.884.195,1.785,1.785,0,0,0-.63.539,2.431,2.431,0,0,0-.379.791,3.391,3.391,0,0,0-.126.929v6.193h-3.785V422.342h3.646v1.583h.046a3.783,3.783,0,0,1,.54-.723,3.232,3.232,0,0,1,.78-.608,4.876,4.876,0,0,1,.975-.413,3.853,3.853,0,0,1,1.124-.161,4.223,4.223,0,0,1,1.95.413,3.727,3.727,0,0,1,1.3,1.067,4.193,4.193,0,0,1,.711,1.5,6.837,6.837,0,0,1,.218,1.7v7.065Z" transform="translate(-2653.33 -416.631)" fill="#fff"/>
      <path id="Контур_1759" data-name="Контур 1759" d="M2752.521,427.934v.459a3.984,3.984,0,0,1-.023.436h-8.28a2,2,0,0,0,.287.872,2.478,2.478,0,0,0,.62.676,3.035,3.035,0,0,0,1.823.608,3.163,3.163,0,0,0,1.514-.333,2.983,2.983,0,0,0,1.009-.86l2.615,1.651a5.3,5.3,0,0,1-2.122,1.8,7.028,7.028,0,0,1-3.062.631,7.312,7.312,0,0,1-2.431-.4,5.9,5.9,0,0,1-2.007-1.17,5.419,5.419,0,0,1-1.353-1.892,6.329,6.329,0,0,1-.493-2.569,6.427,6.427,0,0,1,.481-2.535,5.731,5.731,0,0,1,1.307-1.927,5.829,5.829,0,0,1,1.95-1.227,6.672,6.672,0,0,1,2.431-.436,6.16,6.16,0,0,1,2.317.424,5.051,5.051,0,0,1,1.812,1.227,5.664,5.664,0,0,1,1.181,1.95A7.507,7.507,0,0,1,2752.521,427.934Zm-3.464-1.445a2.255,2.255,0,0,0-.562-1.537,2.123,2.123,0,0,0-1.686-.642,2.848,2.848,0,0,0-1.009.172,2.61,2.61,0,0,0-.8.47,2.327,2.327,0,0,0-.55.7,2.046,2.046,0,0,0-.229.837Z" transform="translate(-2727.408 -416.374)" fill="#fff"/>
      <path id="Контур_1760" data-name="Контур 1760" d="M2829.816,410.091v4.375a1.969,1.969,0,0,0,.309,1.209,1.325,1.325,0,0,0,1.112.4,3.962,3.962,0,0,0,.585-.046,1.986,1.986,0,0,0,.516-.138l.046,2.753a6.241,6.241,0,0,1-.987.241,6.977,6.977,0,0,1-1.192.1,5.613,5.613,0,0,1-1.927-.287,2.982,2.982,0,0,1-1.251-.828,3.235,3.235,0,0,1-.676-1.288,6.243,6.243,0,0,1-.207-1.667v-4.829h-1.835v-2.8h1.812v-3h3.693v3h2.683v2.8Z" transform="translate(-2798.436 -401.581)" fill="#fff"/>
      <path id="Контур_1761" data-name="Контур 1761" d="M2892.342,388.467a1.939,1.939,0,0,1-.172.814,2.055,2.055,0,0,1-1.147,1.09,2.232,2.232,0,0,1-.837.161,2.108,2.108,0,0,1-1.537-.608,1.97,1.97,0,0,1-.619-1.456,2,2,0,0,1,.161-.791,1.871,1.871,0,0,1,.458-.654,2.484,2.484,0,0,1,.688-.447,2.079,2.079,0,0,1,.849-.172,2.244,2.244,0,0,1,.837.161,2.12,2.12,0,0,1,.688.436,2.093,2.093,0,0,1,.458.654A1.941,1.941,0,0,1,2892.342,388.467Zm-4.037,15.07V392.114h3.761v11.423Z" transform="translate(-2852.513 -386.403)" fill="#fff"/>
      <path id="Контур_1762" data-name="Контур 1762" d="M2944.644,428.008a7.212,7.212,0,0,1-.367,2.294,5.89,5.89,0,0,1-1.066,1.938,5.27,5.27,0,0,1-1.709,1.342,5.062,5.062,0,0,1-2.294.5,4.8,4.8,0,0,1-1.995-.424,3.558,3.558,0,0,1-1.468-1.158h-.046v6.767h-3.761V422.342h3.578v1.4h.069a4.63,4.63,0,0,1,1.456-1.2,4.441,4.441,0,0,1,2.19-.516,5.154,5.154,0,0,1,2.248.482,5.08,5.08,0,0,1,1.709,1.307,5.965,5.965,0,0,1,1.078,1.915A6.927,6.927,0,0,1,2944.644,428.008Zm-3.647,0a3.457,3.457,0,0,0-.172-1.078,2.819,2.819,0,0,0-.5-.929,2.531,2.531,0,0,0-2.007-.906,2.53,2.53,0,0,0-1.146.252,2.738,2.738,0,0,0-.861.665,3.114,3.114,0,0,0,0,4.037,2.731,2.731,0,0,0,.861.665,2.525,2.525,0,0,0,1.146.252,2.58,2.58,0,0,0,1.169-.252,2.489,2.489,0,0,0,.838-.665,2.926,2.926,0,0,0,.5-.952A3.562,3.562,0,0,0,2941,428.008Z" transform="translate(-2889.775 -416.631)" fill="#fff"/>
      <path id="Контур_1763" data-name="Контур 1763" d="M3028.995,425.457a4.214,4.214,0,0,0-1.078-.734,2.982,2.982,0,0,0-1.308-.3,2.293,2.293,0,0,0-.974.206.724.724,0,0,0-.448.711.708.708,0,0,0,.493.688,10.729,10.729,0,0,0,1.594.459,8.633,8.633,0,0,1,1.3.39,4.6,4.6,0,0,1,1.182.665,3.188,3.188,0,0,1,.848,1.009,2.956,2.956,0,0,1,.321,1.422A3.427,3.427,0,0,1,3029.35,433a4.9,4.9,0,0,1-1.572.665,7.532,7.532,0,0,1-1.743.207,8.6,8.6,0,0,1-2.74-.447,5.744,5.744,0,0,1-2.237-1.319l2.111-2.225a4.2,4.2,0,0,0,1.238.918,3.436,3.436,0,0,0,1.559.367,2.049,2.049,0,0,0,.906-.218.782.782,0,0,0,.447-.768.824.824,0,0,0-.55-.78,9.915,9.915,0,0,0-1.72-.527,8.86,8.86,0,0,1-1.193-.367,3.764,3.764,0,0,1-1.066-.619,3.077,3.077,0,0,1-.769-.963,2.949,2.949,0,0,1-.3-1.376,3.336,3.336,0,0,1,.436-1.755,3.688,3.688,0,0,1,1.124-1.181,5.009,5.009,0,0,1,1.525-.677,6.587,6.587,0,0,1,1.663-.218,8.037,8.037,0,0,1,2.511.4,5.424,5.424,0,0,1,2.076,1.2Z" transform="translate(-2965.409 -416.374)" fill="#fff"/>
    </g>
    <g id="Сгруппировать_3501" data-name="Сгруппировать 3501" transform="translate(6.754 0)">
      <path id="Контур_1764" data-name="Контур 1764" d="M2865.387,270c-.445-.008-.819-2.488-.815-2.935a.847.847,0,0,1,.872-.837.858.858,0,0,1,.792.868C2866.222,267.537,2865.831,270.006,2865.387,270Z" transform="translate(-2839.359 -216.493)" fill="#fff"/>
      <g id="Сгруппировать_3500" data-name="Сгруппировать 3500" transform="translate(0 0)">
        <path id="Контур_1765" data-name="Контур 1765" d="M2750.087,92.655c-2.093-1.352-4.171-2.727-6.255-4.093-1.617-1.06-3.233-2.124-4.855-3.177a.822.822,0,0,0-1.29.245,3.844,3.844,0,0,0-.18.616c-1.019-.919-2.02-1.786-2.968-2.708a1.168,1.168,0,0,1-.225-.86c.4-3.568.81-7.137,1.272-10.7a8.193,8.193,0,0,0-.836-4.931q-4.252-8.34-8.437-16.716A2.648,2.648,0,0,0,2725.053,49h-2.094c-.06.027-.115.058-.17.088a2.671,2.671,0,0,0-1.091,1.235c-2.858,5.7-5.74,11.392-8.58,17.1a6.092,6.092,0,0,0-.684,2.236,19.9,19.9,0,0,0,.156,3.445c.354,3.22.763,6.433,1.127,9.652a1.034,1.034,0,0,1-.215.766c-.966.926-1.974,1.808-2.987,2.723-.268-1.142-.765-1.333-1.714-.71q-5.417,3.555-10.828,7.116a72.7,72.7,0,0,0,10.46-4.848c.121-.079.252-.14.406-.226a16.978,16.978,0,0,0,4.725,10.015c-.578.506-1.133.979-1.671,1.469-.391.355,3.854-1.668,3.474-2.071-.165-.175-.351-.329-.558-.52.213-.2.392-.364.564-.533,2.145-2.1,4.3-4.2,6.43-6.307.952-.942.1-4.344,0-3.687a4.326,4.326,0,0,1-1.233,2.551q-3.307,3.246-6.627,6.48c-.072.07-.155.128-.226.185a.488.488,0,0,1-.112-.066c-.069-.079-.133-.162-.2-.246a15.445,15.445,0,0,1-2.686-6.041.647.647,0,0,1,.232-.72c1.193-1.048,2.367-2.118,3.548-3.179a2.527,2.527,0,0,0,.868-2.3c-.442-3.723-.87-7.448-1.326-11.169a5.631,5.631,0,0,1,.568-3.309q4.113-8.146,8.221-16.3a27.616,27.616,0,0,1,.251,3.366q0,.146.009.292c-.232,1.1-1.647,2.388-2.206,3.331a4.413,4.413,0,0,0-.362.674c-1.144,2.628-3.559,9.477-3.123,9.652a.04.04,0,0,0,.013,0l.009.006c.44.173,3.793-7.033,4.611-8.945a1.926,1.926,0,0,1,1.086-1.1c0,1.536,0,3.046,0,4.565a5.193,5.193,0,0,1-1.176,1.714,8.773,8.773,0,0,0-.656.784,2.673,2.673,0,0,0-.44,1c-.249,1.11-.965,4.128-.461,4.263a.121.121,0,0,0,.075-.008c.489-.053,1.43-3.145,1.895-4.295.1-.392.569-.5,1.006-.639.182,6.8.412,13.344.626,13.348s.44-6.547.634-13.35c.44.14.917.248,1.014.642.477,1.183,1.457,4.421,1.932,4.294.5-.135-.212-3.153-.461-4.263a2.929,2.929,0,0,0-.161-.507c-.244-.835-1.741-1.879-2.071-2.984V59.1a1.975,1.975,0,0,1,1.1,1.114c.671,1.539,4.171,9.113,4.614,8.935s-1.976-7.025-3.118-9.654a4.422,4.422,0,0,0-.45-.8c-.6-.92-1.874-2.127-2.118-3.168.051-1.879.15-3.928.183-3.863q4.194,8.311,8.383,16.625a5.193,5.193,0,0,1,.5,3.014c-.449,3.74-.879,7.482-1.333,11.221a2.628,2.628,0,0,0,.916,2.438c1.176,1.041,2.337,2.1,3.515,3.138a.607.607,0,0,1,.229.673,15.252,15.252,0,0,1-1.792,4.683c-.357.6-.755,1.165-1.15,1.769-.141-.117-.225-.177-.3-.248q-3.172-3.085-6.344-6.17a4.832,4.832,0,0,1-1.536-3.018c-.069-.622-.992,2.831-.044,3.774,2.19,2.18,4.408,4.331,6.615,6.492.136.132.276.26.464.437-.151.127-.275.222-.387.328-.642.611,3.659,2.577,3.171,2.14-.5-.45-1.011-.895-1.542-1.364a16.975,16.975,0,0,0,4.735-10.025c.13.068.207.1.276.145A69.712,69.712,0,0,0,2750.087,92.655Z" transform="translate(-2697.967 -32.14)" fill="#fff"/>
        <g id="Сгруппировать_3499" data-name="Сгруппировать 3499" transform="translate(0.053)">
          <path id="Контур_1766" data-name="Контур 1766" d="M2865.279-50.878h0c-.632,0-1.144-10.367-1.144-10.367a1.148,1.148,0,0,1,1.144-1.152h0a1.147,1.147,0,0,1,1.143,1.152S2865.91-50.878,2865.279-50.878Z" transform="translate(-2839.042 62.397)" fill="#fff"/>
          <path id="Контур_1767" data-name="Контур 1767" d="M2946.912-16.346l-.021-.012c-.556-.329,4.189-9.519,4.189-9.519a1.163,1.163,0,0,1,1.6-.42l.021.012a1.183,1.183,0,0,1,.417,1.611S2947.468-16.018,2946.912-16.346Z" transform="translate(-2909.236 31.898)" fill="#fff"/>
          <path id="Контур_1768" data-name="Контур 1768" d="M2966.839,92.752l0-.024c-.058-.647,10.123-2.1,10.123-2.1a1.17,1.17,0,0,1,1.268,1.066l0,.024a1.174,1.174,0,0,1-1.058,1.278S2966.9,93.4,2966.839,92.752Z" transform="translate(-2926.201 -67.463)" fill="#fff"/>
          <path id="Контур_1769" data-name="Контур 1769" d="M2757.5-16.346l.02-.012c.557-.329-4.188-9.519-4.188-9.519a1.164,1.164,0,0,0-1.6-.42l-.02.012a1.181,1.181,0,0,0-.416,1.611S2756.942-16.018,2757.5-16.346Z" transform="translate(-2743.142 31.898)" fill="#fff"/>
          <path id="Контур_1770" data-name="Контур 1770" d="M2709.715,92.752l0-.024c.058-.647-10.122-2.1-10.122-2.1a1.17,1.17,0,0,0-1.268,1.066l0,.024a1.174,1.174,0,0,0,1.058,1.278S2709.656,93.4,2709.715,92.752Z" transform="translate(-2698.319 -67.463)" fill="#fff"/>
          <path id="Контур_1771" data-name="Контур 1771" d="M2878.551,91.107s.043-.019,0,0Z" transform="translate(-2851.276 -67.87)" fill="#fff"/>
          <path id="Контур_1772" data-name="Контур 1772" d="M2866.845,91.107s-.042-.019,0,0Z" transform="translate(-2841.326 -67.87)" fill="#fff"/>
        </g>
      </g>
    </g>
  </g>
</svg>
