<svg xmlns="http://www.w3.org/2000/svg" width="152.213" height="44.189" viewBox="0 0 152.213 44.189">
  <g id="Сгруппировать_7514" data-name="Сгруппировать 7514" transform="translate(0 0)">
    <g id="Сгруппировать_7513" data-name="Сгруппировать 7513">
      <path id="Контур_6215" data-name="Контур 6215" d="M138.024,795.054h.521s.261,4.036,1.952,3.84,5.73-4.036,5.73-4.036.2-1.044-.846-.329-1.627,2.606-2.539.587.2-2.67.587-2.929S147.6,789,147.6,789a2.064,2.064,0,0,0,.587-2.086c-.457-1.1-1.042-2.083-2.865-.78s-5.015,2.993-6.511,7.616a1.008,1.008,0,0,0-1.5.065c-.848.783-2.215,2.41-3.059,2.018s-.848-5.532,3.188-12.564c0,0,21.289-.586,29.687-1.5s24.866-3.84,27.407-4.622c0,0-29.165,5.274-56.05,4.1l3.189-6.444s-3.384.129-6.447,6.251l-3.969.193s-1.368.325-.52-1.5a36.61,36.61,0,0,1,3.19-5.857s-2.408-.26-4.688,4.3c0,0-1.563,3.451-5.143,3.32s-11.589-.846-15.362,2.733a29.27,29.27,0,0,1,13.215-1.107s1.694.129.2,1.237-4.492,3.061-4.492,3.061-2.538-.523-3.775.976a1.009,1.009,0,0,1-1.565.2c-.909-.78-2.211.715-2.211.715l-6.315,4.56s-1.563-.068-.26-1.044,1.694-1.693.065-3.908-5.076.2-6.053,1.175-3.777,4.88-2.344,7.1c1.171,1.3,3.58-1.367,3.58-1.367v.715s-15.757,9.7-17.319,11.2-4.488,3.906-4.359,5.927,6.184,4.816,10.806,4.359a9.612,9.612,0,0,0,8.985-7.743c1.17-4.691,2.669-12.956,5.532-14.78a59.808,59.808,0,0,1,5.6-3.125s-1.366,5.6.911,5.859,8.333-1.89,8.791-9.635l6.966-5.011s2.406-.913,1.625.648-3.579,9.7-3.71,11.72.715,2.861,2.474,1.563a19.947,19.947,0,0,0,5.013-5.144s.065-1.759-1.239-.2-1.69,2.671-2.472,2.15,2.668-10.027,3.319-11.069l4.037-.065s.523,0,.131.781-4.038,8.269-4.038,13.605c0,0,.2,3.449,3.906.588a38.812,38.812,0,0,1,4.3-3.124Zm5.079-4.561s.975-2.277,1.5-1.821.392,1.237-.389,1.821S142.841,791.341,143.1,790.493Zm-44.465,7.878c-.391.913-5.209,14.323-5.209,14.323a3.119,3.119,0,0,1-3.257,2.734c-3.058.129-7.16-.649-8.591-2.407s-.262-4.232,1.171-5.211,15.623-9.96,15.623-9.96S99.029,797.459,98.639,798.371Zm.911-4.361c-1.3.782-1.107-.588-.911-1.3s.194-1.108.911-1.108.977.717.911,1.367S99.55,794.01,99.55,794.01Zm12.5,1.044c-1.042.062-.781-2.28-.781-2.28s.259-1.628,1.173-1.628.911,2.086.911,2.086-.26,1.757-1.3,1.822Z" transform="translate(-77.088 -773.891)" fill="#fff" fill-rule="evenodd"/>
      <path id="Контур_6216" data-name="Контур 6216" d="M911.649,914.727a9.818,9.818,0,0,1,2.8-2c2.4-1.4,3.894-2.5,3.194-3.2s-2.1,0-2.495.8-5.4,3.8-5.4,3.8l-2-1c-2-1-2.9,0-2.9,0l-5.5,3.694.5.3a20.492,20.492,0,0,0,2.4-1.5c.9-.7,3.3,1.2,3.3,1.2-9.991,5.9-21.982,18.284-21.982,18.284,18.285-15.885,24.38-17.986,24.38-17.986,36.072,13.392,72.74,4.7,72.74,4.7-36.768,5.191-69.041-7.094-69.041-7.094Z" transform="translate(-828.477 -899.998)" fill="#fff" fill-rule="evenodd"/>
    </g>
  </g>
</svg>
