<svg xmlns="http://www.w3.org/2000/svg" xmlns:xlink="http://www.w3.org/1999/xlink" width="144.27" height="53.626" viewBox="0 0 144.27 53.626">
  <defs>
    <clipPath id="clip-path">
      <path id="Контур_6200" data-name="Контур 6200" d="M593.66,390.5a4.491,4.491,0,0,1-.413,1.87,4.819,4.819,0,0,1-1.179,1.6,5.36,5.36,0,0,1-1.754,1.066,5.523,5.523,0,0,1-.826.241,6.818,6.818,0,0,0,.262-1.87V357.6a6.927,6.927,0,0,0-.252-1.83,6.838,6.838,0,0,1,.816.231,5.469,5.469,0,0,1,1.754,1.065,4.825,4.825,0,0,1,1.179,1.6,4.527,4.527,0,0,1,.413,1.87ZM586.8,355.621a9.449,9.449,0,0,0-1.723.453,8.367,8.367,0,0,0-2.711,1.659,8.17,8.17,0,0,0-1.058,1.157,8.105,8.105,0,0,0-1.048-1.157,8.662,8.662,0,0,0-2.71-1.659,8.775,8.775,0,0,0-1.542-.432v-.6a4.341,4.341,0,0,1,.413-1.87,4.927,4.927,0,0,1,1.169-1.6,5.694,5.694,0,0,1,3.819-1.448,5.783,5.783,0,0,1,2.056.372,5.54,5.54,0,0,1,1.753,1.066,5.076,5.076,0,0,1,1.169,1.6,4.337,4.337,0,0,1,.413,1.87Zm0,5.43a8.79,8.79,0,0,0-2.206-1.247,9.577,9.577,0,0,0-1.562-.432,5.323,5.323,0,0,1,.252-.7,5.039,5.039,0,0,1,1.169-1.6,5.7,5.7,0,0,1,2.348-1.257Zm0,25.672a4.491,4.491,0,0,1-.413,1.87,5.073,5.073,0,0,1-1.169,1.6,5.643,5.643,0,0,1-1.753,1.066c-.161.061-.322.111-.494.161a4.689,4.689,0,0,1-.091-.925V360.548a4.258,4.258,0,0,1,.1-.955c.161.05.323.1.494.161a5.528,5.528,0,0,1,1.753,1.066,5.088,5.088,0,0,1,1.169,1.6,4.378,4.378,0,0,1,.413,1.87v22.434Zm0,8.5a5.933,5.933,0,0,1-.594-.181,5.547,5.547,0,0,1-1.753-1.066,4.774,4.774,0,0,1-1.169-1.6,3.587,3.587,0,0,1-.262-.744,8.844,8.844,0,0,0,1.572-.432,8.586,8.586,0,0,0,2.206-1.237Zm0,.744a4.489,4.489,0,0,1-.413,1.87,5.028,5.028,0,0,1-1.169,1.589,5.652,5.652,0,0,1-1.753,1.066,5.781,5.781,0,0,1-2.056.372,5.881,5.881,0,0,1-2.066-.372,5.553,5.553,0,0,1-1.753-1.066,4.994,4.994,0,0,1-1.169-1.589,4.293,4.293,0,0,1-.292-.855,4.763,4.763,0,0,1-.1-.935h-.01V395.4a8.775,8.775,0,0,0,4.252-2.082,7.617,7.617,0,0,0,1.048-1.166,8.248,8.248,0,0,0,1.058,1.166,8.57,8.57,0,0,0,4.434,2.1v.543Zm-10.792-6a8.646,8.646,0,0,0,3.608,1.639,3.921,3.921,0,0,1-.273.774,4.92,4.92,0,0,1-1.169,1.6,5.462,5.462,0,0,1-1.753,1.066c-.141.05-.272.09-.413.141Zm0-25.672a4.344,4.344,0,0,1,.413-1.87,5.037,5.037,0,0,1,1.169-1.6,5.628,5.628,0,0,1,2.076-1.177,4.471,4.471,0,0,1,.1.905V390.5a4.933,4.933,0,0,1-.091.865,2.951,2.951,0,0,1-.322-.111,5.53,5.53,0,0,1-1.753-1.066,4.923,4.923,0,0,1-1.169-1.6,4.335,4.335,0,0,1-.413-1.87V364.289Zm0-8.416c.141.04.272.08.413.131a5.356,5.356,0,0,1,1.753,1.065,4.926,4.926,0,0,1,1.169,1.6,4.071,4.071,0,0,1,.262.744,8.826,8.826,0,0,0-1.39.392,8.618,8.618,0,0,0-2.207,1.247ZM572.3,395.039a5.657,5.657,0,0,1-1.753-1.066,5.1,5.1,0,0,1-1.179-1.6,4.482,4.482,0,0,1-.4-1.87V360.548a4.482,4.482,0,0,1,.4-1.87,5.054,5.054,0,0,1,1.179-1.6,5.579,5.579,0,0,1,2.761-1.348,6.819,6.819,0,0,0-.262,1.87v35.8a6.683,6.683,0,0,0,.282,1.911A5.526,5.526,0,0,1,572.3,395.039ZM595.978,360.2a7.549,7.549,0,0,0-1.824-2.473,8.579,8.579,0,0,0-2.721-1.659,8.794,8.794,0,0,0-2-.493c-.1-.3-.2-.593-.322-.874a7.864,7.864,0,0,0-1.824-2.474,8.6,8.6,0,0,0-2.721-1.659,9.209,9.209,0,0,0-6.368.01,8.271,8.271,0,0,0-2.711,1.659,7.448,7.448,0,0,0-2.136,3.329,8.566,8.566,0,0,0-2.187.513,8.419,8.419,0,0,0-2.721,1.659A7.26,7.26,0,0,0,566,363.1V387.95a6.837,6.837,0,0,0,.635,2.9,7.807,7.807,0,0,0,1.824,2.473,8.751,8.751,0,0,0,4.918,2.172,7.232,7.232,0,0,0,.313.814,7.661,7.661,0,0,0,1.824,2.474,8.191,8.191,0,0,0,1.521,1.086,7.824,7.824,0,0,0,1.29,1.529,8.788,8.788,0,0,0,5.906,2.232h5.592v-2.695H582.5a8.581,8.581,0,0,0,4.827-2.162,7.961,7.961,0,0,0,1.824-2.473,7.655,7.655,0,0,0,.312-.845,8.725,8.725,0,0,0,2.005-.492,8.876,8.876,0,0,0,2.721-1.649,7.665,7.665,0,0,0,1.824-2.474,6.867,6.867,0,0,0,.635-2.9V363.1A7.266,7.266,0,0,0,595.978,360.2Z" transform="translate(-566 -350)" fill="#fff" clip-rule="evenodd"/>
    </clipPath>
    <clipPath id="clip-path-2">
      <rect id="Прямоугольник_17437" data-name="Прямоугольник 17437" width="711.572" height="438.505" fill="#fff"/>
    </clipPath>
    <clipPath id="clip-path-3">
      <path id="Контур_6202" data-name="Контур 6202" d="M652.645,394.879l-1.311-1.352-1.675,1.72,1.473,1.495a2.762,2.762,0,0,1-3.167-.676c-.6-.7-.777-1.464-.777-4.628s.182-3.963.777-4.659a2.728,2.728,0,0,1,2.068-.88,2.63,2.63,0,0,1,2.037.88c.616.7.807,1.495.807,4.659A16.193,16.193,0,0,1,652.645,394.879Zm2.411,2.427c.968-1.464,1.009-3.215,1.009-5.868,0-3.164-.05-5.028-1.674-6.687a6.323,6.323,0,0,0-8.735,0C644.03,386.4,644,388.264,644,391.438s.02,5.028,1.654,6.687a5.861,5.861,0,0,0,4.378,1.751,6.036,6.036,0,0,0,3.3-.881l1.442,1.444,1.674-1.7Z" transform="translate(-644 -383)" fill="#fff" clip-rule="evenodd"/>
    </clipPath>
    <clipPath id="clip-path-5">
      <path id="Контур_6204" data-name="Контур 6204" d="M676.225,397.141a2.294,2.294,0,0,1,0-4.587,2.294,2.294,0,0,1,0,4.587Zm0-11.417a2.1,2.1,0,1,1-2.038,2.1A2.012,2.012,0,0,1,676.225,385.724Zm3.167,5.458a4.091,4.091,0,0,0,1.836-3.451,5.022,5.022,0,0,0-10.026,0,4.139,4.139,0,0,0,1.836,3.451A4.292,4.292,0,0,0,671,394.909c0,3.215,2.32,4.956,5.225,4.956,2.885,0,5.225-1.751,5.225-4.956A4.24,4.24,0,0,0,679.393,391.182Z" transform="translate(-671 -383)" fill="#fff" clip-rule="evenodd"/>
    </clipPath>
    <clipPath id="clip-path-7">
      <path id="Контур_6206" data-name="Контур 6206" d="M714.721,385.888h-4.267v13.691h-3.188V385.888H703V383h11.721Z" transform="translate(-703 -383)" fill="#fff" clip-rule="evenodd"/>
    </clipPath>
    <clipPath id="clip-path-9">
      <path id="Контур_6208" data-name="Контур 6208" d="M735.2,390.239h-3.026v-4.352H735.2a2.179,2.179,0,1,1,0,4.352Zm2.5,2.192a4.444,4.444,0,0,0,2.985-4.352A4.957,4.957,0,0,0,735.4,383H729v16.579h3.187v-6.615h2.29l3.188,6.615h3.692Z" transform="translate(-729 -383)" fill="#fff" clip-rule="evenodd"/>
    </clipPath>
    <clipPath id="clip-path-11">
      <path id="Контур_6210" data-name="Контур 6210" d="M758.205,393.916l2.018-6.01,2,6.01ZM761.463,383h-2.5L753,399.579h3.349l.989-2.929h5.78l.959,2.929h3.349Z" transform="translate(-753 -383)" fill="#fff" clip-rule="evenodd"/>
    </clipPath>
    <clipPath id="clip-path-13">
      <path id="Контур_6212" data-name="Контур 6212" d="M792,395.657a2.823,2.823,0,0,1-2.38,1.024h-2.431v-10.8h2.431A2.81,2.81,0,0,1,792,386.9c.6.727.666,1.771.666,4.383S792.594,394.94,792,395.657Zm2.825-10.24A5.608,5.608,0,0,0,789.891,383H784v16.579h5.891a5.63,5.63,0,0,0,4.932-2.416c1.008-1.423,1.029-3.123,1.029-5.868C795.852,388.529,795.832,386.83,794.824,385.416Z" transform="translate(-784 -383)" fill="#fff" clip-rule="evenodd"/>
    </clipPath>
    <clipPath id="clip-path-15">
      <path id="Контур_6214" data-name="Контур 6214" d="M820.753,385.888h-7.565v3.891h6.466v2.888h-6.466v4.024h7.565v2.888H810V383h10.753Z" transform="translate(-810 -383)" fill="#fff" clip-rule="evenodd"/>
    </clipPath>
  </defs>
  <g id="Сгруппировать_7512" data-name="Сгруппировать 7512" transform="translate(0 0)">
    <g id="Сгруппировать_7483" data-name="Сгруппировать 7483" transform="translate(0 0)">
      <path id="Контур_6199" data-name="Контур 6199" d="M593.66,390.5a4.491,4.491,0,0,1-.413,1.87,4.819,4.819,0,0,1-1.179,1.6,5.36,5.36,0,0,1-1.754,1.066,5.523,5.523,0,0,1-.826.241,6.818,6.818,0,0,0,.262-1.87V357.6a6.927,6.927,0,0,0-.252-1.83,6.838,6.838,0,0,1,.816.231,5.469,5.469,0,0,1,1.754,1.065,4.825,4.825,0,0,1,1.179,1.6,4.527,4.527,0,0,1,.413,1.87ZM586.8,355.621a9.449,9.449,0,0,0-1.723.453,8.367,8.367,0,0,0-2.711,1.659,8.17,8.17,0,0,0-1.058,1.157,8.105,8.105,0,0,0-1.048-1.157,8.662,8.662,0,0,0-2.71-1.659,8.775,8.775,0,0,0-1.542-.432v-.6a4.341,4.341,0,0,1,.413-1.87,4.927,4.927,0,0,1,1.169-1.6,5.694,5.694,0,0,1,3.819-1.448,5.783,5.783,0,0,1,2.056.372,5.54,5.54,0,0,1,1.753,1.066,5.076,5.076,0,0,1,1.169,1.6,4.337,4.337,0,0,1,.413,1.87Zm0,5.43a8.79,8.79,0,0,0-2.206-1.247,9.577,9.577,0,0,0-1.562-.432,5.323,5.323,0,0,1,.252-.7,5.039,5.039,0,0,1,1.169-1.6,5.7,5.7,0,0,1,2.348-1.257Zm0,25.672a4.491,4.491,0,0,1-.413,1.87,5.073,5.073,0,0,1-1.169,1.6,5.643,5.643,0,0,1-1.753,1.066c-.161.061-.322.111-.494.161a4.689,4.689,0,0,1-.091-.925V360.548a4.258,4.258,0,0,1,.1-.955c.161.05.323.1.494.161a5.528,5.528,0,0,1,1.753,1.066,5.088,5.088,0,0,1,1.169,1.6,4.378,4.378,0,0,1,.413,1.87v22.434Zm0,8.5a5.933,5.933,0,0,1-.594-.181,5.547,5.547,0,0,1-1.753-1.066,4.774,4.774,0,0,1-1.169-1.6,3.587,3.587,0,0,1-.262-.744,8.844,8.844,0,0,0,1.572-.432,8.586,8.586,0,0,0,2.206-1.237Zm0,.744a4.489,4.489,0,0,1-.413,1.87,5.028,5.028,0,0,1-1.169,1.589,5.652,5.652,0,0,1-1.753,1.066,5.781,5.781,0,0,1-2.056.372,5.881,5.881,0,0,1-2.066-.372,5.553,5.553,0,0,1-1.753-1.066,4.994,4.994,0,0,1-1.169-1.589,4.293,4.293,0,0,1-.292-.855,4.763,4.763,0,0,1-.1-.935h-.01V395.4a8.775,8.775,0,0,0,4.252-2.082,7.617,7.617,0,0,0,1.048-1.166,8.248,8.248,0,0,0,1.058,1.166,8.57,8.57,0,0,0,4.434,2.1v.543Zm-10.792-6a8.646,8.646,0,0,0,3.608,1.639,3.921,3.921,0,0,1-.273.774,4.92,4.92,0,0,1-1.169,1.6,5.462,5.462,0,0,1-1.753,1.066c-.141.05-.272.09-.413.141Zm0-25.672a4.344,4.344,0,0,1,.413-1.87,5.037,5.037,0,0,1,1.169-1.6,5.628,5.628,0,0,1,2.076-1.177,4.471,4.471,0,0,1,.1.905V390.5a4.933,4.933,0,0,1-.091.865,2.951,2.951,0,0,1-.322-.111,5.53,5.53,0,0,1-1.753-1.066,4.923,4.923,0,0,1-1.169-1.6,4.335,4.335,0,0,1-.413-1.87V364.289Zm0-8.416c.141.04.272.08.413.131a5.356,5.356,0,0,1,1.753,1.065,4.926,4.926,0,0,1,1.169,1.6,4.071,4.071,0,0,1,.262.744,8.826,8.826,0,0,0-1.39.392,8.618,8.618,0,0,0-2.207,1.247ZM572.3,395.039a5.657,5.657,0,0,1-1.753-1.066,5.1,5.1,0,0,1-1.179-1.6,4.482,4.482,0,0,1-.4-1.87V360.548a4.482,4.482,0,0,1,.4-1.87,5.054,5.054,0,0,1,1.179-1.6,5.579,5.579,0,0,1,2.761-1.348,6.819,6.819,0,0,0-.262,1.87v35.8a6.683,6.683,0,0,0,.282,1.911A5.526,5.526,0,0,1,572.3,395.039ZM595.978,360.2a7.549,7.549,0,0,0-1.824-2.473,8.579,8.579,0,0,0-2.721-1.659,8.794,8.794,0,0,0-2-.493c-.1-.3-.2-.593-.322-.874a7.864,7.864,0,0,0-1.824-2.474,8.6,8.6,0,0,0-2.721-1.659,9.209,9.209,0,0,0-6.368.01,8.271,8.271,0,0,0-2.711,1.659,7.448,7.448,0,0,0-2.136,3.329,8.566,8.566,0,0,0-2.187.513,8.419,8.419,0,0,0-2.721,1.659A7.26,7.26,0,0,0,566,363.1V387.95a6.837,6.837,0,0,0,.635,2.9,7.807,7.807,0,0,0,1.824,2.473,8.751,8.751,0,0,0,4.918,2.172,7.232,7.232,0,0,0,.313.814,7.661,7.661,0,0,0,1.824,2.474,8.191,8.191,0,0,0,1.521,1.086,7.824,7.824,0,0,0,1.29,1.529,8.788,8.788,0,0,0,5.906,2.232h5.592v-2.695H582.5a8.581,8.581,0,0,0,4.827-2.162,7.961,7.961,0,0,0,1.824-2.473,7.655,7.655,0,0,0,.312-.845,8.725,8.725,0,0,0,2.005-.492,8.876,8.876,0,0,0,2.721-1.649,7.665,7.665,0,0,0,1.824-2.474,6.867,6.867,0,0,0,.635-2.9V363.1A7.266,7.266,0,0,0,595.978,360.2Z" transform="translate(-566 -350)" fill="#fff" fill-rule="evenodd"/>
      <g id="Сгруппировать_7482" data-name="Сгруппировать 7482" clip-path="url(#clip-path)">
        <g id="Сгруппировать_7481" data-name="Сгруппировать 7481" transform="translate(-309.943 -191.348)">
          <rect id="Прямоугольник_17435" data-name="Прямоугольник 17435" width="711.572" height="438.505" transform="translate(0 0)" fill="#fff"/>
          <g id="Сгруппировать_7480" data-name="Сгруппировать 7480" transform="translate(0 0)" clip-path="url(#clip-path-2)">
            <rect id="Прямоугольник_17436" data-name="Прямоугольник 17436" width="36.874" height="59.796" transform="translate(306.953 188.358)" fill="#fff"/>
          </g>
        </g>
      </g>
    </g>
    <g id="Сгруппировать_7487" data-name="Сгруппировать 7487" transform="translate(42.682 18.058)">
      <path id="Контур_6201" data-name="Контур 6201" d="M652.645,394.879l-1.311-1.352-1.675,1.72,1.473,1.495a2.762,2.762,0,0,1-3.167-.676c-.6-.7-.777-1.464-.777-4.628s.182-3.963.777-4.659a2.728,2.728,0,0,1,2.068-.88,2.63,2.63,0,0,1,2.037.88c.616.7.807,1.495.807,4.659A16.193,16.193,0,0,1,652.645,394.879Zm2.411,2.427c.968-1.464,1.009-3.215,1.009-5.868,0-3.164-.05-5.028-1.674-6.687a6.323,6.323,0,0,0-8.735,0C644.03,386.4,644,388.264,644,391.438s.02,5.028,1.654,6.687a5.861,5.861,0,0,0,4.378,1.751,6.036,6.036,0,0,0,3.3-.881l1.442,1.444,1.674-1.7Z" transform="translate(-644 -383)" fill="#fff" fill-rule="evenodd"/>
      <g id="Сгруппировать_7486" data-name="Сгруппировать 7486" clip-path="url(#clip-path-3)">
        <g id="Сгруппировать_7485" data-name="Сгруппировать 7485" transform="translate(-352.624 -209.405)">
          <rect id="Прямоугольник_17438" data-name="Прямоугольник 17438" width="711.572" height="438.505" transform="translate(0 0)" fill="#fff"/>
          <g id="Сгруппировать_7484" data-name="Сгруппировать 7484" transform="translate(0 0)" clip-path="url(#clip-path-2)">
            <rect id="Прямоугольник_17439" data-name="Прямоугольник 17439" width="17.92" height="22.911" transform="translate(349.888 206.669)" fill="#fff"/>
          </g>
        </g>
      </g>
    </g>
    <g id="Сгруппировать_7491" data-name="Сгруппировать 7491" transform="translate(57.456 18.058)">
      <path id="Контур_6203" data-name="Контур 6203" d="M676.225,397.141a2.294,2.294,0,0,1,0-4.587,2.294,2.294,0,0,1,0,4.587Zm0-11.417a2.1,2.1,0,1,1-2.038,2.1A2.012,2.012,0,0,1,676.225,385.724Zm3.167,5.458a4.091,4.091,0,0,0,1.836-3.451,5.022,5.022,0,0,0-10.026,0,4.139,4.139,0,0,0,1.836,3.451A4.292,4.292,0,0,0,671,394.909c0,3.215,2.32,4.956,5.225,4.956,2.885,0,5.225-1.751,5.225-4.956A4.24,4.24,0,0,0,679.393,391.182Z" transform="translate(-671 -383)" fill="#fff" fill-rule="evenodd"/>
      <g id="Сгруппировать_7490" data-name="Сгруппировать 7490" clip-path="url(#clip-path-5)">
        <g id="Сгруппировать_7489" data-name="Сгруппировать 7489" transform="translate(-367.399 -209.405)">
          <rect id="Прямоугольник_17441" data-name="Прямоугольник 17441" width="711.572" height="438.505" transform="translate(0 0)" fill="#fff"/>
          <g id="Сгруппировать_7488" data-name="Сгруппировать 7488" transform="translate(0 0)" clip-path="url(#clip-path-2)">
            <rect id="Прямоугольник_17442" data-name="Прямоугольник 17442" width="15.922" height="22.337" transform="translate(364.663 206.669)" fill="#fff"/>
          </g>
        </g>
      </g>
    </g>
    <g id="Сгруппировать_7495" data-name="Сгруппировать 7495" transform="translate(74.966 18.058)">
      <path id="Контур_6205" data-name="Контур 6205" d="M714.721,385.888h-4.267v13.691h-3.188V385.888H703V383h11.721Z" transform="translate(-703 -383)" fill="#fff" fill-rule="evenodd"/>
      <g id="Сгруппировать_7494" data-name="Сгруппировать 7494" transform="translate(0)" clip-path="url(#clip-path-7)">
        <g id="Сгруппировать_7493" data-name="Сгруппировать 7493" transform="translate(-384.909 -209.405)">
          <rect id="Прямоугольник_17444" data-name="Прямоугольник 17444" width="711.572" height="438.505" transform="translate(0 0)" fill="#fff"/>
          <g id="Сгруппировать_7492" data-name="Сгруппировать 7492" transform="translate(0 0)" clip-path="url(#clip-path-2)">
            <rect id="Прямоугольник_17445" data-name="Прямоугольник 17445" width="17.193" height="22.051" transform="translate(382.173 206.669)" fill="#fff"/>
          </g>
        </g>
      </g>
    </g>
    <g id="Сгруппировать_7499" data-name="Сгруппировать 7499" transform="translate(89.194 18.058)">
      <path id="Контур_6207" data-name="Контур 6207" d="M735.2,390.239h-3.026v-4.352H735.2a2.179,2.179,0,1,1,0,4.352Zm2.5,2.192a4.444,4.444,0,0,0,2.985-4.352A4.957,4.957,0,0,0,735.4,383H729v16.579h3.187v-6.615h2.29l3.188,6.615h3.692Z" transform="translate(-729 -383)" fill="#fff" fill-rule="evenodd"/>
      <g id="Сгруппировать_7498" data-name="Сгруппировать 7498" transform="translate(0)" clip-path="url(#clip-path-9)">
        <g id="Сгруппировать_7497" data-name="Сгруппировать 7497" transform="translate(-399.136 -209.405)">
          <rect id="Прямоугольник_17447" data-name="Прямоугольник 17447" width="711.572" height="438.505" transform="translate(0 0)" fill="#fff"/>
          <g id="Сгруппировать_7496" data-name="Сгруппировать 7496" transform="translate(0 0)" clip-path="url(#clip-path-2)">
            <rect id="Прямоугольник_17448" data-name="Прямоугольник 17448" width="17.829" height="22.051" transform="translate(396.4 206.669)" fill="#fff"/>
          </g>
        </g>
      </g>
    </g>
    <g id="Сгруппировать_7503" data-name="Сгруппировать 7503" transform="translate(102.326 18.058)">
      <path id="Контур_6209" data-name="Контур 6209" d="M758.205,393.916l2.018-6.01,2,6.01ZM761.463,383h-2.5L753,399.579h3.349l.989-2.929h5.78l.959,2.929h3.349Z" transform="translate(-753 -383)" fill="#fff" fill-rule="evenodd"/>
      <g id="Сгруппировать_7502" data-name="Сгруппировать 7502" transform="translate(0)" clip-path="url(#clip-path-11)">
        <g id="Сгруппировать_7501" data-name="Сгруппировать 7501" transform="translate(-412.269 -209.405)">
          <rect id="Прямоугольник_17450" data-name="Прямоугольник 17450" width="711.572" height="438.505" transform="translate(0 0)" fill="#fff"/>
          <g id="Сгруппировать_7500" data-name="Сгруппировать 7500" transform="translate(0 0)" clip-path="url(#clip-path-2)">
            <rect id="Прямоугольник_17451" data-name="Прямоугольник 17451" width="19.897" height="22.051" transform="translate(409.533 206.669)" fill="#fff"/>
          </g>
        </g>
      </g>
    </g>
    <g id="Сгруппировать_7507" data-name="Сгруппировать 7507" transform="translate(119.29 18.058)">
      <path id="Контур_6211" data-name="Контур 6211" d="M792,395.657a2.823,2.823,0,0,1-2.38,1.024h-2.431v-10.8h2.431A2.81,2.81,0,0,1,792,386.9c.6.727.666,1.771.666,4.383S792.594,394.94,792,395.657Zm2.825-10.24A5.608,5.608,0,0,0,789.891,383H784v16.579h5.891a5.63,5.63,0,0,0,4.932-2.416c1.008-1.423,1.029-3.123,1.029-5.868C795.852,388.529,795.832,386.83,794.824,385.416Z" transform="translate(-784 -383)" fill="#fff" fill-rule="evenodd"/>
      <g id="Сгруппировать_7506" data-name="Сгруппировать 7506" transform="translate(0)" clip-path="url(#clip-path-13)">
        <g id="Сгруппировать_7505" data-name="Сгруппировать 7505" transform="translate(-429.232 -209.405)">
          <rect id="Прямоугольник_17453" data-name="Прямоугольник 17453" width="711.572" height="438.505" transform="translate(0 0)" fill="#fff"/>
          <g id="Сгруппировать_7504" data-name="Сгруппировать 7504" transform="translate(0 0)" clip-path="url(#clip-path-2)">
            <rect id="Прямоугольник_17454" data-name="Прямоугольник 17454" width="17.324" height="22.051" transform="translate(426.496 206.669)" fill="#fff"/>
          </g>
        </g>
      </g>
    </g>
    <g id="Сгруппировать_7511" data-name="Сгруппировать 7511" transform="translate(133.517 18.058)">
      <path id="Контур_6213" data-name="Контур 6213" d="M820.753,385.888h-7.565v3.891h6.466v2.888h-6.466v4.024h7.565v2.888H810V383h10.753Z" transform="translate(-810 -383)" fill="#fff" fill-rule="evenodd"/>
      <g id="Сгруппировать_7510" data-name="Сгруппировать 7510" transform="translate(0)" clip-path="url(#clip-path-15)">
        <g id="Сгруппировать_7509" data-name="Сгруппировать 7509" transform="translate(-443.46 -209.405)">
          <rect id="Прямоугольник_17456" data-name="Прямоугольник 17456" width="711.572" height="438.505" transform="translate(0 0)" fill="#fff"/>
          <g id="Сгруппировать_7508" data-name="Сгруппировать 7508" transform="translate(0 0)" clip-path="url(#clip-path-2)">
            <rect id="Прямоугольник_17457" data-name="Прямоугольник 17457" width="16.225" height="22.051" transform="translate(440.723 206.669)" fill="#fff"/>
          </g>
        </g>
      </g>
    </g>
  </g>
</svg>
