<svg xmlns="http://www.w3.org/2000/svg" width="72.902" height="60.357" viewBox="0 0 72.902 60.357">
  <g id="Сгруппировать_7476" data-name="Сгруппировать 7476" transform="translate(0)">
    <g id="Сгруппировать_7475" data-name="Сгруппировать 7475" transform="translate(0 46.685)">
      <path id="Контур_6160" data-name="Контур 6160" d="M183.375,66.065c0-1.569,1.509-3.516,4.437-3.516a12.567,12.567,0,0,1,2.279.423c.212,0,.423-.211.74-.211a2.67,2.67,0,0,1,1.66,2.429.954.954,0,0,1-.891,1.027c-1.011,0-1.6-1.721-3.169-1.721-.467,0-.966.211-.966.754,0,1.193,2.068.875,3.819,2.038a2.777,2.777,0,0,1,1.4,2.505c0,1.765-1.449,3.757-4.966,3.757a9.165,9.165,0,0,1-3.561-.724c-.724-.408-1.072-2.008-1.072-2.778,0-.407.182-.814.634-.814,1.072,0,.89,2.4,3.666,2.4.332,0,1.162-.166,1.162-.739,0-1.087-2.068-.815-3.743-2.159A3.463,3.463,0,0,1,183.375,66.065Z" transform="translate(-183.088 -62.459)" fill="#fff"/>
      <path id="Контур_6161" data-name="Контур 6161" d="M193.164,70.02c0-1.585-.091-1.931-.166-2.008-.2-.2-1.011,0-1.011-.86,0-1.027,3.108-1.811,4.226-1.811.362,0,.423.121.423.453,0,.105.015.317.166.317a5.31,5.31,0,0,1,2.293-.815c1.977,0,3.033,1.976,3.033,3.743,0,2.022-1.434,4.18-3.636,4.18a5.909,5.909,0,0,1-1.555-.377c-.212,0-.242.316-.242.482,0,1.147.936.785.936,1.524,0,.845-1.373.951-1.962.951-2.022,0-3.607-.739-3.607-1.509,0-.679.619-.423.891-1.011a6.237,6.237,0,0,0,.211-2.43Zm4.135-2.491c-.544,0-.724.226-.724,2.974,0,.5.241.679.769.679.936,0,1.057-1.012,1.057-1.736S198.25,67.529,197.3,67.529Z" transform="translate(-182.012 -62.127)" fill="#fff"/>
      <path id="Контур_6162" data-name="Контур 6162" d="M209.036,69.4c0,2.655.906,1.207.906,2.022,0,.861-1.177,1.8-2.279,1.8-1.191,0-1.222-.77-1.6-.77-.181,0-.377.2-.71.378a2.757,2.757,0,0,1-1.478.392,2.235,2.235,0,0,1-2.505-2.158c0-1.072,1.027-2.4,3.682-2.4.467,0,.679.03.679-.513,0-.5-.015-1.539-.71-1.539-.906,0-1,1.63-2.338,1.63a.813.813,0,0,1-.846-.829c0-1.283,2.551-2.113,3.985-2.113.86,0,3.214.332,3.214,2.595Zm-4.526,1.328c0,.392.211.815.648.815.574,0,.619-.619.619-1.072,0-.333.016-.71-.407-.71A.923.923,0,0,0,204.51,70.729Z" transform="translate(-180.878 -62.127)" fill="#fff"/>
      <path id="Контур_6163" data-name="Контур 6163" d="M210.286,68.43c0-1.479-.936-.649-.936-1.569,0-1.193,3.531-1.524,3.667-1.524.574,0,.59.151.65.665.015.18,0,.528.256.528.363,0,.588-1.193,1.886-1.193a1.645,1.645,0,0,1,1.676,1.751,1.846,1.846,0,0,1-1.856,1.811c-.981,0-1.253-.861-1.645-.861-.423,0-.348,1.011-.348,1.283a13.958,13.958,0,0,0,.121,1.66c.091.664,1.238.256,1.238,1.161,0,.951-1.327,1.027-2.987,1.027-.695,0-2.747.03-2.747-1.011,0-.634.694-.634.86-1.162a7.443,7.443,0,0,0,.167-1.66Z" transform="translate(-179.924 -62.122)" fill="#fff"/>
      <path id="Контур_6164" data-name="Контур 6164" d="M220.566,69.536c-.166,0-.407-.045-.407.212,0,.754.981,1.388,1.689,1.388,1.132,0,1.69-.679,2.008-.679s.588.469.588.754c0,1.162-2.127,2.008-3.486,2.008a3.875,3.875,0,0,1-4.119-3.909,4.111,4.111,0,0,1,4.24-4.014,3.478,3.478,0,0,1,3.7,3.108c0,1-.453,1.132-.935,1.132Zm1.313-1.9a.885.885,0,0,0-.89-.966,1,1,0,0,0-.906,1c0,.543.513.423.906.423S221.879,68.178,221.879,67.635Z" transform="translate(-179.007 -62.127)" fill="#fff"/>
      <path id="Контур_6165" data-name="Контур 6165" d="M230.448,62.771a7.792,7.792,0,0,0,2.551-.3c.86,0,1.222,1.478,1.222,2.142,0,.5-.2,1.087-.785,1.087-1.192,0-.226-1.449-3.094-1.449-1.675,0-1.509.3-1.509,2.038,0,.874.045.906.965.906,1.148,0,.287-1.676,1.358-1.676.875,0,.936,1.7.936,2.295,0,.619-.105,2.429-1.011,2.429-.936,0,0-1.585-1.524-1.585-.633,0-.619.574-.619,1.057,0,2.2.151,2.1,1.735,2.1,3.094,0,2.218-2.127,3.456-2.127.483,0,.724.544.724.966,0,1.026-.814,2.867-1.418,2.867-.105,0-.347-.046-.664-.091-.332-.03-.756-.075-1.268-.075h-6.2c-1,0-1.012-.453-1.012-.65,0-.829,1.027-.166,1.132-1.765a27.208,27.208,0,0,0,.045-5.206c-.105-2.309-1.252-1.118-1.252-2.189,0-.92,1.268-.769,1.886-.769Z" transform="translate(-178.115 -62.469)" fill="#fff"/>
      <path id="Контур_6166" data-name="Контур 6166" d="M241.575,69.4c0,2.655.906,1.207.906,2.022,0,.861-1.177,1.8-2.279,1.8-1.192,0-1.222-.77-1.6-.77-.18,0-.377.2-.71.378a2.757,2.757,0,0,1-1.478.392,2.235,2.235,0,0,1-2.505-2.158c0-1.072,1.026-2.4,3.682-2.4.467,0,.679.03.679-.513,0-.5-.016-1.539-.71-1.539-.906,0-1,1.63-2.338,1.63a.813.813,0,0,1-.846-.829c0-1.283,2.551-2.113,3.985-2.113.86,0,3.214.332,3.214,2.595Zm-4.527,1.328c0,.392.212.815.649.815.574,0,.619-.619.619-1.072,0-.333.016-.71-.407-.71A.924.924,0,0,0,237.048,70.729Z" transform="translate(-176.943 -62.127)" fill="#fff"/>
      <path id="Контур_6167" data-name="Контур 6167" d="M246.564,69.951c0,1.01.424,1.252.831,1.252.467,0,.74-.347,1.011-.347.3,0,.513.423.513.695,0,1-1.721,1.871-3.245,1.871a2.544,2.544,0,0,1-2.7-2.732V67.581c0-.271,0-.378-.075-.423s-.242-.016-.588-.016c-.392,0-.588.016-.665-.061-.105-.105-.075-.256-.075-.6,0-.211-.045-.378.136-.5l3.441-2.187c.348-.212.332-.166.785-.166.6,0,.633-.061.633.633a4.641,4.641,0,0,0,.046,1.116c.045.121.15.121.544.121h1.056c.649,0,.649.045.649.724,0,.86-.105.92-.7.92h-1.041c-.528,0-.558.016-.558.558Z" transform="translate(-176.018 -62.329)" fill="#fff"/>
    </g>
    <path id="Контур_6168" data-name="Контур 6168" d="M254.1,58.845h1.428a36.034,36.034,0,0,0-33.98-35.972c0-.021.007-.041.007-.063a1.99,1.99,0,0,0-3.98,0c0,.018,0,.035.006.052a36.036,36.036,0,0,0-34.122,35.983h37.26a13.7,13.7,0,0,0-1.845-5.5,1.561,1.561,0,0,1-.14-.211c-.052-.132-.127-.124-.243-.092-.8.226-1.6.474-2.413.658-.73.166-1.474.277-2.215.38A4.734,4.734,0,0,1,211.2,53.6a11.538,11.538,0,0,1-3.892-2.982,12.159,12.159,0,0,1-2.9-6.374,15.658,15.658,0,0,1,1.554-9.426c.01-.021.021-.041.032-.063l.009-.008c.2.377.42.753.615,1.139a8.336,8.336,0,0,0,4.119,3.846,24.932,24.932,0,0,0,3.484,1.246,21.9,21.9,0,0,1,3.137,1.127,5.806,5.806,0,0,1,3.156,3.4,6.049,6.049,0,0,1,.317,2.538,3.924,3.924,0,0,1-.215.833c-.2.652-.418,1.3-.637,1.982a8.552,8.552,0,0,0-4.669-3.3,15.762,15.762,0,0,1,6.181,8.114A12.541,12.541,0,0,1,226,50.054a6.48,6.48,0,0,0-3.559,2.214.252.252,0,0,1-.027-.05c-.157-.544-.351-1.079-.458-1.632a3.884,3.884,0,0,1,.173-1.941,4.531,4.531,0,0,1,2.484-2.774,19.2,19.2,0,0,1,2.862-1.013,12.9,12.9,0,0,0,3.3-1.413,5.876,5.876,0,0,0,1.8-1.76,8.1,8.1,0,0,0,.819-1.5c.008-.021.022-.04.052-.094.186.43.373.832.535,1.243a11.722,11.722,0,0,1,.847,4.829,9.748,9.748,0,0,1-4.393,8.048,9.967,9.967,0,0,1-1.248.662,3.652,3.652,0,0,1-1.964.281,21.251,21.251,0,0,1-3.267-.593c-.269-.066-.28-.074-.407.178-.235.467-.48.931-.679,1.415a10.654,10.654,0,0,0-.693,2.69h28.946v-.281c0-18.111-12.909-33.074-29.651-35.425C239.638,24.031,254.1,39.675,254.1,58.845Z" transform="translate(-183.043 -20.82)" fill="#fff"/>
    <rect id="Прямоугольник_17434" data-name="Прямоугольник 17434" width="72.069" height="0.995" transform="translate(0.416 40.545)" fill="#fff"/>
  </g>
</svg>
