<svg xmlns="http://www.w3.org/2000/svg" width="132.981" height="40.256" viewBox="0 0 132.981 40.256">
  <g id="Сгруппировать_7479" data-name="Сгруппировать 7479" transform="translate(0.375 0.375)">
    <path id="Контур_6169" data-name="Контур 6169" d="M161.811,54.723c-.256,0-.506.02-.756.038a2.047,2.047,0,0,1-1.941,2.753h0a3.037,3.037,0,0,1-3.035,2.991,2.994,2.994,0,0,1-.894-.149,1.644,1.644,0,0,1-2.636.81,9.728,9.728,0,0,0-.672,3.5,9.924,9.924,0,0,0,4.939,8.58c.941-1.737,2.553-2.514,3.935-2.04,1.238.425,1.887,1.667,1.837,3.36a9.934,9.934,0,0,0-.773-19.839Zm-7.993,11.241-.7.784a.119.119,0,0,1-.087.039.116.116,0,0,1-.087-.193l.7-.784a.117.117,0,0,1,.175.154Zm.471,3.441a.124.124,0,0,1-.06.016.114.114,0,0,1-.1-.058l-.232-.394a.116.116,0,1,1,.2-.118l.232.394A.117.117,0,0,1,154.289,69.405Zm1.019-5.388a.114.114,0,0,1-.086.039.116.116,0,0,1-.077-.029l-1.031-.911a.117.117,0,0,1,.154-.175l1.031.911A.117.117,0,0,1,155.309,64.017Zm.7,2.766a.115.115,0,0,1-.109.076.127.127,0,0,1-.041-.007.116.116,0,0,1-.068-.15l.346-.929a.116.116,0,0,1,.218.081Zm1.14,3.367a.117.117,0,0,1-.116.113h0a.116.116,0,0,1-.113-.119l.027-1.225a.116.116,0,1,1,.232.006ZM167.6,62l1.146-1.252a.116.116,0,1,1,.171.157l-1.146,1.252a.115.115,0,0,1-.086.037.117.117,0,0,1-.078-.03A.115.115,0,0,1,167.6,62Zm-2.491-4.555,1.361-.2a.115.115,0,0,1,.132.1.117.117,0,0,1-.1.132l-1.361.2-.016,0a.116.116,0,0,1-.017-.232Zm-.77,2.082a.115.115,0,0,1,.162-.027l.684.489a.116.116,0,0,1-.067.211.111.111,0,0,1-.067-.022l-.685-.489A.116.116,0,0,1,164.343,59.53Zm-1.64-2.779a.119.119,0,0,1,.148-.074.117.117,0,0,1,.074.147l-.4,1.225a.115.115,0,0,1-.111.08.1.1,0,0,1-.036-.007.115.115,0,0,1-.074-.146Zm-4.527,3.78.451-.065a.116.116,0,1,1,.033.23l-.451.065-.016,0a.116.116,0,0,1-.017-.232Zm4.6,9.316a.115.115,0,0,1-.115-.1.117.117,0,0,1,.1-.128l1.048-.106a.116.116,0,0,1,.023.232l-1.048.106Zm1.634,2.821-.687.857a.112.112,0,0,1-.09.044.121.121,0,0,1-.073-.025.117.117,0,0,1-.018-.164l.687-.857a.116.116,0,0,1,.181.145Zm-2.6-3.956a4.049,4.049,0,1,1,4.049-4.049A4.05,4.05,0,0,1,161.811,68.711Zm5.319-2.757L166,66.9a.116.116,0,0,1-.074.027.112.112,0,0,1-.088-.042.116.116,0,0,1,.014-.164l1.13-.943a.117.117,0,0,1,.164.015A.116.116,0,0,1,167.13,65.954Zm1.226,4.923a.118.118,0,0,1-.094.046.113.113,0,0,1-.069-.022l-.86-.628a.116.116,0,0,1,.138-.188l.86.628A.117.117,0,0,1,168.356,70.877Zm.713-1.981a.1.1,0,0,1-.033,0,.116.116,0,0,1-.112-.084L168.6,67.7a.118.118,0,0,1,.079-.145.12.12,0,0,1,.145.079l.326,1.113A.115.115,0,0,1,169.07,68.9Zm.664-3.864a.112.112,0,0,1-.051-.012l-.533-.261a.116.116,0,1,1,.1-.209l.534.262a.116.116,0,0,1-.051.22Z" transform="translate(-64.603 -49.187)" fill="#fff"/>
    <path id="Контур_6170" data-name="Контур 6170" d="M191.226,55.3h7.3L186.439,83.41H179.21l4.548-9.878L175.95,55.3h7.4L187.356,66.1Z" transform="translate(-66.293 -49.228)" fill="#fff" stroke="#fff" stroke-linecap="round" stroke-linejoin="round" stroke-width="0.75"/>
    <path id="Контур_6171" data-name="Контур 6171" d="M110.309,54.384a7.607,7.607,0,0,0-1.77-4.321.5.5,0,0,0-.7-.07l-.021.018-.561.52a.491.491,0,0,0-.03.693,5.511,5.511,0,0,1,1.716,3.262,9.875,9.875,0,1,0,1.364-.1Zm-.016,13.987a4.049,4.049,0,1,1,4.049-4.049A4.05,4.05,0,0,1,110.294,68.371Z" transform="translate(-60.986 -48.847)" fill="#fff" stroke="#fff" stroke-miterlimit="10" stroke-width="1"/>
    <path id="Контур_6172" data-name="Контур 6172" d="M116.65,50.518a12.788,12.788,0,0,0-3.282,2.191,4.216,4.216,0,0,0-1.04,1.477,4.683,4.683,0,0,0,4.033-.607c2.171-1.5,2.185-3.59,3.384-4.706-3.206-.178-4.953.089-6.355,1.4a4.36,4.36,0,0,0-1.49,3.064,7.887,7.887,0,0,1,.738-.846A10.421,10.421,0,0,1,116.65,50.518Z" transform="translate(-61.797 -48.773)" fill="#fff"/>
    <path id="Контур_6173" data-name="Контур 6173" d="M105.559,54.433a2.9,2.9,0,0,0,2.509-.309c-.14-.2-.38-1.693-1.286-2.163-1.054-.547-2.142-.416-4.027.225C103.657,52.653,104.013,53.9,105.559,54.433Z" transform="translate(-61.155 -48.969)" fill="#fff"/>
    <g id="Сгруппировать_7478" data-name="Сгруппировать 7478" transform="translate(0.236 23.406)">
      <g id="Сгруппировать_7477" data-name="Сгруппировать 7477">
        <path id="Контур_6174" data-name="Контур 6174" d="M64.332,82.612a.728.728,0,0,1,.088.39,1.081,1.081,0,0,1-.224.732,5.021,5.021,0,0,1-1.11,1.028,2.43,2.43,0,0,1-1.382.4q-2.409,0-2.409-3.389,0-.519.035-1.051h-.46a.665.665,0,0,1-.479-.13.587.587,0,0,1-.124-.414q0-.661.532-.661h.672a11.575,11.575,0,0,1,.615-2.374,5.384,5.384,0,0,1,1-1.713,1.7,1.7,0,0,1,1.258-.637.881.881,0,0,1,.779.437,1.981,1.981,0,0,1,.284,1.1,4.135,4.135,0,0,1-1.535,3.188h1.322a.373.373,0,0,1,.272.083.432.432,0,0,1,.083.307q0,.816-1.334.815h-1.44c-.016.393-.023.7-.023.921a3.671,3.671,0,0,0,.289,1.725.982.982,0,0,0,.915.5,1.409,1.409,0,0,0,.9-.307,7.126,7.126,0,0,0,.921-.921.411.411,0,0,1,.319-.166A.273.273,0,0,1,64.332,82.612Zm-2.7-6.242a6.367,6.367,0,0,0-.413,1.229,16.3,16.3,0,0,0-.324,1.742,4.034,4.034,0,0,0,1.045-1.353,3.287,3.287,0,0,0,.348-1.363q0-.7-.259-.7Q61.846,75.927,61.627,76.37Z" transform="translate(-58.268 -74.002)" fill="#fff"/>
        <path id="Контур_6175" data-name="Контур 6175" d="M64.129,84.992a2.122,2.122,0,0,1-.438-1.394,3.831,3.831,0,0,1,.438-1.789,3.727,3.727,0,0,1,1.163-1.358,2.625,2.625,0,0,1,1.541-.513.462.462,0,0,1,.349.1.862.862,0,0,1,.148.36,2.757,2.757,0,0,1,.52-.047c.385,0,.578.138.578.414a8.891,8.891,0,0,1-.178,1.181,11.422,11.422,0,0,0-.271,1.889.433.433,0,0,0,.088.284.287.287,0,0,0,.231.106.9.9,0,0,0,.543-.289A10.227,10.227,0,0,0,69.7,83a.41.41,0,0,1,.319-.165.275.275,0,0,1,.242.141.737.737,0,0,1,.088.39,1.086,1.086,0,0,1-.224.732A5.947,5.947,0,0,1,69.1,85.11a1.756,1.756,0,0,1-1.052.413,1.1,1.1,0,0,1-.714-.266,1.609,1.609,0,0,1-.49-.725,1.794,1.794,0,0,1-1.547.991A1.435,1.435,0,0,1,64.129,84.992Zm2.09-.969a1.991,1.991,0,0,0,.342-.815L67,81.036a1.427,1.427,0,0,0-.915.372,2.5,2.5,0,0,0-.668.95,3.2,3.2,0,0,0-.248,1.252.836.836,0,0,0,.148.543.5.5,0,0,0,.407.177A.646.646,0,0,0,66.219,84.024Z" transform="translate(-58.649 -74.363)" fill="#fff"/>
        <path id="Контур_6176" data-name="Контур 6176" d="M75.716,82.97a.728.728,0,0,1,.089.39,1.171,1.171,0,0,1-.225.732A3.965,3.965,0,0,1,74.2,85.226a4.053,4.053,0,0,1-1.848.413,3.67,3.67,0,0,1-1.394-.242,2.081,2.081,0,0,1-.9-.661,1.533,1.533,0,0,1-.312-.939,1.87,1.87,0,0,1,.626-1.383,6.84,6.84,0,0,1,1.8-1.157l-1.937.047a.424.424,0,0,1-.4-.183.8.8,0,0,1-.136-.466.931.931,0,0,1,.136-.5.418.418,0,0,1,.372-.218c.363,0,.846.028,1.453.082l.69.047c.335.024.616.035.844.035a2.006,2.006,0,0,0,.449-.094c.039-.007.116-.028.231-.06a1.164,1.164,0,0,1,.289-.047.379.379,0,0,1,.313.165.848.848,0,0,1,.124.509.9.9,0,0,1-.177.59,1.492,1.492,0,0,1-.555.377,8.826,8.826,0,0,0-1.783.987,1.411,1.411,0,0,0-.709,1.045.64.64,0,0,0,.308.543,1.6,1.6,0,0,0,.909.212,3.04,3.04,0,0,0,1.34-.33,3.613,3.613,0,0,0,1.223-1,.41.41,0,0,1,.319-.166A.273.273,0,0,1,75.716,82.97Z" transform="translate(-59.07 -74.36)" fill="#fff"/>
        <path id="Контур_6177" data-name="Контур 6177" d="M79.68,83.329a.728.728,0,0,1,.088.39,1.3,1.3,0,0,1-.2.732,2.31,2.31,0,0,1-.868.792,2.715,2.715,0,0,1-1.281.283,2.271,2.271,0,0,1-1.759-.679,2.6,2.6,0,0,1-.627-1.836,3.414,3.414,0,0,1,.343-1.518,2.808,2.808,0,0,1,.95-1.116,2.394,2.394,0,0,1,1.376-.413,1.414,1.414,0,0,1,1.512,1.512,1.91,1.91,0,0,1-.585,1.4,4.233,4.233,0,0,1-1.99.927.993.993,0,0,0,.957.543,1.334,1.334,0,0,0,.8-.224,3.89,3.89,0,0,0,.726-.756.406.406,0,0,1,.319-.177A.271.271,0,0,1,79.68,83.329Zm-2.917-1.7a2.368,2.368,0,0,0-.3,1.228v.024a2.688,2.688,0,0,0,1.1-.5.971.971,0,0,0,.4-.767.511.511,0,0,0-.124-.36.435.435,0,0,0-.337-.136A.866.866,0,0,0,76.763,81.628Z" transform="translate(-59.445 -74.365)" fill="#fff"/>
        <path id="Контур_6178" data-name="Контур 6178" d="M80.73,82.472a.76.76,0,0,1-.171-.531.629.629,0,0,1,.159-.472.725.725,0,0,1,.466-.177l2.421-.236a.527.527,0,0,1,.455.147.714.714,0,0,1,.16.5.617.617,0,0,1-.615.7l-2.421.237A.52.52,0,0,1,80.73,82.472Z" transform="translate(-59.833 -74.441)" fill="#fff"/>
        <path id="Контур_6179" data-name="Контур 6179" d="M91.059,82.975a.737.737,0,0,1,.088.39,1.086,1.086,0,0,1-.224.732,4.335,4.335,0,0,1-1.234.981,3.434,3.434,0,0,1-1.707.448,2.631,2.631,0,0,1-1.925-.672,2.469,2.469,0,0,1-.685-1.843,3.414,3.414,0,0,1,.343-1.518,2.808,2.808,0,0,1,.95-1.116,2.392,2.392,0,0,1,1.376-.413,1.5,1.5,0,0,1,1.1.407,1.482,1.482,0,0,1,.414,1.1,1.91,1.91,0,0,1-.585,1.4,4.226,4.226,0,0,1-1.979.927,1.161,1.161,0,0,0,1.122.543,2.581,2.581,0,0,0,1.211-.372A4.012,4.012,0,0,0,90.5,83a.41.41,0,0,1,.319-.165A.275.275,0,0,1,91.059,82.975ZM87.1,81.628a2.367,2.367,0,0,0-.3,1.228v.024a2.688,2.688,0,0,0,1.1-.5.971.971,0,0,0,.4-.767.511.511,0,0,0-.124-.36.435.435,0,0,0-.337-.136A.865.865,0,0,0,87.1,81.628Z" transform="translate(-60.171 -74.365)" fill="#fff"/>
        <path id="Контур_6180" data-name="Контур 6180" d="M97.629,82.552a.737.737,0,0,1,.088.39,1.086,1.086,0,0,1-.224.732,5.76,5.76,0,0,1-1.075,1.04,2.148,2.148,0,0,1-1.288.39,2.054,2.054,0,0,1-1.464-.519,1.8,1.8,0,0,1-.556-1.383.683.683,0,0,1,.473-.661,2.1,2.1,0,0,0,.743-.478.9.9,0,0,0,.225-.62.491.491,0,0,0-.088-.319.275.275,0,0,0-.219-.106,1.022,1.022,0,0,0-.7.46,5.229,5.229,0,0,0-.714,1.186,8.43,8.43,0,0,0-.52,1.5,1.857,1.857,0,0,1-.3.749.68.68,0,0,1-.537.2.593.593,0,0,1-.537-.266,1.923,1.923,0,0,1-.23-.821q-.06-.554-.06-1.629a20.432,20.432,0,0,1,.372-3.791,11.417,11.417,0,0,1,1.1-3.312q.727-1.34,1.742-1.342a1.039,1.039,0,0,1,.88.467,2.025,2.025,0,0,1,.337,1.211,5.171,5.171,0,0,1-.7,2.474,15.973,15.973,0,0,1-2.267,2.994c-.024.409-.035.831-.035,1.264a5.586,5.586,0,0,1,1.3-2.143,2.117,2.117,0,0,1,1.37-.668,1.217,1.217,0,0,1,.951.4,1.432,1.432,0,0,1,.36.992,2.253,2.253,0,0,1-.331,1.193,2.829,2.829,0,0,1-1.133.968.782.782,0,0,0,.289.514.9.9,0,0,0,.585.194,1.1,1.1,0,0,0,.709-.284,7.819,7.819,0,0,0,.9-.944.412.412,0,0,1,.32-.166A.275.275,0,0,1,97.629,82.552ZM93.135,75.72a10.377,10.377,0,0,0-.5,1.642,21.753,21.753,0,0,0-.4,2.249,8.489,8.489,0,0,0,1.212-1.877,4.4,4.4,0,0,0,.478-1.843,1.591,1.591,0,0,0-.083-.578c-.056-.134-.134-.2-.236-.2C93.466,75.112,93.308,75.314,93.135,75.72Z" transform="translate(-60.541 -73.942)" fill="#fff"/>
        <path id="Контур_6181" data-name="Контур 6181" d="M103.467,81.993a.811.811,0,0,1,.083.39c0,.379-.114.6-.343.674a5.377,5.377,0,0,1-1.557.284,2.946,2.946,0,0,1-.887,1.588,2.179,2.179,0,0,1-1.5.6,2.1,2.1,0,0,1-1.211-.342,2.171,2.171,0,0,1-.762-.909,2.919,2.919,0,0,1-.26-1.228,3.6,3.6,0,0,1,.343-1.6,2.693,2.693,0,0,1,.945-1.1,2.377,2.377,0,0,1,1.334-.4,1.845,1.845,0,0,1,1.448.62,2.668,2.668,0,0,1,.642,1.53,7.164,7.164,0,0,0,1.322-.236.7.7,0,0,1,.165-.024A.258.258,0,0,1,103.467,81.993Zm-3.454,1.973a1.707,1.707,0,0,0,.372-.886,1.631,1.631,0,0,1-.561-.65,1.926,1.926,0,0,1-.194-.85,2,2,0,0,1,.036-.377h-.06a.924.924,0,0,0-.785.455,2.234,2.234,0,0,0-.313,1.281,1.644,1.644,0,0,0,.254.991.732.732,0,0,0,.6.343A.856.856,0,0,0,100.013,83.966Z" transform="translate(-60.989 -74.364)" fill="#fff"/>
        <path id="Контур_6182" data-name="Контур 6182" d="M103.158,85.054a4.535,4.535,0,0,1-.183-1.512,9.592,9.592,0,0,1,.438-2.917.883.883,0,0,1,.348-.5,1.231,1.231,0,0,1,.679-.16.673.673,0,0,1,.331.059.244.244,0,0,1,.094.225,4.508,4.508,0,0,1-.177.851c-.079.314-.141.589-.189.826a8.465,8.465,0,0,0-.118.875,6.726,6.726,0,0,1,.873-1.654,3.451,3.451,0,0,1,.951-.909,1.736,1.736,0,0,1,.856-.272.679.679,0,0,1,.768.768,9.587,9.587,0,0,1-.259,1.664,8.113,8.113,0,0,0-.225,1.358c0,.315.113.472.342.472a.923.923,0,0,0,.561-.289,9.507,9.507,0,0,0,.868-.938.41.41,0,0,1,.319-.165.273.273,0,0,1,.242.141.728.728,0,0,1,.089.39,1.086,1.086,0,0,1-.224.732,5.253,5.253,0,0,1-1.093,1.028,2.293,2.293,0,0,1-1.33.4,1.144,1.144,0,0,1-.908-.349,1.475,1.475,0,0,1-.308-1.01,7.326,7.326,0,0,1,.166-1.18,6.121,6.121,0,0,0,.153-1.028c0-.125-.044-.189-.129-.189-.1,0-.246.132-.431.4a6.273,6.273,0,0,0-.567,1.045,8.083,8.083,0,0,0-.467,1.371,1.817,1.817,0,0,1-.3.748.676.676,0,0,1-.536.2A.645.645,0,0,1,103.158,85.054Z" transform="translate(-61.407 -74.365)" fill="#fff"/>
        <path id="Контур_6183" data-name="Контур 6183" d="M115.5,81.993a.811.811,0,0,1,.084.39c0,.379-.114.6-.343.674a5.39,5.39,0,0,1-1.558.284,2.951,2.951,0,0,1-.886,1.588,2.183,2.183,0,0,1-1.5.6,2.1,2.1,0,0,1-1.21-.342,2.18,2.18,0,0,1-.762-.909,2.933,2.933,0,0,1-.259-1.228,3.615,3.615,0,0,1,.342-1.6,2.694,2.694,0,0,1,.946-1.1,2.375,2.375,0,0,1,1.334-.4,1.841,1.841,0,0,1,1.447.62,2.657,2.657,0,0,1,.643,1.53,7.177,7.177,0,0,0,1.322-.236.7.7,0,0,1,.165-.024A.259.259,0,0,1,115.5,81.993Zm-3.454,1.973a1.715,1.715,0,0,0,.373-.886,1.626,1.626,0,0,1-.562-.65,1.913,1.913,0,0,1-.194-.85,2.075,2.075,0,0,1,.035-.377h-.059a.927.927,0,0,0-.786.455,2.234,2.234,0,0,0-.313,1.281,1.644,1.644,0,0,0,.254.991.731.731,0,0,0,.6.343A.855.855,0,0,0,112.041,83.966Z" transform="translate(-61.834 -74.364)" fill="#fff"/>
        <path id="Контур_6184" data-name="Контур 6184" d="M115.187,85.054A4.506,4.506,0,0,1,115,83.542a9.621,9.621,0,0,1,.438-2.917.883.883,0,0,1,.348-.5,1.233,1.233,0,0,1,.68-.16.666.666,0,0,1,.33.059.245.245,0,0,1,.095.225,4.54,4.54,0,0,1-.178.851c-.079.314-.141.588-.189.82a8.175,8.175,0,0,0-.118.868,6.41,6.41,0,0,1,.762-1.559,3.6,3.6,0,0,1,.909-.95,1.6,1.6,0,0,1,.88-.313.762.762,0,0,1,.585.189.841.841,0,0,1,.172.579,7.542,7.542,0,0,1-.224,1.37c-.064.283-.107.5-.13.638a5.82,5.82,0,0,1,1.31-2.113,2.075,2.075,0,0,1,1.346-.662.679.679,0,0,1,.768.768,9.431,9.431,0,0,1-.26,1.664,8.179,8.179,0,0,0-.224,1.358q0,.473.342.472a.927.927,0,0,0,.562-.289,9.637,9.637,0,0,0,.868-.938.411.411,0,0,1,.319-.165.275.275,0,0,1,.243.141.737.737,0,0,1,.088.39,1.081,1.081,0,0,1-.225.732,5.25,5.25,0,0,1-1.092,1.028,2.291,2.291,0,0,1-1.329.4,1.151,1.151,0,0,1-.91-.349,1.485,1.485,0,0,1-.307-1.01,7.438,7.438,0,0,1,.166-1.18,6.119,6.119,0,0,0,.153-1.028c0-.125-.043-.189-.13-.189s-.247.132-.436.4a5.714,5.714,0,0,0-.567,1.045,8.5,8.5,0,0,0-.46,1.371,1.81,1.81,0,0,1-.3.755.706.706,0,0,1-.55.189.626.626,0,0,1-.585-.372,1.934,1.934,0,0,1-.194-.9,10.153,10.153,0,0,1,.118-1.3q.095-.756.095-.993c0-.125-.044-.189-.13-.189-.118,0-.268.142-.448.425a6.034,6.034,0,0,0-.526,1.087,10.461,10.461,0,0,0-.407,1.3,1.83,1.83,0,0,1-.3.748.68.68,0,0,1-.537.2A.644.644,0,0,1,115.187,85.054Z" transform="translate(-62.251 -74.365)" fill="#fff"/>
        <path id="Контур_6185" data-name="Контур 6185" d="M124.764,84.784a2.634,2.634,0,0,1-.349-1.44,8.734,8.734,0,0,1,.136-1.364,12.546,12.546,0,0,1,.349-1.553,1,1,0,0,1,.284-.521.911.911,0,0,1,.566-.141q.6,0,.6.4a9.279,9.279,0,0,1-.225,1.37,10.222,10.222,0,0,0-.283,1.76,1.255,1.255,0,0,0,.094.543.329.329,0,0,0,.319.189.887.887,0,0,0,.531-.3,10.126,10.126,0,0,0,.851-.932.411.411,0,0,1,.319-.165.275.275,0,0,1,.243.141.737.737,0,0,1,.088.39,1.082,1.082,0,0,1-.225.732,3.114,3.114,0,0,1-2.184,1.429A1.225,1.225,0,0,1,124.764,84.784Zm.467-6.029a.834.834,0,0,1-.248-.643.872.872,0,0,1,.325-.691,1.2,1.2,0,0,1,.809-.277,1.119,1.119,0,0,1,.709.212.719.719,0,0,1,.271.6.957.957,0,0,1-.308.749,1.165,1.165,0,0,1-.814.278A1.057,1.057,0,0,1,125.23,78.755Z" transform="translate(-62.912 -74.167)" fill="#fff"/>
        <path id="Контур_6186" data-name="Контур 6186" d="M133.061,84.347a.68.68,0,0,1-.266.524,1.129,1.129,0,0,1-.761.231,1.9,1.9,0,0,1-1.388-.525,1.838,1.838,0,0,1-.536-1.376.683.683,0,0,1,.472-.661,2.124,2.124,0,0,0,.744-.478.9.9,0,0,0,.224-.62.491.491,0,0,0-.088-.319.275.275,0,0,0-.218-.106,1.022,1.022,0,0,0-.7.46,5.262,5.262,0,0,0-.715,1.186,8.578,8.578,0,0,0-.519,1.5,1.843,1.843,0,0,1-.3.749.676.676,0,0,1-.536.2.592.592,0,0,1-.537-.266,1.935,1.935,0,0,1-.231-.821q-.059-.554-.06-1.629a20.434,20.434,0,0,1,.373-3.791,11.361,11.361,0,0,1,1.1-3.312q.725-1.34,1.742-1.342a1.039,1.039,0,0,1,.88.467,2.025,2.025,0,0,1,.337,1.211,5.17,5.17,0,0,1-.7,2.474,15.972,15.972,0,0,1-2.267,2.994c-.024.409-.035.831-.035,1.264a5.586,5.586,0,0,1,1.3-2.143,2.117,2.117,0,0,1,1.37-.668,1.212,1.212,0,0,1,.95.4,1.428,1.428,0,0,1,.361.992,2.252,2.252,0,0,1-.33,1.193,2.839,2.839,0,0,1-1.134.968.7.7,0,0,0,.289.49,2.195,2.195,0,0,0,.7.231A.512.512,0,0,1,133.061,84.347Zm-2.929-8.628a10.28,10.28,0,0,0-.5,1.642,22,22,0,0,0-.4,2.249,8.417,8.417,0,0,0,1.211-1.877,4.386,4.386,0,0,0,.479-1.843,1.571,1.571,0,0,0-.083-.578c-.056-.134-.135-.2-.236-.2C130.463,75.112,130.3,75.314,130.132,75.72Z" transform="translate(-63.138 -73.942)" fill="#fff"/>
        <path id="Контур_6187" data-name="Контур 6187" d="M134.708,82.472a.76.76,0,0,1-.172-.531.629.629,0,0,1,.16-.472.726.726,0,0,1,.467-.177l2.42-.236a.53.53,0,0,1,.456.147.714.714,0,0,1,.159.5.616.616,0,0,1-.615.7l-2.42.237A.523.523,0,0,1,134.708,82.472Z" transform="translate(-63.622 -74.441)" fill="#fff"/>
        <path id="Контур_6188" data-name="Контур 6188" d="M145.038,82.975a.737.737,0,0,1,.088.39,1.082,1.082,0,0,1-.225.732,4.322,4.322,0,0,1-1.234.981,3.428,3.428,0,0,1-1.706.448,2.629,2.629,0,0,1-1.925-.672,2.469,2.469,0,0,1-.685-1.843,3.426,3.426,0,0,1,.342-1.518,2.823,2.823,0,0,1,.95-1.116,2.4,2.4,0,0,1,1.377-.413,1.5,1.5,0,0,1,1.1.407,1.478,1.478,0,0,1,.414,1.1,1.909,1.909,0,0,1-.584,1.4,4.23,4.23,0,0,1-1.979.927,1.161,1.161,0,0,0,1.122.543,2.584,2.584,0,0,0,1.211-.372A4,4,0,0,0,144.476,83a.411.411,0,0,1,.319-.165A.275.275,0,0,1,145.038,82.975Zm-3.956-1.346a2.359,2.359,0,0,0-.3,1.228v.024a2.684,2.684,0,0,0,1.1-.5.972.972,0,0,0,.4-.767.512.512,0,0,0-.125-.36.434.434,0,0,0-.337-.136A.865.865,0,0,0,141.081,81.628Z" transform="translate(-63.96 -74.365)" fill="#fff"/>
        <path id="Контур_6189" data-name="Контур 6189" d="M151.607,82.552a.737.737,0,0,1,.088.39,1.086,1.086,0,0,1-.224.732,5.705,5.705,0,0,1-1.075,1.04,2.147,2.147,0,0,1-1.287.39,2.058,2.058,0,0,1-1.464-.519,1.8,1.8,0,0,1-.555-1.383.683.683,0,0,1,.472-.661,2.115,2.115,0,0,0,.744-.478.9.9,0,0,0,.224-.62.485.485,0,0,0-.088-.319.274.274,0,0,0-.219-.106,1.026,1.026,0,0,0-.7.46,5.264,5.264,0,0,0-.714,1.186,8.58,8.58,0,0,0-.52,1.5,1.845,1.845,0,0,1-.3.749.681.681,0,0,1-.537.2.592.592,0,0,1-.537-.266,1.934,1.934,0,0,1-.231-.821q-.059-.554-.059-1.629a20.511,20.511,0,0,1,.372-3.791,11.388,11.388,0,0,1,1.1-3.312q.727-1.34,1.741-1.342a1.038,1.038,0,0,1,.88.467,2.019,2.019,0,0,1,.338,1.211,5.171,5.171,0,0,1-.7,2.474,15.983,15.983,0,0,1-2.268,2.994c-.023.409-.035.831-.035,1.264a5.575,5.575,0,0,1,1.3-2.143,2.113,2.113,0,0,1,1.369-.668,1.215,1.215,0,0,1,.951.4,1.427,1.427,0,0,1,.36.992,2.252,2.252,0,0,1-.33,1.193,2.833,2.833,0,0,1-1.134.968.783.783,0,0,0,.29.514.9.9,0,0,0,.585.194,1.1,1.1,0,0,0,.708-.284,7.737,7.737,0,0,0,.9-.944.411.411,0,0,1,.319-.166A.275.275,0,0,1,151.607,82.552Zm-4.493-6.832a10.183,10.183,0,0,0-.5,1.642,21.738,21.738,0,0,0-.4,2.249,8.451,8.451,0,0,0,1.211-1.877,4.4,4.4,0,0,0,.478-1.843,1.571,1.571,0,0,0-.083-.578c-.055-.134-.134-.2-.235-.2C147.444,75.112,147.286,75.314,147.114,75.72Z" transform="translate(-64.33 -73.942)" fill="#fff"/>
        <path id="Контур_6190" data-name="Контур 6190" d="M157.446,81.993a.822.822,0,0,1,.083.39c0,.379-.114.6-.343.674a5.377,5.377,0,0,1-1.557.284,2.953,2.953,0,0,1-.887,1.588,2.179,2.179,0,0,1-1.5.6,2.1,2.1,0,0,1-1.211-.342,2.185,2.185,0,0,1-.762-.909,2.933,2.933,0,0,1-.259-1.228,3.616,3.616,0,0,1,.342-1.6,2.694,2.694,0,0,1,.946-1.1,2.375,2.375,0,0,1,1.334-.4,1.842,1.842,0,0,1,1.447.62,2.663,2.663,0,0,1,.643,1.53,7.191,7.191,0,0,0,1.322-.236.7.7,0,0,1,.166-.024A.259.259,0,0,1,157.446,81.993Zm-3.454,1.973a1.707,1.707,0,0,0,.372-.886,1.616,1.616,0,0,1-.561-.65,1.913,1.913,0,0,1-.194-.85,2,2,0,0,1,.035-.377h-.059a.924.924,0,0,0-.785.455,2.234,2.234,0,0,0-.313,1.281,1.637,1.637,0,0,0,.254.991.73.73,0,0,0,.6.343A.857.857,0,0,0,153.992,83.966Z" transform="translate(-64.779 -74.364)" fill="#fff"/>
        <path id="Контур_6191" data-name="Контур 6191" d="M161.653,82.552a.737.737,0,0,1,.089.39,1.082,1.082,0,0,1-.225.732,5.1,5.1,0,0,1-1.1,1.028,2.367,2.367,0,0,1-1.353.4,1.641,1.641,0,0,1-1.541-.944,5.188,5.188,0,0,1-.5-2.445,16.764,16.764,0,0,1,.372-3.282,11.105,11.105,0,0,1,1.1-3.166q.725-1.322,1.729-1.323a1,1,0,0,1,.892.526,2.889,2.889,0,0,1,.325,1.505,8.617,8.617,0,0,1-.78,3.26,18.062,18.062,0,0,1-2.114,3.673,1.369,1.369,0,0,0,.271.691.639.639,0,0,0,.5.206,1.367,1.367,0,0,0,.851-.277,6.461,6.461,0,0,0,.933-.95.413.413,0,0,1,.32-.166A.274.274,0,0,1,161.653,82.552Zm-2.308-6.46a16.011,16.011,0,0,0-.6,2.433,17.639,17.639,0,0,0-.284,2.787,15.17,15.17,0,0,0,1.335-2.769,7.605,7.605,0,0,0,.5-2.534q0-.9-.33-.9C159.777,75.112,159.573,75.439,159.345,76.092Z" transform="translate(-65.2 -73.942)" fill="#fff"/>
        <path id="Контур_6192" data-name="Контур 6192" d="M167.314,81.993a.822.822,0,0,1,.084.39c0,.379-.114.6-.343.674a5.389,5.389,0,0,1-1.558.284,2.951,2.951,0,0,1-.886,1.588,2.183,2.183,0,0,1-1.5.6,2.1,2.1,0,0,1-1.21-.342,2.18,2.18,0,0,1-.762-.909,2.933,2.933,0,0,1-.259-1.228,3.616,3.616,0,0,1,.342-1.6,2.7,2.7,0,0,1,.946-1.1,2.375,2.375,0,0,1,1.334-.4,1.842,1.842,0,0,1,1.447.62,2.663,2.663,0,0,1,.643,1.53,7.191,7.191,0,0,0,1.322-.236.7.7,0,0,1,.165-.024A.259.259,0,0,1,167.314,81.993Zm-3.454,1.973a1.707,1.707,0,0,0,.372-.886,1.623,1.623,0,0,1-.561-.65,1.913,1.913,0,0,1-.194-.85,2.078,2.078,0,0,1,.035-.377h-.059a.925.925,0,0,0-.785.455,2.234,2.234,0,0,0-.313,1.281,1.644,1.644,0,0,0,.254.991.73.73,0,0,0,.6.343A.857.857,0,0,0,163.86,83.966Z" transform="translate(-65.471 -74.364)" fill="#fff"/>
        <path id="Контур_6193" data-name="Контур 6193" d="M170.184,82.806a.714.714,0,0,1,.088.373.9.9,0,0,1-.083.425.77.77,0,0,1-.259.272q-.827.543-2.208,1.5a14.172,14.172,0,0,1-1.194,3.861,2.147,2.147,0,0,1-1.865,1.406,1.337,1.337,0,0,1-.986-.372,1.316,1.316,0,0,1-.371-.974,3.208,3.208,0,0,1,.649-1.789,11.838,11.838,0,0,1,2.444-2.344l.083-.6q.166-1.134.259-2.232.071-.639.224-1.9a.718.718,0,0,1,.26-.5,1.084,1.084,0,0,1,.65-.16.716.716,0,0,1,.467.106.39.39,0,0,1,.112.3,29.435,29.435,0,0,1-.39,3l-.118.814q.946-.709,1.724-1.227a.525.525,0,0,1,.271-.095A.271.271,0,0,1,170.184,82.806ZM165.466,88.8a9.124,9.124,0,0,0,.684-2.244,6.661,6.661,0,0,0-1.292,1.387,2.106,2.106,0,0,0-.4,1.093c0,.307.111.46.33.46S165.221,89.264,165.466,88.8Zm1.606-10.045a.834.834,0,0,1-.248-.643.875.875,0,0,1,.325-.691,1.2,1.2,0,0,1,.81-.277,1.115,1.115,0,0,1,.708.212.717.717,0,0,1,.272.6.957.957,0,0,1-.308.749,1.166,1.166,0,0,1-.814.278A1.061,1.061,0,0,1,167.072,78.755Z" transform="translate(-65.642 -74.167)" fill="#fff"/>
        <path id="Контур_6194" data-name="Контур 6194" d="M170.22,84.784a2.634,2.634,0,0,1-.349-1.44,8.752,8.752,0,0,1,.137-1.364,12.21,12.21,0,0,1,.349-1.553,1,1,0,0,1,.283-.521.912.912,0,0,1,.567-.141q.6,0,.6.4a9.229,9.229,0,0,1-.224,1.37,10.256,10.256,0,0,0-.284,1.76,1.239,1.239,0,0,0,.095.543.328.328,0,0,0,.319.189.889.889,0,0,0,.531-.3,10.258,10.258,0,0,0,.851-.932.41.41,0,0,1,.319-.165.273.273,0,0,1,.242.141.728.728,0,0,1,.088.39,1.082,1.082,0,0,1-.224.732,3.113,3.113,0,0,1-2.185,1.429A1.226,1.226,0,0,1,170.22,84.784Zm.467-6.029a.834.834,0,0,1-.248-.643.875.875,0,0,1,.324-.691,1.2,1.2,0,0,1,.809-.277,1.12,1.12,0,0,1,.709.212.721.721,0,0,1,.271.6.957.957,0,0,1-.308.749,1.168,1.168,0,0,1-.814.278A1.059,1.059,0,0,1,170.686,78.755Z" transform="translate(-66.103 -74.167)" fill="#fff"/>
        <path id="Контур_6195" data-name="Контур 6195" d="M178.518,84.347a.68.68,0,0,1-.266.524,1.129,1.129,0,0,1-.762.231,1.9,1.9,0,0,1-1.388-.525,1.838,1.838,0,0,1-.537-1.376.683.683,0,0,1,.472-.661,2.124,2.124,0,0,0,.744-.478.9.9,0,0,0,.224-.62.485.485,0,0,0-.088-.319.275.275,0,0,0-.218-.106,1.022,1.022,0,0,0-.7.46,5.262,5.262,0,0,0-.715,1.186,8.574,8.574,0,0,0-.519,1.5,1.83,1.83,0,0,1-.3.749.68.68,0,0,1-.537.2.593.593,0,0,1-.537-.266,1.935,1.935,0,0,1-.231-.821q-.059-.554-.059-1.629a20.429,20.429,0,0,1,.372-3.791,11.36,11.36,0,0,1,1.1-3.312q.725-1.34,1.742-1.342a1.039,1.039,0,0,1,.88.467,2.025,2.025,0,0,1,.337,1.211,5.171,5.171,0,0,1-.7,2.474,15.975,15.975,0,0,1-2.267,2.994c-.024.409-.035.831-.035,1.264a5.586,5.586,0,0,1,1.3-2.143,2.117,2.117,0,0,1,1.37-.668,1.212,1.212,0,0,1,.95.4,1.428,1.428,0,0,1,.361.992,2.252,2.252,0,0,1-.33,1.193,2.839,2.839,0,0,1-1.134.968.7.7,0,0,0,.289.49,2.2,2.2,0,0,0,.7.231A.512.512,0,0,1,178.518,84.347Zm-2.929-8.628a10.282,10.282,0,0,0-.5,1.642,21.764,21.764,0,0,0-.4,2.249,8.415,8.415,0,0,0,1.21-1.877,4.387,4.387,0,0,0,.479-1.843,1.571,1.571,0,0,0-.083-.578c-.056-.134-.134-.2-.236-.2C175.92,75.112,175.762,75.314,175.589,75.72Z" transform="translate(-66.329 -73.942)" fill="#fff"/>
      </g>
    </g>
    <path id="Контур_6196" data-name="Контур 6196" d="M73.322,55.376v-5.33H58.014V73.977h1.01c.925-1.8,2.617-2.815,4.059-2.321a2.915,2.915,0,0,1,1.769,2.321h8.47v-5.33H64.667V64.337H72.3V59.279H64.667v-3.9Z" transform="translate(-58.014 -48.859)" fill="#fff" stroke="#fff" stroke-linecap="round" stroke-linejoin="round" stroke-width="0.75"/>
    <path id="Контур_6197" data-name="Контур 6197" d="M134.4,50.046h-9.47V73.977H125a2.932,2.932,0,0,1,2.066-.067c.806-2.235,2.741-3.594,4.364-3.037a3.074,3.074,0,0,1,1.891,3.1H134.4c7.637,0,12.492-5.057,12.492-11.982C146.89,54.968,142.035,50.046,134.4,50.046Zm-.509,18.06h-2.308V55.817h2.308c3.836,0,6.246,2.206,6.246,6.178C140.136,65.933,137.726,68.106,133.889,68.106Z" transform="translate(-62.711 -48.859)" fill="#fff" stroke="#fff" stroke-linecap="round" stroke-linejoin="round" stroke-width="0.75"/>
    <path id="Контур_6198" data-name="Контур 6198" d="M93.749,70.788l.2.068a3.065,3.065,0,0,1,1.742,3.032h2.7l-7.637-9.47,7.5-9.573H90.273l-5.262,7.468V48.769H78.359V73.888h6.653V66.08l4.7,6.981C90.646,71.291,92.32,70.3,93.749,70.788Z" transform="translate(-59.442 -48.769)" fill="#fff" stroke="#fff" stroke-linecap="round" stroke-linejoin="round" stroke-width="0.75"/>
  </g>
</svg>
