<svg xmlns="http://www.w3.org/2000/svg" width="40.578" height="61.364" viewBox="0 0 40.578 61.364">
  <g id="Сгруппировать_7515" data-name="Сгруппировать 7515" transform="translate(0)">
    <path id="Контур_6217" data-name="Контур 6217" d="M87.914,557.4c0,2-1.976,3.619-4.124,3.619a3.916,3.916,0,0,1-4.153-3.619c0-3.415,3.566-3.509,3.566-6.181l0-3.977c-.028-2.633-3.509-2.577-3.509-6.194,0-2,1.977-3.62,4.122-3.62a3.915,3.915,0,0,1,4.154,3.62c0,3.415-3.624,3.542-3.624,6.218v3.945c.017,2.642,3.566,2.569,3.566,6.19m8.931-9.451c4.253-4.03,6.264-8.733,4.838-12.685-2.383-6.6-13.428-8.6-24.676-4.474a31.615,31.615,0,0,0-12.568,8.129,13.16,13.16,0,0,1,4.858,5.993,14.115,14.115,0,0,1-5.055,17.245,27.19,27.19,0,0,0,16.566,7.827c10.9,1.127,22.779-2.886,23.91-10.124.715-4.535-2.36-8.617-7.872-11.911" transform="translate(-64.241 -528.644)" fill="#fff"/>
    <path id="Контур_6218" data-name="Контур 6218" d="M74.337,573.475h-4.62a1.044,1.044,0,0,0-1.026,1.01.982.982,0,0,0,.973,1.007h4.574c1.8,0,2.41,1.572,2.376,3.519,0,.091,0,.5,0,.618,0,2.16-1.486,3.025-2.213,3.025a1.006,1.006,0,0,0-.306,1.968l.359.046c.209,0,.439-.046.671-.069a6.021,6.021,0,0,0,4.978-5.759c.064-3.048-1.355-5.365-5.766-5.365" transform="translate(-64.014 -526.356)" fill="#fff"/>
    <path id="Контур_6219" data-name="Контур 6219" d="M72.633,585.451c0,2.806-3.444,2.844-3.444.037l.021-7.1a1.833,1.833,0,0,1,1.725-2.047c1.421,0,1.7,1.409,1.7,2.149,0,0-.015,6.965,0,6.965" transform="translate(-63.989 -526.21)" fill="#fff"/>
    <path id="Контур_6220" data-name="Контур 6220" d="M96.9,582.553h-.647a.478.478,0,0,1-.537-.509c0-.662,1.854-1.673,1.854-3.922s-1.686-4.655-5.744-4.655H89.183a1.036,1.036,0,0,0-1.022,1.01.975.975,0,0,0,.969,1.006h2.593c1.806,0,2.412,1.571,2.377,3.519-.055,1.807-.763,3.237-2,3.518,0,0-.48.025-.528.025l-.017.008H89.011a1.019,1.019,0,0,0,0,2.029H96.9a1.019,1.019,0,0,0,0-2.029" transform="translate(-63.024 -526.356)" fill="#fff"/>
    <path id="Контур_6221" data-name="Контур 6221" d="M86.511,573.467H84.247v-.014H81.138c-.812,0-1.223.335-1.2.885.041,1.28,2.615.926,2.615,3.2v5.73c0,1.861,2.906,1.964,3.258.317a1.722,1.722,0,0,0,.061-.456c0-.163,0-2.087.009-4.022,0-1.523-.517-1.66-.517-2.62,0-1.073,1.207-1,1.207-1a1.006,1.006,0,0,0,.991-1.008,1.04,1.04,0,0,0-1.046-1.008" transform="translate(-63.44 -526.357)" fill="#fff"/>
  </g>
</svg>
