<svg xmlns="http://www.w3.org/2000/svg" width="12" height="12" viewBox="0 0 12 12">
  <g id="Сгруппировать_13162" data-name="Сгруппировать 13162" transform="translate(-1493 -1719)">
    <g id="Сгруппировать_13163" data-name="Сгруппировать 13163" transform="translate(1493 1719)">
      <path id="Контур_10219" data-name="Контур 10219" d="M209.766,238.812v-3.236h.214a.214.214,0,0,0,.215-.215V234.5a.214.214,0,0,0-.215-.215h-.214v-3.236a1.071,1.071,0,1,0-1.264-1.264h-3.236v-.214a.214.214,0,0,0-.214-.215h-.857a.214.214,0,0,0-.214.215v.214h-3.236a1.071,1.071,0,1,0-1.264,1.264v3.236h-.214a.214.214,0,0,0-.214.215v.857a.214.214,0,0,0,.214.215h.214v3.236a1.071,1.071,0,1,0,1.264,1.264h3.236v.214a.214.214,0,0,0,.214.214h.857a.214.214,0,0,0,.214-.214v-.214H208.5a1.071,1.071,0,1,0,1.264-1.264Zm0-3.665h-.429v-.428h.429Zm-.214-5.786a.643.643,0,1,1-.643.643A.643.643,0,0,1,209.552,229.362Zm-5.143.429h.428v.429h-.428Zm-5.357.214a.643.643,0,1,1,.643.643A.643.643,0,0,1,199.052,230Zm.429,4.714h.429v.428h-.429Zm.214,5.786a.643.643,0,1,1,.643-.643A.642.642,0,0,1,199.695,240.5Zm5.143-.428h-.428v-.429h.428Zm.214-.857h-.857a.214.214,0,0,0-.214.215v.214h-3.236a1.074,1.074,0,0,0-.836-.836v-3.236h.214a.214.214,0,0,0,.214-.215V234.5a.214.214,0,0,0-.214-.215h-.214v-3.236a1.075,1.075,0,0,0,.836-.836h3.236v.214a.214.214,0,0,0,.214.214h.857a.214.214,0,0,0,.214-.214v-.214H208.5a1.076,1.076,0,0,0,.835.836v3.236h-.214a.214.214,0,0,0-.215.215v.857a.214.214,0,0,0,.215.215h.214v3.236a1.075,1.075,0,0,0-.835.836h-3.236v-.214A.214.214,0,0,0,205.052,239.219Zm4.5,1.286a.643.643,0,1,1,.643-.643A.643.643,0,0,1,209.552,240.5Zm-3.214-2.357V237.5a.215.215,0,0,0-.118-.192l-.739-.369v-3.725h1.412l.366.366a.216.216,0,0,0,.151.063h.429a.214.214,0,0,0,.214-.215v-1.714a.214.214,0,0,0-.214-.214h-6.428a.214.214,0,0,0-.215.214v1.714a.214.214,0,0,0,.215.215h.429a.215.215,0,0,0,.151-.063l.366-.366h1.412v3.725l-.739.369a.214.214,0,0,0-.118.192v.643a.214.214,0,0,0,.214.214h3A.214.214,0,0,0,206.338,238.147Z" transform="translate(-198.623 -228.933)" fill="#33e08e"/>
    </g>
  </g>
</svg>
