<svg xmlns="http://www.w3.org/2000/svg" xmlns:xlink="http://www.w3.org/1999/xlink" width="39.6" height="39.599" viewBox="0 0 39.6 39.599">
  <defs>
    <clipPath id="clip-path">
      <path id="Контур_10963" data-name="Контур 10963" d="M0,0H39.6V39.6H0Z" fill="#fff"/>
    </clipPath>
  </defs>
  <g id="wordpress-blue" clip-path="url(#clip-path)">
    <path id="Контур_10958" data-name="Контур 10958" d="M187.493,40.189h-6.87v.729c2.149,0,2.495.461,2.495,3.185v4.913c0,2.725-.345,3.224-2.495,3.224-1.65-.23-2.763-1.113-4.3-2.8l-1.765-1.919c2.379-.423,3.646-1.919,3.646-3.608,0-2.11-1.8-3.723-5.181-3.723h-6.755v.729c2.149,0,2.495.461,2.495,3.185v4.913c0,2.725-.345,3.224-2.495,3.224v.729h7.638v-.729c-2.149,0-2.495-.5-2.495-3.224V47.636h.653l4.261,5.334h11.169c5.488,0,7.869-2.917,7.869-6.41S192.982,40.189,187.493,40.189Zm-16.082,6.255v-5.1h1.573a2.553,2.553,0,0,1,0,5.1Zm16.2,5.335h-.269c-1.381,0-1.573-.345-1.573-2.11V41.341h1.842c3.992,0,4.72,2.917,4.72,5.181C192.329,48.863,191.6,51.78,187.608,51.78ZM144.89,47.865l2.648-7.83c.768-2.264.423-2.916-2.034-2.916v-.768h7.216v.768c-2.418,0-2.994.575-3.953,3.377l-4.376,13.126h-.5l-3.915-12.013-3.991,12.013h-.5L131.226,40.5c-.921-2.8-1.535-3.377-3.762-3.377v-.768h8.521v.768c-2.265,0-2.879.537-2.073,2.916l2.571,7.83,3.876-11.514h.73l3.8,11.514Zm13.049,5.6c-4.222,0-7.676-3.108-7.676-6.909,0-3.761,3.454-6.87,7.676-6.87s7.676,3.109,7.676,6.87C165.615,50.36,162.161,53.468,157.939,53.468Zm0-12.588c-3.531,0-4.76,3.185-4.76,5.68,0,2.534,1.229,5.68,4.76,5.68,3.57,0,4.8-3.147,4.8-5.68C162.737,44.065,161.509,40.88,157.939,40.88Z" transform="translate(-86.266 -24.603)" fill="#fff"/>
    <path id="Контур_10959" data-name="Контур 10959" d="M348.459,52.2v.768H339.67V52.2c2.572,0,3.032-.653,3.032-4.491V41.57c0-3.839-.461-4.452-3.032-4.452V36.35h7.945c3.953,0,6.142,2.034,6.142,4.76,0,2.648-2.188,4.721-6.142,4.721h-2.188v1.88C345.427,51.549,345.887,52.2,348.459,52.2Zm-.845-14.47h-2.188V44.41h2.188a3,3,0,0,0,3.147-3.3C350.762,39.267,349.765,37.732,347.615,37.732Zm32.509,11.63-.192.691c-.345,1.267-.768,1.727-3.493,1.727H375.9c-2,0-2.341-.461-2.341-3.185V46.829c2.994,0,3.224.268,3.224,2.264h.729V43.374h-.729c0,2-.23,2.264-3.224,2.264v-4.3h2.111c2.726,0,3.147.461,3.493,1.727l.193.729h.613l-.268-3.607H368.417v.729c2.149,0,2.495.461,2.495,3.185v4.913c0,2.493-.293,3.121-1.988,3.211-1.611-.246-2.716-1.124-4.229-2.789l-1.766-1.919c2.38-.423,3.646-1.919,3.646-3.608,0-2.11-1.8-3.723-5.181-3.723h-6.755v.729c2.149,0,2.495.461,2.495,3.185v4.913c0,2.725-.345,3.224-2.495,3.224v.729h7.638V52.24c-2.149,0-2.495-.5-2.495-3.224V47.635h.653l4.26,5.334H380.47l.23-3.607h-.577Zm-20.342-2.917v-5.1h1.573a2.553,2.553,0,0,1,0,5.1Zm28.133,7.024a5.675,5.675,0,0,1-3.454-1.305,2.754,2.754,0,0,0-.614,1.305h-.729v-5.3h.768a4.259,4.259,0,0,0,4.337,4.03,1.976,1.976,0,0,0,2.226-1.842c0-1-.882-1.766-2.456-2.495L385.8,46.829a4.176,4.176,0,0,1-2.687-3.685c0-1.842,1.727-3.416,4.107-3.416a4.807,4.807,0,0,1,2.994,1,2.168,2.168,0,0,0,.5-1.037h.729v4.529h-.806c-.269-1.8-1.267-3.3-3.3-3.3-1.075,0-2.073.614-2.073,1.574,0,1,.806,1.535,2.648,2.379l2.111,1.036a4,4,0,0,1,2.571,3.455c0,2.417-2.111,4.106-4.682,4.106Zm11.821,0a5.673,5.673,0,0,1-3.454-1.305,2.755,2.755,0,0,0-.613,1.305h-.729v-5.3h.768a4.259,4.259,0,0,0,4.337,4.03,1.976,1.976,0,0,0,2.226-1.842c0-1-.883-1.766-2.457-2.495l-2.188-1.036a4.177,4.177,0,0,1-2.687-3.685c0-1.842,1.727-3.416,4.107-3.416a4.808,4.808,0,0,1,2.994,1,2.165,2.165,0,0,0,.5-1.037h.729v4.529h-.806c-.269-1.8-1.267-3.3-3.3-3.3-1.075,0-2.073.614-2.073,1.574,0,1,.806,1.535,2.649,2.379l2.111,1.036a4,4,0,0,1,2.571,3.455c0,2.417-2.111,4.106-4.682,4.106Z" transform="translate(-229.885 -24.602)" fill="#fff"/>
    <g id="Сгруппировать_13380" data-name="Сгруппировать 13380" transform="translate(0 0)">
      <path id="Контур_10960" data-name="Контур 10960" d="M8.708,25.692a16.989,16.989,0,0,0,9.573,15.287l-8.1-22.2a16.92,16.92,0,0,0-1.471,6.912Zm28.453-.857a8.942,8.942,0,0,0-1.4-4.684c-.861-1.4-1.668-2.584-1.668-3.983a2.941,2.941,0,0,1,2.852-3.015c.075,0,.147.009.22.014a16.983,16.983,0,0,0-25.663,3.2c.4.012.774.02,1.093.02,1.777,0,4.527-.216,4.527-.216a.7.7,0,0,1,.109,1.4s-.921.108-1.944.162l6.186,18.4L25.19,24.979l-2.647-7.25c-.915-.054-1.781-.162-1.781-.162a.7.7,0,0,1,.107-1.4s2.805.216,4.474.216c1.776,0,4.527-.216,4.527-.216a.7.7,0,0,1,.109,1.4s-.922.108-1.944.162l6.138,18.258,1.694-5.661a20.508,20.508,0,0,0,1.293-5.491Z" transform="translate(-5.893 -5.894)" fill="#fff"/>
      <path id="Контур_10961" data-name="Контур 10961" d="M51.512,45.681l-5.1,14.808a16.991,16.991,0,0,0,10.439-.271,1.439,1.439,0,0,1-.121-.234Zm14.607-9.635a13.035,13.035,0,0,1,.114,1.747,16.021,16.021,0,0,1-1.292,6.084l-5.189,15a16.987,16.987,0,0,0,6.366-22.831Z" transform="translate(-31.414 -24.396)" fill="#fff"/>
      <path id="Контур_10962" data-name="Контур 10962" d="M19.8,0A19.8,19.8,0,1,0,39.6,19.8,19.822,19.822,0,0,0,19.8,0Zm0,38.691A18.891,18.891,0,1,1,38.692,19.8,18.914,18.914,0,0,1,19.8,38.691Z" transform="translate(0 0)" fill="#fff"/>
    </g>
  </g>
</svg>
